/* XPM */
static char *result[] = {
/* columns rows colors chars-per-pixel */
"64 64 61 1 ",
"  c #7FAB5F",
". c #6E9B6D",
"X c #739C6C",
"o c #7C9D6C",
"O c #6B9572",
"+ c #6E9870",
"@ c #729771",
"# c #739970",
"$ c #76A565",
"% c #7CA464",
"& c #7BA962",
"* c #73A169",
"= c #7DA169",
"- c #97B84F",
"; c #9BB94E",
": c #8EAF57",
"> c #83AD5D",
", c #8BAE5B",
"< c #92AE5D",
"1 c #99AD5E",
"2 c #8EB256",
"3 c #87B05A",
"4 c #8AB059",
"5 c #94B553",
"6 c #9AB653",
"7 c #97B850",
"8 c #9BB850",
"9 c #94B25A",
"0 c #9CB25B",
"q c #A0B94F",
"w c #A3B755",
"e c #A9B757",
"r c #A3B951",
"t c #ABB954",
"y c #A4B45C",
"u c #ACB55B",
"i c #AEB858",
"p c #B3BA56",
"a c #BABB57",
"s c #B3B65D",
"d c #B9B75D",
"f c #B5B959",
"g c #BCBA5A",
"h c #829E6C",
"j c #83A563",
"k c #8AA566",
"l c #83AB61",
"z c #8BAC61",
"x c #85A169",
"c c #8BA369",
"v c #95A767",
"b c #93AC61",
"n c #9BAA64",
"m c #92A569",
"M c #97B060",
"N c #A4AE63",
"B c #A8AF62",
"V c #A6B160",
"C c #ACB161",
"Z c #B1B360",
"A c #C0BA5B",
/* pixels */
"rpga05> &$&$$+.& &X&4;taAe5,>&$&$$XO$ >X*,7epgp94> &&$&*+*&>$X&5",
"tfAt;;5>&&$XoxOxkmmo0tpga;;7,&&$XXx#ockno<ttagr8;4 &$$+=oOcxnxjr",
"r;tft;;-5zkcZgNZgdAspt;rpp8;;5,zxBACCAdgast;rptr;;72<cngZNggAgZp",
"grprqq;;8rtfgtapppfAgAtttqr8;qrtpatpatftAAgpttrrq;6rrugppappiaAg",
"pppw966-;;;;r8r;;;rttttpt696-;;;;r;q;;;8tptpii6966-;;;r8;q;;;tpt",
";;: &&  9tgt85247;7;;;;5>&  &,tfpr5547;;;;;;;,>&& >0paw5742;;7;;",
"523574>4,0ty935457 >455>4-5>4,<ey94444;>>445:>7->4,:yi62423-2 34",
"5-5>2,6wk>>j>>3&3>>4,257,,,:r<%,j>>>>>3>2>35-:,::80j>jj>3> 4 44>",
"9<vncvuguhcNb<,4,&>597<<NvvnasnoNbn,,4 >4579<vvvvsgVobn0,44,&227",
"wyf0ysy<zVyrpft;7,9yyyyfyMuuMzn0qppp8;49yyy0is1uuVz<Nwtppr;5,0yy",
"rq;55, $&&&>4297;;qqqtq;752l&&&&>4447;8;qqtq;;52,&&&& 42,9;;;;rr",
"ppe754:45 >:0ys8;;;qpppp8524,7> 400se;;;qtapiq-53354&,90uu;;;;tf",
";qt;;;;;;-7yy0Miww95;;wr8;;;;;870eyMutw69;;;rr;;;-;;79yyMyi88988",
",4-;;;;;;5,453&ll> &>3458;;;8;74454&lll&& >:26-;;;;-2,52&&zzl&&l",
";-;;;:jj:%z7tt4954,59;-;;;5j%:jj2rp93744496-;;;5,j,>j,;te3724497",
"5,o ohunhBCyggs8;tipa6:j%jXNNcnsyfggw;rtpat5>o>omZccZCiAgy;;tpaf",
"hkVhCNgdggpggsgarttt0jhNvnNsgsgpagsgatrrtrlxvnvVNgdgapgssAtrttr9",
"dipaty1l9r89z&epr;rtusstgpyyzze;9<&0ptrrtsCsepaeyblyq79l4fp;;tpB",
"r;;0,&&&&43&4>47;rtrtt;;89  &&34&>>>7;;trttr886l&&$>4  4z4;;trrp",
";;5: 7444&>37;7787>7;;;62 4534  35;--6;>2;;;89>,544> 34;77;;44;;",
"8tpttt6772577;7 >&&>7-rftut07724;7;-3l>&>576ppeiw-754-77;4 >&&4-",
"6pggu9>>&&&> j$&&&$&>5eagf0,>  &  >$%&&$$>4raAfy2> && l&&&& &$ ,",
"pagp784>$$&..@OojjhX6tfAa8-5>&$&*X#OXjjhX,rpagr67>&$&&.#OOhjhX&6",
"rrppt;-5,l$oNscCCZdNurrtat;;54llXvZvnZCgNutqtatr875,&XxZBmsBgsNi",
"p8etq;;;rwusgpgaagaAgarwtrq;;;ewuAaaaagfgAai8trr;;;rwugafgagpgAg",
"aparwwq;;;;rt;tqq8tgfafatrrq;;;;ri;rw8rqaafafprrr;;;;8tr;t;;qpgp",
"q;6,& >>6rpr8775;;;;;qq;4 &>>5rptr6;5;;;q;;qr5> >,48ttr-;75;;;q;",
";2 ,5>&>,yau9,445;44557>>4:l ,0pu6>444;4>77;4 44>&l9ugy,>:,-7>55",
"25556576>:9,344>44>> 35-57756,>9,4323>5 >&>47558489>92,,24>5>>>&",
"75zcjhydNoovj,&>> 495;9,khxzfscXvjz  > >75772kxxktdv#xkz>  > 557",
"10suBssynVVtspy85l,9001ssVZsu0Vntspu;->,90y0NsVZZs1ynepsur;4l910",
"rrw42<l&&l,47968-6wrrrqr7:9zj$&z47908;-0rtrqq0294l&%z35669;70rrr",
"ftq;5>>,4&&>49y8;;;;tapr;54>>2 $ ,4V6;;;;tppt;-2>>4>&&>2My;;;;rp",
"qtt;;;5;825esuutqq6;tqtt;-;-7;550uuupe88;qtqpt----;-59tuuste;7rt",
"55-;;-;;;7439l&bb, >>225;;;;;;6245,&z<<z >425-;;;;;;5,9:&z,4,&>3",
":5;;;5,,5,,7r8>34> >:25;;;6:>7:l7;w4>43 >322-;;;:>55>:;r9>43> 34",
";5>:>onhovn0agy6;;etfw-:,:%vc=cNbiAi9;;rtpt;:,:jkvohnnyga0;;8etp",
"jhmovvgguggdggAirtppw,omocmCAZggagggprrppt<jhcovNAssgagagatrpppw",
"Bufdpfubyiqw0zfat;;t1NBiffss0Mprwyzugpr;eynCudfpsV<utqu<Mgfr8rtb",
"iq;i9&l$>74>>&9;;rttaaq;iw>&$&55>ll38;;ttpat;rt,&&&,7>  l6;;ttta",
";;5, ,>> & >552-;;9;;;;54l34&>&& 272;;;77;6;-4> 4>>&&>>-55;;65;;",
";rt66r6;-457-;;,23&4;;;tw6w87;2577;;4,4&>7;;tu6wq7;5477;;5>:  7;",
";iAaf04:> >,34>&&&$&,5tggay24>  4344&&$&&>4wagas92>> >444 &$$&&>",
"tfAf653 &$&$*OO&l%X$4rpggr92>&&$$*.OX&>XX>;page72,&$&&*XO.&>=X 6",
"rtapr;7,>&$XcnovnNCcyttaar;;4>&&.hNhxnnsm1ttpat;823 &XXvvonvCnmt",
"t;epr8;;60nNAgsgggAgatr;ttr;;060nggddAAgAapr;ttr;;86ynuAdsAgagAp",
"gpfrrr;;;qrtsqprtrtAggpptrrq;q;rtprttrtrgAgappqrr;;qqtptrprtrfAg",
"trw5,z55;;tq;;;;;;qtrrrt02,45-;e88;q6;;;rrqttw9,455;qq;;;6;;;rrr",
";53 > &&2ugi644,7;55-;7: >>&&,ygpy24:4;72;;;2>>>&&&0ggu2443;-2;-",
"2525;545,9w92:5345&>>3544;-4744895444>7  >>:54;;2523669445354&> ",
"-6,jjj6ivX%j&l&&> 452575jjj:tno=xjl>  >>-45-5>jjleux*jj&l &>&552",
"<bNuNCZsunnsCy954&,256bnZNBuguVcuCu957 >:56<nBNNNgsCmVCC0974&459",
"wtu99y<l&<08ree869wuerwi0,y9z&z97rtu;;50yuewtw,00b&l998etw;99eee",
"pw;;7>  &$&&4,97;;;;rpr;;72>&>&&&>><7;6;;qptq;65>&> &&,345;;;;8t",
"rpt;554-8348epst;;;qptpp87545;439etstw;;;tptfr5525;239eesfr8;;tp",
"-6;;;;;;;82M0zz000:,577;8;6;;;;599Mz0y09447-6;;;;;;;7399lMV69325",
",:7;;;96;2,769 >>&& >>:5;;;65;722-9> >&&&&,45-;;656729753&3&&&&>",
";;565lk=jxz9ta95;696rq;655,ch%hc2tay5;776wr;77;:jh%=cz8ai9;8758e",
":%hXoxgCnggiAAaw;tppp<>hoooBfnCgsggAt;epaa0,ooohvgNNgssgAf8rpfgi",
"vnsNfssVsfepsMgatqrt0kvsBusssugttfMdAtr;qwkvVsNfssuaptfyCgfr;rtz",
"atqa8<z&4853l&6tq;tpsatrfi:z&&883,&9tr;rtfdaqtp9bl&5;2,&3er;rtps",
";;79l>&&&  &2247;qr;rr;75:&>&&&>&>5>5;8r8qr;;59&>&&&>& 532;;rr;t",
";66548555,257;8554&5;;;w749;553452;;747l4;;;r6:2;57,352;;7553 8;",
"6pgifu755>475;2&&&&>47tgppp0-544-577>&&&&45wappfy774355583$&&&35"
};
