/* XPM */
static char *result[] = {
/* columns rows colors chars-per-pixel */
"64 64 205 2 ",
"   c #171D2F",
".  c #1C2437",
"X  c #26293A",
"o  c #2B3236",
"O  c #2F3E3B",
"+  c #36393A",
"@  c #323C3A",
"#  c #2F413F",
"$  c #3B483A",
"%  c #454D3D",
"&  c #44533D",
"*  c #4D593D",
"=  c #576A3E",
"-  c #1F2F45",
";  c #252C43",
":  c #28364B",
">  c #3E3A41",
",  c #393D48",
"<  c #2C3955",
"1  c #323D5F",
"2  c #323E60",
"3  c #433E44",
"4  c #374747",
"5  c #3F564C",
"6  c #2F4751",
"7  c #2B4359",
"8  c #33585E",
"9  c #2D4B64",
"0  c #364667",
"q  c #2D586A",
"w  c #3C4B70",
"e  c #2F5E71",
"r  c #3D5577",
"t  c #36646C",
"y  c #346978",
"u  c #3C7074",
"i  c #3C747B",
"p  c #494545",
"a  c #4C4548",
"s  c #544A4B",
"d  c #594F4D",
"f  c #475A46",
"g  c #5A524D",
"h  c #565A48",
"j  c #44525A",
"k  c #5A5A50",
"l  c #645654",
"z  c #645B51",
"x  c #695A55",
"c  c #715F59",
"v  c #4E624A",
"b  c #556A43",
"n  c #5A7348",
"m  c #5F7C4C",
"M  c #496658",
"N  c #557557",
"B  c #5B7C52",
"V  c #65644A",
"C  c #697C44",
"Z  c #727C47",
"A  c #696257",
"S  c #79695C",
"D  c #647956",
"F  c #475069",
"G  c #405479",
"H  c #407B7D",
"J  c #7F6960",
"K  c #797367",
"L  c #82735E",
"P  c #846D62",
"I  c #897363",
"U  c #927769",
"Y  c #967A6A",
"T  c #997D6C",
"R  c #6C8244",
"E  c #63824E",
"W  c #6B864A",
"Q  c #758547",
"!  c #758D45",
"~  c #7B974B",
"^  c #678854",
"/  c #778559",
"(  c #6C955B",
")  c #759959",
"_  c #7AA25B",
"`  c #7FAB5F",
"'  c #5F866E",
"]  c #6E926E",
"[  c #6E9B6E",
"{  c #739D6C",
"}  c #7C9D6C",
"|  c #6C9671",
" . c #6E9870",
".. c #739871",
"X. c #76A565",
"o. c #7BA366",
"O. c #7CA464",
"+. c #7BA962",
"@. c #73A169",
"#. c #8A8B4C",
"$. c #839E49",
"%. c #8A9B4C",
"&. c #8C9655",
"*. c #969C58",
"=. c #89A44C",
"-. c #93A94C",
";. c #96B54E",
":. c #9BB94E",
">. c #83A356",
",. c #8DAE54",
"<. c #83AD5D",
"1. c #8BAE5C",
"2. c #97A856",
"3. c #92AE5D",
"4. c #8EB256",
"5. c #87B15D",
"6. c #8AB059",
"7. c #94B553",
"8. c #9AB653",
"9. c #97B852",
"0. c #9BB850",
"q. c #94B25A",
"w. c #9CB25B",
"e. c #A0B94F",
"r. c #A9A956",
"t. c #A3B755",
"y. c #AAB555",
"u. c #A3B951",
"i. c #ABB954",
"p. c #A4B45C",
"a. c #ABB65B",
"s. c #AEB858",
"d. c #B7B657",
"f. c #B3BA56",
"g. c #B3B65D",
"h. c #B9B75D",
"j. c #B5B959",
"k. c #BCBA5A",
"l. c #9F866F",
"z. c #829F6C",
"x. c #8B8C73",
"c. c #959573",
"v. c #A58C6F",
"b. c #A98C72",
"n. c #A69475",
"m. c #B39675",
"M. c #B89B78",
"N. c #83A563",
"B. c #8AA566",
"V. c #83AB61",
"C. c #8BAC61",
"Z. c #84A169",
"A. c #8BA369",
"S. c #95A767",
"D. c #93AC61",
"F. c #9BAA64",
"G. c #92A569",
"H. c #97A96D",
"J. c #97B060",
"K. c #A4AE63",
"L. c #A8AF62",
"P. c #A6B061",
"I. c #ACB161",
"U. c #B2B460",
"Y. c #BCB960",
"T. c #BFA07A",
"R. c #C0BA5B",
"E. c #C3B961",
"W. c #C7A87D",
"Q. c #3E6A86",
"!. c #3D748B",
"~. c #3A7D8E",
"^. c #3E7E94",
"/. c #407183",
"(. c #3F8497",
"). c #3E8799",
"_. c #408795",
"`. c #408999",
"'. c #4A969B",
"]. c #4B9BA2",
"[. c #55AAA7",
"{. c #59B2AD",
"}. c #A09E80",
"|. c #B1AC92",
" X c #B2ADA4",
".X c #CAB88B",
"XX c #D2B382",
"oX c #D7BA88",
"OX c #DABE8B",
"+X c #DFC48F",
"@X c #DDC592",
"#X c #DAC796",
"$X c #E1C996",
"%X c #C4C2B9",
"&X c #EBDBA6",
"*X c #EAD9A8",
"=X c #E2D9BC",
"-X c #F0E3AF",
";X c #EFE1B4",
":X c #F3E7BC",
">X c #DAD6C3",
",X c #F5EBC7",
"<X c #F6EED5",
"1X c #FAF5E4",
"2X c #FDFBF3",
/* pixels */
"u.f.k.k.8.q.1.` +.+.+.X.X.[ [ +.<.O.{ X.4.:.i.k.k.y.q.4.<.+.+.+.X.X.{ | X.` ` @.@.<.8.u.j.k.f.q.q.<.` +.+.X.X.@.| @.+.<.X.{ <.4.",
"i.j.R.i.:.:.4.<.+.+.X.[ } Z.| Z.B.G.G.} t.u.f.k.k.:.:.7.1.+.X.+.[ [ A...} A.B.F.z.1.i.f.k.k.u.:.9.4.` X.+.X. .Z.}  .B.Z.F.z.N.u.",
"u.:.i.f.i.:.:.9.4.3.B.A.U.k.K.U.h.k.R.j.f.i.0.u.f.i.:.:.:.7.3.C.Z.I.k.I.U.k.h.k.k.g.i.u.u.f.f.u.:.:.;.4.3.Z.F.k.U.K.R.k.R.k.U.f.",
"k.u.f.u.e.e.:.:.0.u.i.j.k.i.k.f.f.f.f.k.k.R.i.i.i.u.e.:.:.e.u.y.f.k.i.f.j.f.f.i.R.R.k.f.u.i.u.e.e.:.:.u.e.g.k.f.i.k.i.j.i.k.R.k.",
"f.f.f.t.q.8.;.9.:.:.:.:.u.:.u.:.:.:.e.f.u.i.f.f.u.w.q.8.;.8.:.:.:.u.:.e.:.:.:.:.i.f.u.f.f.f.8.w.8.8.9.:.:.e.u.:.:.e.:.:.0.u.f.i.",
":.:.,.<.+.+.` ` q.i.k.i.8.7.4.6.9.:.9.:.:.:.:.7.<.<.` ` ` 1.t.j.f.u.7.4.1.7.:.:.;.:.:.:.9.<.` +.+.+.<.8.f.k.u.7.7.4.4.:.:.8.:.:.",
"7.4.6.4.9.4.<.1.1.8.i.p.q.6.4.4.4.9.<.<.4.q.7.1.6.:.7.<.4.<.q.s.p.q.4.4.4.4.:.<.` 4.4.7.4.<.7.;.6.4.<.1.p.s.8.1.6.7.6.7.4.+.4.6.",
"7.9.7.<.4.1.8.t.B.N.<.N.` <.<.` 6.<.<.4.<.4.7.7.1.1.1.4.u.3.O.1.N.<.` <.` <.6.<.4.5.6.7.;.4.1.3.1.0.w.N.<.N.N.<.6.` +.6.<.4.6.<.",
"q.3.F.F.A.F.p.k.g.Z.Z.P.D.D.6.6.6.+.6.4.q.9.1.D.F.G.F.F.k.g.S.} K.F.w.1.6.4.+.V.4.7.9.q.3.F.S.S.S.h.k.L.} F.F.F.1.6.6.<.+.4.q.9.",
"p.p.f.w.p.a.I.3.C.K.p.u.f.j.i.:.9.1.q.p.p.t.p.j.a.w.a.p.w.V.w.w.u.i.j.a.0.:.4.3.p.p.p.w.a.s.w.p.a.P.V.3.w.u.i.f.f.u.:.7.1.w.p.p.",
"u.e.:.8.q.6.` +.+.+.` <.4.4.q.9.:.:.e.e.u.i.u.e.9.7.4.V.O.+.` ` <.4.6.6.7.:.9.:.e.e.i.e.:.:.7.4.5.+.+.+.+.+.6.6.1.q.:.:.e.e.e.u.",
"f.f.u.7.7.6.1.4.4.` <.4.w.p.g.0.:.:.:.e.f.f.f.i.9.7.4.6.4.q.<.` 6.q.p.g.i.:.:.:.:.i.k.j.f.e.7.7.6.6.7.4.+.1.q.8.a.a.:.:.:.:.u.j.",
":.e.u.:.:.:.:.:.:.:.7.w.p.w.w.a.y.u.7.q.0.:.e.u.0.:.:.:.:.e.:.:.w.a.K.J.a.i.t.8.7.:.0.:.u.u.:.:.9.:.:.:.7.q.p.p.J.p.a.t.0.7.8.8.",
"1.4.7.:.:.:.:.:.:.7.4.4.7.<.+.V.V.V.+.+.<.1.4.7.:.:.:.;.! C R m E 4.4.+.+.V.V.+.+.` <.4.q.8.:.:.:.:.:.:.7.1.7.4.<.+.<.V.V.+.+.V.",
"8.8.:.:.;.1.N.N.1.N.N.8.u.s.6.q.7.4.6.q.q.8.8.;.:.:.$.& 8 t u u 6 * -.q.6.9.4.6.4.7.7.7.:.0.:.7.1.Z.<.<.N.1.0.i.t.<.7.7.4.6.q.9.",
"7.1.o.>.N.} I.F.Z.L.U.p.k.R.f.0.:.u.i.f.k.0.,.N.` { f i '.8 [.{.'.6 $ r.t.0.u.i.f.k.i.7.>.o.V.} G.L.A.G.U.I.s.R.k.a.:.:.i.f.k.f.",
"Z.A.L.A.L.K.h.k.k.k.f.k.k.g.E.f.u.u.u.i.8.Z.z.L.F.D 8 {.~.H {.'.~.!.; #.R.u.u.u.u.u.N.Z.F.F.A.I.L.k.h.h.k.f.k.f.g.R.f.e.u.u.i.3.",
"h.s.i.k.i.p.F.V.q.u.8.q.<.H.XXh.u.:.u.f.a.U.j.i.k.h y {.'.[.[.`.q !.9 Q k.i.e.u.f.g.I.k.y.j.k.i.p.3.V.t.e.7.q.V.C.f.i.e.e.i.h.p.",
"e.:.8.t.6.+.+.+.` 6.<.+.6.W  X#Xt.e.i.u.f.i.:.8.0.v '.{.[.{.[.).e e : m 9.:.:.i.u.u.i.e.9.9.8.<.+.+.O.<.6.` ` 6.<.4.:.:.u.i.e.f.",
":.:.7.6.` 4.4.4.6.` <.6.9.R  X1Xc.;.<.;.:.:.;.8.4.f y {.[.{.[.(.9 q # =.9.:.9.6.q.:.:.:.:.q.<.5.7.6.6.<.` 6.6.:.9.8.9.:.q.,.:.:.",
"0.u.k.u.i.t.8.9.7.6.7.9.0.C c.<X>XH.+.5.;.9.u.f.f.%.4 i ).]._.q < 7 C 9.<.V.<.+.<.7.7.:.f.f.i.s.t.9.9.7.4.;.9.:.:.4.+.<.+.+.4.9.",
"0.f.R.k.s.q.5.<.+.+.+.<.V.^ x.@X,Xx.( O.<.7.i.k.k.j.C O : < : : 2 . E O.O.+.+.X.X.<.4.u.j.R.j.t.4.<.` +.+.+.V.+.+.+.+.` X.X.` <.",
"f.k.R.f.:.9.4.` +.+.+.{ { ] j m.$X}.M { 8.i.j.k.j.0.~ @ K j ; F K A : ' { N.Z.z.{ 1.u.j.k.k.u.9.7.6.+.+.+.X.[ { | ] N.Z.z.{ +.t.",
"u.u.f.j.u.:.9.7.5.+.o.} K.U.Z A oX.Xk 2.a.u.e.f.j.r.$ o x.%X X=X>XK 3 5 F.U.a.R.L.p.u.u.i.j.f.u.:.9.4.<.V.{ A.I.L.G.U.L.h.g.p.y.",
"f.:.u.i.u.:.:.:.u.t.a.g.R.j.d.V M.n.c.#.k.k.e.e.i.Q a T l.|.=X,X#XM.J + *.k.k.d.R.k.k.i.e.u.u.u.:.:.:.i.y.p.k.k.j.k.k.k.j.k.R.k.",
"k.f.k.u.u.t.0.:.:.:.:.u.u.:.i.C K n.|.V r.r.f.k.i.% S T.+X:X,X,X*XXXb.s o Z e.e.j.k.j.k.j.j.t.u.u.:.:.0.:.u.u.u.0.i.:.0.:.f.k.j.",
"e.0.8.1.+.` 6.<.9.i.f.u.:.9.7.=.h b.K A $ M R :.~ 3 v.W.+X:X2X1X*XoXM.S > S = -.0.0.:.:.e.9.<.+.` 6.6.9.i.i.u.:.8.7.7.:.:.:.:.:.",
";.7.<.<.7.<.+.<.6.p.j.a.q.5.6.5.n L h L 4 t 6 ) f 3 v.W.$X*X1X<X-X@XM.U + z L & R ;.9.:.4.` 6.4.` ` <.q.g.j.p.4.1.4.6.;.7.6.7.9.",
"7.7.7.7.;.7.7.8.<.1.q.1.1.4.4.6.n > x a 4 y i ! & l b.oX;X1X2X1X-X+XW.T o s I U x v ^ =.7.7.7.9.4.0.q.<.q.1.1.<.4.6.<.4.<.` <.` ",
"9.q.B.B.Z.N.w.k.K.} } S.N.<.<.( 6 o , : y e j >.4 l m.oX&X:X:X;X&X$XW.T > x T I A K x.k W B.B.Z.Z.i.h.S.{ B.B.C.V.` <.<.` 7.7.9.",
"3.K.g.a.I.g.g.P.F.P.p.i.j.g.u.~ o - 7 1 j l > *.* 3 m.XX*X1X1X*X$XOXW.b.3 x T U P g S k Z Y.P.a.g.g.w.p.F.a.s.h.a.u.:.4.V.1.q.8.",
"e.e.u.q.6.3.V.+.+.V.<.q.7.w.w.:.& . X g W.m.3 ~ = s T m.$X,X2X,X&XOXW.T 3 S T T T P A g Z 8.4.q.C.V.O.O.V.6.7.8.q.8.:.7.8.t.i.i.",
"k.i.e.9.7.6.` 1.4.+.+.<.5.w.p.:.=.C $ A n.x o =.%.+ S b.XX$X*X*X+Xm.M.l + I Y Y U U I d C e.9.7.<.` 4.5.+.` <.1.w.w.:.:.:.:.u.f.",
"e.i.i.:.9.;.;.:.9.7.q.t.f.a.a.i.e.:.=.* o . X #.e.= X S m.@X$X$XW.P 3 ; ; c Y Y T U b.g Q i.9.9.9.;.:.;.7.q.a.s.a.f.i.u.0.9.u.i.",
"4.7.9.:.:.:.:.:.:.;.4.<.q.V.+.D.4.1.V.<.^ $ @ ~ e.= . ; a g s g p ; : w < 3 Y Y T I L g C :.:.:.:.:.:.:.7.1.6.4.+.V.D.1.1.` <.6.",
"4.;.:.:.:.7.1.,.7.<.1.9.u.8.<.6.6.<.` <.6.4.,.8.-.@ 0 r 9 1 9 < 2 w G G < X I Y T P d p C :.:.:.,.1.7.4.<.q.0.u.8.V.4.<.` ` <.4.",
":.7.V.4.<.z.F.z.} S.F.8.k.k.p.8.:.0.i.i.f.e.;.1.>., w (.(.^.(.^././.Q.Q.1 . P T T P s p ~ 1.4.N.B.S.z.Z.F.S.t.k.k.w.:.:.u.i.i.f.",
">.Z.G.} G.S.h.k.g.k.k.h.k.k.k.i.u.i.f.f.t.B.N.G.Z.v : Q.).).).).`./.Q.G < % s U P + , ^ A.z.z.S.F.R.g.g.k.k.k.k.k.k.u.u.i.f.f.w.",
"L.p.j.g.f.g.a.3.p.f.t.u.w.C.f.k.i.:.0.i.w.K.I.j.k.*.O : Q.~.(.(.)./.G 1 + -.Z 3 3 p &.I.I.k.g.f.g.p.D.a.u.0.a.D.w.k.k.e.:.e.i.F.",
"f.u.0.f.q.V.+.X.<.7.q.+.` ` q.:.:.u.f.u.j.j.u.0.i.8.$   . 6 6 : : < ; + ! e.e.Z $ *.k.u.9.i.i.1.<.+.+.6.8.6.` ` V.8.e.:.u.f.u.k.",
":.;.q.6.` 6.<.<.<.+.` <.7.7.4.:.:.:.7.9.:.:.:.7.4._ O . b ^ ^ n f   X ! 9.9.0.q.,.:.:.:.8.q.<.<.4.` <.+.` ` <.9.7.4.:.:.8.7.:.:.",
":.u.i.0.w.u.:.9.9.4.7.9.9.:.9.1.4.<.+.4.:.:.0.i.u.-.b   = ! E W b   $ ! ~ _ 4.+.6.9.:.:.u.u.8.8.e.9.:.7.4.9.;.:.:.9.<.4.` ` 7.:.",
"8.f.R.k.j.w.4.6.<.+.<.6.6.4.<.+.O.+.O.+.<.7.i.k.k.*.% O f E m E b # $ n E B ) +.+.<.4.t.k.k.k.g.q.6.<.` ` <.1.6.4.` X.O.O.+.` <.",
"f.f.R.f.8.4.6.` X.+.X.X.@.| | X.<.O.{ @.7.u.f.k.k.=.W R E B B B B N N M N E ) { [ 1.0.i.k.k.i.8.7.<.+.+.+.+.X.{ | [ +.<.X.{ ` 7.",
"u.i.k.f.u.:.7.4.<.O.X.{ A.K.} S.F.K.I.A.p.i.u.k.j.t.=.~ W E B B N N Z D / S.F.U.G.w.i.u.f.R.u.u.:.7.<.+.O.@.{ S.G.} K.F.I.F.G.i.",
"f.:.u.i.u.:.:.:.0.w.F.K.h.k.U.k.k.R.k.R.j.f.:.u.i.i.e.:.7.-.=.2.G.r.d.d.h.E.R.R.k.k.f.u.:.i.i.u.:.:.:.8.p.F.I.R.h.U.k.R.k.R.R.f.",
"k.f.j.i.u.u.0.:.u.:.u.i.f.u.f.u.u.u.i.R.k.R.f.f.i.i.e.e.:.e.u.e.i.k.e.i.i.u.u.u.k.k.k.k.f.f.u.u.u.:.:.e.u.u.f.s.u.f.u.u.e.k.k.k.",
"u.e.u.q.1.6.q.7.:.e.u.e.:.:.u.;.:.:.u.u.u.u.i.u.8.4.1.q.4.8.:.u.t.:.:.:.8.9.e.:.i.u.u.u.u.i.q.<.4.7.7.:.e.e.:.:.:.0.;.:.:.u.u.u.",
":.7.<.<.6.` +.` 5.s.k.d.q.4.4.<.7.:.7.7.:.9.9.4.` <.<.` +.<.p.k.f.t.6.4.6.4.:.7.7.;.:.;.4.` <.<.+.+.+.w.j.k.a.4.6.1.6.9.9.4.9.;.",
"7.7.4.7.:.4.4.4.<.q.u.q.4.4.4.4.4.7.+.<.<.6.7.4.4.:.7.6.9.6.4.t.q.q.6.4.4.4.9.` ` <.<.q.7.4.:.:.4.7.4.1.8.w.q.4.4.4.6.7.4.` 5.` ",
"9.:.1.Z.N.N.8.a.S.} O.Z.O.<.` +.V.+.4.7.4.7.7.q.N.N.>.1.s.F.} o.Z.N.V.` +.` <.<.7.4.7.8.7.<.N.N.N.i.p.A.o.Z.Z.+.` <.` ` ` 4.4.4.",
"3.S.K.a.K.I.U.h.a.F.F.a.I.p.q.7.7.+.<.4.7.8.3.F.I.K.I.I.k.a.I.A.g.p.a.q.7.7.` <.6.7.8.3.F.L.L.K.I.k.a.I.G.p.a.I.w.q.7.4.` 4.q.7.",
"t.u.y.q.q.p.q.V.+.D.q.9.u.t.a.:.8.q.8.a.i.y.t.i.w.q.w.q.C.+.V.q.q.u.i.t.:.:.7.w.p.i.i.t.i.t.1.w.J.D.+.V.q.q.0.i.a.u.:.7.q.t.a.i.",
"f.e.:.:.7.6.` ` +.+.+.V.6.1.q.9.:.:.0.e.u.f.u.:.:.7.4.<.+.V.+.+.` 6.<.q.q.:.:.:.:.e.i.i.e.:.9.7.<.+.` ` X.+.<.5.6.q.:.:.:.:.u.u.",
"i.f.i.9.7.7.4.7.0.6.6.8.a.s.h.u.:.:.:.u.f.i.f.f.9.9.7.4.7.:.4.6.9.a.a.h.s.e.:.:.e.u.f.i.k.u.7.7.4.7.:.7.6.7.t.t.g.j.u.:.:.:.u.f.",
";.0.u.:.9.:.:.:.:.9.4.q.w.C.C.p.w.w.4.6.7.7.8.0.:.:.:.:.:.:.:.7.6.w.3.V.w.p.w.q.6.7.q.8.0.:.:.:.:.:.:.:.9.6.w.J.V.3.p.8.w.6.4.q.",
"6.7.7.:.:.:.q.8.:.4.4.7.;.7.` ` <.+.+.+.<.1.,.7.;.:.:.7.7.:.7.1.q.9.q.<.<.<.` +.+.+.1.4.7.;.:.:.;.7.8.8.4.q.;.7.5.+.<.V.+.+.+.<.",
":.;.7.8.7.N.B.o.V.Z.B.q.f.k.q.7.:.7.q.0.u.e.:.7.8.7.1.B.} N.Z.A.q.u.k.p.4.:.9.7.0.t.t.:.;.7.;.1.Z.z.O.O.B.C.0.k.s.q.0.9.7.8.t.u.",
"1.N.z.{ z.z.k.I.F.j.k.a.k.R.k.u.:.i.f.k.f.3.<.z.} } } I.h.F.a.k.g.k.k.R.i.:.u.f.k.f.8.1.Z.} } z.S.R.K.K.h.g.g.R.R.j.0.u.f.j.k.i.",
"S.F.g.K.g.d.U.a.g.k.i.f.U.w.k.k.i.e.u.u.w.B.S.g.K.d.g.g.g.a.k.i.i.j.w.U.k.f.u.e.u.t.B.S.P.a.L.j.g.j.a.k.f.i.j.p.a.k.j.u.0.u.i.1.",
"k.u.e.k.t.1.C.+.<.:.9.<.V.+.w.i.0.e.i.f.j.k.f.:.f.i.q.1.+.` 7.9.6.V.+.q.i.u.:.u.f.j.g.k.e.i.f.q.1.V.O.q.:.4.<.+.<.u.u.:.u.i.f.g.",
":.:.;.q.<.V.+.+.` ` ` ` 4.4.4.9.:.:.u.:.u.e.:.9.q.1.+.<.+.` ` <.+.6.4.6.7.:.e.u.0.:.u.:.:.7.q.` <.+.+.+.` ` <.7.6.4.:.:.u.u.0.i.",
":.0.0.7.4.9.7.7.7.<.4.7.9.:.:.4.7.4.+.7.:.:.:.u.q.6.q.:.7.9.6.6.7.4.:.:.7.7.7.<.6.:.:.:.0.0.6.q.:.4.9.4.<.7.4.:.:.9.4.9.<.<.9.:.",
"8.f.k.f.f.a.9.;.4.6.4.9.7.:.4.` +.+.+.<.4.7.i.k.j.f.j.8.9.4.6.4.9.7.;.9.` +.+.X.+.4.4.u.k.k.f.j.t.:.7.4.6.7.9.7.:.1.O.` +.+.<.7."
};
