/* XPM */
static char *result[] = {
/* columns rows colors chars-per-pixel */
"64 64 216 2 ",
"   c #181E2E",
".  c #181E31",
"X  c #1B222F",
"o  c #1C2333",
"O  c #1D253C",
"+  c #1D2D3E",
"@  c #222C34",
"#  c #262A38",
"$  c #302E3B",
"%  c #263238",
"&  c #2B323B",
"*  c #2F3E3C",
"=  c #343939",
"-  c #3B463C",
";  c #3B4C3C",
":  c #3E503E",
">  c #45463E",
",  c #424D3C",
"<  c #4B573C",
"1  c #535F3E",
"2  c #5C703F",
"3  c #1E2C40",
"4  c #242C45",
"5  c #252F4A",
"6  c #2E3341",
"7  c #273847",
"8  c #25334A",
"9  c #353945",
"0  c #2A3955",
"q  c #313D5E",
"w  c #423C43",
"e  c #3E4E46",
"r  c #2A455D",
"t  c #365758",
"y  c #394767",
"u  c #354A6A",
"i  c #2D5769",
"p  c #32596D",
"a  c #335D73",
"s  c #3F5679",
"d  c #326372",
"f  c #396875",
"g  c #37677A",
"h  c #494748",
"j  c #574C4D",
"k  c #485644",
"l  c #565649",
"z  c #534F53",
"x  c #46575A",
"c  c #565855",
"v  c #62584F",
"b  c #655A53",
"n  c #4B6446",
"m  c #4C6549",
"M  c #526B45",
"N  c #56674B",
"B  c #58744B",
"V  c #5B764B",
"C  c #4A685B",
"Z  c #577556",
"A  c #5A7C53",
"S  c #6A6C48",
"D  c #657D47",
"F  c #6B7B44",
"G  c #647849",
"H  c #6A6253",
"J  c #67665A",
"K  c #76635A",
"L  c #7B6D5C",
"P  c #677C55",
"I  c #73745D",
"U  c #7C715E",
"Y  c #485068",
"T  c #436869",
"R  c #65716B",
"E  c #727371",
"W  c #84735E",
"Q  c #897664",
"!  c #937F65",
"~  c #6C8244",
"^  c #63814D",
"/  c #6D894B",
"(  c #778247",
")  c #7B984C",
"_  c #698851",
"`  c #788456",
"'  c #69915A",
"]  c #779958",
"[  c #7DA458",
"{  c #7FAB5F",
"}  c #6E9B6E",
"|  c #739D6C",
" . c #7C9D6C",
".. c #6C9671",
"X. c #6E9870",
"o. c #729672",
"O. c #739970",
"+. c #76A565",
"@. c #7CA464",
"#. c #7CA962",
"$. c #73A169",
"%. c #7DA169",
"&. c #86884D",
"*. c #8A9A4D",
"=. c #969959",
"-. c #8AA44B",
";. c #89A74C",
":. c #94A84D",
">. c #97B64E",
",. c #9AB54E",
"<. c #9BB94E",
"1. c #81A555",
"2. c #8DAE55",
"3. c #83AD5D",
"4. c #8BAE5C",
"5. c #98A659",
"6. c #92AE5D",
"7. c #8EB256",
"8. c #8AB059",
"9. c #94B553",
"0. c #9AB653",
"q. c #96B852",
"w. c #9BB850",
"e. c #94B25A",
"r. c #9BB25B",
"t. c #A0B94F",
"y. c #A4A757",
"u. c #AAAB56",
"i. c #A3B755",
"p. c #AAB757",
"a. c #A3B951",
"s. c #ABB954",
"d. c #A4B45B",
"f. c #ABB65B",
"g. c #AEB858",
"h. c #B3BA56",
"j. c #B3B65D",
"k. c #B9B75D",
"l. c #B5B959",
"z. c #BCBA5A",
"x. c #89816B",
"c. c #93856D",
"v. c #9B846A",
"b. c #829E6B",
"n. c #8E8C74",
"m. c #978B73",
"M. c #A48C6E",
"N. c #A78A71",
"B. c #A99877",
"V. c #B79B76",
"C. c #83A563",
"Z. c #8AA566",
"A. c #83AB61",
"S. c #8CAC61",
"D. c #84A169",
"F. c #8BA369",
"G. c #8DAB6A",
"H. c #95A767",
"J. c #93AD61",
"K. c #9BAA65",
"L. c #92A568",
"P. c #97B060",
"I. c #A4AE63",
"U. c #A8AF62",
"Y. c #A5AF6D",
"T. c #B7AE6B",
"R. c #A6B061",
"E. c #ACB161",
"W. c #B1B360",
"Q. c #BEA47B",
"!. c #C0BA5B",
"~. c #C3A57B",
"^. c #CBAB7E",
"/. c #3D6A85",
"(. c #3F6E89",
"). c #3E7786",
"_. c #3E7D92",
"`. c #3D8295",
"'. c #3E889A",
"]. c #44828A",
"[. c #4A908F",
"{. c #478C99",
"}. c #4A9599",
"|. c #5A9599",
" X c #4FA09E",
".X c #54A8A6",
"XX c #54AAA9",
"oX c #898986",
"OX c #A29C82",
"+X c #A09B93",
"@X c #A6A48B",
"#X c #B8AA86",
"$X c #B3A998",
"%X c #ABB898",
"&X c #96B9A2",
"*X c #B4B0A4",
"=X c #CAB286",
"-X c #D4B483",
";X c #D8BA88",
":X c #D0BF9D",
">X c #DDC28E",
",X c #DAC694",
"<X c #E1C994",
"1X c #E9D49E",
"2X c #D8CEA4",
"3X c #DBCFB9",
"4X c #E8D8A6",
"5X c #E9DCBF",
"6X c #F1E4AF",
"7X c #F3E6B6",
"8X c #F4E7BA",
"9X c #DCD7C7",
"0X c #E3DECB",
"qX c #F3E8C5",
"wX c #F2EAD1",
"eX c #FBF8EA",
/* pixels */
"a.h.z.z.0.e.8.#.#.#.#.+.+.} } @.3.@.$.+.7.w.s.z.z.p.9.8.3.#.+.#.+.+.| } +.3.A.| +.3.0.p.h.z.h.e.9.3.#.#.+.#.+.$...$.#.3.+.| #.9.",
"s.l.!.s.<.<.7.3.#.+.+.}  .D...D.Z.L.L. .r.s.h.z.z.<.<.9.8.#.#.+.$.| D.O.O.F.Z.K. .4.s.h.z.z.a.<.w.8.#.#.#.+.} b. .X.F.Z.H.F.C.a.",
"a.<.s.h.s.<.<.>.9.6.G.F.j.z.I.W.z.z.!.j.l.s.<.a.l.s.t.<.<.9.6.S.D.E.z.E.E.!.k.!.z.k.s.t.w.h.h.a.<.<.9.e.J.D.K.z.W.I.z.z.z.z.W.h.",
"z.a.h.a.t.a.<.<.w.a.s.h.z.s.z.h.s.h.l.z.z.!.s.s.s.a.t.<.<.t.a.s.g.z.s.l.h.s.h.s.z.!.z.h.s.s.a.<.t.<.<.t.a.g.z.h.h.z.s.h.s.z.!.z.",
"h.h.h.i.e.0.0.>.<.<.<.<.a.w.a.<.<.<.a.h.s.s.s.h.s.0.e.0.,.<.,.<.w.w.<.<.t.<.<.w.h.s.s.h.h.h.w.r.0.0.>.<.<.<.,.t.<.t.<.<.w.s.h.s.",
"<.<.7.3.#.#.{ { e.s.z.s.0.9.7.8.w.<.>.<.<.<.<.9.3.#.#.#.#.4.a.k.h.a.9.>.7.9.<.<.>.<.<.<.>.3.{ #.#.{ 3.i.h.z.s.9.q.8.7.>.<.0.<.<.",
"9.7.8.7.9.7.3.8.4.0.g.d.7.8.7.8.9.q.3.3.7.7.9.4.8.>.9.3.8.4.e.g.f.e.8.8.7.8.0.4.{ 7.8.9.8.3.9.>.8.8.3.4.i.g.r.4.8.9.8.>.7.{ 8.8.",
"9.>.9.3.7.4.0.i.Z.C.3.C.{ 8.3.{ 3.3.3.7.3.7.9.9.4.4.8.9.a.6.@.3.C.3.3.8.{ { 8.{ 8.8.8.9.,.7.4.6.4.w.r.C.3.C.3.{ 8.3.{ 8.{ 8.8.3.",
"e.4.H.K.L.K.d.z.f.F.F.R.J.J.8.8.8.#.8.7.9.0.4.J.K.H.H.K.z.k.K. .I.K.K.8.8.8.{ 3.7.9.0.e.S.K.K.L.H.j.z.R. .K.K.P.A.8.8.3.{ 7.9.9.",
"d.f.h.r.R.W.d.6.S.I.d.a.h.l.s.<.q.4.e.d.i.d.d.l.d.r.j.R.r.A.P.r.a.s.h.g.<.<.8.e.r.d.i.r.f.h.r.d.f.R.S.6.R.a.s.h.h.a.<.7.4.r.d.d.",
"a.t.<.>.7.8.{ #.#.#.{ 3.7.8.7.0.<.0.t.t.a.s.a.<.w.9.7.A.@.#.#.{ 3.8.8.8.9.<.0.<.t.t.s.a.<.w.9.7.3.#.#.#.#.#.8.8.8.9.w.<.<.<.a.a.",
"h.h.s.9.9.8.4.7.7.{ { 7.r.d.j.w.<.<.<.a.h.l.h.s.w.9.7.8.8.9.3.{ 8.r.r.k.p.<.<.<.t.s.z.h.h.t.>.7.8.8.9.8.{ 3.e.r.j.f.w.<.<.<.s.l.",
"<.a.a.<.<.<.<.<.<.0.9.r.f.r.P.g.i.i.9.9.w.<.<.p.w.<.<.<.<.<.<.9.r.i.d.6.f.p.a.0.9.w.w.t.s.a.<.<.<.<.<.q.9.9.d.d.P.d.f.i.i.7.w.w.",
"4.7.9.<.<.<.<.<.<.9.7.7.9.3.#.A.A.3.#.#.3.8.8.9.w.<.<.<.<.<.,.7.8.9.8.{ #.A.A.#.#.#.3.8.7.>.<.,.<.<.<.<.9.8.9.7.3.#.3.A.A.#.#.A.",
">.,.<.<.<.4.C.C.2.C.S.9.s.s.8.9.9.8.3.9.e.0.w.<.w.,.7.3.@.4.C.D.9.a.h.r.4.>.8.8.7.9.9.>.<.<.<.9.4.C.3.4.D.4.w.s.i.8.q.9.8.8.9.9.",
"9.4. .3.%. .E.K.D.U.E.d.z.z.j.0.<.s.h.h.z.w.2.@.C.#. .I.I.F.K.k.r.y.u.y.i.<.t.h.l.z.p.9.C.@.3. .b.W.F.F.W.E.g.!.z.d.<.<.s.h.z.l.",
"D.Z.U.F.U.I.k.z.z.z.h.z.z.f.z.l.a.s.s.s.0.D.D.I.L.K.d.j.z.k.u.F M C t T G :.s.s.a.p.A.D.H.K.H.R.U.z.z.z.z.h.z.l.j.z.h.a.s.a.s.6.",
"k.g.s.z.s.d.r.A.e.a.w.e.S.A.s.h.a.<.a.s.f.W.j.s.z.l.d.d.A.P C [. XXXXX Xp - -.t.s.g.E.k.s.h.z.s.d.K.A.d.t.9.e.A.S.h.s.t.<.s.j.d.",
"t.<.0.i.8.#.@.#.{ 8.3.#.8.3.8.q.<.a.s.a.h.s.<.<.i.e.#.#.' t }.XX.XXXXXXX{.r k s.a.s.s.a.w.0.0.A.#.#.#.{ 8.{ { 8.3.7.<.<.a.s.t.h.",
"<.<.9.8.#.9.7.8.8.#.3.8.q.w.q.>.<.9.4.>.<.<.<.9.8.A.7.9.B ).].[.}.f i g './.% ) 9.<.w.w.w.9.3.3.9.8.7.3.{ 8.8.<.w.q.<.<.9.8.<.<.",
"w.s.h.s.g.p.w.q.q.8.9.w.0.<.9.3.3.#.#.3.9.>.a.l.s.s.g.0.k ).p [.7 X 3 8 p _.4 Z A.9.q.w.h.h.s.g.0.w.9.9.7.>.q.w.<.7.{ 3.#.#.7.9.",
"w.h.z.z.f.e.8.3.#.#.#.3.#.#.@.G.#.#.+.#.3.9.s.z.z.l.r.8.m p p a + % y s /.(.4 A #.#.7.i.z.z.l.i.8.3.{ #.#.{ A.#.#.#.#.#.+.+.{ 4.",
"h.l.z.h.w.>.8.{ #.+.+.| | o.o.~.Y.C.b.| w.s.l.z.z.<.w.9.M 7 r r % 7 5 q y 0 e b.| 4.s.h.z.z.s.q.w.3.#.#.#.+.} | ..X.D.C.D. .@.<.",
"a.a.h.h.s.<.<.7.8.#.@. .I.j.b.oX3XT.j.I.f.a.t.h.l.s.0.k E E 9 y Y Q w # < S I.z.I.f.s.<.s.l.s.a.w.q.9.3.A.| F.E.U.F.W.U.j.j.I.s.",
"l.<.s.s.t.<.<.<.a.i.f.f.z.h.y.I eX$X=.!.z.z.s.t.s.s.F h @X5X3X0X0X$Xj $ &.z.z.l.z.!.z.s.<.s.s.w.<.<.<.p.i.g.k.z.l.z.l.z.z.z.!.z.",
"z.h.l.a.i.a.a.<.<.<.<.a.s.<.:.I 8XwX#Xj.l.z.h.l.s.,.N =XqXeXwX8X6X:XN.w < t.t.t.z.z.h.z.h.h.s.w.a.<.<.w.,.<.s.a.i.s.<.w.<.h.z.l.",
"<.a.w.8.{ #.4.3.0.a.h.a.w.w.;.J =XqX*XF w.<.t.w.7.^ Q 4X+X0X8X7X4X>X~.K = ;.t.<.w.w.w.w.a.9.3.{ { 8.8.w.s.s.a.0.,.9.9.<.<.<.<.<.",
"<.7.3.3.7.3.{ 3.8.d.z.g.9.3.7.V Q >X2Xl ;.w.9.3.3.k @X=Xh 9X8X4X<X;X^.Q & / <.9.8.w.9.w.8.3.8.7.{ { A.e.g.z.i.4.8.8.8.>.9.8.9.>.",
"7.9.9.9.>.9.9.0.A.4.e.4.3.8.9.] k ~.,Xn.M 8.9.9.2.N :XU 6 0X8X<X-X;X^.N.w M 9.{ 3.V k ) w.9.9.q.7.0.9.3.7.4.4.4.7.8.3.7.3.3.3.{ ",
"q.9.Z.F.C.D.r.z.I. .D.H.C.3.#.3.B Q B.B.N ;.9.4.` & j $ O oXOXc.v.~.^.Q $ : #.[ D H = D e.Z.D.Z.C.h.k.H.| G.Z.S.A.{ 3.3.{ 7.9.9.",
"6.d.j.f.E.j.j.R.r.R.R.s.k.h.i.w.-.l M.c.n.G 5.I.&.z J . . & 9 J B.^.~.K o M / k U v % P R.j.R.E.W.k.K.d.K.f.g.z.f.a.w.7.A.8.e.0.",
"a.a.0.e.4.e.A.#.@.A.3.7.0.e.r.w.<.V W W m.l k C n OX4Xh Y 3X2X<X>X~.N.j X , l U R g a ~ a.0.7.e.8.#.#.@.A.8.9.9.r.9.w.0.0.a.p.s.",
"l.s.a.>.9.8.3.4.8.#.#.A.8.P.d.w.<.-.l Q l W i d 7 x.7Xc.R 8X4X;X-X~.b z J U ! m.].'.d ( g.w.q.9.3.{ 8.3.#.#.3.4.r.r.<.<.<.<.a.s.",
"t.s.s.<.>.>.9.<.w.9.9.i.g.g.f.h.s.t.1 v j l r `.t h ,X3X3X7X1X-XV.b # Q J U M.#X|.{.d ~ l.s.<.q.q.>.<.q.7.0.g.g.f.h.s.a.w.q.a.s.",
"9.9.q.<.<.<.<.<.w.q.8.8.e.#.#.S.6.P 7 6 = 0 g i D < c 4XwX4XB.h o O O L J ^.<X2X.X'.d D q.q.<.<.<.<.<.<.9.4.e.7.#.A.J.4.4.#.3.8.",
"7.9.<.<.<.9.4.2.9.3.8.w.a.0.3.8.8.n 6 4 q r z j < ; 0 c Q h O 3 0 Y 5 L x.-X1X%X'.|.R ~ q.<.<.<.9.3.9.9.3.4.w.a.r.3.8.8.3.3.3.8.",
"<.9.3.2.4. .K.b.%.L.K.r.z.z.d.w.<.:.- 5 # b ~.v.= e y i O 5 u s (./.8 W V.-X;X%X&X;Xc.~ e.4.9.C.Z.H.b.b.K.K.i.z.z.r.<.<.a.p.s.h.",
"A.D.L. .L.L.z.k.j.z.z.z.z.z.z.g.t.s.*.F = M.V.b & _ 6 p a s (._.{./.8 W v.Q.|.&X1X;XH G F.b. .L.K.!.j.j.z.z.z.z.z.z.a.a.s.h.h.i.",
"E.d.j.j.h.j.f.6.d.h.i.a.r.S.l.z.s.<.t.h.( > & 4 9 y.M O g _.`.`.(.s 4 K x [.}.&X;X~.l 5.f.z.j.l.j.d.J.g.s.t.f.6.r.z.l.a.<.a.s.J.",
"h.a.w.h.e.A.#.+.3.9.7.{ 3.#.9.<.<.t.s.s.h.p.( 9 , :.] % o 8 8 8 4 4 o h x `.'.@X^.S W s.w.a.s.8.#.#.#.8.9.3.{ { A.0.<.<.s.s.s.z.",
"<.,.9.4.#.8.3.3.{ #.A.3.9.9.7.q.<.<.9.>.<.w.<.;.1.3.] @   : n n k o @ , h p {.#XH F <.<.>.7.3.A.8.3.3.#.#.3.3.>.9.7.<.<.0.9.<.<.",
"<.a.s.w.r.a.<.<.>.7.9.q.>.<.>.8.8.4.#.7.<.<.w.s.i.e.*.* X 2 / / 2   ; ~ - 9 f l B ,.<.<.s.s.0.0.t.q.>.9.8.q.q.<.<.9.3.8.{ { 9.<.",
"0.h.!.z.l.r.8.8.3.#.3.8.8.8.3.#.#.@.#.#.8.7.s.z.z.y.F ; - M ^ ^ n - - B V e @ B #.3.7.<.l.z.z.j.e.7.3.3.{ 3.8.8.7.#.#.@.+.#.{ 4.",
"s.h.!.h.0.9.8.#.+.#.#.$.$.....@.C.#.| $.7.p.h.z.z.*.~ ~ ^ A A A A Z Z C Z Z P | | 3.<.h.z.z.s.9.9.3.#.#.#.#.$.} ..} #.3.+.| { 9.",
"s.s.z.s.a.<.0.8.3.#.+.} F.K. .L.K.I.f.G.d.s.s.l.l.a.-.) / ^ A A Z Z ` P ` H.K.j.L.r.s.t.h.z.s.t.w.7.8.#.#.$. .K.L. .K.J.E.K.L.s.",
"s.<.s.s.a.w.<.<.w.r.K.I.!.!.j.z.z.!.z.!.l.h.t.<.h.s.t.,.,.;.:.5.=.y.g.j.k.z.!.z.z.k.h.s.<.s.s.a.<.<.w.0.r.K.E.z.k.k.!.!.z.!.!.h.",
"z.s.h.p.a.p.<.<.<.a.a.s.h.a.h.a.i.s.s.!.z.!.h.l.s.a.a.i.w.<.a.a.s.l.s.s.s.a.s.a.z.!.z.l.h.h.t.a.s.<.<.a.t.s.h.s.a.g.a.s.t.h.!.z.",
"s.s.p.9.8.3.9.9.<.t.a.a.<.<.,.<.,.,.t.t.s.t.s.t.0.4.3.9.9.9.<.a.w.<.<.<.,.<.<.<.s.t.t.s.s.a.e.4.8.7.9.<.t.a.<.t.,.w.,.<.<.i.s.t.",
">.>.3.{ 3.#.#.#.7.f.z.j.0.8.8.3.9.<.9.q.<.>.9.8.{ 3.3.#.#.3.d.z.h.d.8.8.3.7.<.q.7.<.>.,.9.{ 3.3.#.{ { e.k.z.f.7.8.8.8.q.>.7.<.>.",
"7.9.9.9.<.9.7.9.3.e.i.e.7.8.9.8.7.9.#.{ 3.8.9.7.9.<.>.8.9.2.8.w.e.9.7.7.7.8.q.{ { 3.3.9.7.7.<.<.8.9.7.8.0.0.9.8.8.9.8.q.8.#.3.3.",
",.9.8.@.A.C.0.f.H.| C.D.@.3.{ { 3.#.8.9.8.9.q.9.C.C.C.4.g.I. . .D.@.#.3.{ { 3.3.q.7.e.,.9.3.C.C.Z.i.f.D.$.D.C.#.#.#.#.A.#.9.7.7.",
"e.J.R.E.I.E.W.k.g.K.K.f.E.d.e.9.9.#.3.7.9.0.J.K.W.I.U.f.z.f.d.G.j.f.f.r.9.9.{ 3.8.9.w.6.K.U.I.I.E.z.f.f.H.R.E.f.r.0.9.7.#.8.e.9.",
"i.p.f.e.e.d.6.A.#.S.e.0.a.s.i.w.<.e.0.f.p.i.i.s.r.4.d.e.S.#.A.e.9.a.s.f.w.<.9.r.f.f.p.w.s.i.7.r.r.S.#.A.P.9.w.p.s.a.<.9.r.i.f.s.",
"s.a.<.<.9.8.{ { 8.+.#.3.3.4.e.w.<.<.<.a.a.h.s.<.<.9.8.3.#.A.#.#.#.3.3.e.9.<.w.<.<.a.s.s.t.<.9.9.3.#.3.#.+.#.{ 8.8.e.<.<.<.<.w.s.",
"s.h.s.w.9.9.7.q.9.8.8.0.f.g.k.a.<.<.<.a.h.s.h.h.<.9.9.9.9.<.8.8.9.s.f.l.g.a.<.<.a.s.h.s.l.s.9.9.9.9.q.9.8.e.i.f.k.h.a.<.<.<.s.h.",
"q.w.w.<.>.<.<.<.<.q.7.r.e.S.S.R.r.r.4.8.9.>.0.w.<.<.<.<.<.<.<.9.8.r.J.A.r.r.r.e.8.7.9.w.w.<.<.<.w.<.<.<.9.7.r.e.A.J.d.r.e.8.8.9.",
"8.7.q.<.<.w.9.w.<.7.8.9.w.e.{ 3.3.#.#.#.3.8.7.9.<.,.<.9.9.,.9.2.e.w.9.3.#.3.#.#.#.#.8.8.9.>.<.<.,.9.0.9.4.7.q.q.8.#.3.{ #.#.{ A.",
"<.<.9.0.9.A.Z.%.@.Z.Z.9.h.l.e.9.<.q.9.0.s.w.,.9.9.0.4.F.b.#.D.G.7.p.z.d.9.w.9.w.w.p.a.<.9.9.9.2.D.b.@.C.Z.S.w.z.h.8.w.w.q.9.a.a.",
"2.C.b.| b.D.W.W.K.k.z.j.!.z.z.a.<.s.l.l.h.e.3.b. . . .U.k.K.E.z.j.z.z.z.s.<.a.l.l.l.r.4.C. . .b.K.z.I.I.z.k.k.z.W.l.t.a.h.l.l.h.",
"H.K.j.I.j.W.l.E.j.z.s.s.W.r.z.z.s.t.t.s.6.L.H.j.U.g.j.j.j.f.z.s.s.k.r.j.z.h.a.t.a.a.Z.H.I.j.I.l.j.j.d.z.h.s.l.d.W.!.l.a.<.a.s.S.",
"l.s.a.l.w.S.S.#.8.w.9.8.A.#.0.s.t.<.s.h.k.z.s.t.h.s.e.S.#.#.w.w.8.A.#.e.s.a.<.a.s.l.k.l.a.s.l.9.4.A.#.e.<.7.8.#.3.a.s.<.a.s.l.z.",
"<.<.9.9.3.A.{ #.#.{ #.#.7.7.8.q.<.<.a.<.a.t.<.9.e.7.#.3.#.#.#.3.#.8.7.8.9.<.<.a.<.a.a.<.>.9.e.#.3.#.#.#.{ #.#.9.8.9.q.<.a.w.w.s.",
"<.<.i.7.8.w.9.9.9.8.7.9.q.<.<.9.9.8.{ 9.<.<.<.i.9.8.9.w.7.q.8.8.9.7.<.<.9.7.9.3.8.>.<.<.w.0.8.9.<.9.9.7.3.9.7.<.<.q.7.9.3.3.q.<.",
"w.h.z.h.l.f.9.9.7.8.7.>.9.<.7.#.#.#.#.3.7.9.s.z.l.l.j.0.>.9.8.8.>.9.q.q.3.#.#.#.{ 8.9.i.z.z.h.l.d.9.9.9.8.>.9.q.q.8.#.#.#.#.3.9."
};
