/* XPM */
static char *result[] = {
/* columns rows colors chars-per-pixel */
"64 64 215 2 ",
"   c #181E2F",
".  c #181E31",
"X  c #1B222F",
"o  c #1C2333",
"O  c #1D253C",
"+  c #1E2D3F",
"@  c #232B33",
"#  c #252938",
"$  c #302E3A",
"%  c #293337",
"&  c #2D343C",
"*  c #2E3C3C",
"=  c #353739",
"-  c #37453D",
";  c #3D4A3B",
":  c #444A3E",
">  c #45523B",
",  c #525E3E",
"<  c #59673E",
"1  c #242C45",
"2  c #252F49",
"3  c #283746",
"4  c #25334A",
"5  c #323A41",
"6  c #373A47",
"7  c #2A3A55",
"8  c #313D5E",
"9  c #423C43",
"0  c #3A4B40",
"q  c #2A455D",
"w  c #365759",
"e  c #394767",
"r  c #364A6B",
"t  c #2D5769",
"y  c #32596D",
"u  c #335D73",
"i  c #3F5679",
"p  c #326372",
"a  c #37677A",
"s  c #494748",
"d  c #574C4D",
"f  c #485846",
"g  c #565549",
"h  c #534F53",
"j  c #455859",
"k  c #575955",
"l  c #62584F",
"z  c #655A53",
"x  c #4F654B",
"c  c #546B44",
"v  c #58664A",
"b  c #5C7446",
"n  c #5B794D",
"m  c #4B685B",
"M  c #596A53",
"N  c #567457",
"B  c #5B7C52",
"V  c #6A6E48",
"C  c #647643",
"Z  c #667E44",
"A  c #667B4A",
"S  c #797B48",
"D  c #6B6253",
"F  c #676558",
"G  c #76635A",
"H  c #7B6D5C",
"J  c #667655",
"K  c #71745D",
"L  c #7C715E",
"P  c #485068",
"I  c #446968",
"U  c #65716B",
"Y  c #6B6C71",
"T  c #777971",
"R  c #83735E",
"E  c #897664",
"W  c #937F65",
"Q  c #698449",
"!  c #778446",
"~  c #728A45",
"^  c #7C824A",
"/  c #7A974C",
"(  c #778357",
")  c #6D9258",
"_  c #749855",
"`  c #7AA359",
"'  c #7FAB5F",
"]  c #728C63",
"[  c #6E9B6E",
"{  c #739C6C",
"}  c #7C9D6C",
"|  c #6B9572",
" . c #6E9870",
".. c #729771",
"X. c #739970",
"o. c #76A565",
"O. c #7CA464",
"+. c #7BA962",
"@. c #73A169",
"#. c #7DA169",
"$. c #8A904C",
"%. c #889857",
"&. c #939C5D",
"*. c #88A54A",
"=. c #8AA64B",
"-. c #93AC4D",
";. c #98B54E",
":. c #9BB94E",
">. c #84A356",
",. c #8CAE56",
"<. c #83AD5D",
"1. c #8BAE5C",
"2. c #97A658",
"3. c #92AE5D",
"4. c #8EB256",
"5. c #85B05D",
"6. c #8AB059",
"7. c #94B553",
"8. c #9AB653",
"9. c #97B851",
"0. c #9BB850",
"q. c #94B25A",
"w. c #9CB25B",
"e. c #A0B94F",
"r. c #A8A958",
"t. c #B0AD56",
"y. c #A3B755",
"u. c #AAB757",
"i. c #A3B951",
"p. c #ABB954",
"a. c #A4B45C",
"s. c #ABB55B",
"d. c #AEB859",
"f. c #B6B757",
"g. c #B3BA56",
"h. c #B3B65D",
"j. c #B9B75D",
"k. c #B5B959",
"l. c #BCBA5A",
"z. c #85806D",
"x. c #89816B",
"c. c #97856B",
"v. c #829B63",
"b. c #829F6B",
"n. c #8E8C77",
"m. c #978B73",
"M. c #A48C6E",
"N. c #A78A71",
"B. c #A99877",
"V. c #B79B76",
"C. c #83A563",
"Z. c #8AA566",
"A. c #83AB61",
"S. c #8CAC61",
"D. c #84A169",
"F. c #8BA369",
"G. c #95A766",
"H. c #93AC61",
"J. c #9BAA65",
"K. c #92A568",
"L. c #97B060",
"P. c #A4AE63",
"I. c #A8AF62",
"U. c #A6B061",
"Y. c #ACB161",
"T. c #B2B361",
"R. c #BEA47C",
"E. c #C0BA5B",
"W. c #C3A57B",
"Q. c #CBAB7E",
"!. c #C4B27C",
"~. c #3D6A85",
"^. c #3F6E89",
"/. c #3E7786",
"(. c #3E7D92",
"). c #3D8295",
"_. c #3E889A",
"`. c #44828A",
"'. c #4A908F",
"]. c #478C99",
"[. c #4A9599",
"{. c #5A9599",
"}. c #4FA09E",
"|. c #479AA2",
" X c #54A8A6",
".X c #54AAA9",
"XX c #87888A",
"oX c #A29C82",
"OX c #A09B93",
"+X c #83A797",
"@X c #A6A48B",
"#X c #B3A998",
"$X c #ABB898",
"%X c #96B9A2",
"&X c #B4B0A4",
"*X c #CAB286",
"=X c #D4B483",
"-X c #D8BA88",
";X c #D0BF9D",
":X c #DDC28E",
">X c #DAC694",
",X c #E1C994",
"<X c #E9D49E",
"1X c #D8CEA4",
"2X c #D3CFB2",
"3X c #E7D7A7",
"4X c #E9DCBF",
"5X c #F1E4AF",
"6X c #F3E6B6",
"7X c #F4E7BA",
"8X c #DCD7C7",
"9X c #E3DECB",
"0X c #F3E8C5",
"qX c #F2EAD1",
"wX c #FBF7EA",
/* pixels */
"i.g.l.l.8.q.6.+.o.+.+.o.o.[ [ +.' +.{ o.4.0.p.l.l.y.q.4.<.+.O.+.+.o.{ | O.' <.{ @.1.7.i.g.E.k.q.4.<.' +.o.+.o.@.| @.+.<.O.@.+.7.",
"p.k.E.p.:.:.7.<.+.o.o.[ } D.| D.Z.K.G.} 8.p.g.l.f.i.:.9.1.+.+.o.@. .F.X.{ F.Z.J.} 3.p.g.l.l.i.e.:.6.' +.O.o. .D.}  .F.C.G.F.C.y.",
"i.:.p.g.i.e.:.9.7.6.Z.F.T.l.P.T.j.l.E.h.k.p.0.i.g.p.e.:.:.7.1.S.D.U.E.Y.Y.E.j.l.j.h.p.e.e.g.g.i.:.:.7.6.3.D.J.l.T.U.l.j.E.j.T.g.",
"l.i.g.i.e.e.:.:.i.i.d.g.l.p.l.g.g.g.k.l.l.E.p.p.i.e.i.:.:.e.i.p.s.l.p.g.g.p.k.p.l.E.E.g.i.p.i.e.e.:.:.i.e.h.l.g.p.l.g.g.p.l.E.l.",
"g.g.g.i.7.w.8.;.:.:.:.:.i.:.i.:.:.:.:.g.i.p.g.g.p.w.q.8.;.9.:.:.:.i.:.e.e.:.:.:.p.p.p.g.g.p.8.q.8.8.8.:.:.:.i.:.:.:.:.:.:.p.g.p.",
":.:.4.' ' +.' ' 7.p.l.u.8.7.4.6.9.:.:.:.:.:.:.7.<.<.' ' ' 6.u.f.g.i.7.7.6.9.:.0.:.:.:.:.7.1.<.+.+.' <.8.g.f.i.7.7.4.4.:.:.8.:.:.",
"7.4.5.4.;.6.<.6.1.w.g.y.q.6.4.4.7.;.<.<.4.q.7.5.6.;.7.<.6.<.q.u.a.q.6.6.4.6.:.<.<.4.6.7.,.1.7.:.<.6.5.1.a.g.w.1.6.4.5.9.4.' 4.6.",
"7.9.7.1.,.1.8.y.Z.C.<.O.<.5.5.+.5.<.<.4.<.4.;.7.1.1.1.q.i.3.O.1.C.<.<.<.' <.6.<.4.<.5.7.:.6.1.3.,.i.w.C.<.C.<.<.6.<.' 6.' 6.6.<.",
"7.3.G.J.K.G.a.l.s.b.F.U.H.H.5.6.6.+.6.6.7.8.1.H.J.K.G.J.E.T.J.} P.J.w.<.5.4.' <.4.7.7.q.1.J.G.G.G.j.j.U.} J.J.L.1.6.4.<.+.6.q.:.",
"w.a.k.a.a.h.U.3.S.a.a.e.g.k.p.:.9.6.q.a.a.a.a.k.a.w.h.s.w.A.L.w.i.p.k.k.i.:.6.3.a.a.y.w.d.h.w.a.s.a.S.H.w.i.p.g.g.i.:.4.1.w.a.a.",
"i.e.:.7.q.6.' ' O.o.+.<.4.6.q.9.:.8.e.e.e.p.i.:.8.7.6.<.+.+.+.+.<.6.1.6.9.:.8.:.e.e.i.i.:.:.7.4.<.+.+.+.O.+.4.4.6.q.:.:.e.e.e.i.",
"g.f.i.:.4.6.<.4.7.<.<.q.w.a.h.e.:.:.:.e.g.g.g.g.8.7.4.6.4.q.<.' 6.w.w.h.y.:.:.:.e.p.l.f.g.e.7.7.6.6.7.6.+.6.q.w.s.d.:.:.:.e.i.g.",
":.i.i.:.:.:.:.:.:.;.7.a.a.w.w.d.y.y.q.9.8.:.e.i.:.:.:.:.:.:.:.;.8.a.a.H.d.u.i.8.7.0.:.:.i.i.:.;.8.:.:.:.7.q.a.a.L.a.u.y.8.9.8.0.",
"6.4.7.:.:.:.:.:.:.7.6.4.7.<.+.A.A.A.+.+.<.1.6.7.:.:.:.:.:.:.8.4.6.q.6.' A.A.A.+.+.+.<.6.q.8.:.;.:.:.:.:.7.6.7.4.<.+.A.A.A.o.+.A.",
";.:.:.:.:.1.C.C.,.C.A.8.p.p.1.7.7.4.6.7.7.8.8.:.:.:.7.A.D.6.C.D.7.i.g.q.6.8.6.6.6.q.:.:.:.:.:.:.1.C.<.1.C.1.8.k.y.<.9.7.4.6.7.8.",
"7.1.} <.#.b.Y.J.D.U.Y.a.l.l.h.8.:.i.k.f.f.8.,.C.O.C.{ P.&.] %.Y.a.k.l.l.8.0.e.g.g.l.p.7.<.} <.{ K.Y.F.F.T.U.u.E.l.u.0.0.p.g.k.k.",
"b.F.I.F.I.P.j.j.l.l.g.l.j.h.l.k.i.i.i.p.y.D.D.P.&.J.&.M I w I x S r.h.l.l.p.i.i.i.y.A.D.J.J.K.Y.I.l.h.l.l.g.l.j.h.l.g.e.i.i.p.q.",
"j.p.p.l.p.a.w.A.q.i.:.7.S.A.p.g.i.i.e.g.s.T.j.i.l.2.: t |. X}.}.'.m B 8.g.i.i.i.g.k.U.j.u.g.l.y.a.H.A.a.e.;.q.A.1.g.p.e.e.p.j.a.",
"i.:.:.y.6.+.+.O.' 6.5.+.5.<.6.9.:.i.p.e.g.i.:.:.8.c q ]..X.X.X.X.X[.w ` 8.:.:.p.i.i.g.e.9.9.8.5.+.+.o.<.6.' ' 6.<.4.:.:.p.i.i.g.",
":.:.7.1.<.7.6.6.<.<.<.5.7.:.:.;.:.7.1.7.:.:.:.8._ % ~.)./.w I }.[.`.a b 8.:.:.5.7.e.:.9.8.7.5.5.7.6.4.<.' 5.6.:.8.8.9.:.4.,.:.:.",
":.p.l.i.u.p.8.9.8.4.7.9.;.:.7.' ' ' +.5.7.8.i.l.S 2 /.y 4 1 X 4 '.y /.f <.A.<.+.' 7.9.0.g.g.p.d.y.9.9.7.6.9.7.:.:.4.<.<.+.+.4.9.",
"8.g.l.l.s.q.5.<.+.+.+.<.+.O.+.+.+.+.o.o.<.7.p.l.$.1 ^.^.i r 4 O u y y f +.+.+.o.o.<.4.y.l.l.k.U.J.6.' +.+.' A.+.+.O.+.+.O.o.+.5.",
"g.l.l.g.:.9.6.' o.o.+.[ { ..| } C.C.D.{ 9.p.g.E.f., 4 e 8 1 5 % q q 4 m X.D.C.D.{ 1.i.k.l.l.y.T.!.6.+.+.+.+.[ { | | #.C.D.} O.:.",
"e.i.g.k.i.:.:.7.6.+.O.} P.h.K.U.Y.T.j.U.s.p.e.p.f.y.C > X s E h P 8 T U f r.Y.l.P.s.i.i.p.k.T.2XXX=.7.5.+.{ D.T.I.K.T.I.j.h.P.p.",
"g.0.i.i.i.:.:.:.i.y.s.h.E.g.l.l.l.l.l.E.l.l.i.e.p.i.i.~ $ d #X9X8X2X4X@Xs S l.f.E.E.l.p.i.$.#XwXK *.:.i.y.s.f.l.k.l.l.l.g.l.E.l.",
"l.g.l.p.8.i.e.:.:.:.:.i.i.:.p.e.:.e.i.l.g.l.g.l.p.i.i.> 9 N.;X5X7XqXwX0X*Xl :.e.f.l.g.l.g.R.qX0XK *.:.:.0.0.p.i.i.i.:.:.e.g.l.g.",
"e.0.8.1.' ' <.1.8.i.g.i.:.:.;.7.:.:.:.e.:.:.:.:.4.A._ * G W.:X5X6X7X9XOX<Xx.~ :.0.0.0.0.Q &X0X*XF ` 6.0.p.g.e.:.8.7.7.:.:.:.:.:.",
":.7.<.<.q.<.' <.6.a.l.u.q.5.6.5.7.:.6.4.7.;.;.<.+.q.~ & E Q.=X,X3X6X9X9 *X@X, 7.6.9.9.=.g 1X:XE c <.A.q.d.k.a.q.5.4.6.;.7.6.7.7.",
"4.7.7.7.;.7.7.8.A.1.q.1.<.6.4.<.6.6.+.5.) f Q ;.7.9.b 9 N.Q.=X-X,X7X9X3 H >Xk ` <.<.<.b n.>XR.g ` :.q.<.q.1.6.<.4.4.<.4.<.<.<.+.",
"7.7.Z.Z.D.C.w.l.P.} D.G.C.<.' ' ' ' 6.9.Q = D A C.D.; $ E W.W.c.c.oXXXo $ h % _ 9.8.=.v B.B.R M Z.s.h.J.X.F.Z.S.+.' <.<.' 7.7.9.",
"w.J.h.s.U.h.h.U.w.U.P.p.j.k.y.:.9.' 1.q.A + z L g $.V X G W.=XB.F 6 &   . F j n >.2.b n.n.M.g 2.h.j.w.U.J.u.p.j.s.i.:.4.A.q.q.w.",
"i.e.i.q.6.q.A.+.O.A.5.4.8.q.w.:.9.8.i.p.! y a U H g s X d N.W.-X,X1X8XP s 3XB.< m x g c.E R b q.6.A.+.o.A.6.7.9.w.8.:.q.y.i.i.i.",
"f.p.:.:.7.,.<.<.6.+.+.<.6.w.a.8.:.:.:.i.! p _.`.m.E L F s z W.-X-X3X0XY c.7Xz.3 p w H l W g *.9.<.' 4.5.O.+.<.1.w.w.:.:.:.:.i.g.",
"i.p.p.:.7.7.:.:.:.7.q.y.s.s.s.p.i.e.9.0.S p ].{.*XN.H K W # z N.Q.<X6X2X1X>Xf w `.q k d d , :.:.9.9.:.;.4.8.s.g.s.k.i.i.0.0.i.p.",
"7.7.9.:.:.:.:.:.:.9.6.6.q.A.+.H.q.S.+.5.n p ]. X2X:X=Xz L # 1 # d B.3XqX3Xk f N t a 7 6 & q Z :.:.:.:.:.7.1.q.6.+.A.H.3.1.' <.5.",
"4.7.:.:.:.7.1.,.;.<.1.9.i.0.<.6.6.<.' ' n U {.[.$X,X-XE H 2 r 7 # O s z.k 2 0 > s h q 8 1 2 < e.4.,.4.4.<.4.0.i.8.+.4.5.<.<.5.6.",
":.7.<.,.<.b.G.F.} G.J.w.l.l.a.8.9.e.i.g.^ c.*X%X$X:XQ.V.R 4 ~.~.i r 4 O t e : = W *Xz # 2 * >.C.Z.G.} b.J.J.y.l.l.w.:.:.i.y.g.g.",
"C.D.K.} G.K.j.j.s.l.l.j.E.l.l.p.e.p.g.g.! z -X<X%X{.R.M.E 4 ~.].(.~.i i u 5 / = z V.N.$ J ( } K.J.E.h.h.l.l.l.l.l.l.i.i.p.g.p.y.",
"T.a.k.h.j.d.s.q.a.g.e.y.L.S.k.l.p.:.e.p.2.g R.:X+X|.[.k D 1 i ^.).(.(.a 1 < =.= 1 = s ^ s.l.h.k.h.a.H.d.i.e.s.3.w.l.k.i.:.i.p.J.",
"g.i.0.g.7.A.+.o.<.q.4.<.<.' 4.:.:.i.p.p.k.! D Q.@X]._.w s . 1 + 4 4 3 o % =.-.: * ! t.p.0.i.p.6.<.+.+.1.8.<.' ' A.8.e.:.i.p.p.l.",
":.;.7.1.+.6.5.<.' +.' <.7.7.4.:.:.e.q.:.0.:.Z D R.].u 9 ; @ X x c c > X @ =.:.,.*.:.:.:.8.7.<.<.6.<.<.' ' ' <.9.q.7.:.:.8.7.:.:.",
":.i.p.8.w.i.:.:.;.4.7.9.:.:.:.1.4.5.+.4.:.:.:.S k I 6 ; Q ;   c ~ ~ b X % _ 4.' ' 9.:.:.i.p.8.w.e.9.9.7.6.9.;.:.:.7.<.,.' ' 7.:.",
"8.g.l.l.k.w.6.1.<.+.<.6.5.4.<.+.+.+.o.o.5.7.p.l.^ @ s Q C ; * c Q Q c - - n ) o.+.<.4.:.g.l.l.h.q.4.<.' ' 6.1.1.6.' ' +.+.+.' <.",
"p.g.E.g.8.7.6.' o.+.+.o.@.| | o.+.+.@.O.7.i.g.l.f.~ Q Q n B B B B N N m N J ) @.[ 6.0.g.l.l.p.8.7.<.+.o.+.+.@.{ | [ +.' } [ ' 8.",
"i.p.l.g.i.:.7.6.<.+.o...F.P.} G.J.P.Y.F.a.i.i.l.k.i.-./ Q Q B B N N ( J ( 2.G.h.Z.w.p.i.g.E.p.e.:.4.5.' +.{ { G.K.} P.G.a.J.G.u.",
"g.:.i.p.i.0.:.:.8.w.J.P.E.j.h.E.l.l.E.l.g.g.e.i.g.p.i.:.8.-.=.2.v.r.t.h.T.j.E.l.E.l.g.i.:.p.p.i.:.:.:.8.a.J.s.E.j.h.l.E.l.E.E.g.",
"l.g.k.p.i.i.:.:.e.:.i.g.g.i.g.i.i.i.g.E.l.E.g.g.p.y.i.i.0.0.i.i.p.k.i.p.p.i.p.i.l.l.l.l.g.g.i.i.i.:.:.e.e.i.g.p.p.g.i.i.i.l.l.l.",
"i.i.i.q.1.1.7.7.:.:.i.:.:.:.8.:.:.:.e.i.i.i.p.i.8.6.5.4.7.8.:.i.i.0.:.:.8.:.:.:.p.i.i.i.i.y.q.1.1.7.7.:.e.i.:.:.:.8.:.:.:.i.i.e.",
":.7.<.' <.' ' ' 6.d.l.p.w.6.4.<.7.:.7.9.:.9.;.6.' <.' ' +.A.a.l.g.y.6.4.<.4.:.7.4.;.:.;.7.' <.<.+.+.' w.j.l.u.q.6.6.6.9.:.4.9.:.",
"7.7.4.9.:.q.4.4.<.q.y.7.4.1.7.4.4.7.+.' ' 6.7.4.7.:.;.6.9.6.6.i.q.q.6.4.4.6.9.<.' <.<.7.4.4.;.:.4.7.4.<.8.8.q.6.4.4.5.;.6.' ' ' ",
"9.:.1.C.A.C.8.s.G.} O.D.+.A.' +.A.+.6.7.4.7.9.q.C.C.C.1.p.P.} #.D.C.+.<.' ' ' <.7.4.7.8.7.<.C.A.C.y.d.D.} #.C.+.<.' ' <.' 7.7.4.",
"3.G.P.Y.P.Y.T.h.d.J.G.h.I.a.7.7.7.+.6.6.7.8.3.J.s.P.I.s.j.s.U.F.h.a.s.w.7.7.' <.4.q.8.3.J.I.U.P.Y.j.h.s.K.U.s.Y.w.q.9.5.+.1.4.7.",
"i.i.p.q.q.w.q.A.o.q.q.8.p.p.a.:.;.q.w.p.u.y.i.p.w.3.a.q.S.o.6.q.7.i.i.d.e.:.7.w.u.s.y.y.p.a.6.w.w.H.+.A.L.q.0.p.y.i.:.7.q.y.p.s.",
"g.i.:.;.7.1.' ' <.o.+.A.<.1.q.:.:.:.:.e.i.g.p.:.:.7.4.<.+.<.+.+.+.5.1.3.q.:.:.:.:.e.g.p.i.:.8.7.<.+.' ' +.+.<.5.q.q.:.:.:.:.e.i.",
"i.g.p.:.7.7.4.9.8.5.6.8.s.k.j.i.:.:.:.e.g.p.g.g.0.7.7.4.7.:.6.5.8.a.s.k.p.i.:.:.e.p.g.p.g.i.;.7.4.7.:.7.<.7.y.u.h.k.i.:.:.:.p.g.",
"8.8.i.:.8.:.:.:.:.:.4.q.w.S.A.a.a.w.6.6.7.7.8.8.:.:.:.:.:.:.:.7.6.w.L.A.L.a.8.q.6.4.7.9.8.:.:.:.:.:.:.:.9.6.q.w.A.H.a.w.8.6.4.q.",
",.4.7.:.:.:.7.9.:.4.6.7.8.7.+.<.<.+.+.+.<.1.,.7.:.:.:.8.7.:.7.1.7.8.7.<.+.<.+.+.+.+.<.4.7.9.:.:.:.7.8.7.1.4.;.8.6.+.5.' +.' ' ' ",
":.:.7.:.7.C.F.#.C.D.Z.8.g.f.q.7.:.8.q.0.i.:.:.7.;.8.<.F.} C.C.F.3.i.l.a.7.:.7.9.8.y.e.:.;.7.8.,.D.b.O.C.Z.S.0.k.k.6.8.9.9.q.i.i.",
"1.C.b.{ } D.j.Y.J.j.j.h.E.E.l.y.:.p.g.l.g.3.1.b.{ b.} I.j.J.s.E.h.j.E.l.p.:.i.k.f.l.y.1.C.} } b.G.E.P.P.l.j.h.E.l.k.i.i.g.k.l.p.",
"G.G.h.P.j.h.j.s.k.k.i.g.h.w.l.l.p.e.e.i.w.Z.G.h.I.s.h.h.h.s.l.p.p.k.w.j.l.g.i.e.i.y.Z.G.P.T.P.k.s.j.a.l.g.p.k.a.Y.l.g.i.0.i.p.1.",
"f.p.e.l.8.3.S.o.6.:.7.6.+.+.w.p.e.:.p.g.j.k.g.e.f.p.3.S.+.' 7.7.<.<.+.q.p.i.:.i.g.j.j.g.e.p.g.7.3.A.+.q.:.4.<.+.A.i.i.:.i.p.k.h.",
"e.:.9.q.<.<.+.+.+.' ' ' 7.4.4.9.:.:.i.:.i.e.:.9.7.1.+.<.' ' ' <.+.6.4.6.7.:.:.i.0.:.e.:.:.q.q.' <.+.+.+.' ' <.7.6.7.:.:.i.i.i.i.",
":.:.0.7.6.8.7.7.7.<.4.4.9.:.9.7.7.6.' 7.:.:.:.i.q.1.q.:.4.9.6.6.7.7.:.:.9.4.q.<.6.:.:.:.:.8.6.q.:.4.7.4.5.7.4.:.:.8.4.7.<.<.9.:.",
"8.g.l.g.g.s.:.7.7.5.4.9.7.9.4.' +.+.+.<.4.7.p.l.g.g.k.8.:.4.6.6.9.7.9.9.' +.' +.' 6.4.i.l.l.g.k.y.:.7.4.6.7.7.;.:.5.+.+.+.+.<.7."
};
