/* XPM */
static char *result[] = {
/* columns rows colors chars-per-pixel */
"64 64 213 2 ",
"   c #161C2E",
".  c #191F2F",
"X  c #1B2233",
"o  c #1E2A3D",
"O  c #242935",
"+  c #242A3C",
"@  c #2B2E3A",
"#  c #2A363A",
"$  c #35373A",
"%  c #3A443B",
"&  c #3C4B3C",
"*  c #4C583C",
"=  c #545A3E",
"-  c #56623D",
";  c #61743F",
":  c #1F3445",
">  c #242D44",
",  c #232F48",
"<  c #25344B",
"1  c #29394A",
"2  c #343747",
"3  c #3C3B43",
"4  c #283952",
"5  c #313D5C",
"6  c #433D43",
"7  c #2A4148",
"8  c #394747",
"9  c #3C5345",
"0  c #284756",
"q  c #35565A",
"w  c #2E4662",
"e  c #344867",
"r  c #2E5C6E",
"t  c #365467",
"y  c #365672",
"u  c #38616D",
"i  c #2F6073",
"p  c #346677",
"a  c #3C757E",
"s  c #4A4345",
"d  c #574D4C",
"f  c #465644",
"g  c #455B44",
"h  c #535544",
"j  c #555547",
"k  c #45565E",
"l  c #585855",
"z  c #63594E",
"x  c #655854",
"c  c #4D6647",
"v  c #566946",
"b  c #5C774B",
"n  c #4C6657",
"m  c #577556",
"M  c #5A7C52",
"N  c #667D43",
"B  c #657947",
"V  c #787C49",
"C  c #6B6253",
"Z  c #686856",
"A  c #75665B",
"S  c #7C6D5C",
"D  c #6B7A56",
"F  c #7B705F",
"G  c #4F5D65",
"H  c #5B6364",
"J  c #677068",
"K  c #767263",
"L  c #6F7070",
"P  c #83725E",
"I  c #8B7963",
"U  c #877E68",
"Y  c #937F66",
"T  c #5C8156",
"R  c #6D8244",
"E  c #66824C",
"W  c #6B8648",
"Q  c #778647",
"!  c #758C45",
"~  c #7A964B",
"^  c #638855",
"/  c #738359",
"(  c #6D9359",
")  c #769C59",
"_  c #7DA35A",
"`  c #7FAB5F",
"'  c #6E9B6E",
"]  c #739D6C",
"[  c #7B9D6C",
"{  c #6B9572",
"}  c #6E9870",
"|  c #729771",
" . c #76A565",
".. c #7CA464",
"X. c #7CA962",
"o. c #73A169",
"O. c #7DA169",
"+. c #819747",
"@. c #8A8D50",
"#. c #899358",
"$. c #959E5B",
"%. c #88A44B",
"&. c #94AD4D",
"*. c #96B44D",
"=. c #99B64F",
"-. c #9BB94E",
";. c #8AAB56",
":. c #83AD5D",
">. c #8BAE5C",
",. c #96A85A",
"<. c #92AE5D",
"1. c #8EB256",
"2. c #86B05D",
"3. c #8AB059",
"4. c #94B553",
"5. c #9AB653",
"6. c #97B852",
"7. c #9BB850",
"8. c #94B25A",
"9. c #9BB25B",
"0. c #A0B94F",
"q. c #A7AD55",
"w. c #B0AD56",
"e. c #A3B755",
"r. c #AAB757",
"t. c #A3B951",
"y. c #ABB954",
"u. c #A3B45B",
"i. c #ABB65B",
"p. c #AEB858",
"a. c #B3BA56",
"s. c #BABB57",
"d. c #B3B65D",
"f. c #B9B75D",
"g. c #B5B959",
"h. c #BCBA5A",
"j. c #9B876B",
"k. c #829B63",
"l. c #829E6B",
"z. c #938B76",
"x. c #A48B6E",
"c. c #A8906F",
"v. c #A88C71",
"b. c #AA9676",
"n. c #B69B77",
"m. c #83A563",
"M. c #8BA566",
"N. c #83AB61",
"B. c #8BAC61",
"V. c #84A169",
"C. c #8BA369",
"Z. c #95A766",
"A. c #93AC61",
"S. c #9BAA64",
"D. c #92A568",
"F. c #98B160",
"G. c #A4AE63",
"H. c #A8AF62",
"J. c #A9B261",
"K. c #ACB161",
"L. c #B4B463",
"P. c #C0BA5B",
"I. c #C6A77D",
"U. c #CBBA7F",
"Y. c #376C81",
"T. c #3F6E89",
"R. c #3C788B",
"E. c #3F7C92",
"W. c #416C89",
"Q. c #3E8296",
"!. c #3E889A",
"~. c #458489",
"^. c #468B98",
"/. c #4E9B9C",
"(. c #5A9599",
"). c #53A39F",
"_. c #4B9DA2",
"`. c #54A7A7",
"'. c #56ADAB",
"]. c #5AB4AD",
"[. c #8E8E8D",
"{. c #9A9689",
"}. c #A39A84",
"|. c #A5A384",
" X c #B6AA85",
".X c #A4A192",
"XX c #ABB898",
"oX c #96B9A2",
"OX c #B5B3A8",
"+X c #B3B3B0",
"@X c #C6A982",
"#X c #C7B489",
"$X c #D3B483",
"%X c #D7B886",
"&X c #D9BC89",
"*X c #C9BD9C",
"=X c #DDC28E",
"-X c #D7C798",
";X c #E2CA95",
":X c #E5D19D",
">X c #CCCAA6",
",X c #D6CCB7",
"<X c #DED5B5",
"1X c #EBDBA6",
"2X c #EBDAB9",
"3X c #EEE1B3",
"4X c #F3E5B3",
"5X c #F4E8B8",
"6X c #DDDACC",
"7X c #EBE1C6",
"8X c #F4EAC8",
"9X c #E6E3D4",
"0X c #EDEAE5",
/* pixels */
"t.a.h.s.9.4.:.X.X. .X. . .} } X.` ..o. .3.-.y.h.P.e.8.1.N. .X. .X. .o.{ ..N.N.o. .:.5.t.a.P.a.8.1.:.`  .X. . .o.{ o.X.:. .] N.1.",
"y.g.P.y.-.-.4.:.X.X. .' O.l.{ V.M.Z.Z.[ 5.y.a.h.a.t.-.4.;.X.X.X.o.' V.| ] C.m.S.[ >.y.a.s.h.y.-.=.3.` X. . .' V.[ | M.V.S.l.m.t.",
"t.-.y.g.y.-.-.-.4.A.M.C.f.h.G.L.h.f.P.d.g.y.-.t.a.a.0.-.-.4.8.B.V.J.P.K.L.P.f.P.f.f.y.0.e.a.y.t.-.-.=.1.B.C.S.h.L.G.P.h.P.h.d.a.",
"h.t.a.t.-.t.-.-.7.t.y.a.s.y.s.a.a.a.a.h.P.h.y.y.y.t.0.-.-.7.t.y.d.s.y.g.a.y.g.y.h.P.P.a.y.y.t.0.0.-.-.t.t.p.s.g.y.s.y.g.p.s.P.h.",
"a.a.a.e.5.8.7.-.-.-.-.-.t.6.t.-.-.-.0.a.y.y.y.a.y.5.8.5.6.-.-.-.-.t.-.0.7.-.-.-.y.y.y.a.a.y.5.8.5.5.5.-.-.-.-.-.-.0.-.-.-.y.a.t.",
"-.-.1.` X.X.X.X.8.y.h.r.5.4.1.3.6.6.-.-.-.-.-.1.:.X.X.X.X.1.u.s.a.t.4.4.3.4.-.-.-.-.-.-.6.;.N.X.X.X.:.5.g.s.r.5.=.3.1.6.-.5.-.-.",
"4.1.2.1.6.1.:.3.;.9.p.u.8.3.4.3.4.=.:.:.1.1.8.3.3.6.4.:.3.;.8.p.u.5.3.3.1.3.-.:.:.3.3.4.1.2.5.4.2.3.2.3.u.r.9.;.3.1.3.=.1.` 3.3.",
"4.6.4.;.1.;.5.e.M.m.:.:.` :.2.X.2.:.:.1.2.1.=.4.;.;.;.8.t.A...:...:.:.:.` :.3.:.1.2.2.4.5.1.;.>.;.t.9.m.:.m.:.:.2.:.` 2.:.3.3.:.",
"8.<.S.S.D.Z.i.h.p.C.C.G.A.A.3.3.3.X.3.1.5.5.>.A.S.D.Z.S.h.L.S.[ G.S.S.>.;.1.X.:.1.4.6.8.B.S.S.D.Z.f.g.J.[ S.S.S.>.3.3.:.` 1.4.5.",
"9.u.g.9.u.i.J.<.B.9.u.t.a.g.y.-.6.3.8.u.u.9.u.g.i.9.i.i.u.N.F.u.t.y.g.p.-.-.3.A.u.u.u.9.i.p.9.i.i.u.B.A.9.e.y.g.a.t.-.4.>.9.u.u.",
"y.-.-.4.1.>.` ` ..X.X.:.1.1.8.6.-.6.0.t.t.y.0.-.6.4.1.:...X. .X.:.1.3.3.4.-.-.t.0.-.y.0.-.-.*.1.:.X.X. . .:.3.1.3.8.-.6.7.0.7.t.",
"a.a.t.=.8.1.:.1.4.X.:.1.9.u.d.7.-.-.-.t.a.g.a.a.6.4.1.2.3.4.:.:.3.8.9.f.e.-.-.-.0.y.s.s.a.0.6.1.3.2.5.1.X.2.8.5.d.r.-.-.-.-.y.g.",
"-.t.t.-.-.-.-.-.-.6.5.9.u.9.F.p.r.7.5.4.t.-.t.t.7.-.-.-.-.-.6.4.5.J.5.8.i.r.7.5.4.6.7.-.r.t.6.-.-.-.-.-.6.8.u.u.S.u.y.e.5.5.6.7.",
"1.1.4.-.-.-.-.-.-.4.;.1.4.:.X.N.N.N. .X.` :.3.*.-.-.-.-.-.6.-.1._ %._ ( _ B.N.X.X.X.2.;.1.6.-.-.-.-.-.-.4.;.4.1.` X.N.N.N. .X.N.",
"4.-.-.-.-.>.m.m.1.m.B.4.y.y.>.4.6.3.;.8.4.5.-.=.-.-.4.m...1._ b % % 0 q 7 b ;.3.1.5.5.4.-.-.-.=.:.V.:.:.m.:.t.y.r.:.6.4.3.2.4.5.",
"4.;.[ :.O.l.K.S.l.H.K.u.s.P.d.5.-.t.a.a.s.7.1.l...X.[ G.G.[ 8 1 Q./.!.!.R.0 ; y.g.s.e.5.:...m.[ D.K.C.D.L.J.r.h.s.r.-.-.y.g.s.g.",
"V.C.G.C.J.G.f.s.s.h.a.s.h.d.h.a.y.0.y.y.5.V.V.G.D.S.G.i.h.@.7 ~.'._.'.`.!.R.1 @.y.e.m.V.S.S.D.J.H.P.f.f.s.a.h.d.g.P.a.t.y.t.y.<.",
"f.y.a.h.y.u.S.N.9.0.5.8.B.N.r.a.y.-.t.y.i.L.d.y.s.g.u.J.B.M a ].'.).].).0 p w = a.i.i.f.i.g.s.e.u.A.N.e.0.4.8.N.>.g.y.0.-.y.d.u.",
"t.-.-.e.3.` X.X.` 2.:.X.2.:.3.6.-.t.y.0.y.y.-.-.5.5.X.X. .m r ]._./.].~.o p y * 0.y.y.t.6.5.e.:.`  ...:.3.` ` 3.:.1.-.-.y.y.0.a.",
"-.-.8.;.` 4.3.3.3.` :.3.4.-.6.=.-.=.:.=.-.-.-.4.3.:.3.5.3.! # /.~.~.].a 5 W.5 f 4.-.-.-.-.4.:.:.6.3.3.:.` 3.3.-.6.5.-.-.1.;.-.-.",
"5.y.a.y.y.r.6.6.6.1.4.6.4.-.4.:.:.X.X.:.4.-.t.a.y.y.p.5.6.*.c a ~.R.].p 4 e > M :.4.6.7.a.a.y.p.e.6.=.4.3.6.6.6.-.1.N.:.X.X.1.6.",
"7.a.P.h.i.8.:.:.X. .X.:.` X...X.X.X. .X.:.4.y.h.h.g.9.:.:.` T 1 ~.u /.7 . + g  . .` 1.e.s.P.g.u.1.:.` X.X.` ` N.X...X.X. . .` 2.",
"a.s.h.a.-.6.1.`  .X. .' ] | { [ m.m.[ ] 5.y.s.h.s.-.6.*.:.( % 3 G t t H $ f k.V.] >.t.s.h.h.t.6.4.:.` X. ...' ] { { ..m.l.[ X.7.",
"t.t.a.g.t.-.-.4.3.N...[ G.d.C.H.i.L.f.G.i.t.t.a.s.y.-.-.1.g @ F ,X+XOX<XA @ D h.G.i.y.7.t.s.a.t.-.-.1.:.N.o.V.K.H.D.L.H.f.d.G.y.",
"a.t.t.y.-.-.-.-.0.e.p.d.h.a.h.s.s.s.s.P.h.s.t.t.y.t.7.0.! 6 Y S }.,X2X7X@XA 6 q.P.P.s.y.t.r.t.t.-.-.-.e.r.i.h.h.a.f.s.h.g.s.P.s.",
"g.a.s.t.e.e.0.-.-.-.7.t.y.-.y.0.7.e.t.h.g.s.a.s.a.t.e.t.= x I.=X8X[.OX3X$Xn.s Q s.s.g.s.g.a.t.e.t.-.-.-.7.e.y.t.0.y.-.0.-.s.s.g.",
"-.0.5.>.` ` :.:.5.t.a.t.-.-.4.4.-.-.-.t.-.-.0.7.1.` X.) 6 x.$X;X8XH .X8X;X%XP * 6.-.-.-.7.4.:.X.:.:.<.L.U.L.t.6.-.4.4.-.-.-.7.-.",
"-.1.:.:.4.:.` :.>.u.s.i.8.2.3.2.4.6.;.1.5.4.6.:.:.1.1.c 6 n.&X4X7X8 U 8X1X=Xc.$ ~ 5.4.6.3.:.3.1.N.) |.9X{.q.u.1.:.1.;.6.4.2.1.5.",
"1.4.4.8.-.4.5.8.:.>.8.;.3.3.1.2.3.3.X.2.( g R 4.4.4.-.* d n.j..X[.X 3 {.b.b.v.@ b 2.N.4.4.4.=.6.$.*X0X9XD ;.:.;.1.1.:.1.:.` :.` ",
"-.8.>.V.m.l.u.h.G.[ [ Z.m.N.` ` :.X.1.6.E $ C B m.V.V.8 A @XS @         8 j.v.3 N 5.6.4.>.B.V.n z.7X2X|.n C.C.m.N.X.:.:.:.4.4.4.",
"<.G.d.i.i.d.d.u.S.J.u.y.f.d.r.-.6.X.>.9.N o x K h @.f.f d I.:X>XL   + {.<X;Xv.6 B 9.u.,.i.d.V K :X=Xn.Z #.r.p.f.i.t.-.1.N.3.8.9.",
"0.0.t.8.>.<.N...X.N.:.8.4.5.8.-.=.5.e.y.Q r p J S d v % 6 n.;X4X>X+ l 8X3X;Xn.6 ~ a.&.=.t.B J  X&Xb.f ^ N.2.4.5.8.5.-.5.5.t.y.y.",
"s.y.0.6.4.3.N.;.1. . .:.3.8.u.6.-.-.7.t.Q i ^.~.z.I F A l Y ;X1X2XH [.5X1X&Xj.% &.R 9 v B K |.x.c.h ~ 2. .X.2.3.9.9.-.-.-.-.t.y.",
"0.y.y.-.4.6.4.-.7.5.4.e.d.d.i.y.t.7.7.7.R i !.(.#Xc.A A U $ n.3X8X6X7X3X;XP $ R ~ t i 7 j z.I c.h +.-.6.4.5.p.p.i.d.y.e.7.-.t.y.",
"1.4.-.-.-.-.-.-.-.6.3.3.8.X.X.A.A.3.N.:.M r ^.`.>X=XU.C F X 3 b.2X5X4X-XS O & :.T ~.0 s S d j.h +.-.-.-.8.;.8.1.X.N.A.3.>.` :.2.",
"1.4.-.-.-.4.;.1.4.:.>.-.7.t.:.3.1.:.N.>.M J (./.XX:X%XI S , e > l #Xb.2 , 4 9 _ g 0 Y.2 s A * +.4.:.4.8.:.1.6.t.5.N.1.2.:.` 2.3.",
"-.8.;.1.:.[ S.V...Z.S.9.s.h.u.4.7.t.t.a.V Y $XoXXX&XU.n.P 4 R.y 4 @ > w T.t v N 6 S q e 2 2 8 ) M.Z.V.V.S.Z.u.s.s.9.-.7.t.r.y.a.",
"m.m.D.[ Z.Z.f.f.L.h.h.f.P.h.P.p.7.y.a.a.V C &X:XoX(.I.x.I 4 Q.Q.W.e t W.Q.w Q = x I.P < 5 < 1 / G.P.d.L.h.s.h.h.h.h.t.t.y.a.a.e.",
"K.i.f.d.a.d.i.A.u.a.0.t.9.B.g.s.y.-.0.y.$.= I.&X]./.(.k C 1 T.Q.Q.W.W.E.w + B $ 3 x.c.O > > = q.d.u.F.p.y.7.r.A.S.h.s.t.7.t.y.A.",
"y.t.7.y.8.N.X...:.4.1.X.:.X.1.-.-.t.y.y.a.@.z I. XQ.Q.k s X , : 4 4 < > X ; R + + $ $ * N - e.1.X. . .1.5.:.X.:.:.5.-.-.y.y.y.s.",
"-.-.8.;.X.1.2.:.` X.` :.4.4.1.6.-.7.8.-.7.-.N C n./.i 8 % O X c c v ; & . ! *.E ! %.%.6.6.1.2.X.3.` ` ` ` :.2.6.4.1.-.-.4.4.-.-.",
"-.t.y.7.9.t.-.6.6.1.4.6.-.-.=.3.1.2.X.1.-.-.-.V l n 3 & R & . - ! W ~ * . b ;.X.3.5.-.-.r.r.6.e.0.6.-.4.3.6.4.-.-.4.2.3.:.` 4.-.",
"5.a.h.h.g.9.1.:.2.` :.3.2.3.:.` X. . .X.:.8.y.s.P O 9 B b & # c E E ; # X 9 ( X. .:.1.t.h.h.s.i.8.1.2.:.` :.3.;.1.` X... ...` 2.",
"y.g.P.a.5.4.3.`  . .X. .o.{ { ..X.N.o. .4.t.a.h.s.! E W B M T M M m m n f c ( ] o.>.7.y.s.P.y.4.4.:.X.X. .X.o.' { ' ..:...] ` 4.",
"t.y.s.a.t.-.4.3.:... .' C.G.[ Z.S.G.K.C.e.y.y.g.s.t.&.~ W E M M m m / D / $.Z.d.D.S.y.y.a.s.y.t.-.4.:.` ..o.] S.D.[ S.S.J.S.Z.y.",
"y.-.r.y.t.t.-.-.7.9.S.G.f.f.d.h.h.h.P.h.s.y.t.0.a.y.0.-.6.&.%.,.$.,.w.d.d.s.P.h.P.h.a.t.-.y.y.t.-.-.-.5.u.S.K.P.f.d.h.h.h.P.h.a.",
"h.a.s.y.t.t.-.-.-.t.0.a.a.t.a.t.t.y.y.P.h.h.a.a.y.t.t.7.7.t.t.t.y.s.t.y.y.t.y.t.h.P.h.s.a.a.t.t.t.-.-.7.0.t.a.y.t.a.t.y.t.a.P.h.",
"y.t.t.8.>.:.4.4.-.0.t.0.-.-.-.=.-.-.0.y.t.t.y.t.9.3.>.4.1.6.-.t.0.-.-.-.5.-.-.-.t.t.0.y.y.t.1.>.1.4.4.-.t.t.-.-.0.7.-.-.-.t.t.t.",
"-.6.:.` :.` ` ` >.i.f.a.5.3.1.2.4.-.4.4.6.-.=.1.` ` :.` X.:.u.h.g.e.3.3.2.1.-.4.1.-.6.=.1.:.:.:. .X.` 5.g.h.i.8.3.3.3.-.=.1.6.=.",
"1.4.1.6.-.8.1.1.3.8.e.4.>.;.4.3.1.4.` ` ` 3.1.1.4.-.*.3.5.1.;.e.8.8.3.4.1.;.4.:.` :.:.1.1.1.-.-.8.4.1.:.5.9.8.1.1.1.2.4.3.` :.` ",
"=.5.;.m.:.m.5.p.Z.] ..V...:.` X.:.` 1.4.1.4.=.8.m.m.:.;.p.S.O.O.V.X.N.X.X.:.` :.=.1.8.=.4.>.m.:.N.u.K.C.O.O.m.X.` ` X.:.` 4.1.1.",
"<.A.H.J.G.H.L.d.i.S.S.d.J.u.8.4.8.X.:.1.4.5.A.S.K.G.J.K.h.i.J.C.d.i.i.8.4.6.:.N.3.4.5.,.S.H.G.G.H.h.i.i.D.J.i.K.9.4.6.3.X.3.8.6.",
"e.t.y.8.8.F.8.N.X.A.8.6.t.r.e.7.4.8.e.i.y.e.e.y.9.8.u.8.B. .2.8.8.0.y.r.6.-.8.5.u.y.y.e.y.e.<.9.9.A.X.N.A.5.e.t.r.t.6.5.8.r.y.e.",
"a.t.-.=.5.1.` ` :. .X.N.3.>.8.6.-.-.-.-.0.a.y.-.-.4.1.:.X.:.`  .` :.:.<.5.-.-.-.-.0.y.y.e.-.=.1.:.X.:.X. .X.:.2.>.8.-.-.-.-.7.y.",
"y.a.a.-.8.1.1.6.6.2.3.5.e.g.h.r.0.-.-.0.a.y.a.a.7.6.4.1.4.7.1.2.5.i.p.d.p.-.-.-.7.y.g.y.a.t.4.4.4.4.6.4.2.1.e.r.f.g.t.7.-.-.y.a.",
"4.6.-.-.-.-.-.-.-.-.8.8.9.B.B.9.9.9.1.3.4.4.5.5.6.-.-.-.-.-.-.4.3.9.8.N.9.u.9.8.3.1.5.6.5.-.-.-.-.-.-.-.=.3.9.8.N.<.u.9.5.:.1.4.",
"3.8.4.-.-.-.4.4.-.1.1.4.-.8.` :.:.X.X.X.:.;.1.4.-.-.-.4.4.-.5.;.8.6.5.:.X.:.` X.X.X.2.1.4.6.-.-.-.8.-.4.;.8.4.5.3. .:.X.X.X.X.:.",
"-.-.4.*.4.:.V.O.m.V.M.8.a.a.8.4.6.6.5.5.r.t.-.4.=.5.:.C.[ m.O.C.<.t.s.u.8.-.4.4.4.r.0.-.-.4.-.1.m.l...V.M.B.7.g.p.8.-.6.6.5.7.r.",
";.m.l.[ l.l.L.L.S.f.s.i.h.h.s.e.-.y.g.s.y.8.N.l.] l.[ K.f.S.d.h.d.s.P.P.y.-.y.a.a.s.9.;...[ [ [ Z.h.G.G.h.d.d.P.P.g.t.t.a.g.g.a.",
"Z.S.d.G.d.d.h.i.d.s.y.a.d.G.h.s.y.-.t.t.9.M.Z.d.H.i.d.d.d.i.h.y.y.g.F.d.h.a.0.-.t.r.M.Z.G.d.H.f.d.d.i.s.a.y.s.u.u.P.g.t.7.t.y.>.",
"s.y.t.s.e.3.B. .3.-.4.2.N.X.5.y.-.0.y.a.d.s.y.t.s.y.8.B.X.` 6.6.2.:.X.8.y.0.-.y.a.g.d.s.0.y.g.4.<.N. .5.6.1.:.X.N.t.t.-.t.a.a.d.",
"-.-.4.8.:.N.X.X.X.` ` ` 1.1.3.6.-.0.t.-.t.0.-.6.8.;.` `  .X.` :.` 3.1.3.4.-.-.t.7.-.t.-.-.8.1.` :.X.X.X.:.X.:.4.3.1.-.-.t.7.-.y.",
"-.-.7.1.3.6.4.4.4.:.1.1.6.-.-.4.4.3.` 1.-.-.7.e.4.3.5.6.*.6.3.3.4.1.-.-.6.1.4.:.3.-.-.-.t.5.1.8.-.4.4.3.2.4.1.-.-.6.4.4.:.:.6.-.",
"7.a.h.a.s.r.5.4.1.3.1.=.4.-.1.X.X.X.X.:.1.5.y.s.g.g.d.5.6.1.3.3.=.4.6.6.` X.X...X.3.4.e.s.g.a.a.u.6.4.1.;.6.4.4.-.3.X.X.X.X.:.4."
};
