/* XPM */
static char *d0ea0e036379449bd2d3ecbd174ba86808OSCO8tWiP20ryA[] = {
/* columns rows colors chars-per-pixel */
"64 64 224 2 ",
"   c #1A202F",
".  c #1D2633",
"X  c #1E3238",
"o  c #282B36",
"O  c #332E3D",
"+  c #293637",
"@  c #35333A",
"#  c #38363E",
"$  c #323B38",
"%  c #422B3A",
"&  c #46393C",
"*  c #59373F",
"=  c #23493A",
"-  c #3C443B",
";  c #34483C",
":  c #39493C",
">  c #24543C",
",  c #2C5A3C",
"<  c #33583D",
"1  c #25623E",
"2  c #36633F",
"3  c #46473C",
"4  c #424C3C",
"5  c #43533D",
"6  c #425C3E",
"7  c #4B5D3D",
"8  c #535C3E",
"9  c #58683E",
"0  c #392A42",
"q  c #263D45",
"w  c #3C3144",
"e  c #3D3B41",
"r  c #452E48",
"t  c #463445",
"y  c #4C324C",
"u  c #5A364A",
"i  c #553948",
"p  c #593553",
"a  c #683A48",
"s  c #793F48",
"d  c #673C56",
"f  c #6A3D5B",
"g  c #723E55",
"h  c #304948",
"j  c #3B5444",
"k  c #394951",
"l  c #345656",
"z  c #386741",
"x  c #2A7743",
"c  c #30764A",
"v  c #3C6962",
"b  c #464745",
"n  c #4D4449",
"m  c #51464B",
"M  c #564C4D",
"N  c #445A45",
"B  c #4C5B42",
"V  c #52524F",
"C  c #684A4A",
"Z  c #6C5A45",
"A  c #74524F",
"S  c #784157",
"D  c #675854",
"F  c #4C6A44",
"G  c #586B43",
"H  c #41744A",
"J  c #5D7949",
"K  c #526B5A",
"L  c #5B7C52",
"P  c #557559",
"I  c #676747",
"U  c #726E46",
"Y  c #667A44",
"T  c #6B6355",
"R  c #406D66",
"E  c #417467",
"W  c #8D4951",
"Q  c #884758",
"!  c #934F50",
"~  c #904856",
"^  c #9C4D55",
"/  c #A44F54",
"(  c #A75155",
")  c #AD5255",
"_  c #B55555",
"`  c #B45A57",
"'  c #BB5F5A",
"]  c #85674A",
"[  c #926754",
"{  c #A9655D",
"}  c #A57C53",
"|  c #8E7F68",
" . c #B76961",
".. c #C07A69",
"X. c #398447",
"o. c #369B4C",
"O. c #368757",
"+. c #38B251",
"@. c #3A8361",
"#. c #54814A",
"$. c #6D8545",
"%. c #64824C",
"&. c #698449",
"*. c #6D8B4C",
"=. c #748546",
"-. c #758C47",
";. c #7C8249",
":. c #6A944F",
">. c #789247",
",. c #688755",
"<. c #788E55",
"1. c #6B945B",
"2. c #759B5A",
"3. c #48A852",
"4. c #47BA54",
"5. c #54B255",
"6. c #67A954",
"7. c #7FAB5F",
"8. c #7CBF5B",
"9. c #658D6C",
"0. c #6E9166",
"q. c #6E9B6E",
"w. c #7B9366",
"e. c #739D6C",
"r. c #7B9D6C",
"t. c #6B9572",
"y. c #6E9870",
"u. c #729771",
"i. c #739970",
"p. c #76A565",
"a. c #7CA464",
"s. c #7CA962",
"d. c #73A169",
"f. c #7DA169",
"g. c #7CC95D",
"h. c #8B884D",
"j. c #879D4A",
"k. c #929A4D",
"l. c #809F50",
"z. c #939A5A",
"x. c #B58955",
"c. c #8BA74B",
"v. c #95A44E",
"b. c #92AE4C",
"n. c #96B54F",
"m. c #9CB64F",
"M. c #9BB94E",
"N. c #87A355",
"B. c #8CAD57",
"V. c #83AD5D",
"C. c #8BAE5C",
"Z. c #92AE5D",
"A. c #9BAB58",
"S. c #8EB256",
"D. c #8AB059",
"F. c #94B553",
"G. c #9AB653",
"H. c #97B850",
"J. c #9BB850",
"K. c #94B25A",
"L. c #9CB25B",
"P. c #A0B94F",
"I. c #A8A554",
"U. c #ADAD54",
"Y. c #B1AE56",
"T. c #BFAB58",
"R. c #A3B755",
"E. c #A9B655",
"W. c #A4B951",
"Q. c #ABB954",
"!. c #ADB955",
"~. c #A4B45C",
"^. c #ACB65B",
"/. c #AEB858",
"(. c #B0BA56",
"). c #B3BA56",
"_. c #B3B65D",
"`. c #B9B75D",
"'. c #B5B959",
"]. c #B9BA59",
"[. c #BCBA5A",
"{. c #BFBA5B",
"}. c #BDB95C",
"|. c #96886A",
" X c #899665",
".X c #829E6B",
"XX c #9C9F63",
"oX c #B89E61",
"OX c #83A563",
"+X c #8AA566",
"@X c #83AA61",
"#X c #8BAC61",
"$X c #84A169",
"%X c #8BA369",
"&X c #94A666",
"*X c #9BA765",
"=X c #93AC61",
"-X c #9BAA64",
";X c #92A568",
":X c #97B060",
">X c #A4AE63",
",X c #A8AF62",
"<X c #A6B060",
"1X c #ACB161",
"2X c #B1B360",
"3X c #CA9C5D",
"4X c #DD9C5B",
"5X c #C2A159",
"6X c #D7A35A",
"7X c #C0BA5B",
"8X c #D1B254",
"9X c #E0A15B",
"0X c #EBBB54",
"qX c #F4D04E",
"wX c #EDC451",
"eX c #FFF15D",
"rX c #ECCF6A",
"tX c #FCEA6A",
"yX c #D9C596",
"uX c #E4CF80",
"iX c #FFF487",
"pX c #FAEF9F",
"aX c #EAD8A3",
"sX c #FFF7A6",
/* pixels */
"W.!.{.].G.S.C.s.s.s.s.p.p.q.q.s.V.s.e.p.S.J.Q.].{.E.F.D.V.s.s.s.s.p.e.t.p.7.V.d.d.C.F.W.).{.).F.S.V.s.s.s.s.p.d.t.d.s.V.d.d.s.F.",
"!.'.{.!.M.M.F.V.s.s.p.q.r..Xt..X+X;X&Xr.G.!.).{.'.J.M.F.C.s.s.s.e.e.$Xu.r.+X+X-Xr.C.Q.).].{.W.M.H.D.7.s.s.p.y..Xr.u.%XOX-X%XOXW.",
"W.M.Q.).Q.M.M.M.F.C.+X%X_.}.>X`.}.}.{._.'.Q.M.W.).!.W.M.M.F.C.#X$X1X{.1X1X}.`.7X`._.Q.W.W.).).W.M.M.F.K.#X$X-X}._.>X}.`.{.}._.!.",
"].W.!.W.W.W.M.M.W.W.!.'.].Q.].).).).).7X{.{.Q.!.Q.W.W.M.M.M.W.Q.'.{.!.).).!.).!.{.{.{.).Q.!.W.W.P.M.M.W.W.!.].).!.].!.).!.].7X{.",
").).).R.L.L.J.J.M.M.M.M.W.M.W.M.M.M.W.).Q.!.).).Q.G.K.G.F.M.M.M.M.W.M.W.M.M.M.M.).!.!.).).!.G.K.G.J.H.M.M.M.W.M.M.W.M.M.M.Q.).Q.",
"M.M.S.V.s.s.s.s.F.!.].!.G.F.S.D.H.M.H.M.M.M.M.F.V.s.s.s.s.C.E.].).W.F.F.D.F.M.M.H.M.M.M.F.C.7.s.s.s.V.G.'.'.W.F.F.D.S.M.M.J.M.M.",
"F.S.C.S.H.S.C.D.C.L.!.~.K.D.S.D.F.F.V.C.D.S.F.D.D.F.F.V.D.C.K.!.~.K.D.S.S.D.M.C.V.S.D.F.D.C.F.F.C.D.C.S.~.!.L.S.D.F.D.F.S.s.D.D.",
"F.H.F.C.S.C.J.R.+XOXV.OXV.V.C.s.C.V.V.S.V.S.F.F.C.B.B.F.W.Z.f.V.OXV.V.C.7.V.D.V.S.C.D.F.M.B.C.B.C.W.L.OXV.OX@XV.C.V.s.D.V.D.D.V.",
"F.C.&X-X;X&X^.{._.%X%X>X&X=XC.D.D.s.D.F.F.J.Z.=X-X;X&X-X{._.-Xr.>X-X-XC.D.S.s.V.F.F.J.F.C.-X-X;X&X_.{.1Xr.-X-X-X#XD.S.V.s.S.F.F.",
"L.~.'.L.~._.~.=X#XL.~.W.).'.!.M.F.C.K.~.~.~.~.'.~.L._.^.L.@XL.L.W.!.).'.W.M.D.C.~.~.~.L././.L.^.^.~.#X=XL.R.Q.).'.W.M.F.C.L.~.~.",
"Q.M.M.F.F.C.s.s.s.s.s.C.S.C.S.M.M.J.P.P.W.Q.W.M.F.F.S.V.s.s.s.s.V.D.D.D.F.M.H.M.P.W.Q.W.M.H.F.S.V.s.s.s.s.7.D.D.C.F.M.M.J.P.W.W.",
").).Q.J.F.S.C.S.F.7.V.K.L.~._.J.M.M.M.W.).'.).!.M.F.S.D.D.F.V.7.D.L.L._.E.M.M.M.M.!.'.).).W.F.F.D.C.F.S.s.V.K.L.^./.M.M.M.M.Q.'.",
"M.W.W.M.M.M.M.M.M.F.F.L.^.L.L./.E.R.F.F.G.M.W.W.M.M.M.M.M.M.H.F.L.~.~.:X^.Q.R.G.F.J.J.M.W.W.M.M.M.M.M.M.F.F.~.~.L.~./.R.G.F.J.J.",
"D.S.F.M.M.M.M.M.M.F.D.S.F.C.s.@X@X@Xs.s.7.C.D.F.M.M.M.M.M.M.J.S.D.F.D.s.@X@X@Xs.s.s.C.D.S.H.M.M.M.M.M.M.F.D.F.S.V.s.@X@Xs.s.s.V.",
"F.M.M.M.M.B.OXOXB.OX@XF.Q.!.C.F.F.S.D.S.F.J.H.M.M.M.F.@Xf.B.OXOXF.W.).K.D.F.S.D.S.F.J.F.A.J.M.F.C.f.V.C.OXB.M.!.E.V.F.S.D.D.F.G.",
"F.C.f.OXf..X1X-X$X1X1X~.{.7X_.J.M.Q.).).].G.S.OXa.OXr.>X>X$X-X2X~.'.7X].R.M.W.!.).].Q.F.|. XOXr.;X1X%X%X2X1X^.7X{.^.M.M.!.).].).",
"$X%X>X%X>X>X{.{.].{.).].{.^.{.).W.W.Q.Q.G.OX$X>X;X-X>X_.{._.{.).).{.^.{.{.Q.W.W.Q.E.@X$X*X>X;X1X,X{._.}.].).{._._.{.!.W.Q.Q.Q.Z.",
"{./.!.{.Q.~.L.@XK.Q.M.K.#X@X/.).W.M.W.).^._._.Q.].).~.~.#XC.E.M.F.Z.s.L.).!.U.Y.)._.1X_.Q.).].E.~.=X@XR.W.F.K.@XC.).!.W.M.Q.'.<X",
"W.M.F.R.D.s.s.s.7.D.V.s.D.V.D.H.M.W.!.W.!.Q.M.M.R.K.s.s.s.s.C.D.s.V.D.V.F.U.6XT.E.Q.!.W.M.G.G.V.s.s.s.V.D.7.s.D.V.S.M.M.Q.Q.W.).",
"M.M.F.D.V.F.S.D.C.s.C.D.F.M.F.F.M.F.C.F.M.M.M.J.S.V.S.F.D.S.V.V.D.F.M.F.H.U.0X8X5X5XU.m.H.F.V.V.F.D.S.V.s.D.D.M.H.F.J.M.S.D.M.M.",
"H.Q.).Q.Q.Q.J.H.F.S.F.H.F.M.F.V.V.s.s.C.F.J.W.'.!.Q.!.G.H.J.S.F.H.c.b.M.C.@X3XoX3X0X6X3XI.).Q./.R.J.H.F.S.F.F.H.M.S.s.V.s.s.S.F.",
"G.).{.{.^.K.C.V.s.s.s.V.s.s.p.s.s.s.p.s.V.F.Q.].{.'.L.C.V.s.s.p.%.3 B p.s.s.&XXXoXqXqX9X} Y.].~.D.C.7.s.s.7.V.s.s.p.s.s.p.p.s.C.",
").].{.).H.H.S.7.s.s.s.e.e.u.t.r.OXOX.Xe.F.!.'.{.].J.H.F.V.s.1.j * ^ b 9.e.OX@X Xx.0XeXwX} I.Q.H.F.C.s.s.s.p.q.r.t.t.f.OX$Xr.s.J.",
"W.W.).).Q.M.M.F.D.@Xa.r.>X_.%X1X1X_.`.>X/.W.W.).k.7 $.M.F.*.+ t ` ' C P -Xz.z.h.x.wXiXrX] I.).W.M.F.F.V.@Xe.$X1X,X%X_.1X`._.>X!.",
").W.W.Q.W.M.M.M.W.E.^._.{.).].].].].].7X{.].W.W.>.F 6 Y 7 & % u  .' { & I 5 U ] 4XtXtXwXZ v.W.W.M.M.M.W.E.^.`.].'.].'.{.'.{.7X].",
"].).].Q.R.R.J.M.M.M.M.W.Q.M.Q.P.M.J.W.].'.].).].v.z #.  0 S / S W _ W = 6.:.7 [ 0XsXiXx.U ).W.R.W.M.M.M.M.M.Q.W.W.Q.M.W.M.).].).",
"M.W.J.C.s.s.C.C.J.W.).W.J.H.F.F.M.M.M.M.M.M.P.J.B.z $ u a t S ( _ W N 3.8.7 Y Z uXpXrXI c.F.V.s.V.C.D.J.Q.!.W.H.H.F.F.M.M.M.M.M.",
"M.F.V.C.S.V.s.V.C.~.].^.K.C.D.C.F.M.D.S.F.F.F.C.V.4 p S ~ / ^ / _ D O.5.F F c.T yXaX|.B D.V.D.S.7.V.V.K./.'.~.S.C.D.C.F.F.C.F.F.",
"S.F.F.F.J.F.F.J.V.C.F.C.D.D.S.V.D.S.s.V.V.C.F.H.>.o r y y g ~ ) ) V @.3.+ - >.T | |.|.B F.F.F.J.S.H.F.V.F.B.C.C.S.D.V.F.V.V.V.s.",
"J.F.#X%XOX$XL.].>Xr.r.&XOX@XV.V.V.s.S.F.F.H.F.<.< H X.x = o 0 g / u K H A A L N e o # G Z.+X$XOX+X/._.&Xe.%X+X@X@XV.V.V.s.F.F.F.",
"L.-X_.^.1X_._.~.L.<X~.!._._.E.M.F.@XC.K.L.~.<.j 6.g.4.+.+.c q o W _ ( { ..[ L L n M - N.<X_.<X2X_._.L.~.-X^.!.'./.W.M.S.@XZ.K.L.",
"W.W.W.F.S.K.@Xs.s.@XC.S.F.K.L.M.J.G.W.W.Q.k.2 o.3.X.> 1 O.E l X * _ _ '  .A $.=.D T Y W.W.G.S.K.C.@Xs.p.@XD.F.G.L.G.M.F.G.W.W.Q.",
"'.!.W.M.F.D.V.C.D.s.s.V.D.K.~.H.M.M.M.W.!.;.> , 6 J + h l E v . y ) ) ^ a @ j.9 M m h.].Q.M.F.F.C.V.D.V.s.s.V.C.L.L.M.M.M.M.W.).",
"W.!.!.M.F.F.F.M.M.F.F.E././.^.!.W.M.H.J.Q.v.=.k.m.c.h v E R l w Q ( ( ^ ~ i >.2 + : 8 R.).W.H.H.F.F.M.F.F.G.^./.^._.Q.W.J.H.W.!.",
"S.F.F.M.M.M.M.M.M.F.D.C.K.@Xs.=X=XC.@XV.C.S.F.F.M.j.@ k R k t d ^ _ _ ! a & F 1 #.g.< l.F.H.M.M.M.M.M.M.F.C.K.S.s.@X=XC.C.s.V.C.",
"S.F.M.M.M.F.C.B.F.V.C.M.W.G.V.D.D.V.V.V.D.S.F.F.>.5 y d m d f f g ( _ / * o . X 3.4.2 N.H.M.M.M.F.C.F.F.V.S.M.W.F.V.S.C.V.V.V.D.",
"M.F.C.S.V.f.-X$Xr.&X-XL.'.{.~.J.M.J.E.!.).W.H.Y , = t t t y y y i i C C C t 9 : 1 x G m.B.C.S.OX%X&Xr.$X-X=XR.{.].L.M.M.W.E.!.).",
"OX$X;Xr.;X;X{.{.2X{.{.].{.{.{.!.W.!.).).E.#Xf.j o.c e b D # n n M T T D M e ;.B O o <.OX%X%Xr.;X-X7X_._.{.].{.{.}.].W.W.).).).R.",
"1X^.'._.'._.^.=X~.).W.E.L.#X'.].Q.M.M.Q.L.-X1XG x > . @ e # O t y y u u g a 8 G n - &X1X/.'._.)._.~.=X/.Q.J.~.=XL.{.'.W.M.W.!.=X",
"!.W.J.).F.s.s.p.V.F.S.s.V.s.K.J.M.W.!.Q.'.).W.b.=.3 m t O M w y p d a s s * 3 k.=.v.].Q.M.W.!.D.s.s.s.D.F.C.s.7.V.G.M.M.Q.!.!.].",
"M.M.F.D.s.D.V.V.V.s.V.V.F.F.F.H.M.J.F.M.M.M.M.F.S.,.e . ; b $ : - - : o $ -.c.F.H.M.M.M.F.S.V.7.S.V.V.s.s.V.C.M.F.F.M.M.J.F.M.M.",
"M.W.Q.J.L.W.H.M.F.D.F.F.J.M.M.D.D.C.s.S.M.M.J.E.j.-.- $ $.$.Y &.$.$.-.7 o J *.1.V.H.M.M.Q.E.G.R.W.F.M.F.S.J.F.M.M.F.C.S.7.s.F.M.",
"J.).{.].'.L.S.D.V.s.V.D.C.S.V.s.s.s.s.s.V.S.Q.Y.h.;.4 5 %.%.L L %.%.%.J ; N L L 7.V.D.R.].{.]._.K.S.C.V.s.C.D.D.D.s.s.s.s.s.s.C.",
"!.).{.).J.F.D.s.p.s.s.p.d.t.t.a.@Xs.r.d.F.W.).].U.j.-.*.%.L L L L P P K L ,.,.0.e.C.J.!.].{.Q.F.F.V.s.p.s.s.d.q.t.e.s.V.f.e.s.F.",
"W.!.].).W.M.F.D.V.s.p.y.%X-Xr.&X-X>X1X%X~.Q.Q.'.].W.m.n.N.2.2.1.9.w.z.w..X*X-X2X;XL.Q.Q.).{.Q.W.M.F.C.s.s.d.i.-X;Xr.-X&X1X-X+XQ.",
"!.M.W.!.W.M.M.M.G.L.-X>X{.{._.{.{.{.{.{.].).J.J.!.Q.W.M.M.J.L.L.-X{.{._.{.{.{.{.{.{.).W.M.Q.!.W.M.M.M.G.L.-X1X{.]._.{.{.{.{.{.).",
"{.!.'.Q.W.W.M.M.M.M.W.!.).W.).W.W.W.!.{.{.{.).).!.W.W.W.M.M.P.W.Q.).W.!.!.W.Q.W.{.{.{.'.).).W.W.W.M.M.P.M.W.).Q.W.).W.Q.W.'.{.{.",
"Q.Q.W.F.C.C.F.F.M.M.W.M.M.M.J.H.M.M.P.Q.W.W.Q.Q.G.S.C.F.F.F.M.W.W.M.M.M.J.M.M.M.W.W.W.Q.Q.R.K.C.S.F.F.M.W.W.M.M.M.H.M.M.M.W.W.W.",
"M.F.C.7.V.s.s.s.D./.{./.L.D.D.C.F.M.F.F.M.M.H.D.7.V.V.s.s.V.~.].'.~.D.S.C.S.M.F.F.M.M.M.F.V.V.V.s.s.s.L.'.].^.K.D.D.D.M.M.F.M.M.",
"S.F.S.F.M.F.S.F.C.K.R.K.S.D.F.D.S.F.s.V.V.D.F.S.F.M.F.S.F.C.B.R.L.F.D.S.S.D.F.V.s.V.V.F.F.S.H.M.S.F.S.C.G.G.F.S.S.F.C.F.D.s.V.V.",
"F.F.B.OX@XOXG./.&Xr.f.OXs.@X7.s.V.s.D.F.S.F.F.F.@XOX@XB.!.>Xr.a.$Xa.@XV.s.7.V.V.F.S.F.F.F.@XOX@X@XE.^.$Xr.$XOXs.V.s.s.V.s.F.F.S.",
"Z.=X>X1X>X1X_._.^.-X-X_.1X~.K.F.F.s.V.S.F.G.=X-X1X>X1X1X{.^.1X%X/.^.^.L.F.F.V.V.S.K.G.Z.-X1X>X>X1X{.^.^.;X~.^.^.L.F.F.D.s.C.K.F.",
"R.E.Q.K.K.~.=X@Xs.#XK.J.W.Q.E.M.F.K.L.^.Q.E.R.!.L.D.~.K.#Xs.#XK.F.W.E.^.J.M.F.L.^.^.Q.R.Q.~.D.L.L.=Xs.@X=XF.J.E.E.W.M.F.K.~.^.Q.",
").W.M.M.F.D.7.s.V.p.s.7.C.C.K.H.M.M.M.M.W.).Q.M.M.F.S.V.s.V.s.s.s.C.V.Z.F.M.M.M.M.W.!.!.W.M.F.F.V.s.V.s.p.s.V.V.C.K.M.M.M.M.M.Q.",
"Q.).!.H.F.F.S.F.F.C.S.G.^.'._.Q.M.M.M.W.).!.).).J.F.F.S.F.M.S.D.F.^.^._.!.P.M.M.M.!.).!.).W.F.F.F.F.M.F.C.F.E.^.'.'.W.M.M.M.W.).",
"F.J.J.M.M.M.M.M.M.M.F.K.L.#X#X~.L.L.S.D.F.F.J.G.M.M.M.M.M.M.M.F.D.L.Z.@XL.~.L.K.D.S.F.F.J.J.M.M.M.M.M.M.F.S.L.K.@X=X~.L.K.C.S.F.",
"D.S.F.M.M.M.F.F.M.S.D.F.J.F.7.V.V.s.s.s.V.D.S.F.M.M.M.F.F.M.F.C.F.M.F.V.s.V.s.s.s.s.C.D.F.M.M.M.J.F.M.J.S.S.F.F.D.s.V.s.s.s.s.V.",
"M.M.F.J.F.@X%Xr.OX$X+XF.).].K.F.M.F.F.G.E.P.M.F.F.F.C.+Xr.OX$X+XZ.Q.].~.F.M.F.F.G.E.W.M.F.F.J.B.OX$Xf.OX%X#XG.'./.S.M.F.F.F.R.E.",
"C.OX.Xe..X.X`.1X-X`.{._.{.7X].W.M.!.).].).K.V.$Xr.r.r.1X`.-X1X}._.].7X{.Q.M.Q.).].].L.C.$Xr.r..X&X}.>X>X}._._.7X7X'.J.W.).'.].!.",
"&X-X_.>X_._._.^._.].Q.).^.L.{.].Q.W.W.W.L.+X&X_.,X^._._.^.^.].!.!.'.L._.{.).W.M.W.R.+X&X>X_.,X_._._.^.].).Q.'.~.^.7X'.W.M.W.E.C.",
"].Q.W.].R.C.#Xs.C.J.F.V.@Xs.G.W.W.M.!.)._.].!.W.).!.S.#Xs.@XJ.H.D.@Xs.K.Q.W.M.W.!.'._.).W.Q.).F.C.@Xs.F.J.S.V.s.@XE.W.M.W.!.)._.",
"M.M.F.K.V.V.s.s.s.7.7.s.F.S.D.F.M.W.W.M.W.W.M.F.F.C.7.V.s.s.s.V.s.D.F.D.F.M.M.W.J.W.W.M.H.F.K.7.V.s.s.s.V.s.V.F.D.S.M.M.W.J.M.W.",
"M.M.G.S.D.H.F.F.F.C.S.F.F.M.M.F.F.S.7.F.M.M.M.W.F.D.F.H.F.F.D.D.F.F.M.M.F.F.F.7.D.M.M.M.W.G.D.K.M.F.F.S.C.F.F.M.M.H.F.F.C.V.H.M.",
"J.).{.).'.^.J.F.F.C.S.F.F.M.F.s.s.s.s.V.S.F.Q.{.).).'.G.F.F.D.D.F.F.J.F.V.s.s.s.s.D.F.R.].].).'.~.J.F.S.C.F.F.F.M.C.s.s.s.s.C.F."
};
