/* XPM */
static char *_dfaa7ba765d490da804f75f2e0ce9a4Btil5MlArutGCalG[] = {
/* columns rows colors chars-per-pixel */
"64 64 225 2 ",
"   c #1B202F",
".  c #1D2533",
"X  c #1F3238",
"o  c #262734",
"O  c #242C33",
"+  c #2B2C3B",
"@  c #342E3D",
"#  c #2A3638",
"$  c #35373A",
"%  c #38363E",
"&  c #422B39",
"*  c #46373B",
"=  c #58353E",
"-  c #23493A",
";  c #354439",
":  c #3A433C",
">  c #38493B",
",  c #3B4A3C",
"<  c #23543C",
"1  c #295A3C",
"2  c #39553D",
"3  c #25623E",
"4  c #31623F",
"5  c #42433D",
"6  c #454B3D",
"7  c #48583D",
"8  c #555F3F",
"9  c #48633E",
"0  c #55683E",
"q  c #392A42",
"w  c #263D45",
"e  c #3C3144",
"r  c #3E3A41",
"t  c #452E48",
"y  c #453144",
"u  c #463545",
"i  c #4C324C",
"p  c #543747",
"a  c #5B3D44",
"s  c #52354D",
"d  c #593553",
"f  c #643842",
"g  c #6B3C4C",
"h  c #783F48",
"j  c #663C56",
"k  c #6A3D5B",
"l  c #723E55",
"z  c #384B42",
"x  c #394951",
"c  c #345656",
"v  c #396840",
"b  c #2A7743",
"n  c #30764A",
"m  c #3C6962",
"M  c #464443",
"N  c #4D4449",
"B  c #51464B",
"V  c #564C4D",
"C  c #465744",
"Z  c #585943",
"A  c #525053",
"S  c #684A4B",
"D  c #71544D",
"F  c #76564C",
"G  c #764259",
"H  c #675854",
"J  c #4B6A44",
"K  c #4F684F",
"L  c #41744A",
"P  c #587346",
"I  c #5F7D4D",
"U  c #5B7D53",
"Y  c #577458",
"T  c #656C46",
"R  c #657B44",
"E  c #6B7A46",
"W  c #72764F",
"Q  c #7C7A49",
"!  c #696254",
"~  c #406D66",
"^  c #417467",
"/  c #8A4756",
"(  c #904753",
")  c #9B4C55",
"_  c #945251",
"`  c #A64F53",
"'  c #A65056",
"]  c #AC5156",
"[  c #AA5859",
"{  c #B55555",
"}  c #B95957",
"|  c #886950",
" . c #B2715A",
".. c #967166",
"X. c #AC6E62",
"o. c #BE6B61",
"O. c #C17B6A",
"+. c #398447",
"@. c #369B4C",
"#. c #368757",
"$. c #38B251",
"%. c #3A8361",
"&. c #54814A",
"*. c #6E8443",
"=. c #64824D",
"-. c #698348",
";. c #6C894B",
":. c #708545",
">. c #77874B",
",. c #79964A",
"<. c #7C9449",
"1. c #658755",
"2. c #6D965B",
"3. c #749154",
"4. c #779958",
"5. c #48A852",
"6. c #47BA54",
"7. c #54B255",
"8. c #67A954",
"9. c #7EA75A",
"0. c #7FAB5F",
"q. c #7DBF5B",
"w. c #648B64",
"e. c #6E9166",
"r. c #6E9B6E",
"t. c #7B9366",
"y. c #739C6C",
"u. c #7B9D6C",
"i. c #6B9572",
"p. c #6E9870",
"a. c #729771",
"s. c #739970",
"d. c #76A565",
"f. c #7CA464",
"g. c #7CA962",
"h. c #73A169",
"j. c #7DA169",
"k. c #7CC95D",
"l. c #82864A",
"z. c #8A8D4C",
"x. c #839A49",
"c. c #889D4D",
"v. c #919F4E",
"b. c #8A8F53",
"n. c #949857",
"m. c #A28C59",
"M. c #B48253",
"N. c #8FA24C",
"B. c #95AA4D",
"V. c #97B44E",
"C. c #9BB94E",
"Z. c #86A752",
"A. c #8DAF57",
"S. c #83AD5D",
"D. c #8BAE5C",
"F. c #9EA35B",
"G. c #92AE5D",
"H. c #99AD5E",
"J. c #8EB256",
"K. c #87B15D",
"L. c #8AB059",
"P. c #94B553",
"I. c #9AB653",
"U. c #97B852",
"Y. c #9BB850",
"T. c #94B25A",
"R. c #9CB25B",
"E. c #A0B94F",
"W. c #A8AE55",
"Q. c #B1AA58",
"!. c #A3B755",
"~. c #AAB655",
"^. c #A3B951",
"/. c #ABB954",
"(. c #ADB955",
"). c #A3B45C",
"_. c #ABB65B",
"`. c #AEB858",
"'. c #B3BA56",
"]. c #B8B857",
"[. c #B3B65D",
"{. c #B9B75C",
"}. c #B5B959",
"|. c #B9BA59",
" X c #BCBA5A",
".X c #BFBA5B",
"XX c #BDB95C",
"oX c #96866C",
"OX c #8E9162",
"+X c #829E6B",
"@X c #AC8C60",
"#X c #83A563",
"$X c #8AA566",
"%X c #83AB61",
"&X c #8BAC61",
"*X c #84A169",
"=X c #8BA369",
"-X c #95A666",
";X c #93AC61",
":X c #9BAA65",
">X c #92A568",
",X c #A4AE63",
"<X c #A8AF62",
"1X c #A6B060",
"2X c #ACB161",
"3X c #B1B360",
"4X c #CC9B5D",
"5X c #DC9D5C",
"6X c #C5A45A",
"7X c #CEA35D",
"8X c #D2A158",
"9X c #C0BA5B",
"0X c #E3A958",
"qX c #E6B359",
"wX c #F2CA4E",
"eX c #F6D84D",
"rX c #FAE24F",
"tX c #DDC061",
"yX c #FCE761",
"uX c #FEEE76",
"iX c #D9C595",
"pX c #EAD691",
"aX c #FEF38F",
"sX c #EAD8A2",
"dX c #FFFBBB",
/* pixels */
"^.(..X|.I.J.D.g.g.g.g.d.d.r.r.g.S.g.y.d.J.Y./.|..X!.P.L.S.g.g.g.g.d.y.i.d.0.S.h.h.D.P.^.'..X'.P.J.S.g.g.g.g.d.h.i.h.g.S.h.h.g.P.",
"(.}..X(.C.C.P.S.g.g.d.r.u.+Xi.+X$X>X-Xu.I.(.'..X}.Y.C.P.D.g.g.g.y.y.*Xs.u.$X$X:Xu.D./.'.|..X^.C.U.L.0.g.g.d.p.+Xu.a.=X#X:X=X#X^.",
"^.C./.'./.C.C.C.P.D.$X=X[.XX,X{.XXXX.X[.}./.C.^.'.(.^.C.C.P.D.&X*X2X.X2X2XXX{.9X{.[./.^.^.'.'.^.C.C.P.T.&X*X:XXX[.,XXX{..XXX[.(.",
"|.^.(.^.^.^.C.C.^.^.(.}.|./.|.'.'.'.'.9X.X.X/.(./.^.^.C.C.C.^./.}..X(.'.'.(.'.(..X.X.X'./.(.^.^.E.C.C.^.^.(.|.'.(.|.(.'.(.|.9X.X",
"'.'.'.!.R.R.Y.Y.C.C.C.C.^.C.^.C.C.C.^.'./.(.'.'./.I.T.I.P.C.C.C.C.^.C.^.C.C.C.C.'.(.(.'.'.(.I.T.I.Y.U.C.C.C.^.C.C.^.C.C.C./.'./.",
"C.C.J.S.g.g.g.g.P.(.|.(.I.P.J.L.U.C.U.C.C.C.C.P.S.g.g.g.g.D.!.|.'.^.P.P.L.P.C.C.U.C.C.C.P.D.0.g.g.g.S.I.}.}.^.P.P.L.J.C.C.Y.C.C.",
"P.J.D.J.U.J.D.L.D.R.(.).T.L.J.L.P.P.S.D.L.J.P.L.L.P.P.S.L.D.T.(.).T.L.J.J.L.C.D.S.J.L.P.L.D.P.P.D.L.D.J.).(.R.J.L.P.L.P.J.g.L.L.",
"P.U.P.D.J.D.Y.!.$X#XS.#XS.S.D.g.D.S.S.J.S.J.P.P.D.A.A.P.^.G.j.S.#XS.S.D.0.S.L.S.J.D.L.P.C.A.D.A.D.^.R.#XS.#X%XS.D.S.g.L.S.L.L.S.",
"P.D.-X:X>X-X_..X[.=X=X,X-X;XD.L.L.g.L.P.P.Y.G.;X:X>X-X:X.X[.:Xu.,X:X:XD.L.J.g.S.P.P.Y.P.D.:X:X>X-X[..X2Xu.:X:X:X&XL.J.S.g.J.P.P.",
"R.).}.R.).[.).;X&XR.).^.'.}.(.C.P.D.T.).).).).}.).R.[._.R.%XR.R.^.(.'.}.^.C.L.G.).).).R.`.`.R._._.).&X;XR.!./.'.}.^.C.P.D.R.).).",
"/.C.C.P.P.D.g.g.g.g.g.D.J.D.J.C.C.Y.E.E.^./.^.C.P.P.J.S.g.g.g.g.S.L.L.L.P.C.U.C.E.^./.^.C.U.P.J.S.g.g.g.g.0.L.L.D.P.C.C.Y.E.^.^.",
"'.'./.Y.P.J.D.J.P.0.S.T.R.).[.Y.C.C.C.^.'.}.'.(.C.P.J.L.L.P.S.0.L.R.R.[.!.C.C.C.C.(.}.'.'.^.P.P.L.D.P.J.g.S.T.R._.`.C.C.C.C./.}.",
"C.^.^.C.C.C.C.C.C.P.P.R._.R.R.`.!.!.P.P.I.C.^.^.C.C.C.C.C.C.U.P.R.).).H._./.!.I.P.Y.Y.C.^.^.C.C.C.C.C.C.P.P.).).R.).`.!.I.P.Y.Y.",
"L.J.P.C.C.C.C.C.C.P.L.J.P.D.g.%X%X%Xg.g.0.D.L.P.C.C.C.C.C.C.Y.J.L.P.L.g.%X%X%Xg.g.g.D.L.J.P.C.C.C.C.C.C.P.L.P.J.S.g.%X%X%Xg.g.S.",
"P.C.C.C.C.A.#X#XA.#X%XP./.(.D.P.P.J.L.J.P.Y.U.C.C.C.P.%Xj.A.#X#XP.^.'.T.L.P.J.L.J.P.Y.P.C.C.C.P.D.j.S.D.#XA.C.(.!.S.P.J.L.L.P.I.",
"P.D.j.#Xj.+X2X:X*X2X2X)..X9X[.Y.C./.'.'.|.I.J.#Xf.#Xu.,X,X*X:X3X).}.9X|.!.C.^.(.'.|./.P.%Xj.#Xu.>X2X=X=X3X2X_.9X.X_.C.C.(.'.|.'.",
"*X=X,X=X,X,X.X.X|..X'.|..X_..X'.^.^././.I.#X*X,X>X:X,X[..X[..X'.'..X_..X.X/.^././.!.%X*X:X:X>X2X<X.X[.XX|.'..X[.[..X(.^./././.G.",
".X`.(..X/.).R.%XT./.C.T.&X%X`.'.^.C.^.'._.[.[.~.|.'.).).&XD.!.C.P.G.g.R.'./.C.^.(.[.2X[./.'.|.!.).;X%X!.^.P.T.%XD.'.(.^.C./.}.1X",
"^.C.P.!.L.g.g.g.0.L.S.g.L.S.L.U.C.^.].6X7XQ.@X@XQ.H.g.g.g.g.D.L.g.S.D.S.P.C.C.(.^./.'.^.C.I.I.S.g.g.g.S.L.0.g.L.S.J.C.C././.^.'.",
"C.C.P.L.S.P.J.L.D.g.D.L.P.C.P.P.C.I.4X0X6XI.F.F.m.OXJ.P.L.J.S.S.L.P.C.P.P.C.U.L.J.C.C.C.U.P.S.S.P.L.J.S.g.L.L.C.U.P.Y.C.J.L.C.C.",
"U./.'./././.Y.U.P.J.P.U.P.C.P.S.S.F.0XeX7X!.^.'.~.W.(.Y.U.B.Z.P.C.P.C.C.D.0.S.d.S.P.P.Y.'.'./.`.!.Y.U.P.J.P.P.U.C.J.g.S.g.g.J.P.",
"I.'..X.X_.T.D.S.g.g.g.S.g.g.d.g.g.3.8XwX0X4X6XXX.X}.R.K.S.C M U 0.g.g.f.g.g.g.d.d.S.J.^.}.9X|.).L.D.0.g.g.0.S.g.g.d.g.g.d.d.g.D.",
"'.|..X'.U.U.J.0.g.g.g.y.y.a.i.u.#XW  .wXyXqX5X7X.XY.U.P.9.C _ = z w.u.i.y.#X#X*Xy.D.^.'.|..X^.P.P.D.g.g.g.d.r.u.i.i.j.#X*Xu.g.Y.",
"^.^.'.'./.C.C.P.L.%Xf.u.,X[.=X2X3Xn.F qXuXyXrXqXm.B.x.C.R S o.X.y # b.-X:XW C n.2X_./.^./.|.(.^.C.P.P.S.%Xy.*X2X<X=X[.2X{.[.,X(.",
"'.^.^./.^.C.C.C.^.!._.[..X'.|.|.|.|.Q M.wXaXaXeX| R 2 0 $ X.o...s & * Z Q C J z.9X.X|.(.^./.^.^.C.C.C.^.!._.{.|.}.|.}..X}..X9X|.",
"|.'.|./.!.!.Y.C.C.C.C.^./.C./.E.C.^.V.T M.rXdXuXm.E ;.8.- ( ] G G ) l q   &.v N.|.|.}.}.}.'.^.!.^.C.C.C.C.C./.^.^./.C.^.C.'.|.'.",
"C.^.Y.D.g.g.D.D.Y.^.'.^.Y.U.P.P.C.C.C.x.Z tXaXpX! 1.C q.5.K ( ] / j p f p # 9 V.C.C.C.E.Y.P.S.g.S.D.L.Y./.(.^.U.U.P.P.C.C.C.C.C.",
"C.P.S.D.J.S.g.S.D.).|._.T.D.L.D.P.C.L.J.8 oXsXiX! ,.0 J 7.#.H ] ) ) ) / G s 7 J.L.P.P.P.L.S.L.J.0.S.S.T.`.}.).J.D.L.D.P.P.D.P.P.",
"J.P.P.P.Y.P.P.Y.S.D.P.D.L.L.J.S.L.L.g.S.C oXoX..! ,.: # 5.%.A ] ' / j i i t O 1.S.S.S.P.P.P.P.Y.J.U.P.S.P.A.D.D.J.L.S.P.S.S.S.g.",
"Y.P.&X=X#X*XR.|.,Xu.u.-X#X%XS.S.S.g.J.P.J % + u Z Y D F L ~ a ' j q + - b +.L 2 <.U.P.P.A.$X*X#X$X`.[.-Xy.=X$X%X%XS.S.S.g.P.P.P.",
"H.:X[._.2X[.[.).R.1X).(.[.[.!.C.P.%XD.T.G.: V N >.>.| O.X.[ { ( + w n $.$.6.k.8.2 3.).H.1X[.1X3X[.[.R.).:X_.(.}.`.^.C.J.%XG.T.R.",
"^.^.^.P.J.T.%Xg.g.%XD.J.Y.T.R.C.Y.I.^.^./.E ! H -.R D o.} } { = X c ^ #.3 < +.5.@.v v.^.^.I.J.T.D.%Xg.d.%XL.P.I.R.I.C.P.I.^.^./.",
"}.(.^.C.P.L.S.D.L.g.g.S.L.T.).U.C.C.C.^.(.l.B V 0 ,.@ g ) ] ] p . m ^ c x # R 7 1 < >.}./.C.P.P.D.S.L.S.g.g.S.D.R.R.C.C.C.C.^.'.",
"^.(.(.C.P.P.P.C.C.P.P.!.`.`._.(.^.C.U.Y.!.8 > O v ,.p ( ) ' ] / e c ^ ^ m z B.V.<.*.B.^.'.^.U.P.P.P.C.P.P.I._.`._.[./.^.Y.U.^.(.",
"J.P.P.C.C.C.C.C.C.P.L.D.T.%Xg.;X;XD.%XS.4.2 k.&.3 P * f ) { { ) j t x ~ x $ 4.&X%XK.L.J.P.U.C.C.C.C.C.C.P.D.T.J.g.%X;XD.D.g.S.D.",
"J.P.C.C.C.P.D.A.P.S.D.C.^.I.S.L.L.S.S.S.4.4 6.5.X O o = ` { ' l k k j B j i z 1.0.D.J.J.P.C.C.C.P.D.P.P.S.J.C.^.P.S.J.D.S.S.S.L.",
"C.P.D.J.S.j.:X*Xu.-X:XR.}..X).Y.C.Y.!.(.'.P b 3 ; J u S S S a s s i i y t y - 1 :.'./.C.A.D.J.#X=X-Xu.*X:X;X!..X|.R.C.C.^.!.(.'.",
"#X*X>Xu.>X>X.X.X3X.X.X|..X.X.X(.^.(.'.'./.3.O @ C Y r V H ! ! V N N % H M r n @.9 (.G.#X=X=Xu.>X:X9X[.[..X|.|..XXX|.^.^.'.'.'.!.",
"2X_.}.[.}.[._.;X).'.^.!.R.&X}.|./.C.C./.).-X5 N T Z g l p s i i u @ % r % . < b T _.:X2X`.}.[.'.[.).;X`./.Y.).;XR..X}.^.C.^.(.;X",
"(.^.Y.'.P.g.g.d.S.P.J.g.S.g.T.Y.C.^.(./.}.'.N.:.v.5 a h h g j d i e V + u B 6 l.W.'.|./.C.^.(.L.g.g.g.L.P.D.g.0.S.I.C.C./.(.(.|.",
"C.C.P.L.g.L.S.S.S.g.S.S.P.P.P.U.C.Y.P.C.C.C.C.U.A.2.=.# O , : : , $ 6 > . 5 <.I.P.C.C.C.P.J.S.0.J.S.S.g.g.S.D.C.P.P.C.C.Y.P.C.C.",
"C.^./.Y.R.^.U.C.P.J.P.P.Y.C.C.L.L.D.g.J.C.C.Y.~.c.>.E O 0 :.-.-.:.R *.*.$ ; ;.2.S.U.C.C./.!.I.!.^.P.C.P.J.Y.P.C.C.P.D.J.S.g.P.C.",
"Y.'..X|.}.R.J.L.S.g.S.L.D.J.S.g.g.g.g.g.S.J./.Q.z.l.Z ; I =.I I =.=.=.=.z > Y U 4.S.L.!.|..X|.[.T.J.D.S.g.D.L.L.L.g.g.g.g.g.g.D.",
"(.'..X'.Y.P.L.g.d.g.g.d.h.i.i.f.%Xg.u.h.P.^.'.|.W.x.,.;.=.U U U U Y Y Y U 1.1.e.y.D.Y.(.|..X/.P.P.S.g.d.g.g.h.y.i.y.g.S.j.y.g.P.",
"^.(.|.'.^.C.P.L.S.g.d.p.=X:Xu.-X:X,X2X=X)././.}.|.^.C.V.Z.4.2.2.w.t.n.t.+X:X:X3X>XH././.'..X/.^.C.P.D.g.g.h.s.:X>Xu.:X-X2X:X$X/.",
"(.C.^.(.^.C.C.C.I.R.:X,X.X.X[..X.X.X.X.X|.'.Y.^.(./.^.C.C.Y.R.R.:X.X.X[..X.X.X.X.X.X'.^.C./.(.^.C.C.C.I.R.:X2X.X|.[..X.X.X.X.X'.",
".X(.}./.^.^.C.C.C.C.^.(.'.^.'.^.^.^.(..X.X.X'.'.(.^.^.^.C.C.E.^./.'.^.(.(.^./.^..X.X.X}.'.'.^.^.^.C.C.E.C.^.'./.^.'.^./.^.}..X.X",
"/./.^.P.D.D.P.P.C.C.^.C.C.C.Y.U.C.C.E./.^.^././.I.J.D.P.P.P.C.^.^.C.C.C.Y.C.C.C.^.^.^././.!.T.D.J.P.P.C.^.^.C.C.C.U.C.C.C.^.^.^.",
"C.P.D.0.S.g.g.g.L.`..X`.R.L.L.D.P.C.P.P.C.C.U.L.0.S.S.g.g.S.).|.}.).L.J.D.J.C.P.P.C.C.C.P.S.S.S.g.g.g.R.}.|._.T.L.L.L.C.C.P.C.C.",
"J.P.J.P.C.P.J.P.D.T.!.T.J.L.P.L.J.P.g.S.S.L.P.J.P.C.P.J.P.D.A.!.R.P.L.J.J.L.P.S.g.S.S.P.P.J.U.C.J.P.J.D.I.I.P.J.J.P.D.P.L.g.S.S.",
"P.P.A.#X%X#XI.`.-Xu.j.#Xg.%X0.g.S.g.L.P.J.P.P.P.%X#X%XA.(.,Xu.f.*Xf.%XS.g.0.S.S.P.J.P.P.P.%X#X%X%X!._.*Xu.*X#Xg.S.g.g.S.g.P.P.J.",
"G.;X,X2X,X2X[.[._.:X-X[.2X).T.P.P.g.S.J.P.I.;X:X2X,X2X2X.X_.2X=X`._._.R.P.P.S.S.J.T.I.G.:X2X,X,X2X.X_._.>X)._._.R.P.P.L.g.D.T.P.",
"!.!./.T.T.).;X%Xg.&XT.Y.^./.!.C.P.T.R._./.!.!.(.R.L.).T.&Xg.&XT.P.^.!._.Y.C.P.R._._./.!./.).L.R.R.;Xg.%XG.P.Y.!.~.^.C.P.T.)._./.",
"'.^.C.C.P.L.0.g.S.d.g.0.D.D.T.U.C.C.C.C.^.'./.C.C.P.J.S.g.S.g.g.g.D.S.G.P.C.C.C.C.^.(.(.^.C.P.P.S.g.S.g.d.g.S.S.D.T.C.C.C.C.C./.",
"/.'.(.U.P.P.J.P.Y.D.J.I._.}.[./.C.C.C.^.'.(.'.'.Y.P.P.J.P.C.J.L.P._._.[.(.E.C.C.C.(.'.(.'.^.P.P.P.P.C.P.D.P.)._.}.}.^.C.C.C.^.'.",
"P.Y.Y.C.C.C.C.C.C.C.P.T.R.&X&X).R.R.J.L.P.P.Y.I.C.C.C.C.C.C.C.P.L.R.G.%XR.).R.T.L.J.P.P.Y.Y.C.C.C.C.C.C.P.J.R.T.%X;X).R.T.D.J.P.",
"L.J.P.C.C.C.P.P.C.J.L.P.Y.P.0.S.S.g.g.g.S.L.J.P.C.C.C.P.P.C.P.D.P.C.P.S.g.S.g.g.g.g.D.L.P.C.C.C.Y.P.C.Y.J.J.P.P.L.g.S.g.g.g.g.S.",
"C.C.P.Y.P.%X=Xu.#X*X$XP.'.|.T.P.C.P.P.I.!.E.C.P.P.P.D.$Xu.#X*X$XG./.|.).P.C.P.P.I.!.^.C.P.P.Y.A.#X*Xj.#X=X&XI.}.`.J.C.P.P.P.!./.",
"D.#X+Xy.+X+X{.2X:X{..X[..X9X|.^.C.(.'.|.'.T.S.*Xu.u.u.2X{.:X2XXX[.|.9X.X/.C./.'.|.|.R.D.*Xu.u.+X-XXX,X,XXX[.[.9X9X}.Y.^.'.}.|.(.",
"-X:X[.,X[.[.[._.[.|./.'._.R..X|./.^.^.^.R.$X-X[.<X_.[.[._._.|.(.(.}.R.[..X'.^.C.^.!.$X-X,X[.<X[.[.[._.|.'./.}.)._.9X}.^.C.^.!.D.",
"|./.^.|.!.D.&Xg.D.Y.P.S.%Xg.I.^.^.C.(.'.[.|.(.^.'.(.J.&Xg.%XY.U.L.%Xg.T./.^.C./.(.}.[.'.^./.'.P.D.%Xg.P.Y.J.S.g.%X!.^.C.^.(.'.[.",
"C.C.P.T.S.S.g.g.g.0.0.g.P.J.L.P.C.^.^.C.^.^.C.P.P.D.0.S.g.g.g.S.g.L.P.L.P.C.C.^.Y.^.^.C.U.P.T.0.S.g.g.g.S.g.S.P.L.J.C.C.^.Y.C.^.",
"C.C.I.J.L.U.P.P.P.D.J.P.P.C.C.P.P.J.0.P.C.C.C.^.P.L.P.U.P.P.L.L.P.P.C.C.P.P.P.0.L.C.C.C.^.I.L.T.C.P.P.J.D.P.P.C.C.U.P.P.D.S.U.C.",
"Y.'..X'.}._.Y.P.P.D.J.P.P.C.P.g.g.g.g.S.J.P./..X'.'.}.I.P.P.L.L.P.P.Y.P.S.g.g.g.g.L.P.!.|.|.'.}.).Y.P.J.D.P.P.P.C.D.g.g.g.g.D.P."
};
