/* XPM */
static char *result[] = {
/* columns rows colors chars-per-pixel */
"64 64 213 2 ",
"   c #1D2637",
".  c #293539",
"X  c #2D3A3C",
"o  c #303A37",
"O  c #35453E",
"+  c #3C483E",
"@  c #4B553E",
"#  c #585E3E",
"$  c #55673C",
"%  c #60733F",
"&  c #2B3B45",
"*  c #2B3C49",
"=  c #303F48",
"-  c #3C4C42",
";  c #31424D",
":  c #384748",
">  c #394D4C",
",  c #3D5149",
"<  c #334552",
"1  c #354A55",
"2  c #3A4D54",
"3  c #3B525A",
"4  c #3B5459",
"5  c #3D5963",
"6  c #414B42",
"7  c #465945",
"8  c #42564D",
"9  c #525C46",
"0  c #425554",
"q  c #445B55",
"w  c #475959",
"e  c #455B5E",
"r  c #4D694C",
"t  c #576A47",
"y  c #5D774A",
"u  c #4B6657",
"i  c #576C5D",
"p  c #5A7856",
"a  c #646C4B",
"s  c #6A7B44",
"d  c #6D764B",
"f  c #627A4C",
"g  c #727E47",
"h  c #637556",
"j  c #717E51",
"k  c #465E65",
"l  c #4A6363",
"z  c #496A65",
"x  c #44646B",
"c  c #4A656B",
"v  c #4E6C6B",
"b  c #526C6B",
"n  c #556C69",
"m  c #5B7865",
"M  c #496771",
"N  c #4B6B74",
"B  c #516F73",
"V  c #4F727A",
"C  c #557773",
"Z  c #51747A",
"A  c #567A7E",
"S  c #5B7B7C",
"D  c #617963",
"F  c #667B76",
"G  c #6B8346",
"H  c #778649",
"J  c #748D4C",
"K  c #7B964B",
"L  c #678657",
"P  c #6C8D51",
"I  c #768551",
"U  c #6D9154",
"Y  c #6C9359",
"T  c #6F995C",
"R  c #749554",
"E  c #759955",
"W  c #7B9857",
"Q  c #739C5B",
"!  c #7BA25B",
"~  c #7FAB5F",
"^  c #5F8A77",
"/  c #648A62",
"(  c #6D9365",
")  c #6E9B6E",
"_  c #7B9367",
"`  c #739C6C",
"'  c #7B9D6C",
"]  c #608977",
"[  c #6B9572",
"{  c #6A9578",
"}  c #729771",
"|  c #739970",
" . c #76A565",
".. c #7CA564",
"X. c #7BA962",
"o. c #73A169",
"O. c #7DA169",
"+. c #86944C",
"@. c #88964B",
"#. c #8E954F",
"$. c #849D49",
"%. c #838D58",
"&. c #879C56",
"*. c #A09F54",
"=. c #8BA54C",
"-. c #8EAA4B",
";. c #92AA4D",
":. c #97A84E",
">. c #96B44E",
",. c #9AB54D",
"<. c #97B84F",
"1. c #9BB94E",
"2. c #84A553",
"3. c #8CAD55",
"4. c #83A55F",
"5. c #83AD5D",
"6. c #8BAE5C",
"7. c #9CA753",
"8. c #92AE5C",
"9. c #9BAE5E",
"0. c #8EB256",
"q. c #86B05B",
"w. c #8AB159",
"e. c #94B553",
"r. c #9AB653",
"t. c #97B850",
"y. c #9BB850",
"u. c #94B25A",
"i. c #9CB35B",
"p. c #A0B94F",
"a. c #A7A957",
"s. c #A3B655",
"d. c #AAB757",
"f. c #A3B951",
"g. c #ABB954",
"h. c #A3B45C",
"j. c #ABB55C",
"k. c #AEB858",
"l. c #B3B656",
"z. c #B3BA56",
"x. c #BABB57",
"c. c #B3B65D",
"v. c #B9B75D",
"b. c #B5B959",
"n. c #BCBA5A",
"m. c #8C9D63",
"M. c #829E6C",
"N. c #83A463",
"B. c #8AA566",
"V. c #83AB61",
"C. c #8CAC61",
"Z. c #84A169",
"A. c #8BA369",
"S. c #95A767",
"D. c #94AC61",
"F. c #9BAA65",
"G. c #92A568",
"H. c #97B060",
"J. c #A4AE63",
"K. c #A8AF62",
"L. c #A6B060",
"P. c #ACB161",
"I. c #B1B360",
"U. c #C0BA5B",
"Y. c #5A7E87",
"T. c #558287",
"R. c #5A8282",
"E. c #5E8B85",
"W. c #5D848B",
"Q. c #5C8A8C",
"!. c #5E8C90",
"~. c #658B89",
"^. c #748D85",
"/. c #62938E",
"(. c #6A9488",
"). c #749485",
"_. c #638B93",
"`. c #629492",
"'. c #679695",
"]. c #659D9D",
"[. c #6C999D",
"{. c #779A96",
"}. c #6BA09E",
"|. c #7AA59D",
" X c #6DA3A4",
".X c #72A0A3",
"XX c #7AA8A5",
"oX c #76ACAE",
"OX c #7AB0AF",
"+X c #7CADB1",
"@X c #7AB2B3",
"#X c #89A598",
"$X c #96A996",
"%X c #84AAA1",
"&X c #80ADAD",
"*X c #8AB3A6",
"=X c #95BAAB",
"-X c #86B6B3",
";X c #84BBBD",
":X c #8ABEBB",
">X c #97BEB4",
",X c #A5BCA5",
"<X c #9CC1B3",
"1X c #97C3BA",
"2X c #93C2BD",
"3X c #ABC4AA",
"4X c #B7CBAD",
"5X c #B7D4B9",
"6X c #C2D8B7",
"7X c #88BFC0",
"8X c #8BC3C4",
"9X c #96C8C3",
"0X c #A8CFC0",
/* pixels */
"f.z.n.x.i.e.5.X.X. .X. . .) ) X.5.X.`  .0.y.g.x.n.f.u.0.5.X.X. .X. .` [ X.5.V.` o.5.y.f.z.U.c.e.0.5.X.X.X. . .o.) o.~ 5.o.o.X.e.",
"g.b.U.g.1.1.e.5.X.X. .) ' Z.{ M.A.G.G.' r.g.b.U.x.y.y.e.6.X. .X.` ) Z.| | A.C.F.' 6.g.z.x.n.f.1.y.w.~ X.X. .) ' ' [ A.B.F.Z.N.s.",
"f.1.g.b.g.p.1.t.e.6.B.G.v.n.J.v.n.n.n.v.v.g.1.f.z.g.f.1.1.e.8.C.Z.L.U.j.I.v.v.n.v.v.g.f.f.g.z.f.1.1.e.u.C.A.F.n.I.J.U.v.U.v.v.g.",
"n.f.z.f.p.f.1.y.y.f.g.b.x.g.b.z.g.z.b.U.n.n.g.g.g.p.f.1.1.p.f.g.c.x.g.b.z.g.b.g.U.U.n.z.g.g.f.f.1.1.1.p.f.c.x.b.z.x.g.b.g.x.U.n.",
"z.z.z.s.u.r.t.t.1.1.1.1.s.1.f.1.1.1.f.g.g.g.g.z.g.r.u.y.t.1.1.1.1.p.1.p.p.y.1.f.g.g.g.z.z.g.r.u.r.t.t.y.1.f.f.y.1.p.1.1.y.g.z.g.",
"1.1.0.~ X.X.5.X.u.g.x.d.r.e.0.w.y.1.y.1.1.1.y.e.5.X.X.X.X.3.s.v.z.f.e.e.3.e.1.1.1.1.1.1.t.6.5.~ X.V.V.r.b.z.f.e.e.w.0.1.1.t.1.1.",
"e.0.q.0.t.0.5.w.6.i.d.h.e.w.0.w.e.e.5.5.0.0.e.6.w.t.e.5.0.5.u.d.h.i.w.w.0.w.<.q.5.w.w.e.w.q.e.e.5.w.5.0.h.d.r.0.w.e.w.e.0.~ w.w.",
"e.<.e.6.3.6.t.s.C.N.6.N.~ 5.5.~ 5.5.5.0.5.0.t.e.6.3.6.u.f.D...6...5.5.5.~ 5.q.5.0.q.q.e.y.u.6.u.3.f.i.N.6.N.N.~ 5.5.~ q.5.w.w.5.",
"u.6.F.F.A.F.j.x.j.M.A.J.F.D.q.w.w.X.w.0.t.e.e.C.F.G.F.F.x.c.F.' h.F.D.6.w.0.X.5.0.e.y.K y h m.S.F.b.v.L.' F.F.i.6.w.w.5.X.0.u.t.",
"s.h.c.h.L.j.L.D.C.h.h.f.z.z.g.1.t.6.D.h.h.h.h.b.h.i.j.P.i.C.F.i.f.l.b.k.f.1.w.D.i.h.I B W.Y.t P.j.L.C.8.F.f.g.b.b.f.1.e.w.i.h.h.",
"g.1.y.e.0.w.~ X...X.X.5.0.0.u.<.1.y.p.f.p.g.p.1.y.e.0.V.X.X.X.X.~ w.w.w.e.y.y.y.p.% 4 ;X9XoX4 K 5.X.X.X.X.~ q.w.3.u.1.1.1.1.f.f.",
"z.z.f.t.e.0.q.0.e.~ 5.0.i.h.c.y.1.1.1.f.b.b.b.g.y.e.0.q.w.e.q.~ w.i.i.v.f.1.1.1.1.@ < {.<X(.1 G 0.q.e.w.~ q.u.i.j.j.1.1.1.1.g.b.",
"1.f.f.1.1.1.1.1.1.<.e.h.h.h.8.a.7.f.e.e.y.1.f.f.y.1.1.1.1.1.y.e.r.h.h.D.j.d.s.r.e.G i l /.'.v G y.1.1.y.e.u.h.h.H.h.k.s.r.0.t.r.",
"6.0.e.1.1.y.1.1.1.e.w.3.e.Y u l w f X.X.5.q.w.e.y.1.<.1.y.y.t.w.w.e.0.X.X.C.V.X.X.Q p u m ( J =.y.1.1.1.e.w.e.e.~ X.C.V.C.X.X.V.",
"e.1.1.1.1.3.N.N.3.N.4.r.@.w +X8X+Xq ! 0.u.1.1.1.1.1.e.N.N.3.N.N.e.f.z.u.w.t.w.w.0.u.;.=.=.=.,.<.C.N.5.6.N.6.y.g.s.q.t.0.0.w.e.r.",
"e.6...4.' M.P.F.Z.L.j.h.@ < &X9X_.; +.x.x.y.3.N...N.` J.J.Z.F.v.J.b.n.x.s.1.f.g.b.x.g.e.4...4.' G.P.A.A.I.L.k.U.v.d.y.y.g.z.x.b.",
"Z.A.K.A.K.J.v.v.x.n.z.b.d w B |.'.l g g.r.N.Z.J.G.F.J.I.n.v.n.z.z.U.j.x.n.g.f.g.g.f.N.Z.F.F.G.P.J.n.v.n.x.z.n.v.c.n.z.f.g.f.g.u.",
"v.g.g.x.g.h.i.V.u.g.1.u.W p q C { L @.z.P.I.c.g.x.z.h.h.C.C.g.1.r.D.X.h.z.g.1.f.g.c.L.v.g.b.n.f.h.D.V.h.f.t.u.V.C.z.g.p.1.g.c.h.",
"f.1.1.s.6.X.X.X.~ q.5.X.5.R P H $.7.g.p.g.g.p.1.r.i.X.X.X.X.q.q.X.5.5.5.e.1.1.g.f.g.g.f.t.r.i.5.X.X.X.~ w.~ X.w.5.0.1.1.g.f.f.z.",
"1.1.u.3.X.e.0.w.w.~ 5.q.t.t.t.r.t.e.q.<.1.1.1.e.0.V.0.e.q.w.~ ~ 5.e.1.<.<.1.t.w.0.1.1.y.y.e.5.q.e.w.w.q.~ q.0.y.y.t.<.1.0.w.1.1.",
"y.g.z.g.k.d.t.t.e.0.e.y.e.1.e.5.5.X.X.5.e.y.f.b.g.j.g.r.t.t.0.0.1.e.1.1.5.V.5.X.5.0.t.y.c.z.f.k.f.t.y.e.w.<.t.y.1.0.~ 5.X.X.0.e.",
"y.z.U.n.k.u.q.5.X.X.X.5.~ ..X.X.X.X. .X.5.e.g.n.n.b.i.6.5.X.X.X.5.X...X.X.X.X.o.X.~ 0.f.x.U.x.h.0.5.X.X.X.~ 5.X...X.X.X.X. .~ 5.",
"z.b.n.z.y.y.w.X.X. . .` ` } [ ' N.N.M.` e.g.z.U.x.y.t.e.5...X.X.o.` ' { ' ..N.Z.` 6.f.b.x.n.f.y.e.5.X.X.X. .) ` [ [ O.N.Z.' ..p.",
"f.f.z.b.f.1.y.e.5.V...' J.c.A.K.I.I.v.J.d.f.f.z.x.g.y.1.e.e.5.V.' S.c.S.F.I.P.n.K.h.g.f.g.x.g.f.1.t.e.5.Q / _ P.K.G.I.K.v.c.J.g.",
"z.p.f.g.f.1.1.1.f.s.j.c.n.z.x.x.x.x.x.U.x.x.f.f.g.f.f.1.<.$.G 9 - 9 a *.x.x.x.x.U.n.x.g.f.f.f.f.1.1.1.H l x 9 *.x.x.x.n.x.n.U.x.",
"x.c.b.g.f.s.y.1.1.1.1.f.g.1.g.p.y.f.g.v.x.x.z.x.g.f.s.@.9 & 2 W.Y.3 M : :.p.s.y.x.x.b.x.b.b.f.s.s.1.% Z 7X8X_.t y.g.1.p.1.z.x.b.",
"p.y.y.q.X.X.5.6.t.f.z.f.1.1.e.e.1.1.1.y.1.p.p.s.0.5.T , M * .X8X;XN N * $ >.1.1.1.1.1.p.f.e.5.X.5.R o c 2X>XV - ;.e.t.1.1.1.y.1.",
"1.e.5.5.e.5.X.5.6.h.x.j.u.q.w.6.e.y.0.2.$.G G y U 0.7 V Z ; S <X%Xk 1 Y.2 f 1.0.w.e.t.<.w.~ w.0.~ E q l F XXQ.0 R 0.q.e.e.6.e.e.",
"0.e.e.e.e.e.e.r.6.6.u.6.5.0.w.5.0.E r > l N _.~.> $ : Z [.B l S [.] n :XQ.O 2.~ 5.~ 5.0.t.e.e.t.0.<.J n 0 W.^ p ! 0.5.0.5.5.5.X.",
"e.e.C.A.N.Z.i.x.J.' M.S.N.V.5.~ U , T.@X8X8X8X8XW.  e l {.{.S v {.#X%X|.4 . Y q.e.e.<.e.3.B.Z.B.B.k.l.%.D L _ 4.5.X.5.5.X.e.e.t.",
"9.9.v.j.K.v.c.L.F.L.h.g.b.c.s.>.@ T.oX@X7X8X;XoXT.1 * x ^.4X3X,X$X{.XXl e > p q.u.i.h.H.L.I.L.P.I.v.9.h.F.s.k.v.d.f.1.0.V.w.u.i.",
"f.p.s.0.0.8.V.X.X.V.5.0.r.i.r.J ;  X;X2X8X8X8X9X:XOXk x ].%X5X=X(.W.`.R.S 2 t s.g.f.g.f.f.r.0.u.6.X.X.X.V.w.e.r.i.r.y.r.r.f.g.g.",
"x.g.p.<.e.6.5.5.w.X.X.5.6.9.&.7 e A ;X8X8X0X5X6X0X.X1 * x k b N Q.].].W.b , H 1.1.g.z.b.f.p.t.0.q.~ w.5.X.X.q.w.i.i.y.1.1.1.f.z.",
"f.g.g.1.<.t.t.1.y.e.e.s.z.j.I 2 b x $X5X0X5X4X>X%Xe = & V .X+X[.5 Q.`.m I H >.1.y.f.g.f.z.f.<.<.t.t.1.<.0.r.j.k.j.v.g.f.y.y.f.g.",
"0.e.<.1.1.1.p.1.1.e.3.6.e.~ y : b /.|.3X6X3X] _.Q.k * !. X@X8X7XV 8 ( Y W 6.3.C.~ 5.0.0.e.1.1.1.1.1.1.1.e.6.u.0.X.C.C.w.6.~ 5.q.",
"0.e.1.1.1.e.6.3.1.5.5.1.p.i.P + 4 ].].XX*X].].].`.1 = -X:X7X9X>Xk o :.3.5.w.5.5.5.5.0.0.<.1.1.1.3.6.e.e.V.3.y.f.e.V.w.q.5.~ 5.w.",
"1.e.6.3.5.N.S.M.' S.F.9.x.n.h.J y C T.C ~.].}.].T.; e F #X=X*X] B 0 a.c.u.1.1.f.g.z.g.1.3.6.0.N.B.S.' Z.F.D.s.n.x.i.1.1.f.f.z.z.",
"N.N.G.| G.G.n.v.j.U.x.v.n.n.n.g.;.H 7 . & b `.).D : k l v ].].].~.i *.U.z.f.g.z.z.g.3.N.A.A.' G.F.U.v.I.U.x.n.x.n.x.f.f.g.z.z.h.",
"K.j.v.v.b.c.j.H.h.z.p.s.i.B.b.n.g.,.=.@.I j %.#.a.#.d h , z /.{ L W 4.k.n.z.y.1.f.j.F.P.j.b.x.c.c.h.D.k.g.p.d.D.H.n.z.g.1.f.g.D.",
"z.p.y.z.u.V.X. .5.e.3.5.5.X.e.1.1.p.z.g.x.l.p.1.z.s.5.! L L ! 2.Q ~ X.6.y.1.p.g.g.c.x.g.y.f.g.q.V.X.X.6.u.5.~ ~ V.r.1.1.g.g.g.x.",
"1.<.e.6.X.w.5.5.5.X.~ 5.e.e.0.e.1.1.e.<.1.1.1.e.0.V.q.w.V.5.X.~ 5.0.e.e.<.1.1.e.e.1.1.1.e.0.5.~ 0.~ ~ ~ X.~ 5.1.e.e.1.1.t.e.1.1.",
"1.f.g.y.i.f.1.1.<.w.e.t.<.1.1.6.w.6.X.0.1.1.f.g.y.i.s.y.t.1.0.0.e.1.1.1.0.6.w.X.5.1.1.1.g.g.r.h.p.<.1.e.w.<.<.1.1.e.5.w.5.X.e.1.",
"t.z.U.n.b.i.6.q.5.~ 5.w.q.0.5.X.X.X.X.X.5.0.g.x.n.x.j.w.w.5.~ ~ w.q.3.6.~ X.X.X.X.5.w.f.x.n.x.c.u.w.5.5.~ 6.6.q.6.~ X.X.X.X.V.5.",
"g.b.U.z.t.e.w.~  .X.X.o.o.[ [ X.5...` ` e.f.c.n.v.s.e.0.5.X.X. . .o.) [ o...N.` ` 6.y.g.x.n.g.t.e.5.X. .X.X.o.` [ ) X.4.' ` X.t.",
"g.g.x.z.s.1.e.w.5.X.o.` A.J.' S.S.J.j.A.h.g.g.x.x.f.y.y.0.5.X.X.) ' F.Z.A.F.F.I.A.9.g.g.z.n.g.p.y.e.q.X.X.` ' S.G.' J.S.j.F.G.g.",
"g.y.f.k.g.1.1.1.y.i.F.J.v.v.c.n.U.U.n.U.x.g.f.1.g.g.f.y.1.y.i.i.F.v.U.v.x.U.n.U.U.n.z.f.1.g.z.p.1.1.1.r.i.F.j.n.v.c.n.x.n.n.U.z.",
"n.g.x.g.f.f.1.1.1.p.f.z.z.f.l.f.f.g.g.U.n.U.z.z.g.f.f.f.1.1.f.p.g.b.f.g.g.f.g.f.n.n.n.z.z.z.f.p.f.1.1.f.p.g.z.g.f.z.s.g.f.x.U.n.",
"g.g.f.e.5.6.e.e.1.p.f.1.p.1.1.<.1.1.1.g.f.f.f.g.r.w.C.3.e.t.y.f.p.1.1.1.t.y.1.1.g.f.f.g.g.f.2.W 2.0.e.1.p.f.p.1.1.y.1.1.1.f.p.s.",
"1.e.q.~ 5.X.X.X.0.j.n.z.i.w.w.q.t.1.e.t.<.1.t.w.~ 5.~ X.X.5.h.x.c.h.w.0.w.0.y.e.e.,.1.1.e.p u x q Y X.r.b.x.j.e.w.5.w.1.<.0.1.<.",
"0.0.0.e.1.e.0.e.w.u.s.u.0.w.e.w.0.e.X.~ 5.q.0.0.e.1.<.w.e.q.0.s.e.e.w.0.0.w.-.E T 5.5.0.t V ;X8X_.t 0.w.r.i.u.w.0.e.q.e.w.X.5.~ ",
"t.t.3.N.N.N.r.k.S.` N.Z...X.~ ~ 5.X.0.e.0.e.<.e.N.N.N.3.g.L.' ..B...X.5. .r 8 l v u K 2.o c 2X2XZ - 9.A. .Z.V.X.~ V.X.5.X.e.e.0.",
"9.D.L.P.J.P.I.b.j.F.F.j.P.h.e.e.0.X.C.0.e.i.8.F.I.J.P.P.v.j.L.A.c.L.j.&.- x  X8X8X[.8 I r l F |.Q.w #.P.G.L.P.P.i.e.e.w.X.w.u.e.",
"s.f.d.u.9.i.D.V.X.D.u.r.f.f.d.y.e.u.s.d.g.s.s.g.i.w.h.u.C.X.C.u.t.f.f.9 5 @X X;X8X-X2 H @.h e E.] p T V.D.e.r.g.g.y.1.e.u.d.d.d.",
"z.s.1.1.e.w.~ ~ 5. .X.5.w.C.u.y.1.1.1.1.f.z.g.1.1.e.w.5.X.V.X.X.X.q.E X k >X2X1X<X^.; # ;.$.J J E ! 5.X. .X.5.q.w.u.1.1.1.1.f.f.",
"g.z.g.y.e.0.0.t.t.q.0.i.d.k.v.f.p.1.1.f.z.g.z.z.y.e.e.e.e.1.w.q.u.k.s 2 l F ).*X'.Q.A t l.f.e.e.0.e.t.e.q.u.s.d.v.v.f.1.1.y.f.b.",
"<.t.y.1.1.1.1.1.1.y.0.u.u.C.C.L.i.i.w.3.e.e.t.t.y.1.1.1.1.1.1.e.u.i.R 6 l l V `.}.'.C f >.1.1.1.y.1.1.1.y.0.u.i.V.D.h.i.i.q.0.e.",
"3.0.e.1.1.1.e.r.1.0.w.t.y.u.~ ~ 5.X.X.X.V.q.6.e.1.1.1.e.e.1.e.0.0.1.e.E L y 7 v { / P 2.0.1.1.1.t.e.t.t.6.e.t.e.w.X.5.X.X.X.X.5.",
"1.<.e.e.e.N.A. .X.Z.B.e.g.x.u.e.1.y.e.r.f.p.1.e.e.e.6.A.M...Z.A.u.f.x.h.0.<.=.=.:.,.s.y.e.e.y.3.B.M...O.A.C.y.x.k.0.y.y.y.e.r.g.",
"6.N.M.' M.M.v.P.F.v.v.c.U.U.x.f.1.g.b.b.z.u.6.M.' ' ' P.v.F.P.n.c.b.U.n.g.1.f.b.b.x.h.6.N.' ' M.S.U.J.J.n.v.c.n.U.b.y.f.z.b.x.k.",
"S.F.c.J.b.c.v.P.v.b.g.z.I.i.n.x.g.p.p.g.i.B.S.c.J.c.c.v.j.j.x.g.g.v.i.v.n.z.f.1.s.s.C.S.J.I.J.b.c.c.j.b.l.g.v.h.P.n.b.f.y.s.f.u.",
"x.g.p.x.s.w.C.X.w.y.e.q.V.X.i.g.p.1.g.z.v.b.z.y.x.g.3.C.X.X.y.y.w.V.X.u.g.f.1.g.z.b.v.z.f.g.b.u.6.N.X.u.y.0.5.X.C.f.f.y.f.g.b.v.",
"1.1.e.e.5.~ X.X.X.~ ~ ~ 0.0.w.t.1.1.f.y.f.f.1.t.e.6.X.5.X.~ X.5.X.w.0.w.e.1.1.f.y.y.f.1.t.e.e.V.6.X.X.X.5.~ 5.e.q.0.1.1.f.f.y.f.",
"1.1.r.u.w.y.e.e.e.q.0.0.<.1.1.e.e.0.~ e.1.1.1.f.e.w.r.y.e.e.q.q.e.e.1.1.t.0.e.~ w.1.1.y.y.r.0.0.1.0.e.w.5.e.e.1.1.<.0.t.q.~ y.1.",
"y.z.n.z.b.j.r.e.e.q.0.t.e.1.0.X.X.X. .5.0.e.g.x.z.b.c.i.<.0.0.0.e.e.<.t.~ X.X.X.X.w.e.s.x.x.z.b.s.1.e.0.q.e.e.e.1.q.X.X.X.X.q.e."
};
