/* XPM */
static char *result[] = {
/* columns rows colors chars-per-pixel */
"64 64 233 2 ",
"   c #1A2639",
".  c #292B37",
"X  c #322D3B",
"o  c #29353A",
"O  c #3C363B",
"+  c #45393E",
"@  c #3E4B3D",
"#  c #4D413E",
"$  c #444A3A",
"%  c #54463F",
"&  c #5B493F",
"*  c #49543B",
"=  c #585A3E",
"-  c #54633D",
";  c #54663E",
":  c #60733F",
">  c #282C44",
",  c #312F49",
"<  c #263748",
"1  c #343748",
"2  c #2D3C57",
"3  c #393A57",
"4  c #333D5B",
"5  c #4E3F41",
"6  c #423B5B",
"7  c #483F61",
"8  c #384847",
"9  c #3C5349",
"0  c #2D455A",
"q  c #2D4C59",
"w  c #334C57",
"e  c #33435D",
"r  c #37565A",
"t  c #39505A",
"y  c #2F4F65",
"u  c #334462",
"i  c #354B64",
"p  c #3D4B6C",
"a  c #2E5564",
"s  c #345867",
"d  c #3D5273",
"f  c #395B74",
"g  c #39646C",
"h  c #336373",
"j  c #386A7A",
"k  c #3C747E",
"l  c #4A4542",
"z  c #544342",
"x  c #5C4943",
"c  c #475945",
"v  c #575648",
"b  c #4E5755",
"n  c #445658",
"m  c #624F45",
"M  c #655244",
"N  c #6C5545",
"B  c #6B5749",
"V  c #765B48",
"C  c #7A5B50",
"Z  c #586746",
"A  c #50674F",
"S  c #5A754B",
"D  c #49675C",
"F  c #5C7B53",
"G  c #75624D",
"H  c #70694E",
"J  c #677947",
"K  c #757C47",
"L  c #657B52",
"P  c #444162",
"I  c #464B6D",
"U  c #415E6D",
"Y  c #454E70",
"T  c #455375",
"R  c #445779",
"E  c #435B7D",
"W  c #4A746D",
"Q  c #567668",
"!  c #466772",
"~  c #4A7976",
"^  c #6A7668",
"/  c #83634A",
"(  c #8B674E",
")  c #8C6C4D",
"_  c #926C4E",
"`  c #9A6F4B",
"'  c #9C734E",
"]  c #846751",
"[  c #936D50",
"{  c #887253",
"}  c #9B7351",
"|  c #957A55",
" . c #A0744E",
".. c #A77A54",
"X. c #6C8344",
"o. c #64824D",
"O. c #6B844B",
"+. c #6D874A",
"@. c #738945",
"#. c #768849",
"$. c #7A954B",
"%. c #668553",
"&. c #798652",
"*. c #6C955A",
"=. c #789A54",
"-. c #7AA25A",
";. c #7FAB5F",
":. c #558379",
">. c #6E916D",
",. c #6E9B6E",
"<. c #779569",
"1. c #729D6C",
"2. c #7B9C6C",
"3. c #6C9671",
"4. c #76A565",
"5. c #7CA565",
"6. c #7CA962",
"7. c #75A169",
"8. c #83884B",
"9. c #849949",
"0. c #8F9656",
"q. c #979B53",
"w. c #A7875B",
"e. c #B28155",
"r. c #B78C5B",
"t. c #BA935F",
"y. c #88A34A",
"u. c #94A84D",
"i. c #9AB54E",
"p. c #9BB94E",
"a. c #85A754",
"s. c #83AD5D",
"d. c #8BAE5C",
"f. c #98AA56",
"g. c #8EB256",
"h. c #86B05D",
"j. c #8AB159",
"k. c #94B553",
"l. c #9AB653",
"z. c #96B852",
"x. c #9BB850",
"c. c #93B25A",
"v. c #9CB25B",
"b. c #A7A957",
"n. c #A5B651",
"m. c #A3B756",
"M. c #ADB756",
"N. c #A4B951",
"B. c #ABB954",
"V. c #A4B45C",
"C. c #ABB65B",
"Z. c #B2BA56",
"A. c #B4B65D",
"S. c #B5B959",
"D. c #BCBA5A",
"F. c #B9B85C",
"G. c #839E69",
"H. c #AC9160",
"J. c #B69562",
"K. c #BC9B64",
"L. c #83A464",
"P. c #8BA665",
"I. c #83AB61",
"U. c #8CAC61",
"Y. c #85A169",
"T. c #8AA269",
"R. c #95A766",
"E. c #94AD61",
"W. c #9BAA65",
"Q. c #92A568",
"!. c #95B161",
"~. c #A5AE63",
"^. c #A8AF62",
"/. c #A6B061",
"(. c #ACB161",
"). c #B1B460",
"_. c #C1955E",
"`. c #C0BA5B",
"'. c #C49F65",
"]. c #C7A568",
"[. c #CCA669",
"{. c #D3AC6B",
"}. c #D6B16E",
"|. c #D8B36F",
" X c #DAB570",
".X c #3C6B85",
"XX c #3B7384",
"oX c #3D788A",
"OX c #3E7C90",
"+X c #446885",
"@X c #437A87",
"#X c #43748D",
"$X c #447790",
"%X c #447C93",
"&X c #3F8093",
"*X c #42828B",
"=X c #58918F",
"-X c #438295",
";X c #458C95",
":X c #438599",
">X c #448B9D",
",X c #4A8C98",
"<X c #4B959C",
"1X c #649E8B",
"2X c #649C99",
"3X c #6AAC98",
"4X c #478FA0",
"5X c #4992A2",
"6X c #4C9BA5",
"7X c #4D9EA9",
"8X c #509DA9",
"9X c #4EA0A7",
"0X c #4EA2AC",
"qX c #55A7A9",
"wX c #51A5AD",
"eX c #5FB0AD",
"rX c #51A7B0",
"tX c #53ABB2",
"yX c #56B2B6",
"uX c #57B4B8",
"iX c #59B6B9",
"pX c #5AB9BB",
"aX c #6BB7A8",
"sX c #70B8A4",
"dX c #7BC7AB",
"fX c #6DC4B6",
"gX c #74CDBA",
"hX c #79D1BA",
"jX c #7CD5BB",
"kX c #81CCAA",
"lX c #86DAB7",
"zX c #8CE1BB",
"xX c #91E5BB",
/* pixels */
"N.Z.D.D.l.k.s.6.6.4.4.6.4.,.,.6.a.5.7.4.g.z.n.F.`.N.k.j.s.4.6.4.6.4.,.>.5.h.I.7.4.s.k.B.Z.D.Z.k.k.s.6.6.6.4.4.7.3.7.6.I.4.7.6.k.",
"B.S.`.B.p.p.k.s.6.4.4.,.2.Y.3.Y.G.R.R.2.l.Z.S.A.b.9.X.J =.;.4.6.7.1.G.>.D A %.G.<.d.B.Z.D.D.n.p.k.g.6.6.4.7.1.G.2.3.P.P.W.G.Y.m.",
"N.p.B.Z.B.p.p.k.k.j.P.T.A.F.~.A.F.D.D.F.b.9.: c 9 D :.! X.k.c.d.Y.(.D.8.W @XD 8 c H 9.u.N.Z.Z.n.p.p.k.c.c.Y.W.F.A.~.F.F.`.D.A.B.",
"D.N.Z.N.N.N.p.p.N.N.B.S.F.B.F.Z.Z.Z.Z.M.c D :.3XdXlXjX3XS N.N.B.Z.D.Z.L sXjXlXdXsX:.D c i.M.n.p.p.p.p.n.N.M.D.S.B.D.Z.Z.B.D.`.D.",
"Z.Z.Z.N.k.v.k.i.p.p.p.p.N.p.N.p.p.p.p.b.8 sXzXhXaXjXlX3Xc y.@.X.X.@.y.c 3XkXhXfXlXzXaX8 f.Z.l.l.l.p.z.p.p.p.N.p.p.N.p.p.p.B.Z.B.",
"p.p.g.;.;.6.;.;.c.B.D.M.l.k.k.j.z.p.p.y.t ,XdXkX! =X=Xe o r j *X@Xh g > t =X=X2XlXsX%Xw y.h.I.6.6.6.s.m.Z.D.N.k.k.g.g.p.p.z.p.p.",
"k.g.h.g.k.g.s.j.d.v.M.m.c.h.g.j.g.z.h.=.r %Xq s E E E p q wXwX9XqXwXtXy p T +XR s w &Xr $.j.k.z.j.j.s.d.m.M.v.d.j.g.j.k.g.;.g.h.",
"k.z.k.d.g.d.i.m.P.I.s.I.;.h.=.%.-.h.h.$.q >Xy d R R E f u $X+Xi w +X$Xu d +X7 +Xf s &Xr 9.c.d.a.+.u.v.L.s.L.s.s.j.s.;.s.;.g.g.s.",
"k.d.R.W.Q.R.V.D.C.G.T.^.E.c.c W Q S S @ a j f R T Y R T Y E R R R T R Y T R T E E f j y 8 S A Q Q v F./.2.R.W.v.d.j.j.s.;.j.k.k.",
"V.C.S.v.V.).V.c.U.V.V.N.Z.q.D lXlX1Xg ;X7Xh e R +XY T R E T Y R E Y Y T T R Y E E 0 h 6X;Xh 1XlXlXD *.!.~.N.B.Z.Z.N.p.g.d.v.V.V.",
"N.n.p.k.k.d.;.4.5.6.6.s.j.S =XlXjXjX~ 7X7Xf p T Y I f d p 4 e u u e e d d d Y T Y p f 0X9X:.jXjXlX=XS 4.6.;.h.g.d.k.p.p.p.N.N.N.",
"Z.Z.B.k.k.j.j.g.k.;.s.j.c.c dXjXfX1X0 @Xj E Y I p 4 , l m V N N V V V m l 1 2 Y Y Y +Xj oX1 1XaXjXdXc g.;.s.c.v.C.C.x.p.p.p.B.S.",
"i.N.N.p.p.p.p.p.p.k.k.V.f.c lXxXdXw > > p E T e > + ` e.t.e.( _ r.r.e.r.r._ & 1 4 R +Xp > > 8 dXxXlX9 y.z.k.V.V.!.V.B.m.x.k.k.N.",
"j.g.k.p.p.i.p.p.p.k.d.c.y.r 1X2X=X1 1 6 Y R i # z V ) ) [ | | K.K.) { | | ) ) N 5 u R I 6 , 2 =X2X1XD y.k.s.k.k.s.6.I.s.I.6.6.;.",
"k.i.p.p.p.g.L.L.g.L.a.l.u.o h $X:Xa 3 7 P < + / t.}.[.].[.|.|.|.|.}.{.{.[.[.[.w._ V , P 7 6 y :XoXh o =.Y.d.x.B.m.d.l.g.g.j.k.k.",
"k.d.2.I.2.G.(.W.G.^.).V.M.8 OX$X:X.X6 7 , z V / '.[.{.}.].'.{.{.[.].].].{.|.{.'.} } l , 7 6 j >X$XoX8 L.A.(.C.`.D.C.z.p.B.Z.D.S.",
"L.P.^.T.(.~.F.F.D.D.Z.D.D.v XX-XoXf 6 6 X % / } J.[.{.[.H.J.[.[.].H.H.H.[. X{.].| C l X 3 6 f #X%X.Xb D.Z.Z.D.A.A.D.B.N.B.B.N.c.",
"F.M.B.D.B.V.v.I.c.N.p.c.h.9 s XXXXs , w n / e.t.t.].|.|.].{.{.}.}. X X X|.|.[.K._. .B l > , g XXXXs c l.N.k.v.I.d.Z.B.N.p.B.A.V.",
"n.p.i.m.j.6.4.4.;.h.h.6.j.S 0 -X;Xq ~ dXlXQ v V ) w.J.K.8.J.[.'.w.w.w.w.'.'.w.) N l ~ dX3XQ a ;X&X< S ;.g.;.6.j.s.k.p.p.n.N.n.Z.",
"p.p.k.j.;.k.c.j.j.;.s.j.x.X.a iXa W zXlXlXxX~ & ].|.|. X[.'.'.{.{.K.K.]. X X[.r.% W zXhXjXzXW a pXa o.h.;.h.g.p.z.z.l.p.k.g.p.p.",
"i.B.Z.B.B.B.z.z.z.j.z.z.z.X.  ,Xh ;XaX=XkXkX@Xb e.{.}.K.v Q Q ^ ^ Q Q Z K.{.{.e.b @XaXfXeXeX;Xg <X  X.z.g.z.k.p.p.g.I.s.5.6.g.k.",
"z.Z.`.D.C.c.h.s.6.6.6.s.;.F < #Xa rXrXXXr s %Xn / ].[.H W zXzXfXfXzXlXW G [.].) n :Xs n @XwXqXq oX< F ;.;.;.s.6.5.5.6.6.4.4.6.j.",
"Z.D.D.Z.p.z.g.6.4.4.4.1.1.>.< oXa 6XtXiX6Xj $Xn ` _.{.H 1XgXjXlXzXlXjX=XH  X[.} n #XXX<XiXtX7Xs OX< *.4.4.4.,.1.3.3.5.L.Y.2.5.x.",
"N.N.Z.Z.B.p.p.k.h.I.5.<.b.f.1 oX%XrXwXyXpX6X.Xj U H ) O 1XfX1XkXdX3XhX1X1 | H n h XX7XpXuXwXwX$XoX< y.s.;.7.Y.(.^.Q.).(.A.A.^.B.",
"Z.p.N.B.N.p.p.p.N.m.C.A.`.M.c j %XiXiXtXwXk s rXtX9X*X< *X<Xg g j g <X*X< <X9X0XqXh j 0XtXiXyX%Xj 9 i.N.m.C.D.D.S.D.Z.D.D.D.`.D.",
"D.Z.Z.B.N.m.x.p.p.p.p.N.B.p.- f >XtXiXpXyXa k uXtXpXqXg pXuXuXpXpXiXpXpXg 6XtXtXuXk a tXpXpXtX>Xf ; p.x.p.p.B.n.p.B.p.N.p.Z.D.Z.",
"N.x.l.d.;.;.d.s.l.N.Z.N.z.p.#.y #X5XtX8XyX6X0X0X9XuX9X&XuXtXrXpXpXpXpXiX*X<XuXtX0X0X6XpXpXiX<X#Xy o.j.x.B.B.N.k.z.k.k.p.p.p.p.p.",
"z.k.s.s.g.s.;.s.d.V.D.C.c.h.a.9 $X:XwXtXtX6XrXpXiXiX;X;XrX0X0XyXiXrXtXrX*X;XiXiXiXrX6XtXuX9X>XOX9 -.I.c.Z.S.V.k.j.g.s.p.k.j.k.k.",
"g.k.l.k.i.k.k.l.s.d.k.d.d.g.g.o.q :X-XtXpXyXtXwXyXuXpXpXtXyXpXpXpXuXpXpXpXiXiXyX0XtXyXpXtX%X-Xy %.z.c.s.c.d.d.s.g.g.s.k.s.;.s.;.",
"k.k.P.T.Y.G.v.F.^.2.2.R.L.I.s.;.S q @XyXqXyXpXpXyX9XtXpXrXrXiXuXtXtX0XrXpXrX0XtXuXpXyXtXyX#Xq S L.Z.A.W.1.P.P.P.6.;.;.;.;.k.z.k.",
"v.v.A.V.V.A.A.V.v./.V.B.A.S.m.p.k.S < ;XiX7XtXpXiXrX9XrXrXuXpXyX0XuXyXtXpXtXrXiXpXtX9XiX>X< J A.A.F.W.V.W.C.B.D.C.N.p.c.I.c.c.l.",
"N.N.N.g.c.c.I.5.5.6.s.c.l.c.v.p.p.l.J < *X7XtXyXtX9X9XyXuXpXpXtXrXpXpXiXtX0X9XrXyXtX0X*X< J j.j.U.I.5.6.I.d.k.k.v.l.x.k.l.N.m.B.",
"Z.B.p.p.k.g.s.d.j.6.6.s.d.v.V.x.p.p.p.@   h 9XtXyXpXtXtX0X0XtX0X0XrXqX9X9XyXpXyXrX9Xh   $ p.z.g.a.;.g.;.6.6.s.d.V.v.p.p.p.p.N.B.",
"N.B.B.p.k.k.k.p.z.k.k.V.C.C.C.B.N.p.p.$ > 0 0 j <XpXpXiXtXuXpXuXuXpXuXtXiXpXiX<Xj 0 0 > * N.p.z.z.z.p.p.g.l.C.M.C.Z.B.m.p.z.N.B.",
"k.g.p.p.p.p.p.p.p.z.j.j.c.I.I.U.j.j.I.9 e f I 2 < a @X&XXX9X0XrXqX0X9X&X*XoXa < 4 p E u * z.p.p.p.p.p.p.k.d.c.j.6.I.c.c.d.;.s.s.",
"g.k.p.p.p.k.d.d.k.s.d.p.p.m.s.j.j.s.s.8 4 R T E d i 2 <   < > < < < <   < 2 u f E T R 4 * p.p.p.g.s.k.k.s.j.p.N.v.;.j.s.s.s.s.g.",
"p.k.d.g.s.G.W.G.2.R.W.v.D.D.V.z.p.N.N.* 4 T Y E E T E E d p p p d p p R E E T E E T Y 4 $ d.g.I.L.W.G.G.W.R.m.D.D.l.p.p.N.m.Z.Z.",
"s.G.Q.<.Q.Q.F.F.S.D.D.D.F.F.`.B.N.B.Z.* e E I T E Y E T R I T +XE Y I T R R Y E T I E u l G.2.Q.W.`.A.).D.D.D.D.F.S.n.N.B.Z.B.m.",
"(.V.A.F.S.A.C.c.V.M.n.N.v.U.D.Z.B.p.N.* 4 R T +X%X#X+XR Y T I Y T I E E E E #X%X+XT R 4 * D.S.S.S.V.E.B.B.N.m.E.v.D.S.B.p.N.C.E.",
"Z.N.l.Z.k.I.5.4.s.k.g.;.s.;.g.p.p.N.Z.* 4 I Y #X>X<X>X>X$X$X+X+X$X%X%X$X%X#X5X>X#XT I 4 * N.B.j.5.;.6.d.k.h.;.s.I.l.p.p.n.Z.B.D.",
"p.i.k.d.6.j.s.s.;.6.;.s.k.k.g.p.p.p.=.o e T E %X%X%X%X%X%X4XoXoX>X4X>X&X%X$X%X:X%X+XT 4 X $.j.;.g.;.;.;.;.s.s.p.k.k.p.p.l.k.p.p.",
"p.N.B.x.l.m.z.p.z.g.k.z.p.p.k.j.g.s.v . 4 I +X>X>X-X#X.Xf s ^ ^ ^ ^ s h oX+X:X4X4X+XY 4 . Z z.m.N.z.p.k.g.k.k.p.p.k.s.j.;.;.k.p.",
"l.Z.`.D.F.v.j.j.h.;.s.d.j.g.s.;.6.*.@ O 3 I E %X-X$Xy 8 { J.K.].K.K.t.{ 8 y $X#X+XR I 4 O + b.C.c.g.h.s.;.s.d.h.j.6.6.6.4.6.;.d.",
"B.Z.D.Z.l.k.d.s.4.4.6.4.1.3.3.4.6.L x x 1 R E +X>Xf v { B V B x M B V M { v h >X%X+XR , x x @.l.g.s.6.4.;.4.4.1.3.1.5.s.5.1.;.k.",
"B.B.D.Z.N.p.k.j.s.6.4.,.Q.W.2.R.W.L O V 1 p +X@X:Xn B # / ..e...e.e...V % V t :X:X+XI 1 V + K N.p.g.j.;.6.1.2.R.Q.2.W.W.(.~.P.M.",
"B.p.N.Z.N.p.p.p.l.v.W.^.F.D.A.`.b.B . } G 3 +X#XXXo % ..e.` V C G V _ e...# o XX#X+X2 C ' . : u.p.p.p.l.v.W.V.`.F.A.D.D.D.F.D.S.",
"D.B.D.N.N.m.p.p.p.p.N.B.Z.N.n.u.8.- . N [ l i -X&X  / ..% .   < <   . %  ./   &X%Xy l [ N . - #.y.p.p.p.p.B.Z.B.n.Z.N.B.N.Z.`.D.",
"B.N.m.k.h.d.k.k.p.N.N.N.p.p.u.@.@.- 5 O G ].v s oX1  .& > 2 4 +XE e 2 > x ..O OXh v '.C O + * %.=.k.k.p.N.N.N.p.p.x.p.p.p.N.N.N.",
"p.z.s.;.s.6.6.6.d.C.F.S.c.j.a.J +.- + 5 x | r.{ 8 l } . d f j >X:Xj j p X } l 8 { J.| z l + c o.%.-.I.c.S.D.C.c.g.s.j.p.p.k.z.z.",
"k.g.g.z.p.k.g.k.d.k.m.k.g.j.=.o.+.- l V ( % H.H.l 5 [ 1 #X$X$X0X8X:X$X#X1 [ + # J.w.z ( V # ; @.o.$.g.d.v.l.k.j.g.k.j.k.s.6.s.s.",
"k.i.g.Y.L.I.l.C.R.2.5.Y.6.;.=.F L c 5 ] [ / / M | M _ t >X,X>XtXtX4X%X>Xr _ M | M M ( [ ] z c L L #.0.Y.7.Y.L.I.;.6.6.s.6.k.g.g.",
"f.E.^.V.~.^.A.A.C.W.R.S./.0.+.X.X.c 5 ] } } } w.J.M ' t >X8X5XrXtX8X>X>Xt ' M K.| /  .[ ] z v &.{ 8.f.C.Q./.C.(.v.k.k.j.6.d.k.k.",
"m.m.B.c.c.V.c.I.6.U.c.l.N.u.#.@.@.c % C ..e.} w.K.M  .t >X0X<XtXyX8X0X4Xt ' M K.w.} ....C z c +.+.&.-.6.c.c.x.N.M.m.p.k.v.m.B.C.",
"Z.N.p.k.k.s.;.s.s.6.6.I.h.h.a.#.@.- % B ..e...t.'.M  .t >XoX;XuXyX8X0X4Xt } M K.K...w...B # - X.%.-.;.;.4.6.s.h.d.k.p.p.p.p.N.N.",
"B.Z.B.p.k.k.g.k.l.s.d.l.C.A.b.#.#.; O x [ } ..w.K.M } t >XoX>XyXrX5X5X4Xt } M ].r... .[ & O Z O.=.g.p.k.h.k.m.C.A.Z.N.p.p.p.N.Z.",
"z.z.N.p.p.p.p.p.p.p.k.c.c.E.s.&.#.O.9 X M ) ..] K.M [ t -X:X-X6X7X:X:X%Xt [ M K.[ ..( C . $ @.@.@.y.p.p.z.j.v.c.I.!.V.v.v.h.g.k.",
"g.g.k.p.p.p.k.l.p.g.g.k.k.g.;.-.*.o.S c o N ` V K.N _ t %XOXXX<X4XOX:X-Xt _ V K._ / M + $ X.@.@.$.u.i.k.d.k.z.k.j.6.s.I.6.6.6.s.",
"p.p.k.l.k.L.T.5.I.Y.T.k.Z.D.k.k.i.9.+.X.K = ` G N O N b .Xj j :X4Xj j .Xb N + V # $ * * X.X.#.$.G.G.5.5.T.d.l.D.Z.j.p.z.k.k.N.B.",
"d.I.G.1.G.G.F.(.R.F.F.S.`.F.F.N.p.u.8.8.8.Z l + n c c 1 8 1 w s .Xq 8 1 $ * ; = = K #.L F F F <.R.D.^.~.F.F.A.`.`.S.N.N.Z.Z.S.B.",
"R.R.A.^.A.(.F.C.A.D.B.Z.A.V.D.D.B.p.9.@.O.L L &.&.K 8.8.&.J K J K K S K 8.8.#.@.#.#.L J &.q.~.b.A.A.C.F.Z.B.S.V.(.F.Z.N.N.N.m.E.",
"D.B.n.D.m.j.U.4.j.p.k.s.I.6.l.B.p.p.B.b.q.b.9.9.8.8.O.o.F o.+.+.o.%.F +.#.@.@.8.9.q.q.q.u.n.Z.c.d.I.6.c.p.g.s.6.s.N.N.p.N.B.Z.F.",
"p.p.k.k.s.;.6.6.6.;.;.;.g.g.g.k.p.p.N.p.n.l.u.u.#.%.%.o.o.o.o.%.*.+.X.o.@.$.9.9.i.i.B.p.z.k.c.s.s.6.6.6.;.;.s.k.j.g.p.p.N.x.p.B.",
"p.p.l.k.j.p.k.k.k.s.g.k.k.p.p.g.k.j.;.k.i.p.p.N.k.d.k.y.$.$.;.a.k.a.$.9.$.=.k.-.j.p.p.p.N.l.g.j.p.k.k.g.s.k.g.p.p.z.k.k.s.s.z.p.",
"l.Z.D.Z.D.C.z.k.k.s.g.p.k.p.g.6.6.4.-.s.g.k.n.D.S.Z.S.v.i.k.g.g.z.k.p.z.s.6.;.;.6.g.g.N.D.D.Z.Z.V.z.k.k.j.k.z.k.p.d.4.;.6.6.s.k."
};
