/* XPM */
static char *result[] = {
/* columns rows colors chars-per-pixel */
"64 64 208 2 ",
"   c #2D2A36",
".  c #2F2F38",
"X  c #2D3736",
"o  c #36353A",
"O  c #3A333A",
"+  c #3D3B3A",
"@  c #41373D",
"#  c #433A3B",
"$  c #4B3E3D",
"%  c #3E4C3B",
"&  c #45433C",
"*  c #4C423D",
"=  c #474D3A",
"-  c #53443E",
";  c #594D3F",
":  c #4C563B",
">  c #555C3E",
",  c #4E603E",
"<  c #51623C",
"1  c #59643F",
"2  c #5C6B3F",
"3  c #4C3E40",
"4  c #4E4241",
"5  c #484842",
"6  c #544343",
"7  c #5A4743",
"8  c #544942",
"9  c #5C4B44",
"0  c #455B44",
"q  c #4B5E42",
"w  c #40554B",
"e  c #5F5245",
"r  c #535C44",
"t  c #624D45",
"y  c #664E49",
"u  c #625344",
"i  c #6C5445",
"p  c #645E44",
"a  c #6A5947",
"s  c #6D534B",
"d  c #6C5B49",
"f  c #715746",
"g  c #775B47",
"h  c #7D5F47",
"j  c #72564C",
"k  c #75594C",
"l  c #7A5C4D",
"z  c #7D5D50",
"x  c #486247",
"c  c #536449",
"v  c #5A754A",
"b  c #576E55",
"n  c #5A7654",
"m  c #5C7A52",
"M  c #616241",
"N  c #706C46",
"B  c #75624D",
"V  c #7F6149",
"C  c #6B7C44",
"Z  c #667D4D",
"A  c #727549",
"S  c #72794B",
"D  c #7B7C4A",
"F  c #677B54",
"G  c #757150",
"H  c #805F51",
"J  c #83634B",
"K  c #89674D",
"L  c #866A4D",
"P  c #8C6A4D",
"I  c #916C4E",
"U  c #817D4A",
"Y  c #93704F",
"T  c #98714F",
"R  c #846253",
"E  c #8A6651",
"W  c #836D51",
"Q  c #8E6951",
"!  c #936D51",
"~  c #986F54",
"^  c #867353",
"/  c #8D7251",
"(  c #947251",
")  c #9C7352",
"_  c #937955",
"`  c #9A7C56",
"'  c #A17652",
"]  c #A57A54",
"[  c #AC7E54",
"{  c #A47C58",
"}  c #6D8345",
"|  c #63834F",
" . c #6D8449",
".. c #6D8849",
"X. c #748247",
"o. c #718945",
"O. c #798C46",
"+. c #74854B",
"@. c #78884A",
"#. c #7B9549",
"$. c #688450",
"%. c #688B54",
"&. c #7B8452",
"*. c #7A8D53",
"=. c #769656",
"-. c #7B9C51",
";. c #7BA056",
":. c #7BA65F",
">. c #7FAB5F",
",. c #6E9B6D",
"<. c #799669",
"1. c #739C6C",
"2. c #7B9C6C",
"3. c #6B9572",
"4. c #6E9870",
"5. c #729771",
"6. c #739970",
"7. c #76A565",
"8. c #7CA464",
"9. c #7CA962",
"0. c #73A169",
"q. c #7DA169",
"w. c #83864D",
"e. c #848C4A",
"r. c #888C4E",
"t. c #86974A",
"y. c #87994A",
"u. c #839C4A",
"i. c #8A9C4A",
"p. c #90974E",
"a. c #919E4D",
"s. c #9D8159",
"d. c #8B9353",
"f. c #939755",
"g. c #959852",
"h. c #AB8257",
"j. c #A5865A",
"k. c #AB8359",
"l. c #AB8B5D",
"z. c #B48355",
"x. c #B88656",
"c. c #BA8857",
"v. c #B58758",
"b. c #B98B5A",
"n. c #AF905F",
"m. c #BF915D",
"M. c #87A54F",
"N. c #8CA34A",
"B. c #8DAA4C",
"V. c #92AA4C",
"C. c #96B44E",
"Z. c #9BB64E",
"A. c #9BB94E",
"S. c #85A656",
"D. c #8DAF55",
"F. c #83AD5D",
"G. c #8BAE5C",
"H. c #9DA757",
"J. c #92AE5D",
"K. c #9BAE5D",
"L. c #8EB256",
"P. c #87B05A",
"I. c #8AB059",
"U. c #94B553",
"Y. c #9AB653",
"T. c #96B853",
"R. c #9BB850",
"E. c #94B25A",
"W. c #9CB25B",
"Q. c #A0B94F",
"!. c #A1AA51",
"~. c #ACAB55",
"^. c #A3B755",
"/. c #AAB555",
"(. c #A4B951",
"). c #ABB954",
"_. c #A4B45C",
"`. c #ACB55B",
"'. c #AEB859",
"]. c #B3BA56",
"[. c #BABB57",
"{. c #B3B65D",
"}. c #B9B75D",
"|. c #B5B959",
" X c #BCBA5A",
".X c #829F6B",
"XX c #B79562",
"oX c #BD9B64",
"OX c #83A464",
"+X c #8AA566",
"@X c #83AB61",
"#X c #8BAC61",
"$X c #85A169",
"%X c #8BA369",
"&X c #95A767",
"*X c #98A764",
"=X c #93AC61",
"-X c #9BAA64",
";X c #92A568",
":X c #97B060",
">X c #A4AE63",
",X c #A8AF62",
"<X c #A6B160",
"1X c #ACB161",
"2X c #B2B360",
"3X c #C0BA5B",
"4X c #C5A267",
"5X c #C1A268",
/* pixels */
"(.]. X[.Y.E.P.9.9.7.9.7.7.4.,.9.>.9.1.9.P.R.). X3X/.U.P.F.9.7.9.9.7.1.3.7.F.@X1.0.F.Y.(.].3X].U.I.F.9.9.9.9.7.0.3.0.9.F.7.1.9.U.",
").|.3X).A.A.U.F.9.9.7.,.2.$X3.$X+X&X&X1.Y.].]. X].Q.Z.T.G.9.9.7.,.,.$X6.2.%X+X-X2.J.).].[. X).A.Y.I.>.9.7.7.4.$X2.4.%X$X-X$XOX(.",
"(.A.).|.).A.A.T.U.J.+X%X2X X>X2X X}.3X{.{.).A.(.].].Q.A.R.T.J.#X$X1X X1X2X3X{.3X[.{.).A.(.].).(.A.A.T.J.#X%X-X X2X>X3X X3X X{.|.",
" X(.].(.Q.Q.A.A.R.(.).|.[.).[.|.].].|.3X X3X).).).Q.(.A.A.A.(.).|.[.).].].).].). X3X3X].).).(.Q.Q.A.A.Q.(.'.[.|.).[.).|.'. X X[.",
"].].].(.E.Y.Y.C.A.A.A.R.(.R.(.A.A.A.Q.).).).].].).Y.E.Y.Z.Z.A.A.Z.(.A.Q.Q.A.A.A.].).).].].).R.E.Y.Z.Y.A.A.A.(.A.A.Q.A.A.A.).].(.",
"A.A.L.>.9.9.>.9.E.). X).T.U.U.I.A.A.A.A.A.A.C.T.F.9.9.9.9.G.^.|.|.(.U.U.P.T.A.Z.T.A.A.A.T.G.@X9.9.9.F.Y.|.[.).U.T.I.L.A.A.Y.A.A.",
"U.L.P.L.T.L.F.D.G.W.)._.E.P.L.P.U.T.F.F.L.L.U.F.P.C.T.F.I.F.E./._.U.P.L.U.P.A.F.F.I.I.U.I.G.U.T.F.P.P.G._./.Y.I.I.U.P.T.L.>.I.I.",
"U.T.U.G.D.G.Y.^.+XF.F.OXF.P.P.9.F.F.F.L.F.L.T.C.G.G.G.U.(.J.OXG.OXF.F.F.>.F.P.F.L.P.P.C.T.D.G.D.D.(.W.OXF.OXOXF.F.F.>.P.F.I.I.F.",
"U.J.-X-X;X&X<X X`..X%X>X=X=XP.I.I.9.P.L.T.Y.G.=X-X&X*X-X3X2X-X2.>X-X-XP.F.L.>.F.U.U.Y.E.G.-X*X&X*X{. X<X2.-X-XW.G.P.L.F.9.U.E.T.",
"_._.{.W.<X{._.E.#X_._.Q.].].).A.T.G.E._._._._.|.`.:X'.1X:X@X:XW.(.).|.'.(.A.P.J.W._._.W.'.'.-X`.`.<X#XJ._.^.).].].(.A.L.G.W._._.",
"(.Q.A.T.L.P.>.:.8.9.9.F.L.G.E.Y.A.Y.Q.Q.Q.).Q.A.T.U.I.F.9.9.9.9.F.L.P.E.T.A.R.A.Q.Q.).Q.A.A.U.L.F.9.9.9.7.>.P.I.G.E.A.C.A.Q.A.(.",
"].].(.T.U.L.P.L.U.9.F.E.W._.'.(.A.A.A.(.].].].].R.U.U.P.P.Y.P.>.P.E.W.{.^.A.A.Z.Q.).[.].].Q.T.L.P.P.U.I.@XF.E.W.|.'.A.A.A.A.).].",
"Z.(.(.A.A.A.A.A.A.Y.U.W._.W.W.'.^.^.U.T.R.A.(.(.A.A.A.A.A.A.T.C.W.`._.:X`.).(.Y.T.Y.A.A.).(.A.A.A.A.A.A.U.U._._.=X_.'.^.(.U.Y.Y.",
"G.L.T.A.A.A.A.A.A.T.I.D.U.P.9.@XF.@X9.8.F.G.I.U.A.A.A.A.A.A.A.I.P.U.G.9.@X@X@X9.9.>.F.P.U.T.A.A.A.A.A.A.U.G.U.L.F.9.F.@X9.9.9.@X",
"C.C.A.A.Z.G.OXOXD.OX#XT.).).G.L.T.I.P.E.U.Y.Z.A.A.A.U.OXq.D.OXOXU.(.).E.P.T.I.I.G.E.Z.C.A.A.A.T.OXOXF.G.OXG.R.).^.F.T.U.I.P.U.U.",
"C.G.2.F.q..X1X-X.X,X1X_.[.3X{.R.A.(.].|.[.Y.D.8.8.OX1.>X>X%X-X2X_.|.3X[.^.A.Q.].].[.).U.OX8.F.<.;X2X%X%X2X1X'.3X X`.A.Q.).|.|.[.",
"$X%X,X%X,X>X}. X[. X].[. X`. X].).Q.(.).Y.$X$X>X&X-X>X2X X{.3X[.|. X|. X X).(.).).^.OX$X-X-X%X1X,X X X X[.]. X{.}.3X].(.).(.).J.",
" X).).[.)._.:X@XE.).Z.E.#X@X`.].).A.(.].1X{.|.). X].^._.#X#X^.Q.U.J.9.W.].).A.(.).{.`.{.).]. X`._.=X@XW.Q.T.E.@XG.].).Q.A.).|._.",
"(.R.Y.^.G.9.9.7.>.P.F.9.P.F.P.Z.A.Q.).Q.).).A.R.^.E.9.9.9.9.P.P.9.F.P.F.T.A.A.).(.).).(.A.Y.Y.F.9.9.9.F.I.>.9.D.F.L.A.A.(.).(.].",
"R.A.T.G.F.T.L.I.P.9.F.D.T.R.A.T.A.T.G.C.A.A.A.T.I.F.I.U.P.P.F.>.G.U.A.T.C.Z.A.P.L.A.A.A.Y.U.F.F.T.P.I.F.>.P.P.A.R.T.Z.A.U.P.A.Z.",
"A.).].).).^.Y.R.T.L.U.T.T.A.U.F.>.9.9.G.T.C.(.|.).).).Y.A.T.L.L.R.T.A.A.F.@XF.7.F.U.T.A.].].).'.^.Z.T.U.L.T.T.A.A.L.>.F.9.9.L.T.",
"Y.].3X X`.E.F.F.9.9.9.F.>.8.7.9.9.9.7.9.F.U.). X X{.W.G.F.9.9.9.>.9.8.9.9.8.9.7.7.F.I.(.[.3X|._.I.F.>.9.9.>.@X9.8.9.9.9.7.7.>.F.",
"].|. X].T.R.L.9.9.7.9.1.1.5.3.2.OX+X2.1.Y.).|. X[.A.T.U.F.9.7.9.0.1.1.3.1.OXOX$X1.G.(.].[. X(.T.T.P.:.7.9.7.1.1.3.3.q.OX%X1.8.Q.",
"Q.(.].].).A.A.U.F.@X7.2.>X{.%X1X1X`.}.>X'.(.Q.].[.).A.A.T.I.@X@X6.*X2X*X-X{.1X}.>X`.).Q.).].].(.A.Y.U.F.9.0.$X2X1X;X2X,X}.{.>X/.",
"].(.(.(.Q.A.A.A.(.^.'.{. X]. X[.[.[.[.3X3X[.(.(.).(.(.Z.A.R.^./.`. X[.[. X|. X[.3X X X).(.).(.(.A.A.A.(./.`.[. X|.[.]. X[. X3X X",
"[.|.[.).^.(.R.A.A.A.A.(.).A.).Q.R.(.^. X].[.|.[.).(.(.(.Z.R.A.Q.(.).A.(.(.R.R.(.[.[.].[.|.].(.^.^.A.A.R.R.A.).(.R.).A.Q.A.]. X].",
"A.(.Y.F.8.>.F.F.Y.(.].(.A.R.T.U.A.A.A.Q.Z.A.Q.A.I.F.9.F.F.U.(.).).R.R.R.U.A.A.A.Z.A.A.A.R.U.F.9.F.F.P.R.).).Q.A.R.U.T.A.A.A.Q.A.",
"A.U.F.F.L.F.F.F.G._.[.`.E.F.D.P.U.A.P.L.U.T.T.F.F.L.I.9.F.F.W.[.|.W.P.P.I.I.A.L.G.T.T.C.L.F.G.L.F.F.F.E.{.|._.G.G.I.F.A.T.P.U.U.",
"L.U.U.U.T.U.U.Y.@XG.E.G.P.I.I.F.P.L.@XF.F.F.U.C.U.T.U.U.Z.G.F.E.G.P.P.L.F.F.L.>.F.F.>.U.C.U.T.R.L.R.E.F.U.G.G.F.L.P.F.L.F.F.F.:.",
"T.U.#X%XOX.X_.[.>X2.2.&X+XF.F.>.F.9.I.U.U.R.E.G.+X.X$X=X}.`.%X1.&X+X#X9.F.F.>.P.T.U.T.T.I.+X$X$X$X).}.*X1.%X%X#X@X>.F.F.>.U.U.T.",
"K.>X{.1X_.{.{._.W.<X<X).{.|.^.A.T.>.G.E.W._.K.`.{.<X{.{.`.K._.-X).|.}./.A.T.F.@XE.W.W.K.1X{.1X`.{.{.-X_.-X'.'.}.'.(.A.L.@XE.E.W.",
"(.A.R.U.J.J.@X8.8.@XF.U.T.E.W.A.Y.Y.^.(.(.(.(.(.U.I.E.#X@X7.9.#XP.U.E.Y.Y.A.T.(.(.).(.(.(.Y.I.E.G.@X7.9.@XP.U.Y.E.Y.R.U.Y.(.(.).",
"[.).Q.T.U.D.F.G.P.9.9.F.I.E._.R.A.A.A.R./.].].Q.A.C.L.F.F.L.9.7.F.G.I.<XY.R.R.A.R.).].].).A.T.U.P.>.L.P.9.9.F.G.W.W.A.A.A.A.(.).",
"Q.).).A.T.T.T.A.R.U.U.^.{.`.`.).(.A.A.R.).Q.).].A.T.T.A.R.A.T.U.Y.'.'.'.|.).R.B.u.(.).(.].(.T.T.T.C.A.C.L.Y.'.'.`.|.).(.A.R.(.).",
"L.U.C.A.Z.A.A.A.A.T.L.P.E.@X9.=X=XG.@XF.G.L.U.U.A.B.#.} } 2 r > r r r n Z =.S.r M S -.U.T.A.A.A.A.A.A.A.U.G.E.I.9.@X=XJ.G.9.F.P.",
"L.T.A.A.A.U.G.D.T.G.G.T.(.Y.F.P.P.F.F.F.P.L.D.o.: & ; t f K ! ) ) ! K f t 8 o # Q s.G -.T.A.A.A.U.F.U.L.F.L.A.(.Y.9.L.F.F.F.F.P.",
"A.U.F.D.F..X*X.X2.*X-XK.[. X_.R.A.Q.^.).].u.: ; J K J i j ~ H Q Q J ~ j i h $ J m.( ^ O.I.G.L.OX+X&X.X$X-X=X_. X[.W.A.R.(.^.).].",
"OXOX;X2.;X;X}.}.`. X X}.3X X3X).(.).].].D # K ) V g y H z R k z H k R j R 6 # ) [ P * c %X%X2.;X-X3X{.{. X}. X[. X X(.(.].].].^.",
",X`.{.}.|.|.`.=X_.].Q.(.-X#X{.[.).A.A.C ; I s z j H z R H E z H R R R z R $ h [ ) / 9 8 S [.}.].|._.=X'.).Q./.=X:X X[.(.A.(.).=X",
").(.R.].U.@X9.7.F.U.L.>.F.9.U.A.A.).p.; I i 6 H z H z R R R z R R R H z j - [ z.J 4 ; P 9 t.].P.8.9.9.G.T.F.9.F.@XY.A.A.(.].). X",
"A.Z.U.G.9.I.F.F.F.9.9.F.U.T.U.T.A.Z.: I u t j R R R z R z R z H R R R z $ J z.) d 4 9 t I = S.9.L.>.F.9.9.F.F.A.U.U.A.A.Y.U.A.A.",
"A.(.).R.W.(.A.A.R.L.T.T.C.Z.A.P.I.-.u J # y z R R H z R j R k z R H E 7 * [ ] V 8 t y @ J u M.Y.Q.T.A.U.I.T.C.A.A.T.F.L.F.9.T.A.",
"Y.].3X X{.W.P.P.F.9.F.P.P.L.F.9.9.m a 9 O y z H z z s R 7 z y 7 7 y z O g v.) B 6 j y O t i w.}.E.P.F.>.>.P.P.P.D.9.9.7.9.9.9.G.",
").].3X].R.U.P.F.9.7.9.7.0.3.3.7.@Xv V V . y k z j s 6 j 9 f j k k y t 3 k.b.v.^ s z y . J h } Y.U.P.9.9.9.9.0.,.3.,.8.F.q.1.:.T.",
").).[.].(.A.T.G.F.7.7.1.%X>X2.&X*Xc * ! O 3 y y 3 s k R E Q ! ~ ~ R $ i h.] j.e 9 t 3 O ! 4 2 Q.A.U.F.9.9.0.1.-X&X.X-X*X<X>X+X/.",
").A.^.].).A.A.A.R.W.-X>X}.}.{. X~.M   ) g @ @ $ j z ! [ ) I ] [ v.{ # - J L _ 7 3 3 O g '   2 Y.A.A.A.Y.W.-X1X3X}.2X X3X X X3X|.",
" X).[.(.(.(.A.A.A.Q.Q.].].(.].(.a.1 O f ! 4 O y f l ) [ I ) ' ] ( ! K i $ a B k H 6 5 ! f O 1 y.R.A.A.(.Q.).].).^.].(.(.(.[. X X",
").).^.U.G.G.U.L.A.Q.(.Q.A.A.A.C.N.< 4 O B 4Xy 6 E z.x.x.x.x.x.x.z.x.x.[ I I ' E 6 y 4XB O 3 q $.S.U.U.A.(.(.A.A.A.R.A.A.A.(.(.(.",
"A.T.P.>.F.9.9.9.I.'. X'.Y.P.L.-...< 6 6 7 ` n.^ 6 P P K K K P T ] I T K K I Y * ^ n.` 9 4 6 x | =.9.9.W.}.[.`.E.I.P.P.A.A.L.A.T.",
"L.L.L.C.A.U.L.U.F.E.^.J.G.L.U.-. ., 9 k K - l.XX- & I K P ( ' ] z.) ) T I E # - XXl.6 K g 7 < o.;.U.L.P.Y.Y.E.I.I.U.F.U.P.9.F.F.",
"C.Y.G.OXOXOXU.'.=X2.q.OX9.F.9.%.| 0 t E ! J V u _ u b.b.m.b.z.z.z.z.v.b.m.v.u _ e u J ! E t 0 F =.^.`.$X0.$XOX@X>.>.9.F.9.U.L.L.",
"E.=X>X`.>X1X{.}.`.-X-X|.1X_.W.S...0 9 R ) ) ) j.XX8 ` b.` P ) ) ) K P / ` [ 9 oX` J ' ~ H t r &.H. X{.1X;X<X1X`.W.T.T.D.9.G.U.T.",
"^.^./.E.E.<XE.@X9.#XE.Y.^.'.^.#.o., 9 z { [ ( l.XXu [ x.z.[ z.z.z.x.z.z.x.z.e XXj.~ [ ] l 9 q +.*.=X9.@XE.E.R.^.^.^.A.T.E.^.'.).",
"].(.A.A.U.P.>.>.F.9.9.>.P.P.J.o.o.< 7 s { [ ] m.oX; ' k.P J ) ] ` ) Y P ) h.e oXoX] [ { s 7 ,  .| 9.>.>.9.9.F.P.J.U.A.A.A.A.R.).",
").].).A.U.L.L.T.Y.F.P.^.`.{.{.a.O.v + 9 ) ' [ j.5Xe ' ] ] [ [ [ ] ' ' ' ] [ e 5Xk.[ ] ! 7 + 2 } =.L.A.C.F.U.`.'.{.|.Q.Q.A.A.).].",
"T.Y.A.A.A.A.A.A.A.A.U.E.E.G.#XW.w.+.% . y K [ W oX9 [ v.c.x.x.x.x.x.x.x.x.[ 9 oX( [ I j   % o.#.V.A.A.A.T.I.E.E.@X=X_.W.E.G.I.U.",
"I.L.T.A.A.A.U.T.A.L.I.C.A.L.9.F...m n x X u ! k oX3 9 ^ / V V L P J h K L 6 * oXI J i + = C o.u.Z.U.T.Z.G.D.T.Y.P.9.F.9.9.9.9.F.",
"A.T.C.T.U.OX%Xq.OX$X+XE.).[.E.T.u.o.} o.C p ! g a & 5 9 t 8 5 + & - 6 t 9 & & B * = = : } } } =.OX.X8.q.+X#XR.|.).E.A.T.R.U.^.^.",
"D.OX.X<..X.X2X2X-X}.}.{. X X[.^.Z.N.w.r.w.M 8 & w b n S U G &.U D N N D X.} C > c A +.Z m n F <.*X}.>X>X X}.{.3X3X}.R.(.].|.[.'.",
"&X-X{.>X{.{. X_.|.|.).].{.<X X[.).i.O.O. .F F +.&.&.g.g.d.r.~.a.e.t.*.p.~.~.V.u.y.+.F S @.d.f.2X{.{.`.}.].).[._.`. X[.(.A.(.).G.",
"[.).Q.[.Y.#X#X9.P.R.T.P.@X9.Y.).Q.A.!.y.p.r.e.#.!.Z.D.=X9.:.R.T.P.:.:.E.).Q.A.).).p.r.r.N./.].U.J.@X9.E.Z.L.F.9.F.(.(.A.(.].].{.",
"A.A.U.E.F.F.@X9.9.>.>.9.L.I.P.R.A.Q.(.C.^.V.C.B.E.G.8.F.9.>.9.F.:.I.L.P.C.A.A.(.Q.Z.N.V.R.U.E.>.F.9.9.9.>.>.F.U.P.L.A.A.(.R.A.).",
"A.R.R.U.G.R.U.U.U.F.L.U.T.A.A.U.T.I.>.U.C.A.R.^.U.G.T.Z.L.T.P.I.U.L.A.A.T.L.U.>.P.A.A.R.R.Y.P.E.A.U.T.I.P.U.L.A.A.R.L.T.F.F.R.A.",
"Y.|.[.].].`.Y.T.U.P.L.C.U.A.L.9.9.:.7.F.L.T.).[.|.].{.Y.C.C.L.I.T.U.A.T.>.9.9.9.9.P.U.^.[.[.].|.^.T.C.L.F.U.T.T.A.G.9.9.9.9.F.U."
};
