/* XPM */
static char *result[] = {
/* columns rows colors chars-per-pixel */
"64 64 201 2 ",
"   c #171D2E",
".  c #1A1F30",
"X  c #1E2334",
"o  c #222636",
"O  c #282935",
"+  c #252B3B",
"@  c #2B2D3B",
"#  c #322E37",
"$  c #2B3739",
"%  c #2C313D",
"&  c #363E36",
"*  c #34333D",
"=  c #3A333A",
"-  c #333B3C",
";  c #46393D",
":  c #453A3E",
">  c #3A463B",
",  c #474B3C",
"<  c #56453F",
"1  c #48563C",
"2  c #54593D",
"3  c #5F723F",
"4  c #2C3342",
"5  c #2F3947",
"6  c #333642",
"7  c #353946",
"8  c #3B3B44",
"9  c #353E4A",
"0  c #3B3E4A",
"q  c #443C40",
"w  c #4C3D41",
"e  c #3D4441",
"r  c #36414E",
"t  c #3A4748",
"y  c #3C424D",
"u  c #3F5049",
"i  c #3D4551",
"p  c #3E4954",
"a  c #44444D",
"s  c #534343",
"d  c #574841",
"f  c #5D4945",
"g  c #435441",
"h  c #475646",
"j  c #545941",
"k  c #595B40",
"l  c #414653",
"z  c #434B55",
"x  c #4B4C54",
"c  c #434E58",
"v  c #4B4F59",
"b  c #455354",
"n  c #46525B",
"m  c #4C535C",
"M  c #485A5A",
"N  c #51555D",
"B  c #535B5B",
"V  c #624D46",
"C  c #644D49",
"Z  c #6A5244",
"A  c #6B524A",
"S  c #76594D",
"D  c #795B4B",
"F  c #6D5D56",
"G  c #7A5D51",
"H  c #4D6149",
"J  c #566847",
"K  c #5B644A",
"L  c #5C7546",
"P  c #52655A",
"I  c #5C7D52",
"U  c #646B41",
"Y  c #656E48",
"T  c #7F614C",
"R  c #677746",
"E  c #647A44",
"W  c #767747",
"Q  c #677A54",
"!  c #4C5A63",
"~  c #515660",
"^  c #545B64",
"/  c #585F67",
"(  c #54636A",
")  c #58636A",
"_  c #5B656C",
"`  c #5C696E",
"'  c #5D6C72",
"]  c #5F7175",
"[  c #616E73",
"{  c #627276",
"}  c #647579",
"|  c #68767A",
" . c #67797C",
".. c #697C7E",
"X. c #805F4E",
"o. c #84634A",
"O. c #9E754F",
"+. c #886452",
"@. c #936C53",
"#. c #9B7251",
"$. c #A47855",
"%. c #AA7C55",
"&. c #63824E",
"*. c #6C864A",
"=. c #748A45",
"-. c #7A8D46",
";. c #748648",
":. c #7E8349",
">. c #7B9446",
",. c #7C9048",
"<. c #678956",
"1. c #6D9357",
"2. c #75995B",
"3. c #7CA359",
"4. c #7FAB5F",
"5. c #6E9B6D",
"6. c #7C9360",
"7. c #739C6C",
"8. c #7B9C6C",
"9. c #6B9572",
"0. c #6E9870",
"q. c #739970",
"w. c #76A565",
"e. c #7CA464",
"r. c #7CA962",
"t. c #73A169",
"y. c #7CA068",
"u. c #8B8B4D",
"i. c #84984A",
"p. c #839854",
"a. c #AA825F",
"s. c #B48456",
"d. c #88A54B",
"f. c #92AC4C",
"g. c #98B44E",
"h. c #9BB94E",
"j. c #85A554",
"k. c #8CAE54",
"l. c #83AD5D",
"z. c #8BAE5B",
"x. c #98AB56",
"c. c #92AE5D",
"v. c #8EB256",
"b. c #87B05B",
"n. c #8AB059",
"m. c #94B553",
"M. c #9AB653",
"N. c #9BB850",
"B. c #94B25A",
"V. c #9CB25C",
"C. c #A0B94F",
"Z. c #A3A355",
"A. c #A3B755",
"S. c #AAB656",
"D. c #A4B951",
"F. c #ABB954",
"G. c #A4B45C",
"H. c #ACB55B",
"J. c #AEB858",
"K. c #B6B757",
"L. c #B3BA56",
"P. c #B3B65D",
"I. c #B9B75D",
"U. c #B5B959",
"Y. c #BCBA5A",
"T. c #829F6B",
"R. c #998774",
"E. c #A88767",
"W. c #AF9272",
"Q. c #B19474",
"!. c #83A564",
"~. c #8AA566",
"^. c #83AB61",
"/. c #8BAB61",
"(. c #85A169",
"). c #8BA369",
"_. c #94A666",
"`. c #93AC61",
"'. c #9BAA64",
"]. c #92A569",
"[. c #96A868",
"{. c #9AB160",
"}. c #A4AD63",
"|. c #A8AF62",
" X c #A6B160",
".X c #ACB161",
"XX c #B2B460",
"oX c #C0BA5B",
"OX c #6B7E81",
"+X c #6D8183",
"@X c #718586",
"#X c #728788",
"$X c #758A8B",
"%X c #7A8C8A",
"&X c #798F90",
"*X c #7B9291",
"=X c #819592",
"-X c #869C98",
";X c #8EA29C",
":X c #96ABA3",
">X c #9CB1A7",
/* pixels */
"D.L.Y.Y.M.B.b.4.r.w.r.w.w.5.5.r.4.r.7.r.v.N.F.Y.Y.D.B.n.l.r.w.w.r.w.7.0.w.r.l.7.t.l.N.D.L.oXL.m.v.l.r.r.w.r.w.t.0.t.r.l.w.7.4.v.",
"F.U.oXF.h.h.v.l.r.w.w.7.y.T.9.(.~.].].8.M.F.L.Y.K.D.h.m.z.r.w.r.t.7.(.q.8.).~.[.8.z.F.L.Y.Y.D.h.M.n.r.r.r.w.0.T.8.0.).~.[.).!.D.",
"D.h.F.L.F.C.h.N.m.n.~.).XXY.}.XXY.Y.Y.U.P.D.D.D.L.L.C.h.h.m.c.`.(..XY..XP.Y.Y.oXI.I.F.C.D.L.L.D.h.h.m.B.c.(.'.Y.XX}.Y.I.oXY.I.F.",
"Y.D.L.D.C.h.h.h.C.D.J.U.Y.F.Y.L.L.L.L.oXY.oXF.F.F.D.C.h.h.h.D.D.J.Y.F.L.U.F.L.L.oXoXY.L.D.F.D.D.C.h.h.D.D.H.Y.L.L.Y.F.L.F.Y.oXY.",
"L.L.L.D.m.V.N.m.h.h.h.h.D.N.D.h.h.h.D.J.F.F.L.L.F.M.B.M.N.N.h.C.h.C.h.h.h.h.h.h.F.F.F.L.L.F.M.V.M.M.N.h.h.h.N.C.h.C.h.h.N.D.L.F.",
"h.h.v.4.4.r.4.r.B.F.Y.S.M.m.v.n.h.h.N.N.h.h.h.m.l.r.r.4.4.z.A.K.L.D.B.m.z.m.h.h.N.h.h.h.M.l.4.4.r.4.^.M.L.Y.S.m.m.v.v.h.h.M.h.h.",
"m.v.b.v.m.v.l.k.z.V.J.A.B.b.v.v.v.m.l.l.n.v.m.b.n.m.m.l.n.l.B.J.A.V.v.v.v.b.h.l.l.v.v.m.k.z.m.m.l.n.n.z.G.J.V.k.v.m.b.m.v.4.v.z.",
"m.N.v.z.v.z.M.A.~.l.l.^.4.l.b.4.b.l.l.v.l.v.g.m.z.n.k.B.D.c.e.l.!.l.l.l.4.l.n.l.v.l.b.m.m.v.z.k.k.N.V.!.l.^.l.4.b.4.4.b.4.n.v.l.",
"m.c.[.'.).[..XY.H.T.).}.`.`.z.n.n.r.n.B.m.m.z.`.'.].[.`.Y.I.'.8.}.'.V.l.n.v.r.l.v.m.N.B.c.'.[.].[.I.Y.}.T.[.}.`.z.n.v.l.r.B.m.m.",
"V.G.U.G.G.P.G.c./.}.G.D.L.L.F.h.m.z.B.G.G.A.G.U.H.V.P.H.{.^.{.V.A.F.U.L.D.h.n.`.V.G.G.V.J.J.V.H.H.G.^.`.G.A.D.L.U.D.h.v.n.{.G.G.",
"D.C.h.m.m.z.r.r.r.r.r.l.v.n.B.N.h.M.h.D.D.F.C.h.m.m.B.4.r.r.r.r.l.n.z.z.m.N.N.h.C.C.F.C.h.h.m.v.l.r.r.r.w.4.n.v.z.B.h.h.C.C.C.D.",
"L.K.D.m.m.n.n.v.m.4.l.v.V.G.P.N.h.h.h.D.L.L.L.L.h.m.v.n.z.m.l.4.n.M.V.P.D.h.h.h.C.L.U.L.L.C.m.v.n.z.m.v.^.l.B.M.H.J.N.h.h.C.D.L.",
"h.D.D.h.h.h.h.h.h.m.m.V.G.V.V.J.A.D.m.m.N.h.D.D.h.h.h.h.h.h.h.m.V.G.G.B.H.H.A.M.m.h.N.h.D.D.h.h.h.h.h.h.N.m.G.G.{.G.H.A.N.B.m.N.",
"v.v.m.h.h.h.h.h.h.m.v.v.m.l.r.^.^.^.r.r.l.l.v.m.N.h.h.h.h.h.g.v.n.m.z.4.^.^.^.r.r.4.l.n.m.M.h.h.h.h.h.N.B.z.v.v.4.r.l.l.^.r.r.l.",
"N.g.h.h.g.k.!.^.k.!./.m.D.J.n.m.m.v.z.B.m.M.g.h.h.h.m.^.e.z.^.!.B.D.F.B.b.m.v.v.n.m.M.M.h.h.h.m.z.T.l.l.e.z.h.J.A.b.N.v.v.n.B.N.",
"m.z.8.^.T.T.|.[.).|.XXG.Y.Y.P.M.h.D.L.L.Y.M.k.!.e.!.q.}.}.).[.P.G.U.oXY.A.h.C.F.L.Y.D.m.^.8.l.8.].H.].).P..XJ.oXoXG.h.h.J.L.U.U.",
"!.).|.).|.}.I.Y.Y.Y.L.Y.Y.H.Y.K.F.D.F.F.M.!.(.}.].'. XP.Y.P.oXY.Y.oXH.Y.Y.D.D.D.F.D.~.(.[.'.]..X}.Y.I.Y.Y.L.Y.U.P.oXF.D.F.F.D.B.",
"I.J.F.Y.F.G.{.^.B.D.h.V./.^.F.F.F.h.C.L.H.XXP.F.Y.L.G.G././.D.h.m.c.r.V.L.F.D.D.F.H.H.P.F.U.Y.A.G.c.^.G.C.m.B.^.n.L.L.C.h.F.L.H.",
"D.h.g.A.n.r.r.w.4.b.b.r.b.l.n.m.h.C.F.C.L.D.D.m.A.B.r.r.w.r.b.n.r.l.b.l.M.h.h.F.D.F.F.D.N.N.M.l.r.r.r.l.n.4.r.n.^.v.h.h.D.D.A.L.",
"h.h.m.n.r.m.v.v.b.4.l.n.m.h.N.N.h.m.b.m.h.h.h.M.n.^.v.m.b.v.4.4.n.v.h.N.m.h.N.n.v.h.N.N.N.m.l.l.m.l.n.l.4.b.v.h.N.N.m.h.B.z.h.h.",
"h.J.L.F.J.F.N.m.m.v.m.m.m.h.m.4.^.r.r.b.m.m.C.K.F.F.F.M.h.m.v.v.h.m.h.h.n.^.l.w.l.m.m.N.L.L.F.U.A.g.N.m.v.m.m.h.h.v.r.l.4.r.v.m.",
"N.L.Y.Y.H.B.b.l.r.r.r.l.4.^.w.r.r.r.w.r.b.m.F.Y.oXU.V.n.b.4.r.r.4.4.l.w.w.r.r.w.w.l.v.D.U.oXU.A.n.b.4.r.r.4.4.^.r.r.r.r.w.w.4.n.",
"L.U.oXL.N.h.n.4.r.w.w.7.7.0.9.y.!.!.8.7.N.F.U.oXU.C.h.v.l.r.w.r.t.7.q.9.7.!.!.(.q.z.D.U.Y.Y.D.N.M.n.r.r.w.w.7.7.9.9.(.^.(.7.r.N.",
"D.D.L.U.D.h.m.m.z.^.w.8.}.P.)..X.XXXY.}.H.D.C.L.L.J.h.h.m.n.^.!.7.[.XX_.'.XX.XY.}.H.D.D.F.L.J.D.h.m.v.l.^.t.(..X}.].XX|.I.P.}.S.",
"L.h.D.F.D.h.h.h.D.D.H.P.oXK.Y.Y.Y.Y.Y.oXoXU.F.C.F.C.C.h.h.h.D.S.H.oXK.Y.Y.U.oXU.oXY.Y.L.C.F.D.D.h.h.N.D.A.H.I.Y.K.Y.U.Y.U.Y.oXY.",
"Y.L.Y.D.A.D.N.h.h.h.N.D.D.h.F.C.h.h.F.Y.K.K.L.U.L.D.D.C.h.h.h.h.D.F.h.D.C.h.C.C.K.Y.L.U.L.L.D.A.D.h.h.N.h.C.D.D.C.F.h.C.C.L.Y.L.",
"D.N.N.n.r.r.z.l.N.D.L.D.h.h.m.m.N.h.h.h.h.h.C.A.v.l.^.l.l.m.A.J.F.C.N.M.v.N.h.h.C.h.h.h.C.m.^.r.l.z.n.N.F.L.D.N.M.m.m.h.h.h.C.h.",
"m.m.l.l.m.l.r.l.n.G.Y.H.B.l.v.l.v.N.v.v.m.m.m.l.^.v.n.r.l.l.V.I.H.V.b.n.v.n.h.m.n.m.m.N.v.l.n.v.4.^.l.B.H.U.G.v.z.v.l.g.N.n.v.N.",
"v.m.m.m.m.m.m.M.^.z.B.z.z.v.v.l.v.v.r.l.^.b.m.m.m.m.m.m.M.z.l.m.z.n.b.v.b.l.v.4.l.l.l.m.m.m.m.N.v.M.B.l.B.z.z.b.v.v.l.v.4.4.b.4.",
"N.m.~.).(.!.V.Y.}.8.8.[.!.^.l.4.4.4.v.m.m.m.m.z.~.(.)./.Y.H.).7.].~.^.4.4.b.4.b.m.m.m.m.v.~.(.(.!.L.I._.7.~.~./.r.4.l.^.4.m.m.m.",
"c. XP.H..XI.I.G.V. XG.F.P.U.A.h.m.l.z.B.V.G.V.H.P. XXXI.H.`.H.'.F.U.P.H.N.N.l.^.c.V.V.V.}.P. XH.P.I.V.}.'.H.J.U.J.A.h.v.^.n.B.V.",
"D.C.D.v.v.z.^.w.w.^.z.v.M.B.V.h.N.m.M.F.F.C.C.D.m.v.B.^.r.r.r./.v.m.m.V.N.h.M.N.F.D.D.D.D.N.v.B./.r.r.r.^.n.m.m.V.M.h.M.M.D.F.D.",
"L.F.h.N.m.v.l.z.n.r.r.^.n.V.V.h.h.h.h.D.J.K.L.D.h.m.v.l.4.v.4.w.^.n.n. XM.N.h.h.h.D.Y.L.D.C.m.v.b.4.v.b.w.4.l.z.G.V.h.h.h.h.D.L.",
"D.L.D.h.m.m.m.h.N.m.m.A.J.H.H.J.D.h.h.N.F.D.D.F.h.m.N.m.m.h.m.m.M.H.H.H.U.D.D.N.h.D.D.D.L.D.N.N.N.m.h.m.B.M.F.H.H.U.F.D.N.N.D.F.",
"B.m.N.h.h.h.h.h.h.m.n.n.B.^.r.`./.n.l.4.b.v.m.m.h.h.h.h.h.h.h.B.z.B.n.r./.c.n./.4.l.v.v.m.N.h.h.h.h.h.h.m.l.B.v.r.^.`.z.n.4.l.b.",
"v.m.h.h.h.m.z.k.m.l.b.N.D.N.l.b.v.^.4.l.v.v.m.m.h.h.h.k.k.m.z.l.m.N.A.n.l.v.l.^.l.l.v.m.N.h.h.h.f.b.v.m.l.v.M.D.m.l.v.l.l.4.l.n.",
"h.m.l.k.l.T.[.T.e.[.'.V.Y.Y.G.N.h.N.D.F.U.D.m.z.v.z.e.[.].8.).'.c.J.oXL.B.h.h.D.D.L.F.g.c.z.k.!.!.[.(.(.'.`.A.Y.Y.V.h.h.A.D.J.L.",
"l.T.].8.].].Y.Y.XXY.Y.I.Y.Y.oXJ.D.F.L.U.D./.!.].8.).].P.oXXXZ.W j K u.Y.U.D.F.L.K.F.c.!.).T.T._.}.oXXXXXoXY.Y.Y.Y.Y.D.D.J.L.L.A.",
"|.H.P.I.U.P.H.`.G.L.C.A.V./.U.Y.F.h.N.J.G.'. XL.I.Y.L.H.{.p.> c OX=Xn , W :.>.h.D.S._.}.x.K.I.J.P.G.`.J.F.D.G.`.V.Y.L.D.h.C.F.`.",
"L.C.h.L.m.^.r.w.l.m.k.l.l.r.v.N.h.C.F.F.U.U.D.i.k R l.!.<.M ( ! =X=X] + t _ r ;.L.S.u.j y k x.b.r.w.r.n.m.l.4.l.^.M.C.C.D.F.F.Y.",
"g.h.m.l.4.z.l.l.l.r.4.4.m.m.v.h.C.h.m.m.h.h.>., X.d h L i ' ^ 5 ~ x x 0 c / p , d.1 p ] +X! > 3.v.4.b.4.4.4.l.N.m.m.g.h.M.m.h.C.",
"h.D.J.N.M.D.N.h.m.v.m.N.h.h.h.n.v.b.3.3.f.>.> Z @.+.V # x ^ 0 m v x x l m x v 4 > X ! +X} ! 4 L C.m.N.v.v.N.m.h.h.m.z.v.4.r.m.h.",
"M.L.oXY.P.V.n.n.l.r.b.n.b.v.l.w.r.w.I b b b l * q G G w 6 6 0 v a x x 8 v N v 6 X a y 9 ` ] m 8 j.v.b.4.4.b.k.b.n.r.r.w.r.r.r.n.",
"F.L.oXL.M.m.n.r.w.r.w.t.t.0.0.w.l.L ! +X%X;X;X] z w s : @ 9 % % o 6 8 O = 6 * o 7 N v l ^ ` _ 9 > h 1.r.w.w.t.7.9.5.r.l.y.7.r.m.",
"F.F.U.L.D.h.m.n.l.r.w.q.).'.8._.Q b +X@X*X .( [ _ 6 @ p OX&X! 4 @ o # +.O.D V = + l x v ~ ^ 0 * Z T 1 w.r.t.7.[.].8.}.[..X'._.F.",
"F.C.D.J.D.C.h.h.N.V.'. XY.Y.I.Z.& '  .#X} i ^ ` [ m 4 OX&X` p 9 q o V %.s.%.@.# X O @ 7 6 s w S $.s.< *.G.'.XXoXI.I.Y.oXY.Y.Y.L.",
"Y.F.U.F.D.A.h.h.h.h.D.L.L.D.L.;.@ ! n p % ( } ` _ ~ 4 c ] c c q 4 q @.%.%.$.o.= O 8 . X 4 6 w A +.@.@., f.D.L.F.D.L.D.D.D.U.oXY.",
"F.F.D.B.z.n.m.m.h.C.D.h.C.f.N.d.8 ' _ { n ) ` { [ ^ 0 0 i 0 q %   = C X.+.o.; = . o i OX$X .0 w f A S = ;.D.h.h.h.M.h.h.h.D.D.D.",
"h.m.b.4.l.4.4.4.n.H.Y.P.p.t H 1.u n ) { M y _ ' / N a 7 ( [ b X l OXl w G f : #   o p -X>X:X%X* w f V # u.Y.H.v.n.n.n.N.N.v.h.N.",
"v.m.v.m.h.B.v.v.b.B.A.p.g } ' t $ 5 _ ` l + N ~ ~ a % 7 ;X>X-X}  .>XOX8 C w w q o i y _ :X=X$Xp s s * > m.V.m.n.n.m.b.m.b.r.b.4.",
"M.g.v.r.l.!.V.J.`.8.!.j 5 } #X( X p $X] 4 a N m y w * x &X-X:X;X-X>X&X7 w # * O o m z 4 M ^ ] r @ > j <.y.(.!.^.^.r.r.l.r.m.v.v.",
"B._.}.H.}..XP.U.H.[.].g p p ( } r n OXp z ~ l 8 = w 6 m n p ' *X*X=X[ + @ 7 5 4 z ^ 9 ! OX#X..B j W W Z.]. XH..XV.m.m.v.r.n.v.m.",
"A.D.F.B.B.{.`.^.r.`.z.R B c ! ! 9 _ } p 6 * w D f 7 n / ! OX+X' ' ! ( r p +XOXOX| v 9  .$X+X .n * J 2.l.c.m.N.D.D.D.h.m.V.D.H.H.",
"L.D.h.N.m.n.4.4.l.w.r.1.J - - $ z { ( % = X.%.@.= ! ' ~ p &X*X_ 4 y #X( ' *X*X*X .4 4 ' { | { 9 l u 4.4.w.r.l.b.c.B.h.h.h.h.C.D.",
"D.L.F.g.m.m.v.m.m.n.v.x.u.u.:.R K r q T E.Q.%.V + ' [ l ( #X&X+Xp !  .` ! ' +X' n ! c ^ ' [ ^ 6 z 7 d.m.l.m.G.H.P.L.D.h.h.N.D.L.",
"M.M.D.h.h.h.h.h.h.h.v.B.V.2.&.Y , s #.s.Q.E.S ; * ! 0 o c  .OX} '  .` n ! ' #X$X@X+X} ' [ [ / v v % E h.m.v.V.B.^.`.G.V.V.n.v.m.",
"v.v.m.h.h.N.m.M.h.v.z.m.h.k.&.$ ; a.Q.Q.W.G C w O ^ c z ! ` ` | $X*X$X{ { @X&X@X| [ _ _ [ ` ^ l r ! b E v.v.h.m.n.r.4.4.r.r.r.4.",
"h.h.m.M.m.!.~.y.r.(.~.m.F.Y.;.- A F R.E.F d w O p `  .` { @X....$X+X..} {  .| { ` _ ^ / ^ ^ p r OX*X} $ 6./.N.Y.J.B.N.N.N.m.D.D.",
"k.!.T.7.(.T.Y..X'.Y.Y.P.oXoXZ.j V S A < A s @ z ` / / / { OX .| }  .{ ` ` [  .| } _ x x 0 @ l | } ! l y W XXP.oXY.L.N.D.L.U.U.L.",
"_.[.XX}.I.H.P..XP.Y.D.U.P.{.oXZ.k , d < * o @ ^ [ ' v N N B ^ ` { ` ^ x N ^ ) ) / ^ y % & & c  .} ^ N B R J.U.G..XoXU.F.N.D.A.c.",
"Y.D.D.Y.A.n./.r.n.N.m.b.^.r.V.N.-.E U U , 2 $ m ~ ^ N x B N m } } ) ^ l v N m N z t e U 1 R Y Q P h P Q f.v.l.r.b.D.D.h.D.F.L.XX",
"h.h.m.m.l.r.r.r.r.4.4.4.m.n.v.g.d.=.i.i.=.-.1 B ~ ^ v q i 4 % ^ / ^ l $ 8 e e - $ 1 3 =.*.=.1.&.<.I &.<.4.r.4.m.n.v.h.h.D.D.h.F.",
"h.h.A.m.v.N.m.m.m.l.v.v.m.h.h.m.m.3.4.k.>.=.;.;.J 8 4 - > > > t a 7 & 3 L L L J *.=.i.>.,.f.3.j.N.d.j.v.l.m.v.h.N.N.v.m.b.4.N.h.",
"M.U.Y.L.U.H.m.m.m.n.v.N.m.h.v.r.r.r.r.4.k.f.i.u.:.W 2 Y *.E L g 1 1 L *.&.I &.&.1.3.f.x.K.Y.L.Y.M.m.m.v.b.m.N.m.N.b.r.r.r.r.b.m."
};
