/* XPM */
static char *result[] = {
/* columns rows colors chars-per-pixel */
"64 64 223 2 ",
"   c #1C2737",
".  c #1C2C3C",
"X  c #1C323D",
"o  c #222C3A",
"O  c #352F39",
"+  c #27383B",
"@  c #243B3B",
"#  c #333539",
"$  c #42373D",
"%  c #29493C",
"&  c #36463A",
"*  c #3B4D3D",
"=  c #3B553D",
"-  c #44493B",
";  c #43543D",
":  c #4A5A3D",
">  c #515F3B",
",  c #4B613F",
"<  c #596B3E",
"1  c #1E2C41",
"2  c #1D3443",
"3  c #1D3B45",
"4  c #1B3F4A",
"5  c #222E40",
"6  c #273843",
"7  c #223B4D",
"8  c #243D52",
"9  c #4A3D40",
"0  c #1E4648",
"q  c #1E444B",
"w  c #1E4750",
"e  c #1E4B52",
"r  c #2E4343",
"t  c #25474A",
"y  c #2A4B4B",
"u  c #384D44",
"i  c #275549",
"p  c #3A584A",
"a  c #254254",
"s  c #2C4152",
"d  c #224D54",
"f  c #29455B",
"g  c #264C5B",
"h  c #294A5E",
"j  c #225356",
"k  c #275856",
"l  c #24555C",
"z  c #235B5C",
"x  c #375453",
"c  c #2C664C",
"v  c #37664B",
"b  c #27695A",
"n  c #29745B",
"m  c #2B795B",
"M  c #357956",
"N  c #2A4D60",
"B  c #295362",
"V  c #265863",
"C  c #245D62",
"Z  c #295B65",
"A  c #246365",
"S  c #2B6563",
"D  c #276C64",
"F  c #2C6B64",
"G  c #276469",
"H  c #28636A",
"J  c #276C6C",
"K  c #286A6C",
"L  c #2A7465",
"P  c #287765",
"I  c #27716E",
"U  c #28756D",
"Y  c #297C6D",
"T  c #317F68",
"R  c #277270",
"E  c #544342",
"W  c #5C4A45",
"Q  c #445B42",
"!  c #495847",
"~  c #575A47",
"^  c #624C46",
"/  c #6C524B",
"(  c #7A5C4B",
")  c #496746",
"_  c #586645",
"`  c #546B43",
"'  c #5B7548",
"]  c #4C6C56",
"[  c #5A7B51",
"{  c #646846",
"}  c #637642",
"|  c #657A45",
" . c #6B7949",
".. c #79794B",
"X. c #667856",
"o. c #8E6951",
"O. c #378759",
"+. c #2D8466",
"@. c #2D8B64",
"#. c #2B846C",
"$. c #2D8C6B",
"%. c #348E66",
"&. c #32846A",
"*. c #338B69",
"=. c #2E9267",
"-. c #2F946A",
";. c #399367",
":. c #379C67",
">. c #3B9D65",
",. c #319669",
"<. c #339969",
"1. c #3DA164",
"2. c #538F4E",
"3. c #489855",
"4. c #698448",
"5. c #758747",
"6. c #77914A",
"7. c #6C8A54",
"8. c #788455",
"9. c #6D9359",
"0. c #779955",
"q. c #4BA55C",
"w. c #4CAB5E",
"e. c #52A757",
"r. c #52AD5C",
"t. c #55B25B",
"y. c #5AB659",
"u. c #7AA459",
"i. c #7FAB5F",
"p. c #69BB5A",
"a. c #469B62",
"s. c #678865",
"d. c #6C9764",
"f. c #6E9B6E",
"g. c #7A9466",
"h. c #739D6C",
"j. c #7B9D6C",
"k. c #6C9572",
"l. c #6E9870",
"z. c #729771",
"x. c #43A562",
"c. c #47A661",
"v. c #48A960",
"b. c #76A565",
"n. c #7CA564",
"m. c #7CA962",
"M. c #73A169",
"N. c #7EA069",
"B. c #7AC15C",
"V. c #82844B",
"C. c #868B4C",
"Z. c #849A4A",
"A. c #95994F",
"S. c #888D54",
"D. c #819F5A",
"F. c #979854",
"G. c #A09E53",
"H. c #88A44C",
"J. c #8EAA4C",
"K. c #96A54D",
"L. c #93AD4E",
"P. c #96B24D",
"I. c #99B54E",
"U. c #97B84F",
"Y. c #9BB94E",
"T. c #87A556",
"R. c #8CAD55",
"E. c #83AD5D",
"W. c #8BAE5C",
"Q. c #92AB53",
"!. c #9CAC53",
"~. c #92AF5C",
"^. c #8EB256",
"/. c #87B05B",
"(. c #8AB059",
"). c #94B553",
"_. c #9AB653",
"`. c #97B852",
"'. c #9BB850",
"]. c #93B25A",
"[. c #9CB25B",
"{. c #A0B94F",
"}. c #A6A955",
"|. c #A3B755",
" X c #ABB655",
".X c #A3B951",
"XX c #ABB954",
"oX c #A4B45C",
"OX c #ACB65B",
"+X c #AEB858",
"@X c #B3BA56",
"#X c #B8B857",
"$X c #B3B65D",
"%X c #B9B75D",
"&X c #B5B959",
"*X c #BCBA5A",
"=X c #829C67",
"-X c #829F6B",
";X c #83A464",
":X c #8AA566",
">X c #83AB61",
",X c #8CAC61",
"<X c #84A169",
"1X c #8BA369",
"2X c #95A767",
"3X c #93AD61",
"4X c #9BAA65",
"5X c #92A568",
"6X c #9EB360",
"7X c #A5AE63",
"8X c #A8AF62",
"9X c #A6B061",
"0X c #ACB161",
"qX c #B1B360",
"wX c #C0BA5B",
"eX c #88C65E",
"rX c #99CA5F",
"tX c #9FCE60",
"yX c #A9CE60",
"uX c #B6CE61",
"iX c #AED262",
"pX c #BDD863",
"aX c #C0D964",
/* pixels */
".X@X*X*X_.].E.m.m.b.m.b.b.l.f.m.i.m.M.b.^.'.XX*X*XXX^.(.i.m.b.m.b.b.h.z.n.i.E.h.M.W.)..X@XwX@X).^.E.m.n.m.b.b.M.k.M.m.E.b.M.m.).",
"XX&XwXXXY.Y.).E.m.m.b.f.j.<Xk.<X:X2X5Xj.[.XX@X*X#X{.Y.`.W.m.m.b.d.s.=Xz.j.1X:X4Xj.W.XX@X*X*XXXY.).^.m.m.b.b.f.<Xj.l.1X:X2X1X;X|.",
".XY.XX@XXXY.Y.Y.).3X:X1X$X*X7XqX%X*XwX$X&XXXY..X@XXX.XY.Y.'.W.].X.8.wXoXqXwX%X*X%X%XXX{.{.@X@X.XY.Y.U.].,X1X4X*XqX9X*X%XwX%X%XXX",
"*X.X@X.X{.{.Y.Y.'..XXX@X*XXX*X@X@X@X@X*X*XwXXXXXXX{..XY.Y.'..XXX_ _ @X@X&XXX@XXXwX*XwX@XXXXX.XY.Y.Y.Y..X.X@X%X&X@X*XXX@XXX*XwX*X",
"@X@X@X|.).[.'.).Y.Y.{.Y..XY..XY.Y.Y..X@XXXXXXX@XXX_.]._.'.'.Y.H.| 5.J.Y.Y.Y.Y.Y.XXXXXX@XOX+X_.]._.'.`.Y.Y.Y.'.'.Y.{.Y.Y.Y.XX@X.X",
"Y.Y.^.i.i.m.m.i.).XX*XXX_.).^.(.U.Y.U.Y.Y.Y.Y.).E.m.m.m.m.R.XX8.T.Q.| `.(.).Y.Y.`.Y.Y.Y.'.R.E.m.m.m.>X|.@X*XXX).).^.^.Y.Y.'.Y.Y.",
").^./.^.).^.E.(.W.[.+X[.)./.^.^.^.U.i./.^.^.)./.(.).).E.(./.W. .uXuX) u.).(.Y.E.E.^.^.).(./.).I.E.^.R.W.|. X[.R.^.^./.).^.m.(.(.",
").U.).W.^.W.I.|.:X;XE.;XE.E./.m.E.E.W.(.W.^.).I.W.R.W.).XX3X7. .pXpX4.[ >Xm.R.E.^.E./.).U.^.W.~.W.{.[.n.E.;X>XE./.E.i.(.i.^./.W.",
").~.2X4X5X2XoX*XOX1X1X9X3X3XW.(.(.m.(.^.`.).W.3X4X5X2X4XwX%X[ ).pXaX].Q H.^.i.E.).).'.].,X4X4X5X4X$X$X9Xj.4X4X3XW.(.(.W.m.^.^.`.",
"oXoX&X[.oX$X9X~.,X4XoX.X@X@XXXY.`.(.3XoXoXoXoX&XOX[.OXOX[.9.2.iXiXyXtX) 5.rX/.W.[.oXoX[.OX+X[.oXOXoX,X3X6X.XXX@X@X.XY.).W.[.oXoX",
".X{.'.).^.R.i.i.m.m.m.E.(.(.(.'.Y.'.Y..X{.XX{.Y.`.).^.E.n.) (.tXtXB.rXu., U.'.Y.{.{..X.XY.Y.`.^.W.m.m.m.m.m.^.^.W.].Y.Y..X{..X.X",
"@X@XXX`.).(.E.^.).i.E.^.[.oX$X.XY.Y.Y.|.@X&X@X@X'.).^.(.9.` rXB.eXB.p.p.v 5.Y.Y.{.XX#X#X@X{.U.^./.W.).^.m.W.].[.OXOXY.Y.Y.Y..X&X",
"Y.|..XY.Y.Y.Y.Y.Y.'.).[.oX[.[.OXXX_.).`.'.Y.'.XX'.Y.Y.Y.< e.p.y.B.B.w.t.q.v J.'.).'.'.'..X.XY.U.Y.Y.Y.Y.`.].oXoX3XoX+X|.'.).)._.",
"R.^.`.Y.Y.Y.Y.Y.Y.).^.^.)./.m.>X>Xm.m.m.E.E.^.).Y.Y.{.6.) y.t.t.p.B.w.3.t.O.[ i.m.m.W.^.^.'.Y.Y.U.Y.Y.U.^.R.).^.E.m.>X>X>Xm.m.>X",
").Y.Y.Y.Y.W.;X;XR.;X,X).XXXX(.).).^.R.).)._.).Y.Y.Y.P.) 3.y.w.r.p.p.y.O.M 1.n ' ^.).'.).Y.Y.Y.I.W.;XW.W.;XW.Y.XXXXE.`.).^.(.)._.",
").W.n.n.N.-X0X4X-X9X0XoX*X*X$X_.Y.XXOX&X*X_.).<Xu.9.v O.w.O.3.y.y.y.y.w.c i @.m ` }.XX).;Xn.;Xj.1X0X1X1X%X9XOXwX*XoX'.'.XX@X&X&X",
"1X1X8X1X8X7X%X*X*X*X@X*X*X$X*X&X.XXXXXXX_.<X<X7X) k @.>.c t e.w.1.t.x.t.>.0 @ p _ _.W.<X4X4X5X9X8X*X%X%X*X@X*X&X%X*X@X.XXX.XXX~.",
"%X XXX*XXXoX4X>X]..XY.].,X>XXX@X.XY.{.@XOXqX$XXXV.; i % . M a.&.x.1.,.:.x.Y r Z.XX$X8X$XXX@X*XoXoX3X>XoX{.).].>X,X@XXX{.Y.XX XoX",
".XY.Y.|.(.i.m.m.i././.m./.E.^.U.Y..XXX{.XXXX{.Y._.~.[ X n >.Y $.v.1.,.,.:.=.k 6..XXXXX|.Y.'._.W.i.b.m.E.^.i.i./.E.^.Y.Y.XX.XXX@X",
"Y.Y.).E.i.^.^.^./.m././.).Y.I.).Y.)./.).Y.Y.Y.).^.T.p j *.,.%.$.:.1.,.-.-.-.P p J.Y.Y.Y.'.^.E.E.)./.^.E.i.E.^.Y.'.).Y.Y.^.(.Y.Y.",
"Y.XX@XXXXX|.'.'.`.(.).`.).Y.).i.E.m.b./.).Y..X&XXX5.t #.:.1.-.,.,.,.,.$.-.-.-.j ; J.Y.'.@X@XXXXX|.U.Y.).^.).`.U.Y.^.i.W.m.m.^.).",
"'.@XwX*XOX]./.E.m.m.m.E.i.i.n.m.m.m.b.b./.).XX#XV.x Y :.w.1.-.,.x.,.<.%.#.1.>.#.0 x 4.Q.@XwX*XoX^.E.i.m.m.i.>X>Xm.b.m.m.n.b.i./.",
"@X&X*X@X'.'.(.m.b.b.b.f.h.z.k.j.;X;X<Xh.).!.C.! k Y >.e.w.<.<.1.t.c.w.r.&.q.w.:.n e z p }.wX.X'.`./.m.b.b.b.h.h.k.k.N.;X<Xj.n.'.",
".X.X@X&X.XY.'.).R.>Xn.j.7X$X5X9X0XqX%X9X}.- 3 A A m y.e.M @.v.w.y.y.y.y.w.;.w.x.>.i r ` |.*XXX.XY.).).E.>XM.<X0X8X5XqX8X%X$X7XXX",
"@X'.XX.X'.Y.Y.Y..X|.OXOX*X@X*X*X*X*X*XwX*XC.* + y 3.2.i L ,.t.y.y.t.c.r.y.x.1.w.1.+.! !.|.XX.X.XY.Y.Y.XXXXOX%X*X@X*X*X#X@X*XwX*X",
"*X@X*XXX.X|..XY.Y.Y.Y..XXXY.XXY.{.Y..X*X@X*X X .= % 0 P -.x.y.c.1.t.c.&.r.r.:.:.,.=.b  .@X@X.X|..XY.Y.'.`..X.X.X.XXXY.{.{.@X*X@X",
"{.'.).(.m.i.W.W.'..X@X.XY.'.).).Y.Y.Y.{.Y.Y..XL.* e P -.1.r.a.,.,.1.t.$.&.v.v.=.@.-.$.k 4.Q.W.m.i.E.(.'.XXXX.X'.I.).).Y.Y.Y.{.Y.",
"Y.).E.E.^.E.m.E.W.oX*X+X]./.(.E.^.Y.^.^.).`.L.Q j $.-.1.x.,.;.r.w.,.v.v.,.=.<.,.b n #.#.b ] 7.^.i.E.E.].OX&XoX(./.^.E.U.`./.).).",
"^.).).).).).).'.>XW.).W.E.(.^.W.^.^.i.E.i.0.Q j #.$.-.-.$.>.t.y.w.,.,.1.>.-.-.-.@.i q A z w ` `.^.'.].W.].W.W.R.^.^./.^.E.i.E.i.",
").).,X1X<X=X[.*X7Xj.<X2X:X>Xi.i.E.m.^.R.4.y C U Y P -.#.&.t.y.y.1.1.<.-.,.$.@.A +.D   @ p X.=X<X:X X%X5Xh.1X:X,Xm.i.E.i.i.).).).",
"[.[.$X9XoX%X$XoX[.9X7XXX$X@X|.Y.).m.W.` q A A j e P U T r.y.y.v.1.x.,.-.=.$.$.+.e j b p X.}.9X$X$X$X[.9X4XOXXX$XOX.XY.].>X].].[.",
"|.{.|.).].~.>Xn.n.>XE.^.'.].[.Y.`.'.XXZ.= + o 3 D #.#.w.y.x.x.:.1.<.,.-.#.U U $.$.b w 0 & Z.].].(.m.b.n.>X(.).`.[._.'.)._..X.XXX",
"@XXX{.U.).R.E.E.(.m.m.>X(.].oX'.Y.Y.Y..X@XC.6 J $.=.v.v.v.1.<.-.,.-.-.,.-.#.#.Y -.@.g 1 : Y.).^./.i.^.E.n.m.W.(.9X[.Y.Y.Y.Y..XXX",
".XXXXXU.`.).Y.Y.'.^.`.|.$XOXOXXX.XY.J.H.5.p A $.-.,.1.<.1.<.-.,.-.-.:.,.-.<.-.#.$.=.F B y  .P.I.U.U.Y.`.)._.|.OXOX@XXX|.'.'..XXX",
").).I.Y.Y.Y.Y.Y.Y.`.(.(.].>Xm.3XW.D.& y V U *.$.#.$.-.-.#.$.,.,.-.$.-.x.-.1.1.-.-.=.n L J k ) J.Y.Y.Y.Y.).E.^.(.m.>X3X(.(.m.E./.",
"^.).Y.Y.Y.).W.W.).W.R.`..X_.E./.^.i.` + 3 t z J #.-.-.$.$.-.,.,.$.U #.t.x.c.v.1.,.,.b e A J C u 6.W.^.).W.W.'..X].E.^./.E.i./.(.",
"Y.).W.R.W.-X4X<Xj.2X4X[.*X*XoX'.Y.Y..XA.- 5 l Y -.x.1.-.,.1.1.:.-.Y -.v.y.y.y.t.<.m +.z 2 6 x x g.4XN.N.4X2XXX*X*X[.Y.Y..XXXXX@X",
";X<X1Xj.5X5X%X%XOX*X*X*X*X*XwXXXY.}.5.~ 8 l T ,.x.1.-.-.v.v.w.,.-.#.$.1.w.x.t.t.x.P j n A t ) 2X4XwX%X%XwX*X%X*X*X*XXX.XXX@X@XoX",
"9XOX&X%X&XOXOX3XoXXX.X|.[.,X&X*X .p g l F +.-.$.#.-.-.1.w.1.x.,.-.$.-.<.x.<.,.w.v.*.l 7 @ _ }.$X$XoX3XOXXXY.OX~.[.*X@X.XY..XXX3X",
"@X.XY.OX).>Xm.b.W.).^.i.i.i.].Y.` w H I #.P A g Z $.x.w.:.-.,.F #.<.-.-.,.$.#.1.x.,.F f r L.XXR.>Xm.b.(.)./.i.i.E.).Y.Y.XXXXXX*X",
"Y.Y.).R.m.(./.>Xi.m.i.E.).).).'.P.< . 2 3 2 7 8 L a.v.:.#.$.+.Z #.1.<.$.,.$.U #.-.,.#.N 8 ) E.i.^.E.E.m.m.i.E.U.).^.Y.Y.'.).Y.Y.",
"Y..XXX'.[..X'.U.`.^.).`.Y.Y.I.4.' * 7   1 f h Z ;.v.;.S F =.J J U >.1.S L ,.Y R U #.$.H f 6 } [..X`.Y.).^.Y.).Y.Y.).E.^.i.m.).Y.",
"'.@X*X*X&X[.(.(.E.m.E.(./.^.u.p 5 7 1 8 h B F &.T F B F $.#.Y R R *.:.L Z L #.I R R J J N f y ~ 4.0.u.u.i.E.(./.^.m.m.n.b.m.i.R.",
"XX&X*X&X_.).(.m.m.b.m.b.M.k.l.9.* . 8 V Z h S B f N B L #.$.Y R Y #.$.-.U J U R Z J l Z G B V C e y 6 [ m.m.M.h.k.f.n.E.N.h.m.).",
".X@X*XXX.XY.`./.E.u.b.z.1X6X] y y H K R F N f f N Z H R #.#.J J R #.#.$.Y R R R K H A 4 g K A K z d = 9.m.M.h.4X5Xj.4X4X9X4X2XXX",
"XXY..X@X.X.XY.Y.Y.[.4X7X*XwXo.r C K H S B 7 8 Z K J R R R R H J R R U R U R K K R J R A . 2 y 6 & 5.Y._.[.4X0XwX%X%X*X*X*XwX*X@X",
"*X@X*X.X.X.XY.Y.{.{.{.XX@X.X XZ.Q r 6 6   7 N N B V H Z Z K Z K R I I J R R K l J #.#.$.L t & = | I.Y.{.{.XX@XXX.X@X.X.X.X*XwX*X",
".XXX.X].W.(.).^.Y.{..XrX'.'.Y.'.Y.Z.5.& 3 Z Z N f N f h K Z G Z I I Z Z J R I V d R #.-.$.#.P e : ^.).Y..X.XY.Y.Y._.Y.Y.Y..X.X.X",
"Y.)./.i.W.m.m.m.^.OX*X@X[.^././.J.* k z J G B B V V 2 N J J Z B J Z h h Z J J I l d J Y L A d ) u.m.i.[.$X*XOX].(.(./.Y.`.^.U.Y.",
").^.^.`.Y.).^.^.R.].|.].^.(.^.(.^.| t j A A A G e . . h V B 8 N K s f N 8 N G R J w 3 3 3 o ' L.^.^.^./._._.).^.^.^./.)./.i.E.i.",
").'.R.;X>X;X_.OX5XM.<X<Xm.m.i.i.>Xm.0.} * + + u x + g f h a . h h 5 8 H a 1 a B A H A l 4 Q ;X>X;XXXOX<XM.<X<Xm.E.m.m.W.m.).).^.",
"~.3X9X9X7X0XqX$XOX4X2X@X0X9X).).).m.(.^.R.T. .u x l R G a   a Z 8 O 6 A G a 3 6 . g V l u F.9X7X9X%XOXOX5X9XOXOX[.).).(.m.(.^.).",
"|. XXX].].6X].>Xm.3X].'.XXXX|.Y.U.].oXXX XXX!.) 8 V A t . 0 J Z o O 9 7 A J K j * ; < | K.oXW.[.[.3Xm.>X].].'.XXXX.XY.).[.oXXXXX",
"@X.XY.Y.).R.i.i.E.b.m.>X/.W.].`.Y.Y.Y.Y.{.@XXXL.' Q * & # o 6 6 ^ ^ / O . 2 3 , P..X@X@X.XY.U.).W.m.i.i.b.m.E.E.,X].Y.Y.'.Y.'.XX",
"XX@XXX'.).^.^.`.`./.(._.+X@X$XXXY.Y.Y..X@XXX@X@X.XZ.4.: # 9 E ^ o.o.( $ - > } P.{.XX@XXX@X.X).).^.^.Y.)./.).|.+X&X&X.XY.Y.'..X&X",
"I.`.'.Y.'.'.Y.Y.Y.Y.].].].,X>XoX[.[.(.^.^.I.'._.L.Z.4.< # o.E E ^ - o.$ W { 6.R.(.^.).U.'.Y.Y.Y.Y.Y.Y.Y.`.^.[.3X>X3XoX[.].(.^.).",
"R.^.).Y.Y.Y.).`.Y.^.R.).'.^.m.E.E.m.m.m.>X(.^.).Z.5.5.} W ( $ E W ^ W ~ ! ` [ 9.m.m.E.^.).U.Y.Y.Y.).Y.).W.^.`.'.(.m.E.i.m.m.m.E.",
"Y.Y.).Y.).>X1XN.n.<X:X).XX*X].).Y.`.)._.XX'.Y.).P.6.7.X.X.! ~ ~ { ......4.6.H.L.).XX.XY.).).Y.R.:X=Xj.n.1XW._.&XOX].Y.`.`.)._.XX",
"R.;Xj.h.j.-X*X0X4X%X*X$X*XwX*XXXY.XX@X*X@X~.W.-Xh.N.g.S.S.8.S.G.V.S.}.F.C.L.{.@X*X&X[.R.;Xj.j.-X2X*X7X7X*X%X$XwXwX&X'..X@X&X*XXX",
"2X2X$X7X%X%X$X9X%X@XXX@X$X[.%X*XXX{..X.X].:X5X$X7X$X$X$X8X7X X X!.}.[.$X*X@X.X{..X|.:X2X7X$X8X$XOX%XOX*X@XXX&XoXOX*X@XXXY.'.XX3X",
"*XXX.X&X_.~.,Xm.(.'.).E.>Xm.[..X{.Y.XX@X$X*XXX{.@XXX].,Xm.m.'.'.(.E.m.].XX{.Y.XX@X&X%X@X.XXX*X).,X>Xm.].Y.^.W.m.>X.X.XY..XXX&X%X",
"'.Y.`.).W.m.m.m.m.i.i.i.^.^.^.'.Y.Y..XY..X.XY.`.).W.m.>Xm.i.m.E.m.^.^./.U.Y.Y.|.'.Y..XY.U.).].m.W.m.m.m.i.i.i.).(.^.Y.Y..X.XY..X",
"Y.Y.|.^.(.'.).).)./.^.^.`.Y.Y.).).^.i.).Y.Y.'.|.).(._.'.).)././.^.).Y.Y.).).).i.(.Y.Y.Y.'._.^.^.Y.^.).^.E.).^.Y.Y.Y.^.U./.i.'.Y.",
"'.@X*X@X&X+X`.).)./.^.U.).Y.^.m.i.m.b.E.^.).XX*X@X&X$X_.U.^.^.^.`.).U.U.i.b.i.m.m.^.^..X*X*X@X&X|.U.).^./.).`.).'.(.b.i.m.b.W.)."
};
