/* XPM */
static char *result[] = {
/* columns rows colors chars-per-pixel */
"64 64 210 2 ",
"   c #2D2B34",
".  c #333136",
"X  c #363739",
"o  c #3C3C3B",
"O  c #40373B",
"+  c #443A3C",
"@  c #4A3E3E",
"#  c #37443B",
"$  c #3C433B",
"%  c #3E493E",
"&  c #44423D",
"*  c #4B423E",
"=  c #444B3B",
"-  c #4C4B3D",
";  c #51443E",
":  c #574D3F",
">  c #46523B",
",  c #4B523C",
"<  c #4B5B3C",
"1  c #545C3D",
"2  c #55653D",
"3  c #5A653F",
"4  c #383F42",
"5  c #4A3F40",
"6  c #3E4B41",
"7  c #3F5441",
"8  c #4D4241",
"9  c #464A42",
"0  c #534442",
"q  c #594744",
"w  c #544D43",
"e  c #5B4A44",
"r  c #425444",
"t  c #4B5442",
"y  c #435A45",
"u  c #4A5D44",
"i  c #43524B",
"p  c #555442",
"a  c #5B5444",
"s  c #5A5A42",
"d  c #575D49",
"f  c #624D44",
"g  c #684F48",
"h  c #655245",
"j  c #6A5247",
"k  c #6B5249",
"l  c #675848",
"z  c #735947",
"x  c #785C47",
"c  c #72574B",
"v  c #755B4A",
"b  c #7B5D4C",
"n  c #4D6748",
"m  c #566746",
"M  c #5D6B41",
"N  c #5C7244",
"B  c #56734B",
"V  c #536F53",
"C  c #676845",
"Z  c #73624C",
"A  c #7C644C",
"S  c #7C6A4F",
"D  c #647441",
"F  c #647B43",
"G  c #677748",
"H  c #737648",
"J  c #7D6B50",
"K  c #627C54",
"L  c #815F4F",
"P  c #83624C",
"I  c #89654E",
"U  c #846B4F",
"Y  c #8B694C",
"T  c #956E4F",
"R  c #97704E",
"E  c #856651",
"W  c #8B6750",
"Q  c #846F51",
"!  c #8C6A51",
"~  c #926C52",
"^  c #867152",
"/  c #8C7352",
"(  c #927453",
")  c #9B7353",
"_  c #947B57",
"`  c #9D7B56",
"'  c #997E58",
"]  c #A17653",
"[  c #A57954",
"{  c #AB7D55",
"}  c #5F8353",
"|  c #6D8344",
" . c #66844E",
".. c #6D8848",
"X. c #748C45",
"o. c #7D824A",
"O. c #758948",
"+. c #77944B",
"@. c #7B954A",
"#. c #698B56",
"$. c #7B8855",
"%. c #6E975A",
"&. c #729654",
"*. c #789957",
"=. c #729C5C",
"-. c #7B9D5C",
";. c #7DA256",
":. c #7CA45A",
">. c #7FAB5F",
",. c #6B8A63",
"<. c #6E9B6D",
"1. c #739C6C",
"2. c #7C9D6C",
"3. c #6B9572",
"4. c #6E9870",
"5. c #729771",
"6. c #739970",
"7. c #7D9C70",
"8. c #76A565",
"9. c #7CA464",
"0. c #7CA962",
"q. c #73A169",
"w. c #7DA169",
"e. c #83854C",
"r. c #8B8C4D",
"t. c #8C964C",
"y. c #849E4A",
"u. c #93974F",
"i. c #918B56",
"p. c #8A9359",
"a. c #AC8257",
"s. c #A38359",
"d. c #AC845A",
"f. c #AC8A5D",
"g. c #B28256",
"h. c #B48659",
"j. c #B38B5D",
"k. c #BA8C5B",
"l. c #B9925F",
"z. c #87A14A",
"x. c #8BA54C",
"c. c #8EAB4D",
"v. c #9AA54F",
"b. c #93AB4C",
"n. c #96B44E",
"m. c #99B74E",
"M. c #97B84F",
"N. c #9CB94E",
"B. c #83A553",
"V. c #84A956",
"C. c #8DAD53",
"Z. c #83A35C",
"A. c #8CA159",
"S. c #83AD5D",
"D. c #8BAE5B",
"F. c #9CA452",
"G. c #92AE5D",
"H. c #8EB256",
"J. c #87B05A",
"K. c #8AB059",
"L. c #94B553",
"P. c #9AB653",
"I. c #9BB850",
"U. c #94B25B",
"Y. c #9CB25B",
"T. c #A0BA4F",
"R. c #A7AA55",
"E. c #ABAD55",
"W. c #A3B755",
"Q. c #A9B757",
"!. c #A3B951",
"~. c #ABB954",
"^. c #A4B45C",
"/. c #ABB55C",
"(. c #AEB859",
"). c #B3BA56",
"_. c #BABB57",
"`. c #B4B65D",
"'. c #B9B75C",
"]. c #B5B959",
"[. c #BCBA5A",
"{. c #829F6C",
"}. c #B18B60",
"|. c #B59261",
" X c #BC9461",
".X c #BD9963",
"XX c #83A564",
"oX c #8BA566",
"OX c #83AB61",
"+X c #8BAB61",
"@X c #85A169",
"#X c #8AA26A",
"$X c #95A766",
"%X c #93AC61",
"&X c #9CAA64",
"*X c #92A569",
"=X c #97A868",
"-X c #99B160",
";X c #A4AE63",
":X c #A8AF62",
">X c #A6B060",
",X c #ACB161",
"<X c #B1B460",
"1X c #C1935E",
"2X c #C1BB5B",
"3X c #C39760",
"4X c #C49A63",
"5X c #CCA266",
"6X c #CFA668",
"7X c #D3A868",
/* pixels */
"!.).[._.Y.L.S.>.8.0.0.8.8.4.<.0.S.9.q.8.K.I.~._.[.Q.H.K.S.0.8.8.0.8.1.3.9.S.OXq.8.S.I.!.].[.).U.L.S.0.0.0.0.8.q.<.q.0.S.9.q.0.L.",
"~.].2X~.N.N.L.S.0.8.0.<.2.@X3.@XoX*X*X2.Y.~.).2X_.T.N.L.K.0.8.0.q.1.@X6.1.#XoX=X2.+X~.)._.[.!.I.M.K.0.0.8.8.3.@X2.3.#XXX=X#X@XW.",
"!.N.~.].~.N.N.M.L.K.oX#X<X[.;X<X[.[.2X`.).~.N.!.).~.T.N.N.L.D.+X@X,X[.,X<X2X'.2X'.'.~.!.!.).~.!.N.N.L.U.+X@X&X[.<X>X2X'.2X[.`.~.",
"[.!.).!.!.T.N.N.T.!.(.].[.~.].).~.).].[.2X[.~.~.~.!.T.T.N.T.!.Q.(.[.~.].).~.).~.[.2X[.).~.~.!.!.T.N.N.T.Q.)._.).~.[.~.].~.[.2X[.",
").).).W.U.Y.I.M.M.N.N.N.!.N.T.N.N.N.!.).~.~.~.).~.P.P.P.P.M.N.N.N.!.N.N.T.N.N.N.~.~.~.).).~.Y.P.P.P.N.N.N.N.I.T.N.T.N.N.N.~.).!.",
"N.N.C.>.>.0.0.>.L.(._.~.Y.L.H.H.M.N.I.I.N.N.N.L.S.0.8.0.>.D.Q._.).W.L.n.D.L.N.N.I.N.N.N.n.D.>.8.0.>.S.Y.].).~.L.L.K.H.N.N.I.N.N.",
"L.H.J.L.M.K.S.K.D.Y.(.^.L.J.L.K.L.L.S.S.H.H.L.D.K.M.L.S.H.S.G.(.Q.U.K.K.H.K.N.S.S.K.K.L.K.K.P.n.S.K.J.D.Q.(.Y.H.K.L.J.L.H.>.K.K.",
"L.M.L.S.H.D.M.W.oXXXS.XX>.J.S.>.J.S.S.H.S.H.M.L.D.D.D.L.!.%XXXV.XXS.S.S.>.S.J.S.H.S.J.M.n.H.D.D.C.!.Y.XXOX:. .K ;.S.>.K.S.K.K.S.",
"L.D.=X&X*X=X>X_.`.#X{.:X&XG.K.K.K.0.K.U.L.L.G.+X&X*X=X&X2X<X&X2.;X=XY.D.K.H.0.S.H.L.P.U.D.&X=X*X=X'.`.p.i 6 0 f % ;.H.S.>.H.U.L.",
"^.Q.].Y.^.<X^.A. .e.Y.!.).).~.N.L.D.U.^.Q.^.^.].^.Y././.^.OX-XY.!.~.].(.N.M.H.%XY.Q.Q.Y.(.`.Y./.F.o.: 8 c T ] b + F N.L.D.Y.^.Q.",
"Q.N.N.L.H.K.=.% f 0 t N +.D.U.I.N.N.N.!.!.~.T.I.I.L.H.OX9.0.0.0.S.H.K.K.L.N.I.I.T.I.Q.!.N.c...t 9 j ~ ) [ h.[ { R 1 N.N.T.N.I.!.",
"].).~.L.L.H.M + b ] ! k 8 t H x.N.N.N.!.).).).~.I.L.H.J.K.L.S.>.K.U.Y.'.Q.N.N.N.T.~.E.r.M - q b ) f.Q b { d.v Y g 3 T.N.N.N.~.].",
"N.!.!.N.m.N.1 R { [ g.[ ) ! k - < O.x.P.P.N.T.!.N.N.N.N.N.N.N.L.Y.^.^.-XQ.Q.W.P.M.z.1 a @ ~ { k.h.{ ) [ T v 0 @ . G (.W.I.L.P.P.",
"D.H.L.N.N.N.2 g Y v a.{ x ^ f.) b f 9 u  .;.H.L.I.N.N.N.N.N.n.H.K.L.K.0.0.OXOXOX1.n s.7Xj.a.f. Xh.[ ~ v 0 + @ f @ X :.OXOX9.0.OX",
"P.L.N.N.m.G.#.4 5 0 b ~ [ ) { h.h.{ ! 8 a t y.M.N.N.L.XX9.D.XXXXL.!.~.Y.K.M.V.n $ X l.l.}.Z k ~ b q + + f P R ) ] h | L.K.K.L.L.",
"n.D.9.Z.{.{.<Xp.V - * q c ~ [ h.3Xf.d.}.6Xs.m XX9.XX1.;X:X#X&X<X>X).2X'.W.I.F U .XZ J l. Xh 0 5 O e P A Y { { Y ] f ..!.~.]._.).",
"@X#X:X#X:X;X'.'.'.R.t.C = + e b ~ k Z }.l.l.d ;X*X&X>X<X[.'.[.]._.[.`.[.[.~.M k..Xf.8 w w   * x T { ) Y ] ` v e q 9 F.!.~.~.~.G.",
"'.~.~.[.~.^.-XOXU.~.n.C.-.} m = * 0 h  X XJ O.~._.).^.^.OX+X~.N.L.%X0.Y.).(.D i.l.}.h / _ U g.l.1Xh.a.) E f 8 o u t.~.N.N.~.).^.",
"!.N.I.W.K.0.0.0.>.J.S.0.K.S.V.@.| < $ p p > b.I.P.Y.0.0.0.0.J.J.0.S.J.S.P.N.y.- Q Z h 4Xl.|.z Q [ W c @ X 7 B &.:.H.N.N.!.~.!.).",
"N.I.L.K.0.L.H.K.K.0.J.K.L.N.M.M.N.c.&.X.X.x.N.L.K.OXH.L.J.K.>.S.K.H.N.n.n.M.N. .n 2 ,  Xj.j.e k q $ > m #.B.K.I.I.P.N.N.H.C.N.M.",
"I.~.).~.(.~.L.I.L.K.L.M.L.N.L.S.S.0.8.K.M.I.!.].~.Q.(.P.I.n.H.H.I.M.I.M.D.S.S.8.:.L.F w / l . : N X.x.H.H.M.I.M.N.H.>.S.0.0.H.M.",
"I.).[.[.(.U.S.S.0.0.0.S.>.0.9.0.0.0.8.0.S.L.~._.[.].Y.D.S.>.0.0.S.0.0.9.8.0.0.8.0.0.V.F M H r.A.D.S.S.0.0.>.OX0.0.0.0.0.9.8.0.S.",
")._.[.).I.M.H.>.8.0.8.<.1.5.3.2.OXXX{.1.L.~.].[._.I.M.L.S.0.8.0.q.1.1.3.1.@XXX{.1.D.!.).'._.!.I.L.S.>.8.8.9.<.1.3.3.w.XX@X2.0.!.",
"!.!.).).Q.N.I.L.K.OX9.2.;X`.#X:X,X<X'.;X/.!.!.)._.~.I.N.L.H.OX0.1.=X<X=X&X`.,X'.:X^.~.!.~._.~.!.N.N.L.S.OXq.@X,X:X*X<X,X'.,X:XQ.",
").I.Q.~.!.N.M.N.!.Q././.[.).[._._.[._.2X2X_.!.!.Q.!.N.N.N.N.Q.Q./.2X_._._.].[._.[.2X_.~.!.!.!.T.N.N.N.Q.Q./.'.[.].[.).[._.[.2X_.",
"_.)._.!.W.W.N.N.N.N.N.!.~.N.~.T.!.I.~.[.)._.)._.).!.!.!.N.P.N.N.!.~.N.!.!.I.I.!._._.]._.].].Q.W.!.N.N.I.N.N.~.!.N.~.N.!.N.)._.].",
"N.!.P.S.0.S.S.S.P.!.).!.N.N.L.L.N.N.N.N.N.T.T.I.H.>.0.S.S.L.!.).~.I.P.N.L.M.N.N.T.N.N.T.I.L.S.0.S.S.K.I.~.~.I.P.P.L.n.N.N.I.I.N.",
"N.H.S.D.L.S.0.S.D.Q.'.(.U.J.K.J.L.I.K.H.L.L.L.S.S.L.D.0.S.S.Y.`.(.Y.D.K.D.H.N.H.K.L.L.M.H.S.K.H.>.S.S.U./.].Q.H.D.K.J.M.L.K.L.L.",
"H.L.L.L.L.L.L.P.S.D.L.D.D.D.H.S.K.K.0.J.>.J.L.P.L.P.P.L.M.D.D.P.D.K.J.H.S.S.L.>.S.S.S.H.L.L.L.I.H.M.L.XXU.D.D.J.H.H.S.H.S.S.S.0.",
"M.L.+X#X@X@X^._.;X2.2.=XXXOX>.>.S.0.H.L.L.M.L.D.oX{.{.%X].<X{.1.$X#XOX0.S.S.>.S.L.L.M.L.D.oX#XOXoX(.'.=X1.#XoX+XOX0.S.S.0.L.L.M.",
"G.>X`./.^.'.`.^.&X>X^.~.'.).Q.N.L.OXD.U.Y.Y.Y.,X/.:X<X<X/.-X,X&X~.).'.Q.I.N.S.OXG.Y.^.Y./.`.>X,X`.'.Y.^.&XQ.(.'./.!.N.H.0.U.Y.Y.",
"!.!.I.U.D.G.OX0.0.OXS.H.P.U.Y.M.n.P.W.Q.!.!.!.!.L.H.D.G t n =.S.H.L.L.Y.I.N.L.!.Q.!.!.T.T.Y.K.U.D.0.9.9.OXJ.L.P.Y.L.I.P.P.!.~.!.",
"_.~.I.M.L.K.S.S.K.0.0.S.K.-X^.I.N.N.N.!.Q._.).!.N.L.N O P g 8 r B :.K.>XP.I.N.N.N.!.).).~.N.M.H.J.0.H.S.9.0.S.H.-X^.N.N.N.N.!.~.",
"!.~.~.N.M.M.n.N.I.H.L.Q.(./.(.~.!.N.M.N.~.T.~.~.N.c.- x ! [ ] L e 9 C r.E.~.I.I.I.~.~.!.).!.I.M.M.M.N.M.L.L.Q.(./.`.Q.!.N.M.!.~.",
"H.L.M.N.N.N.N.N.N.M.K.K.U.0.0.%X%XD.S.>.S.H.L.L.N.x.: [ [ { { ] ) [ b 8 8 G *.S.0.S.H.H.M.M.I.N.N.N.N.N.L.D.U.K.0.OX%XG.K.0.S.J.",
"H.L.N.N.N.L.C.G.L.S.D.N.I.W.S.J.K.S.S.S.S.L.L.M.N.n., g k z d.[ x / j.{ ~ k 8 # n &.H.L.M.I.N.N.G.S.L.L.OXH.N.!.L.S.K.J.S.S.S.K.",
"N.L.V.H.S.{.=X{.2.$X=XY._.[.^.I.N.!.Q.~.).T.L.D.K.D. .9 O 5 c ! { { g.k.1Xh.Y A / s b.N.D.D.H.XXoX$X{.@X&X&XQ._._.Y.N.N.!.~.~.).",
"XX@X*X7.*X$X[.'.`.[.[._.[.[.2X(.I.~.).).Q.+X@XoX2.oX*XF.r.C - @ q L ) d.d.Q f.3X7X^ K XX#X#X2.*X&X2X<X`.[._.'.'.[._.!.!.(.).(.W.",
",X/.].`.].`./.G.^.).T.Q.Y.+X]._.~.N.N.~.^.&X>X).'.].<X<XU.G.F.| < $ 5 g L q _ d.1X^ $.,X(.'.'.).`.^.%X(.~.N.Q.%X-X[.).~.N.T.~.%X",
"~.!.I.).L.OX0.8.S.L.K.>.S.0.U.I.N.T.~.~.].].!.N.~.W.OXOX0.>.H.L.:.#.B 7 & X z }.' p R.~.N.!.~.K.>.0.8.H.P.S.0.S.OXP.N.N.~.).~.'.",
"I.M.L.K.>.D.S.S.0.0.OX0.M.P.H.M.N.N.L.M.I.N.N.L.H.OXS.H.OXS.0.>.OXH.n.B.@.D < > % X.N.N.n.H.S.0.H.>.S.0.>.>.S.M.L.L.N.N.P.L.N.N.",
"N.!.~.Y.P.!.I.M.M.H.M.M.M.N.N.K.K.D.0.H.N.N.I.~.I.Y.W.I.M.I.H.H.I.L.N.N.H.D.;.=.:.n.N.N.~.Q.P.W.I.M.N.L.K.N.L.N.N.L.D.H.>.>.L.N.",
"P.).2X_.'.Y.H.S.S.0.OXK.S.K.S.8.0.8.0.0.J.H.~.[.[._.>XH.K.J.>.>.K.J.H.K.:.0.>.8.0.S.K.I._.[._.`.U.H.J.S.>.J.C.J.K.>.0.8.8.0.>.J.",
"~.).2X].P.L.K.>.8.0.0.8.q.4.4.9.OXXX1.8.L.Q.).[._.W.L.H.S.8.8.0.8.q.<.3.1.0.S.1.<.D.I.)._.2X~.P.L.S.>.8.0.8.q.1.3.<.8.S.9.1.0.L.",
"~.~._.).!.N.L.H.OX0.8.4.#X&X7.$X$X$.d i O.~.~.).].!.N.N.H.S.0.0.<.{.;X@X@X&X&X`.*X-X~.v.e.C 3 x.I.L.S.0.8.1.1.=X*X2.&X=X,X&X$XQ.",
"~.N.!.).!.I.N.N.W.P.-X>X2X'.u.H : e c z X u.!.!.~.~.!.N.N.I.Y.Y.=X'.[.].'.2X2X2X'.r.M - e b : = n.N.I.P.Y.&X`.[.[.`.2X[.[.2X2X).",
"_.~.).!.!.!.N.N.N.T.!.v.e.s 0 h Y [ ] Y f C ).).~.Q.!.!.N.N.N.!.~.).!.).~.W.t.G p 0 z R [ ) P ; @.T.N.!.T.~.).~.!.).!.~.!._.[.[.",
"~.~.Q.U.K.K.U.L.b.X.2 & e ! [ T [ h.] { T 2 ~.!.P.K.D.H.L.L.N.Q.T.T.N.x.| < @ j ) ` ) { { ] { z F L.L.N.!.!.N.N.N.I.N.M.N.!.!.!.",
"N.M.J.0.S.>.} y $ w b R { f.P I d.` g b 0 N P.K.>.S.>.0.>.S.^._.E.| > & g I ] h.` x T a.Y g c o #.0.0.Y.].[./.U.K.J.K.N.M.H.M.N.",
"H.H.H.M.N...a _ z ] k.1Xh.{ { [ A g + o u *.H.L.L.N.n.K.L.D.K.!.C S ^ v { k.1Xg.{ [ ) b q + + .  .L.H.K.I.Y.L.D.K.L.J.L.K.0.S.>.",
"M.L.D.XXXXd j.5X X' ( j.{ ~ c 0 & 6 M +.C.L.L.L.XXXXXXD.).;X,.B a 5X4X X( ` h.[ ! k @ + @ j v ; > Q.,X@X2.w.XX0.>.S.0.S.0.L.L.H.",
"G.%X:X,X;XG f.k.}.Z k b q @ = 2 ..%.S.H.L.P.G.&X<X;X:X/.<Xo.a w w 4Xd.}.q b v @ + * h L [ { [ { w R.(./.*X>X/./.Y.L.L.K.0.D.H.L.",
"!.Q.~.U.-X$.p f.f.8 o = 2 O.u.M.P.U.W./.Q.Q.!.~.Y.U.Y.Y.:.a 4X4Xz J |.^ X + + h Y / z ) h.U L P & Z.0.OXU.U.I.~.Q.!.I.M.Y.Q.Q.Q.",
").!.N.I.L.V.n > > y B %.:.D.U.M.N.N.N.N.!.~.~.N.N.L.H.S.,.C 4Xf.s.. q 6 @ P [ { a.] [ ) E q * + B 0.>.>.0.0.S.J.K.U.N.N.N.N.N.Q.",
"~.).~.I.L.H.H.x.x.:.H.I./.(.'.Q.N.N.N.T.).~.).).N.L.L.H.H.3 s.4X( Z |.f.s.d. Xk.{ ( b f * = 2 +.C.L.N.L.S.U.Q./.'.).!.N.N.I.!.).",
"n.I.I.N.N.N.N.N.I.M.H.%XY.D.+XY.Y.Y.H.K.L.L.P.I.N.N.N.N.N.@.$ s o / 4Xf.' q ~ E f 8 o < | y.n.N.N.N.N.N.M.H.U.U.OX%X^.Y.U.K.K.P.",
"S.L.L.N.N.N.L.M.N.H.K.L.P.L.0.S.S.0.0.>.>.K.K.L.N.N.N.L.L.M.@. .F a |. XW @ 8 $ r B &.V.L.N.N.N.L.P.N.L.H.U.M.P.K.0.S.>.0.0.0.>.",
"N.N.L.P.L.XX#Xw.OX@XoXL.).).U.L.N.P.L.Y.!.N.n.P.P.L.D.#X2.OX@X#XD.D - l $ = F @.x.W.!.N.L.L.L.C.XX{.9.w.#X+XP.).`.K.M.I.P.P.I.~.",
"C.XX{.1.w.{.'.,X=X'.[.`.[.2X_.Q.N.~.]._.).G.D.{.1.{.2.,X'.&X,X2X`.`.u.r.u.b.!._._._.Y.D.@X2.2.2.=X[.;X;X[.`.'.2X[.).I.I.).).).).",
"=X=X`.;X`.`.'.>X'.).~.).`.-X[._.~.I.!.!.Y.oX$X`.:X/.`.`.`./._.~.~.'.Y.`.[.~.!.T.!.!.oX$X^.`.:X'.`.`./._.).~.).^.,X2X_.~.!.!.~.+X",
"_.~.T._.P.U.+X0.K.I.L.J.OX0.Y.~.N.T.~.).`._.).T.).(.G.D.0.OXI.M.K.OX0.U.~.!.N.!.).].`._.!.~.].L.G.OX0.L.I.H.S.0.S.!.!.N.!.~.).<X",
"N.N.L.L.S.OX0.0.0.>.>.>.H.H.K.M.N.T.!.N.!.T.N.L.L.D.>.S.0.0.0.S.0.K.H.J.L.N.N.!.I.N.!.N.M.L.U.0.S.8.0.0.S.0.OXL.K.H.N.N.!.I.!.~.",
"N.I.W.H.K.I.L.L.L.S.H.H.M.N.N.L.L.K.>.L.N.N.N.W.L.K.L.I.H.M.J.K.L.H.N.N.L.L.L.S.K.N.N.N.!.P.K.L.I.L.L.H.J.L.H.I.I.I.L.L.J.>.M.N.",
"I.).[.).].(.L.L.L.K.H.M.L.N.H.0.0.0.0.S.H.L.~.[.].).).Y.M.L.K.K.M.L.I.M.0.0.0.0.0.K.L.W._.].).].^.L.L.L.S.L.M.M.I.J.8.0.0.0.J.L."
};
