/* XPM */
static char *faa7cdfcd8834046c98036905f837c45Pcrqs0gYMyc8OOrY[] = {
/* columns rows colors chars-per-pixel */
"64 64 6 1 ",
"  c #3C3C3C",
". c #606060",
"X c #777777",
"o c #838383",
"O c gray56",
"+ c #9B9B9B",
/* pixels */
"                                                                ",
"                                                                ",
"  .oooooooooooo  Xooooooooooooooooooooooooooooo  XoooooooooooX  ",
"  o+++++++++++O  O++++++++++++++++++++++++++++O  O+++++++++++o  ",
"  o+++++++++++O  O++++++++++++++++++++++++++++O  O+++++++++++o  ",
"  o+++++++++++O  O++++++++++++++++++++++++++++O  O+++++++++++o  ",
"  o+++++++++++O  O++++++++++++++++++++++++++++O  O+++++++++++o  ",
"  o+++++++++++O  O++++++++++++++++++++++++++++O  O+++++++++++o  ",
"  o+++++++++++O  O++++++++++++++++++++++++++++O  O+++++++++++o  ",
"  o+++++++++++O  O++++++++++++++++++++++++++++O  O+++++++++++o  ",
"  o+++++++++++O  O++++++++++++++++++++++++++++O  O+++++++++++o  ",
"  o+++++++++++O  O++++++++++++++++++++++++++++O  O+++++++++++o  ",
"  o+++++++++++O  O++++++++++++++++++++++++++++O  O+++++++++++o  ",
"  o+++++++++++O  O++++++++++++++++++++++++++++O  O+++++++++++o  ",
"  XOOOOOOOOOOOo  oOOOOOOOOOOOOOOOOOOOOOOOOOOOOo  oOOOOOOOOOOOX  ",
"                                                                ",
"                                                                ",
"  XOOOOOOOOOOOOOOOOOOOOOOOOOOOO  oOOOOOOOOOOOOOOOOOOOOOOOOOOOo  ",
"  o+++++++++++++++++++++++++++O  O+++++++++++++++++++++++++++o  ",
"  o+++++++++++++++++++++++++++O  O+++++++++++++++++++++++++++o  ",
"  o+++++++++++++++++++++++++++O  O+++++++++++++++++++++++++++o  ",
"  o+++++++++++++++++++++++++++O  O+++++++++++++++++++++++++++o  ",
"  o+++++++++++++++++++++++++++O  O+++++++++++++++++++++++++++o  ",
"  o+++++++++++++++++++++++++++O  O+++++++++++++++++++++++++++o  ",
"  o+++++++++++++++++++++++++++O  O+++++++++++++++++++++++++++o  ",
"  o+++++++++++++++++++++++++++O  O+++++++++++++++++++++++++++o  ",
"  o+++++++++++++++++++++++++++O  O+++++++++++++++++++++++++++o  ",
"  o+++++++++++++++++++++++++++O  O+++++++++++++++++++++++++++o  ",
"  o+++++++++++++++++++++++++++O  O+++++++++++++++++++++++++++o  ",
"  o+++++++++++++++++++++++++++O  O+++++++++++++++++++++++++++o  ",
"  XOOOOOOOOOOOOOOOOOOOOOOOOOOOo  oOOOOOOOOOOOOOOOOOOOOOOOOOOOX  ",
"                                                                ",
"                                                                ",
"  XOOOOOOOOOOOO  oOOOOOOOOOOOOOOOOOOOOOOOOOOOOO  oOOOOOOOOOOOo  ",
"  o+++++++++++O  O++++++++++++++++++++++++++++O  O+++++++++++o  ",
"  o+++++++++++O  O++++++++++++++++++++++++++++O  O+++++++++++o  ",
"  o+++++++++++O  O++++++++++++++++++++++++++++O  O+++++++++++o  ",
"  o+++++++++++O  O++++++++++++++++++++++++++++O  O+++++++++++o  ",
"  o+++++++++++O  O++++++++++++++++++++++++++++O  O+++++++++++o  ",
"  o+++++++++++O  O++++++++++++++++++++++++++++O  O+++++++++++o  ",
"  o+++++++++++O  O++++++++++++++++++++++++++++O  O+++++++++++o  ",
"  o+++++++++++O  O++++++++++++++++++++++++++++O  O+++++++++++o  ",
"  o+++++++++++O  O++++++++++++++++++++++++++++O  O+++++++++++o  ",
"  o+++++++++++O  O++++++++++++++++++++++++++++O  O+++++++++++o  ",
"  o+++++++++++O  O++++++++++++++++++++++++++++O  O+++++++++++o  ",
"  o+++++++++++O  O++++++++++++++++++++++++++++O  O+++++++++++o  ",
"  XOOOOOOOOOOOo  oOOOOOOOOOOOOOOOOOOOOOOOOOOOOo  oOOOOOOOOOOOX  ",
"                                                                ",
"                                                                ",
"  XOOOOOOOOOOOOOOOOOOOOOOOOOOOO  oOOOOOOOOOOOOOOOOOOOOOOOOOOOo  ",
"  o+++++++++++++++++++++++++++O  O+++++++++++++++++++++++++++o  ",
"  o+++++++++++++++++++++++++++O  O+++++++++++++++++++++++++++o  ",
"  o+++++++++++++++++++++++++++O  O+++++++++++++++++++++++++++o  ",
"  o+++++++++++++++++++++++++++O  O+++++++++++++++++++++++++++o  ",
"  o+++++++++++++++++++++++++++O  O+++++++++++++++++++++++++++o  ",
"  o+++++++++++++++++++++++++++O  O+++++++++++++++++++++++++++o  ",
"  o+++++++++++++++++++++++++++O  O+++++++++++++++++++++++++++o  ",
"  o+++++++++++++++++++++++++++O  O+++++++++++++++++++++++++++o  ",
"  o+++++++++++++++++++++++++++O  O+++++++++++++++++++++++++++o  ",
"  o+++++++++++++++++++++++++++O  O+++++++++++++++++++++++++++o  ",
"  o+++++++++++++++++++++++++++O  O+++++++++++++++++++++++++++o  ",
"  XoooooooooooooooooooooooooooX  Xooooooooooooooooooooooooooo.  ",
"                                                                ",
"                                                                "
};
