/* XPM */
static char *_ad8246e0b644b2bd3560e856a7dfeebS9yy82E8oKYCPBNJ[] = {
/* columns rows colors chars-per-pixel */
"64 64 9 1 ",
"  c #3C3C3C",
". c #484848",
"X c gray33",
"o c #606060",
"O c #6C6C6C",
"+ c #777777",
"@ c #838383",
"# c gray56",
"$ c #9B9B9B",
/* pixels */
"                                                                ",
"                                                                ",
"                                            .OO  +@@@@@@@@@@@+  ",
"                                        oO@$$$#  #$$$$$$$$$$$@  ",
"                                       O$$$$$$#  #$$$$$$$$$$$@  ",
"                                       $$$$$$$#  #$$$$$$$$$$$@  ",
"                                      O$$$$$$$#  #$$$$$$$$$$$@  ",
"                       OX             #$$$$$$$#  #$$$$$$$$$$$@  ",
"                      @$$#OX         o$$$$$$$$#  #$$$$$$$$$$$@  ",
"                     O$$$$$$#O.      #$$$$$$$$#  #$$$$$$$$$$$@  ",
"                    X$$$$$$$$$$#o   o$$$$$$$$$#  #$$$$$$$$$$$@  ",
"                   .$$$$$$$$$$$$$#+o#$$$$$$$$$#  #$$$$$$$$$$$@  ",
"                   @$$$$$$$$$$$$$$$$$$$$$$$$$$#  #$$$$$$$$$$$@  ",
"                  @$$$$$$$$$$$$$$$$$$$$$$$$$$$#  #$$$$$$$$$$$@  ",
"                 O############################@  @###########+  ",
"                                                                ",
"                                                                ",
"  +############################  @###########################@  ",
"  @$$$$$$$$$$$$$$$$$$$$$$$$$$$#  #$$$$$$$$$$$$$$$$$$$$$$$$$$$@  ",
"  @$$$$$$$$$$$$$$$$$$$$$$$$$$$#  #$$$$$$$$$$$$$$$$$$$$$$$$$$$@  ",
"  @$$$$$$$$$$$$$$$$$$$$$$$$$$$#  #$$$$$$$$$$$$$$$$$$$$$$$$$$$@  ",
"  @$$$$$$$$$$$$$$$$$$$$$$$$$$$#  #$$$$$$$$$$$$$$$$$$$$$$$$$$$@  ",
"  @$$$$$$$$$$$$$$$$$$$$$$$$$$$#  #$$$$$$$$$$$$$$$$$$$$$$$$$$$@  ",
"  @$$$$$$$$$$$$$$$$$$$$$$$$$$$#  #$$$$$$$$$$$$$$$$$$$$$$$$$$$@  ",
"  @$$$$$$$$$$$$$$$$$$$$$$$$$$$#  #$$$$$$$$$$$$$$$$$$$$$$$$$$$@  ",
"  O$$$$$$$$$$$$$$$$$$$$$$$$$$$#  #$$$$$$$$$$$$$$$$$$$$$$$$$$$@  ",
"  .$$$$$$$$$$$$$$$$$$$$$$$$$$$#  #$$$$$$$$$$$$$$$$$$$$$$$$$$$@  ",
"   @$$$$$$$$$$$$$$$$$$$$$$$$$$#  #$$$$$$$$$$$$$$$$$$$$$$$$$$$@  ",
"   X$$$$$$$$$$$$$$$$$$$$$$$$$$#  #$$$$$$$$$$$$$$$$$$$$$$$$$$$@  ",
"    .+$$$$$$$$$$$$$$$$$$$$$$$$#  #$$$$$$$$$$$$$$$$$$$$$$$$$$$@  ",
"      .+######################@  @###########################+  ",
"                                                                ",
"                                                                ",
"        +######  @#######################                       ",
"        O$$$$$#  #$$$$$$$$$$$$$$$$$$$$$$$O                      ",
"        X$$$$$#  #$$$$$$$$$$$$$$$$$$$$$$$#                      ",
"        .$$$$$#  #$$$$$$$$$$$$$$$$$$$$$$$$X                     ",
"        .$$$$$#  #$$$$$$$$$$$$$$$$$$$$$$$$@                     ",
"         @$$$$#  #$$$$$$$$$$$$$$$$$$$$$$$$$X                    ",
"         +$$$$#  #$$$$$$$$$$$$$$$$$$$$$$$$$@                    ",
"      .oO#$$$$#  #$$$$$$$$$$$$$$$$$$$$$$$$$#.                   ",
"  o@#$$$$$$$$$#  #$$$$$$$$$$$$$$$$$$$$$$$$$$+                   ",
"  @$$$$$$$$$$$#  #$$$$$$$$$$$$$$$$$$$$$$$$$$#                   ",
"  @$$$$$$$$$$$#  #$$$$$$$$$$$$$$$$$$$$$$$$$$$o                  ",
"  @$$$$$$$$$$$#  #$$$$$$$$$$$$$$$$$$$$$$$$$$$#                  ",
"  @$$$$$$$$$$$#  #$$$$$$$$$$$$$$$$$$$$$$$$$$$$X                 ",
"  +###########@  @############################+                 ",
"                                                                ",
"                                                                ",
"  +###########################+  @###########################@  ",
"  @$$$$$$$$$$$$$$$$$$$$$$$$$$$o  #$$$$$$$$$$$$$$$$$$$$$$$$$$$@  ",
"  @$$$$$$$$$$$$$$$$$$$$$$$$$$$.  #$$$$$$$$$$$$$$$$$$$$$$$$$$$@  ",
"  @$$$$$$$$$$$$$$$$$$$$$$$$$$$   #$$$$$$$$$$$$$$$$$$$$$$$$$$$@  ",
"  @$$$$$$$$$$$$$$$$$$$$$$$$$$+   #$$$$$$$$$$$$$$$$$$$$$$$$$$$@  ",
"  @$$$$$$$$$$$$$$$$$$$$$$$$$$X   #$$$$$$$$$$$$$$$$$$$$$$$$$$$@  ",
"  @$$$$$$$$$$$$$$$$$$$$$$$$$$    #$$$$$$$$$$$$$$$$$$$$$$$$$$$@  ",
"  @$$$$$$$$$$$$$$$$$$$$$$$$$+    O$$$$$$$$$$$$$$$$$$$$$$$$$$$@  ",
"  @$$$$$$$$$$$$$$$$$$$$$$$$$o     .O$$$$$$$$$$$$$$$$$$$$$$$$$@  ",
"  @$$$$$$$$$$$$$$$$$$$$$$$$$.       O$$$$$$$$$$$$$$$$$$$$$$$$@  ",
"  @$$$$$$$$$$$$$$$$$$$$$$$$+         .@$$$$$$$$$$$$$$$$$$$$$$@  ",
"  @$$$$$$$$$$$$$$$$$$$$$$$$o          .O$$$$$$$$$$$$$$$$$$$$$@  ",
"  +@@@@@@@@@@@@@@@@@@@@@@@@.            .@@@@@@@@@@@@@@@@@@@@o  ",
"                                                                ",
"                                                                "
};
