/* XPM */
static char *bb4ef6e4bc5b4ea2f183f660c2193bdcqXKnQUMpk8d3lOyI[] = {
/* columns rows colors chars-per-pixel */
"64 64 9 1 ",
"  c #3C3C3C",
". c gray33",
"X c #6D6D6D",
"o c gray52",
"O c gray62",
"+ c gray71",
"@ c #CECECE",
"# c #E6E6E6",
"$ c white",
/* pixels */
"                                                                ",
"                                                                ",
"                                                                ",
"                                                                ",
"                                                                ",
"                                                                ",
"                                                                ",
"                                                                ",
"              O@#O                                              ",
"           .. +$$+  .                                           ",
"          X$. +$$+ .#X                                          ",
"          @$. +$$+ .$#                                          ",
"         o$$. +$$+ .$$X                                         ",
"         +$$. +$$+ .$$O XO                                      ",
"         @$$. +$$+ .$$@ .$+                                     ",
"         #$$. +$$+ .$$#  $$+                                    ",
"         #$$. +$$+ .$$#  #$$+                                   ",
"         #$$. +$$+ .$$#  #$$$+                                  ",
"         @##. O##+ .##@  #$$$$#                                 ",
"                         #$$$$$#                                ",
"                         #$$$$$$#                               ",
"         @##. O##+  ###  #$$$$$$$#.                             ",
"         #$$. +$$+ .$$#  #$$$$$$$$#.                            ",
"         #$$. +$$+ .$$#  #$$$$$$$$$#.                           ",
"         #$$. +$$+ .$$#  #$$$$$$$$$$#.                          ",
"         #$$. +$$+ .$$#  #$$$$$$$$$$$#.                         ",
"         #$$. +$$+ .$$#  #$$$$$$$$$$$$#.                        ",
"         #$$. +$$+ .$$#  #$$$$$$$$$$$$$#.                       ",
"         #$$. +$$+ .$$#  #$$$$$$$$$$$$$$#.                      ",
"         #$$. +$$+ .$$#  #$$$$$$$$$$$$$$$#X                     ",
"         @##. O##+ .##@  #$$$$$$$$$$$$$$$$#X                    ",
"                         #$$$$$$$$$$$$$$$$$#X                   ",
"                         #$$$$$$$$$$$$$$$$$$#o                  ",
"         o###############$$$$$$$$$$$$$$$$$$$$#O                 ",
"          O$$$$$$$$$$$$$$$$$$$$$$$$$$$$$$$$$$$#O                ",
"           O$$$$$$$$$$$$$$$$$$$$$$$$$$$$$$$$$$$#O               ",
"            O$$$$$$$$$$$$$$$$$$$$$$$$$$$$$$$$$$$#O              ",
"             o$$$$$$$$$$$$$$$$$$$$$$$$$$$$$$$$$$$$O             ",
"              o$$$$$$$$$$$$$$$$$$$$$$$$$$$$$$$$$$$$O            ",
"               o$$$$$$$$$$$$$$$$$$$$$$$$$$$$$$$$$$$$O           ",
"                o$$$$$$$$$$$$$$$$$$$$$$$$$$$$$$$$$$$$O          ",
"                 o$$$$$$$$$$$$$$$$$$$$$$$$$$$$$$$$$$$$O         ",
"                  .$$$$$$$$$$$$$$$$$$$$$$$$$$$$$$$$$$$$O        ",
"                   .$$$$$$$$$$$$$$$$$$$$$$$$$$$$$$$$$$$$O       ",
"                    .$$$$$$$$$$$$$$$$$$$$$$$$$$$$$$$$$$$$O      ",
"                     .$$$$$$$$$$$$$$$$$$$$$$$$$$$$$$$$$$$$+     ",
"                      .#$$$$$$$$$$$$$$$$$$$$$$$$$$$$$$$$$$$+    ",
"                       .#$$$$$$$$$$$$$$$$$$$$$$$$$$$$$$$$$$$+   ",
"                        .#$$$$$$$$$$$$$$$$$$$$$$$$$$$$$$$$$$$X  ",
"                         .#$$$$$$$$$$$$$$$$$$$$$$$$$$$$$$$$$$X  ",
"                          .#$$$$$$$$$$$$$$$$$$$$$$$$$$$$$$$$$X  ",
"                           .#$$$$$$$$$$$$$$$$$$$$$$$$$$$$$$$$X  ",
"                            .#$$$$$$$$$$$$$$$$$$$$$$$$$$$$$$$X  ",
"                             .#$$$$$$$$$$$$$$$$$$$$$$$$$$$$$$X  ",
"                              .#$$$$$$$$$$$$$$$$$$$$$$$$$$$$$X  ",
"                               .#$$$$$$$$$$$$$$$$$$$$$$$$$$$$X  ",
"                                .@$$$$$$$$$$$$$$$$$$$$$$$$$$$X  ",
"                                 .@$$$$$$$$$$$$$$$$$$$$$$$$$$X  ",
"                                  .@$$$$$$$$$$$$$$$$$$$$$$$$$X  ",
"                                   .@$$$$$$$$$$$$$$$$$$$$$$$$X  ",
"                                    .@$$$$$$$$$$$$$$$$$$$$$$$X  ",
"                                     .XXXXXXXXXXXXXXXXXXXXXXX   ",
"                                                                ",
"                                                                "
};
