/* XPM */
static char *a8595a8f0e1c4a77a352ed56c667e04dgF9eV0lP352cH7vS[] = {
/* columns rows colors chars-per-pixel */
"64 64 9 1 ",
"  c #3C3C3C",
". c #484848",
"X c gray33",
"o c #606060",
"O c #6C6C6C",
"+ c #777777",
"@ c #838383",
"# c gray56",
"$ c #9B9B9B",
/* pixels */
"                                                                ",
"                                                                ",
"  ............................................................  ",
"  @$$$$$$$$$$$$$$$$$$$$$$$$$$$$$$$$$$$$$$$$$$$$$$$$$$$$$$$$$$@  ",
"  @$$$$$$$$$$$$$$$$$$$$$$$$$$$$$$$$$$$$$$$$$$$$$$$$$$$$$$$$$$@  ",
"  ...........................................................   ",
"                              ..        ......                  ",
"  @$$$$$$$$$$$X  ooOOO++@@##$$$#  X$$$$$$$$$$$X                 ",
"  @$$$$$$$$$$$  .$$$$$$$$$$$$$$#  X$$$$$$$$$$$O  #$$$########@  ",
"  @$$$$$$$$$$+   +$$$$$$$$$$$$$$  X$$$$$$$$$$$O  #$$$$$$$$$$$@  ",
"  @$$$$$$$$$$X . .$$$$$$$$$$$$$$. X$$$$$$$$$$$+  #$$$$$$$$$$$@  ",
"  @$$$$$$$$$$ o#. @$$$$$$$$$$$$$X .$$$$$$$$$$$@  #$$$$$$$$$$$@  ",
"  @$$$$$$$$$+ +$# X$$$$$$$$$$$$$X .$$$$$$$$$$$#  #$$$$$$$$$$$@  ",
"  @$$$$$$$$$X #$$X @$$$$$$$$$$$$O .$$$$$$$$$$$#  #$$$$$$$$$$$@  ",
"  @$$$$$$$$$ o$$$O o$$$$$$$$$$$$O  $$$$$$$$$$$$  O$$$$$$$$$$$@  ",
"  +$$$$$$$$+ +$$$@ .#$$$$$$$$###+  $$$#########. .@$$$$$$$$$#+  ",
"  XooXXXX..  @@@@+  .XX..                         .OOOoXX.      ",
"                                                           Xoo  ",
"  XoX  XOOOOOOOOOOOOOO   .################      .XoOO+@$X  +$@  ",
"  +$@  O$$$$$$$$$$$$$$.  o$$$$$$$$$$$$$$$@  @@$$$$$$$$$$o  +$@  ",
"  +$@  O$$$$$$$$$$$$$$X  o$$$$$$$$$$$$$$$+  $$$$$$$$$$$$O  @$@  ",
"  +$#  +$$$$$$$$$$$$$$X  o$$$$$$$$$$$$$$$+ .$$$$$$$$$$$$O  @$@  ",
"  +$$  +$$$$$$$$$$$$$$o  O$$$$$$$$$$$$$$$O X$$$$$$$$$$$$@  #$@  ",
"  +$$. +$$$$$$$$$$$$$$O  O$$$$$$$$$$$$$$$o o$$$$$$$$$$$$@  #$@  ",
"  +$$X @$$$$$$$$$$$$$$+  +$$$$$$$$$$$$$$$X O$$$$$$$$$$$$#  #$@  ",
"  +$$X @$$$$$$$$$$$$$$@  +$$$$$$$$$$$$$$$. +$$$$$$$$$$$$#  $$@  ",
"  +$$o #$$$$$$$$$$$$$$@  +$$$$$$$$$$$$$$$. +$$$$$$$$$$$$$  $$@  ",
"  o++X @##@@@@+++OOOOOX  oOOOooooXXXX....  ooXXXXX....          ",
"                                                                ",
"                    ...XXooOOOO+X    @@@++++OOoooo       ...XX  ",
"  Xooooooooooo  +$$$$$$$$$$$$$$$X   o$$$$$$$$$$$$#   O$$$$$$$@  ",
"  +$$$$$$$$$$$X O$$$$$$$$$$$$$$$X   #$$$$$$$$$$$$$.  +$$$$$$$@  ",
"  +$$$$$$$$$$$o O$$$$$$$$$$$$$$$o  o$$$$$$$$$$$$$$X  #$$$$$$$@  ",
"  +$$$$$$$$$$$O X$$$$$$$$$$$$$$$O  #$$$$$$$$$$$$$$X  #$$$$$$$@  ",
"  +$$$$$$$$$$$+ X$$$$$$$$$$$$$$$O o$$$$$$$$$$$$$$$o  $$$$$$$$@  ",
"  +$$$$$$$$$$$@ .$$$$$$$$$$$$$$$+ O$$$$$$$$$$$$$$$O  $$$$$$$$@  ",
"  +$$$$$$$$$$$#  $$$$$$$$$$$$$$$+ o$$$$$$$$$$$$$$$O X$$$$$$$$@  ",
"  +$$$$$$$$$$$#  #$$$$$$$$$$$$$$@ o$$$$$$$$$$$$$$$+ o$$$$$$$$@  ",
"  O#@@@++++OOOO  +##$$$$$$$$$$$$@ X$$$$$$$$$$$$$$$@ o$$$$$$$$+  ",
"                      ...XXoooOOO X######@@@@@@@@+O XOOoXX.     ",
"                                                           ..   ",
"  XOO++@X X@@@@@@@@@@@@@@@@@.  ............     ..XoOO+@@$$$$X  ",
"  O$$$$$O X$$$$$$$$$$$$$$$$$. o$$$$$$$$$$$$o  o$$$$$$$$$$$$$$X  ",
"  O$$$$$O X$$$$$$$$$$$$$$$$$. o$$$$$$$$$$$$o  o$$$$$$$$$$$$$$X  ",
"  O$$$$$O X$$$$$$$$$$$$$$$$$X o$$$$$$$$$$$$o  o$$$$$$$$$$$$$$X  ",
"  O$$$$$+ .$$$$$$$$$$$$$$$$$X O$$$$$$$$$$$$O  O$$$$$$$$$$$$$$o  ",
"  O$$$$$+ .$$$$$$$$$$$$$$$$$X +$$$$$$$$$$$$O  O$$$$$$$$$$$$$$o  ",
"  O$$$$$@  $$$$$$$$$$$$$$$$$X +$$$$$$$$$$$$O  +$$$$$$$$$$$$$$o  ",
"  O$$$$$@  $$$$$$$$$$$$$$$$$o @$$$$$$$$$$$$O  +$$$$$$$$$$$$$$o  ",
"  O$$$$$#  @$$$$$$$$$$$$$$$$o #$$$$$$$$$$$$O  +$$$$$$$$#####@o  ",
"  o++OOOo     ..XXooO++@@##$o oO+++@@@##$$$O  X....             ",
"                                          .                     ",
"  .++OOoo   ..      OOOOOOOOO++++O              O+@@+.$$$$$$#@  ",
"  X$$$$$#X O$$$$##..$$$$$$$$$$$$$#   XOO+@@#$$#..$$$X.$$$$$$$@  ",
"  o$$$$$$#@$$$$$$$..$$$$$$$$$$$$$$   +$$$$$$$$$# o$@ X$$$$$$$@  ",
"  o$$$$$$$$$$$$$$$. $$$$$$$$$$$$$$.  #$$$$$$$$$$# oo X$$$$$$$@  ",
"  o$$$$$$$$$$$$$$$. $$$$$$$$$$$$$$X  $$$$$$$$$$$$@   o$$$$$$$@  ",
"  O$$$$$$$$$$$$$$$. #$$$$$$$$$$$$$X .$$$$$$$$$$$$$+  o$$$$$$$@  ",
"  O$$$$$$$$$$$$$$$. #$$$$$$$$$$$$$o o$$$$$$$$$$$$$$X o$$$$$$$@  ",
"  O$$$$$$$$$$$$$$$. @$$$$$$$$$$$$$O o$$$$$$$$$$$$$$O O$$$$$$$@  ",
"  O$$$$$$$$$$$$$$$. @$$$$$$$$$$$$$O +$$$$$$$$$$$$$$@ O$$$$$$$@  ",
"  o@@@@@@@@@@@@@@@. O+OOOOOOOoooooX XooooooooOOOOOOo XoooooooX  ",
"                                                                ",
"                                                                "
};
