/* XPM */
static char *_469734e214646ac8fea14a8d9f7928cXjfLTJYrCh3vCVVh[] = {
/* columns rows colors chars-per-pixel */
"64 64 9 1 ",
"  c #3C3C3C",
". c #463F3A",
"X c #504337",
"o c #5A4635",
"O c #77502F",
"+ c #644A33",
"@ c #6D4D31",
"# c #81542C",
"$ c #8B572A",
/* pixels */
"                                                                ",
"                                                                ",
"                           .X++o  @@oX                          ",
"                        .+O$$$$+ .$$$$#@o                       ",
"                       o$$$$$$$+ .$$$$$$$#X                     ",
"                       @$$$$$$$+ .$$$$$$$$X .                   ",
"                   .O  @$$$$$$$+ .$$$$$$$$X o+                  ",
"                  .$$  @$$$$$$$+ .$$$$$$$$X o$@                 ",
"                 .$$$  @$$$$$$$+ .$$$$$$$$X o$$@                ",
"                 O$$$  @$$$$$$$+ .$$$$$$$$X o$$$+               ",
"                O$$$$  @$$$$$$$+ .$$$$$$$$X o$$$#X              ",
"               X$$$$$  @$$$$$$$+ .$$$$$$$$X o$$$$#              ",
"               O$$$$$  @$$$$$$$+ .$$$$$$$$X o$$$$$o             ",
"              o$$$$$$  @$$$$$$$+ .$$$$$$$$X o$$$$$O             ",
"              @$$$$$$  @$$$$$$$+ .$$$$$$$$X o$$$$$$X            ",
"              $$$$$$$  @$$$$$$$+ .$$$$$$$$X o$$$$$$+            ",
"             o$$$$$$$  @$$$$$$$+ .$$$$$$$$X o$$$$$$O            ",
"             +$$$$$$$  @$$$$$$$+ .$$$$$$$$X o$$$$$$#            ",
"             @$$$$$$$  @$$$$$$$+ .$$$$$$$$X o$$$$$$$  X$$o      ",
"             #$$$$$$$  @$$$$$$$+ .$$$$$$$$X o$$$$$$$X X$$o      ",
"             oooooooo  Xooooooo. .oooooooo  .ooooooo  .oo.      ",
"                                                                ",
"          .XXXXXXXXXXXXXXXXXXXXXXXXXXXXXXXXXXXXXXXXXXXXXX.      ",
"          o$$$$$$$$$$$$$$$$$$$$$$$$$$$$$$$$$$$$$$$$$$$$$$o      ",
"          o$$$$$$$$$$$$$$$$$$$$$$$$$$$$$$$$$$$$$$$$$$$$$$o      ",
"          o$$$$$$$$$$$$$$$$$$$$$$$$$$$$$$$$$$$$$$$$$$$$$$o      ",
"          XOOOOOOOOOOOOOOOOOOOOOOOOOOOOOOOOOOOOOOOOOOOOOOX      ",
"                                                                ",
"                                                                ",
"             ########  +#######+  ########X X#######o .##o      ",
"             $$$$$$$$  @$$$$$$$+ .$$$$$$$$X o$$$$$$$o X$$o      ",
"             $$$$$$$$  @$$$$$$$+ .$$$$$$$$X o$$$$$$$o .oo.      ",
"             $$$$$++X  @$$$$$$$+ .$$$$$$$$X o$$$$$$$o           ",
"             $$$#.     o$$$$$$$+ .$$$$$$$$X o$$$$$$$o           ",
"             $$$X  .o  .O$$$$$$+ .$$$$$$$$X o$$$$$$$o           ",
"             $$@  O$$#X .$$$$$$+ .$$$$$$$$X o$$$$$$$o           ",
"             $$o .$$$$@ .$$$$$$+ .$$$$$$$$X o$$$$$$$o           ",
"             $$X X$$$$@  #$$$$$+ .$$$$$$$$X o$$$$$$$o           ",
"             $$+ .O$$$X  $$$$$$+ .$$$$$$$$X o$$$$$$$o           ",
"             $$#  .+#o  +$$$$$$+ .$$$$$$$$X o$$$$$$$o           ",
"             $$$@      X$$$$$$$+ .$$$$$$$$X o$$$$$$$o           ",
"             $$$$#X    @$$$$$$$+ .$$$$$$$$X o$$$$$$$o           ",
"             $$$$$$##  @$$$$$$$+ .$$$$$$$$X o$$$$$$$o  ..       ",
"             $$$$$$$$  @$$$$$$$+ .$$$$$$$$X o$$$$$$$o X$$o      ",
"             $$$$$$$$  @$$$$$$$+ .$$$$$$$$X o$$$$$$$o X$$o      ",
"             oooooooo  Xooooooo. .oooooooo  .ooooooo. .oo.      ",
"                                                                ",
"          .XXXXXXXXXXXXXXXXXXXXXXXXXXXXXXXXXXXXXXXXXXXXXX.      ",
"          o$$$$$$$$$$$$$$$$$$$$$$$$$$$$$$$$$$$$$$$$$$$$$$o      ",
"          o$$$$$$$$$$$$$$$$$$$$$$$$$$$$$$$$$$$$$$$$$$$$$$o      ",
"          o$$$$$$$$$$$$$$$$$$$$$$$$$$$$$$$$$$$$$$$$$$$$$$o      ",
"          XOOOOOOOOOOOOOOOOOOOOOOOOOOOOOOOOOOOOOOOOOOOOOOX      ",
"                                                                ",
"                                                                ",
"             $$$$$$$$  @$$$$$$$+ .$$$$$$$$X o$$$$$$$o .##o      ",
"             $$$$$$$$  @$$$$$$$+ .$$$$$$$$X o$$$$$$$o X$$o      ",
"             $$$$$$$$  @$$$$$$$+ .$$$$$$$$X o$$$$$$$o .oo.      ",
"             $$$$$$$$  @$$$$$$$+ .$$$$$$$$X o$$$$$$$o           ",
"             $$$$$$$$  @$$$$$$$+ .$$$$$$$$X o$$$$$$$o           ",
"             $$$$$$$$  @$$$$$$$+ .$$$$$$$$X o$$$$$$$o           ",
"             $$$$$$$$  @$$$$$$$+ .$$$$$$$$X o$$$$$$$o           ",
"             ++++++++  X+++++++X .++++++++. .+++++++X           ",
"                                                                ",
"                                                                "
};
