/* XPM */
static char *result[] = {
/* columns rows colors chars-per-pixel */
"32 32 40 1 ",
"  c #7FAB5F",
". c #7C9E6C",
"X c #77A467",
"o c #7DA664",
"O c #7DA961",
"+ c #7CA16A",
"@ c #9BB84F",
"# c #86AE5C",
"$ c #8BAE5B",
"% c #92AE5D",
"& c #9BAF5E",
"* c #8DB256",
"= c #8CB159",
"- c #94B454",
"; c #9BB654",
": c #9DB851",
"> c #93B15A",
", c #9CB35A",
"< c #A2B656",
"1 c #A9B757",
"2 c #A4B952",
"3 c #ABB954",
"4 c #A3B35B",
"5 c #ABB55B",
"6 c #AFB858",
"7 c #B2BA56",
"8 c #B3B75B",
"9 c #B3B959",
"0 c #B8BA58",
"q c #85A566",
"w c #89A765",
"e c #83AA60",
"r c #8DAA62",
"t c #83A468",
"y c #8BA468",
"u c #94AB61",
"i c #9BAC62",
"p c #A1AE62",
"a c #A4B160",
"s c #AAB160",
/* pixels */
"30;# X+.rq;93-#XX.tww<02* Xo.ww$",
"332@-&55989332:>45590333@-%55588",
"2;$*:3:;@:2<-=-22@;@22;-*-32-@22",
"-=$>%%$$===-=$%%%#$=$-$$>%%%#=$=",
",,i4uu4>=>;,&a&u,,-$,,4i4iu,;*>;",
"3:*=#$,:::32-=##>4::232-=##>,@:2",
";::-->,>>=-;::@*->>==;:@-@>,>>==",
"-$%u%,6,;;,==%uu15-,;-$$uu,64-,<",
"&4&p11,9234,aa4144326&,a&4245231",
"2;=###=-:;2:>=##=*:;:2:>###=-:-2",
"39<>##$#Oo-36;=#=#OO#;71>##=$OO#",
"37:*etyyiu<93-=otyuiu372-#oyyui,",
"33:@:<3330732:::1333093<::<63370",
";*$#;1-*:-;-=$=2<-*:-:-##=3;*-:-",
"-%%4uu$##=*>%%,ru=##=->r,%r===#=",
"<,&%r>4;*;<<,&ur><--,<<,&uu,,->:",
"2:-*==,<@;23--*=>4<::32-**=><;:2",
"-@;--=,$$$*-@--=>>==$--@--=,$>$=",
"%$uip59121<%$iia89<<3>rrii593225",
"45,%,>%<23444&>;>>225<14%,,=,225",
"@;**#=--*-@:,-=#*--=-::>*##-@-=;",
"60<$o# o X-77,#Oeoooe<03=# oXOX#",
"372-$rpp5s663@-rupa55373@=rii455",
"32--@3222333;--222<2333>-;232237",
"-=$#>4>=**--$#$,,=***-*$#-4>=***",
";%u4u%%=$=->%,4ru>=#*-&u4ir>=$#-",
"<;%$e=,:;;12,>$#>,:;212-$$$,<@;2",
"22@@->,,;-;<@--->,,--22;--=,,,-;",
"-->%%><>-=--->%%;,=>>---%%%<>>=>",
"%uia5557234uuia568323iuuaa658235",
"<<>#===;@21<<$#===2:32<>$#==-@22",
"2<,-=*--=#-24;*=*@=#=:2<-**--##-"
};
