/* XPM */
static char *result[] = {
/* columns rows colors chars-per-pixel */
"32 32 158 2 ",
"   c #35433B",
".  c #4C5D3C",
"X  c #383C4F",
"o  c #344344",
"O  c #39414D",
"+  c #334355",
"@  c #354667",
"#  c #2E556A",
"$  c #335768",
"%  c #385972",
"&  c #3D5D7F",
"*  c #3F6F6E",
"=  c #396773",
"-  c #44444E",
";  c #574C4D",
":  c #435048",
">  c #575F44",
",  c #58534E",
"<  c #575E4D",
"1  c #5D5D4A",
"2  c #41495D",
"3  c #584E51",
"4  c #4C5E53",
"5  c #4A545E",
"6  c #50575F",
"7  c #635654",
"8  c #655B51",
"9  c #705F57",
"0  c #4B654A",
"q  c #4E684E",
"w  c #586A44",
"e  c #5F674A",
"r  c #556F4E",
"t  c #58744A",
"y  c #4A6857",
"u  c #5B6754",
"i  c #557658",
"p  c #597C5A",
"a  c #616547",
"s  c #646E49",
"d  c #747D4B",
"f  c #686155",
"g  c #6D6A56",
"h  c #716256",
"j  c #79675B",
"k  c #756959",
"l  c #667954",
"z  c #767556",
"x  c #426B64",
"c  c #766E65",
"v  c #72716E",
"b  c #83705F",
"n  c #8C7365",
"m  c #907668",
"M  c #967A6A",
"N  c #847E76",
"B  c #6B8046",
"V  c #69864D",
"C  c #78894C",
"Z  c #77914A",
"A  c #7E974A",
"S  c #7E9B4D",
"D  c #618154",
"F  c #6C8A53",
"G  c #758954",
"H  c #7C8A58",
"J  c #779153",
"K  c #789750",
"L  c #799955",
"P  c #7BA35B",
"I  c #7FAB5F",
"U  c #778B60",
"Y  c #789F62",
"T  c #7C9E6C",
"R  c #77A467",
"E  c #7DA664",
"W  c #7CA961",
"Q  c #7CA16A",
"!  c #838E4B",
"~  c #849C4B",
"^  c #899451",
"/  c #8E9859",
"(  c #8AA34D",
")  c #91AA4C",
"_  c #9BB94F",
"`  c #87A255",
"'  c #8CA754",
"]  c #86A852",
"[  c #8CAC53",
"{  c #85AE5C",
"}  c #8BAF5B",
"|  c #97A555",
" . c #9AA657",
".. c #9BA45B",
"X. c #93AE5D",
"o. c #9BAF5E",
"O. c #8DB256",
"+. c #8CB159",
"@. c #94B454",
"#. c #9BB654",
"$. c #97B852",
"%. c #9DB851",
"&. c #93B15A",
"*. c #9CB35A",
"=. c #A3A953",
"-. c #A3B656",
";. c #AAB756",
":. c #A4B952",
">. c #ABB954",
",. c #A2B35B",
"<. c #ABB55B",
"1. c #AFB859",
"2. c #B2BA56",
"3. c #B3B75B",
"4. c #B3B959",
"5. c #B9BA58",
"6. c #878362",
"7. c #98896A",
"8. c #889F64",
"9. c #AA8F71",
"0. c #AF9375",
"q. c #85A566",
"w. c #8BA665",
"e. c #84AB60",
"r. c #8DAA62",
"t. c #8AA469",
"y. c #95AB61",
"u. c #9CAD62",
"i. c #A0AE62",
"p. c #A4B161",
"a. c #BBB766",
"s. c #BEA17D",
"d. c #346B81",
"f. c #3D7C93",
"g. c #478785",
"h. c #468588",
"j. c #498E90",
"k. c #47939B",
"l. c #4C9798",
"z. c #4C9BA0",
"x. c #56AFAC",
"c. c #848586",
"v. c #B8AB85",
"b. c #B8B094",
"n. c #B8BA94",
"m. c #BFBB9D",
"M. c #C6AD84",
"N. c #CDBC99",
"B. c #D3BB92",
"V. c #DDCA9C",
"C. c #E1C995",
"Z. c #E6D19F",
"A. c #EAD7AC",
"S. c #EBDCB6",
"D. c #F1E4BC",
"F. c #F1E8C5",
"G. c #F6ECCB",
"H. c #F9F3DC",
/* pixels */
">.5.#.{ I R Q T r.q.#.2.2.@.{ R R T q.w.r.:.5.:.&.I R R T w.q.} ",
">.>.:._ @.o.<.<.<.5.4.>.>.%._ &.,.<.<.4.3.>.>.:._ @.X.<.<.3.5.3.",
":.#.} O.%.>.:.@._ %.:.:.&.+.&.:.>.$.#._ :.:.#.&.O.@.>.:.#.$.:.:.",
"@.+.} &.X.X.} } +.+.O.O.O.} &.X.X.{ +.[ +.&.O.+.X.X.X.&.{ +.{ [ ",
"*.*.o.,.y.y.*.@.+.&.#.*.o.o.o.r.*.*.@.{ *.*.*.o.,.u.y.*.@.O.+.*.",
">.%.&.} { } *.-._ %.>.;.#.+.+.{ &.*.:.%.:.>.:.@.+.{ e.@.,._ _ >.",
"#._ _ @.@.&.*.&.&.+.@.#.%.$.~ K ` &.&.+.O.*.$._ $.@.+.*.&.&.+.O.",
"O.} X.y.X.*.1.*.#.*.#.+.' p * g.x C *.#.#.@.+.X.y.y.*.1.,.$.*.-.",
",.,.,.i.,.;.p.a.:.>.,.p.H h.l.z.d.u >.:.>.o.o.p.,.,.>.*.<.>.>.;.",
":.@.} { { +.` m.p.#.:.%.J j.x.k.# r _ #.#.:.%.&.{ { { +.@.$.$.:.",
">.4.,.&.{ { L b.n.W @.>.=.y = # + F { E { #.2.;.&.{ { +.{ e.W { ",
">.2._ O.e.q.8.6.v.U -.2.=.> v c.N 4 w.u.y.>.2.:.@.{ E t.t.y.y.*.",
">.>.#._ _ ;.>.^ 7.7.=.>.! b N.F.B.9 d 2.5.2.>.:._ _ -.<.;.>.2.5.",
"#.O.{ } #.;.#.] z g 4 F a 0.A.H.Z.7.; d ( #.&.+.{ &.>.#.&.@.@.@.",
"@.X.} ,.y.X.} P : - $ i 1 s.D.G.Z.9.; b k G ` X.*.o.r.} +.{ +.+.",
"-.,.o.X.r.X.,.' o O c s e 0.S.G.C.9.7 M c f ^ *.*.r.X.*.#.@.&.:.",
">.%.@.O.+.+.*.,.~ s , w B f M.V.0.7 3 M M j ~ #.O.O.} &.,.#.%.;.",
"@._ #.@.@.O.*.} &.{ V Z B + 5 6 2 @ X n m 8 A $.@.@.+.#.+.&.{ +.",
"} } y.u.u.;.4.;.:.-.,.X.l % f.f.f.& O j h < ` r.u.i.<.4.1.:.:.-.",
",.<.*.r.*.*.&.-.:.>.;.-.| o $ = $ + C d a  .,.,.X.&.*.X.*.:.>.;.",
"_ :.&.[ { +.@.@.&.[ $.:.'   w l   . ] +.O._ -.&.O.{ [ O.@.@.+.$.",
";.5.#.+.I I I E I W @.2.=.w t D 0 q l Y I :.5.;.O.{ W E W E W { ",
">.>.:.@.} w.i.u.<.<.<.>.>.) S J ^ / ..<.<.>.2.:.$.+.r.u.u.<.<.<.",
">.;.@.@.:.>.:.:.:.>.2.>.#.@.@.:.-.:.:.:.>.>.;.#.@.%.:.>.-.:.>.;.",
"$.+.+.{ &.,.O.+.@.+.@.@.+.[ } ,.#.{ +.@.O.@.O.[ +.+.,.&.+.O.O.O.",
"#.X.u.,.y.y.&.+.{ O.&.&.y.*.,.r.y.&.+.{ &.&.o.X.,.o.y.y.+.{ +.@.",
"-.-.&.} e.&.*.#.#.#.;.:.@.&.} { &.*.%.#.:.:.:.&.y.{ } @.:.$.#.;.",
":.%.@.$.@.&.*.*.#.@.#.:.$.@.@.@.*.*.*.@.@.:.:._ @.$.+.*.*.*.@.@.",
"O.@.&.X.X.&.-.+.@.&.@.&.@.X.} X.#.*.+.+.&.&.@.&.X.X.&.,.&.O.+.@.",
"X.y.u.p.,.4.3.4.:.>.*.y.u.i.,.<.1.1.>.>.>.o.X.y.,.p.<.;.3.;.>.<.",
":.:.&.{ +.+.+.#._ :.-.:.#.} { +.+.+.#.:.:.;.%.*.} { +.+.$.%.:.;.",
":.-.*.@.+.O.$.+.{ { #.;.,.#.@.{ @.$.+.{ O.$.;.*.#.+.+.$.@.{ { O."
};
