/* XPM */
static char *result[] = {
/* columns rows colors chars-per-pixel */
"32 32 148 2 ",
"   c #323F37",
".  c #3D4838",
"X  c #40483D",
"o  c #253947",
"O  c #2E3947",
"+  c #363D4D",
"@  c #323D52",
"#  c #344B5A",
"$  c #3C5254",
"%  c #2B4A60",
"&  c #314962",
"*  c #355B64",
"=  c #355E70",
"-  c #385F7C",
";  c #356677",
":  c #464F45",
">  c #4D5545",
",  c #485842",
"<  c #4B5F49",
"1  c #4D4D50",
"2  c #485C54",
"3  c #4C5158",
"4  c #5C5752",
"5  c #575759",
"6  c #635C55",
"7  c #4B654A",
"8  c #4E684E",
"9  c #536643",
"0  c #586346",
"q  c #516A4B",
"w  c #587147",
"e  c #45675D",
"r  c #516853",
"t  c #5C6B5F",
"y  c #597353",
"u  c #5D7E50",
"i  c #5E7C5F",
"p  c #65634E",
"a  c #63734A",
"s  c #647848",
"d  c #676F52",
"f  c #67635D",
"g  c #746B5B",
"h  c #6C7D52",
"j  c #607A58",
"k  c #74775D",
"l  c #78795C",
"z  c #415265",
"x  c #485D61",
"c  c #5A6662",
"v  c #547A62",
"b  c #5E736F",
"n  c #4E7279",
"m  c #6B6C6E",
"M  c #76766D",
"N  c #867262",
"B  c #8A7D65",
"V  c #7B8E4C",
"C  c #7F9A4D",
"Z  c #6D8154",
"A  c #778F54",
"S  c #7A8950",
"D  c #779253",
"F  c #7B9454",
"G  c #7FAB5F",
"H  c #588B7E",
"J  c #718C68",
"K  c #7C9E6C",
"L  c #77A467",
"P  c #7DA664",
"I  c #7CA961",
"U  c #7CA16A",
"Y  c #8A8F4E",
"T  c #84835E",
"R  c #84905B",
"E  c #8E9859",
"W  c #93AC4E",
"Q  c #9CAE4E",
"!  c #96B44F",
"~  c #99B54E",
"^  c #9BB84F",
"/  c #86AE5C",
"(  c #8BAE5B",
")  c #97A754",
"_  c #93AD56",
"`  c #97A45B",
"'  c #93AE5D",
"]  c #9BAF5E",
"[  c #8DB256",
"{  c #8CB159",
"}  c #94B454",
"|  c #9BB654",
" . c #97B851",
".. c #9DB851",
"X. c #94B25A",
"o. c #9CB35A",
"O. c #A2B655",
"+. c #A9B756",
"@. c #A4B952",
"#. c #ABB954",
"$. c #A2B35B",
"%. c #ABB55B",
"&. c #AFB858",
"*. c #B2BA56",
"=. c #B3B75B",
"-. c #B3B959",
";. c #B8BA58",
":. c #9D856A",
">. c #939865",
",. c #998F75",
"<. c #999978",
"1. c #A78C70",
"2. c #AC9874",
"3. c #A49A7B",
"4. c #85A566",
"5. c #8AA665",
"6. c #84AB60",
"7. c #8DAA62",
"8. c #8AA469",
"9. c #95AB61",
"0. c #9CAD62",
"q. c #A0AE62",
"w. c #B4AE69",
"e. c #A3B160",
"r. c #AAB160",
"t. c #A1A27A",
"y. c #ACB27D",
"u. c #C4A87D",
"i. c #3A6784",
"p. c #43868A",
"a. c #518881",
"s. c #478E91",
"d. c #4D8994",
"f. c #5D979A",
"g. c #76A299",
"h. c #A39C85",
"j. c #BBAE8D",
"k. c #A6B496",
"l. c #BCB491",
"z. c #BAB4A4",
"x. c #C0B190",
"c. c #CBBFA0",
"v. c #DFC794",
"b. c #E3CA95",
"n. c #CEC6A8",
"m. c #D3C9B3",
"M. c #DDD5BC",
"N. c #F5E8B9",
/* pixels */
"#.;.| / G L U K 7.4.| *.#.} / L L K 4.5.7.+.;.@.[ / P U K 7.4.( ",
"#.#.@.^ } ] %.%.=.=.=.#.#.@.| X.$.%.%.-.=.#.#.@.| } ' %.%.%.=.=.",
"@.| ( [ ..#...| ^ ..@.O.} { } @.@.~ | ^ @.#.| [ [ } #.@. .! @.@.",
"} { ( X.' o.( / { { [ } { ( X.' ' { / { / [ } ( ( ' ] ( / { { { ",
"o.o.0.o.9.9.o.} { X.| o.0.e.] 9.o.o.} ( } o.$.0.e.] 9.e.o.[ { o.",
"#.| } { 6.( o.O.^ @.+.@. .{ / / X.o.....@.#.@.} { / 6.} | ..^ #.",
"| ..| ~ } X.X.X.X.{ } ..^  . .[ o.X.X.{ { | ..^  . .X.} X.} { { ",
"[ ' ( 0.' o.=.o.} o.| ' ( ' 9.` ) ) } o.O.X.{ ( 9.9.] &.$.} o.O.",
"] $.] e.+.+.o.=.@.+.$.$.$.q.` J H a.i Q #.] 0.$.] $.+.$.%.#.@.+.",
"@.| { / / / { }  ...@...} ( v s.s.p.; s O.@...{ / / / { }  . .@.",
"@.=.O.{ / / / ( 6.P } #.&._ e = o # - 2 / ..*.+.} / / { 7.I I / ",
"#.*.@.[ G 4.5.<.y.9.O.*.&.C c z 3 + 2 R 9.+.;.#.} 6.P 5.8.9.0.o.",
"*.#.|  ...+.#.>.m.w.*.#.Q T m.M.c.6 V *.;.*.#.@.^  .O.&.#.#.*.;.",
"| [ ( / | +.} A l.t.W } F 3.z.N.b.:.a ! } | } / / X.#.| [ }  . .",
"} ' ' O.9.9.7./ B 3.A } Z 6 m j.u.1.> C h w X.7.o.o.7.7.{ / / { ",
"O.o.] ' 7.X.o. .V B l Z k f c 3.x.N . d c r O.o.] 7.' o.o.} } O.",
"#.@.} { { { o.$.W p 6 * t l.n.v.:.4 g ,.d.v @.} [ [ { X.$.| ..+.",
"}  . .} } { o.{ A O @ x , M h.5 O 1 2.x.f.j ~ ^ } } [ o.{ X./ { ",
"( ( 7.q.] %.=.+.W 0 4 N : # & - i.5 2.k.l.l ( 7.0.0.%.=.#.@.O.+.",
"$.%.o.' o.o.X.O.@.@.Y > a < % = & : n g.2.Y $.$.' o.o.{ o.@.@.+.",
"^ | X.[ / { } ! } [ ^ Q _ 9   w   X $ b S ~ ..X.[ / / }  .} {  .",
"#.;.O.{ G 6.P P P P } ;.+.w 9 u 7 8 q y / O.;.+.[ / G P P P P / ",
"#.#.@.} ( 7.q.0.%.%.+.+.#.W C D R E ` %.r.&.#.#.} } 7.0.0.$.r.%.",
"#.O.} } ..#.@.@.O.#.*.#.o.}  .+.#.@.@.@.&.#.#.} } | @.#.@.@.#.*.",
"} [ { / X.$.{ { } { } } / / ( O.o.{ { [ [ } [ / / { O.X.{ [ [ [ ",
"} ] 9.+.9.9.' { / { } X.0.o.$.5.9.X.{ / } } ] 0.$.o.7.X.( ( ( } ",
"+.O.X.( 6.X.o...} ..+.+.| X.( ( X.o.| | O.+.@.} 9./ ( o.O. .| +.",
"@...}  .} X.o.o.| } | @.~ } } [ } o.O.} } ..@.} } } { o.o.o.} } ",
"} } X.X.( X.+.{ [ { } } } X.' ' o.o.{ { X.} } } X.' ' O.X.[ { } ",
"9.9.0.e.%.%.&.=.@.#.$.9.0.] e.%.&.=.#.#.+.o.9.9.e.e.%.&.=.+.#.%.",
"O.O.X.6.{ { { o.@.@.+.| o.( / { { { ..@.+.+.| o.( / { / } ..O.@.",
"@.O.| } { [  .[ / /  .+.O.| [ { [  .[ / {  .+.O.} { {  .} { / } "
};
