/* XPM */
static char *result[] = {
/* columns rows colors chars-per-pixel */
"32 32 155 2 ",
"   c #334239",
".  c #3C4739",
"X  c #45553B",
"o  c #4C5A3D",
"O  c #2B354B",
"+  c #3E414C",
"@  c #3D504A",
"#  c #354E5C",
"$  c #314D68",
"%  c #385066",
"&  c #325369",
"*  c #38536B",
"=  c #385B70",
"-  c #34687B",
";  c #3D7379",
":  c #4D4C4F",
">  c #445645",
",  c #4F544E",
"<  c #58554C",
"1  c #57594B",
"2  c #484B52",
"3  c #4F555F",
"4  c #445A59",
"5  c #575B5E",
"6  c #5D5E5E",
"7  c #615551",
"8  c #4B644A",
"9  c #596644",
"0  c #556F48",
"q  c #5D7345",
"w  c #5B7249",
"e  c #476152",
"r  c #486D5F",
"t  c #536C53",
"y  c #596D50",
"u  c #5F7E50",
"i  c #62684A",
"p  c #6A6D4C",
"a  c #6A7E4F",
"s  c #76774B",
"d  c #756F55",
"f  c #746758",
"g  c #746B5B",
"h  c #7B6E5A",
"j  c #737454",
"k  c #436A61",
"l  c #586565",
"z  c #43716B",
"x  c #587A61",
"c  c #4D7279",
"v  c #62746F",
"b  c #777671",
"n  c #81725D",
"m  c #877663",
"M  c #8B7864",
"N  c #70804D",
"B  c #718F4E",
"V  c #7D9C4E",
"C  c #678351",
"Z  c #6E8E51",
"A  c #7E8E58",
"S  c #719253",
"D  c #7C9253",
"F  c #799B53",
"G  c #7FAB5F",
"H  c #7F8561",
"J  c #749A60",
"K  c #7C9E6C",
"L  c #77A467",
"P  c #7DA664",
"I  c #7CA961",
"U  c #7CA16A",
"Y  c #848C4F",
"T  c #82944D",
"R  c #838356",
"E  c #8A8F50",
"W  c #829C55",
"Q  c #829459",
"!  c #8C9658",
"~  c #8CA84D",
"^  c #92AC4D",
"/  c #99B64F",
"(  c #9BB84F",
")  c #88A452",
"_  c #87AB55",
"`  c #8BA55D",
"'  c #86AE5C",
"]  c #8BAE5B",
"[  c #91A055",
"{  c #99A857",
"}  c #93AE5D",
"|  c #9CAF5E",
" . c #8DB256",
".. c #8CB159",
"X. c #94B454",
"o. c #9BB654",
"O. c #9DB851",
"+. c #93B25A",
"@. c #9CB35A",
"#. c #A3B656",
"$. c #A9B756",
"%. c #A4B952",
"&. c #ABB954",
"*. c #A2B35B",
"=. c #ABB55B",
"-. c #AFB858",
";. c #B0B756",
":. c #B2BA56",
">. c #B3B75B",
",. c #B3B959",
"<. c #B8BA58",
"1. c #8A8B6A",
"2. c #97886E",
"3. c #8F8672",
"4. c #998D75",
"5. c #A69175",
"6. c #AB9374",
"7. c #A99872",
"8. c #AD9B79",
"9. c #85A566",
"0. c #89A765",
"q. c #84AB60",
"w. c #8CA962",
"e. c #8BA468",
"r. c #95AB61",
"t. c #9BAD62",
"y. c #95B060",
"u. c #A0AE62",
"i. c #AEAE6F",
"p. c #A4B160",
"a. c #AAB160",
"s. c #3D7780",
"d. c #4D8994",
"f. c #4A9090",
"g. c #4D9A9B",
"h. c #5D979A",
"j. c #7E8789",
"k. c #76A299",
"l. c #50A1A1",
"z. c #52A7A8",
"x. c #858C88",
"c. c #A39C83",
"v. c #A19E91",
"b. c #BFAC86",
"n. c #B3B889",
"m. c #B4AE97",
"M. c #A6B496",
"N. c #B8B591",
"B. c #C4AF86",
"V. c #C1B8A1",
"C. c #C5C196",
"Z. c #D7C397",
"A. c #CBC3AC",
"S. c #D5CCAC",
"D. c #DBCEB0",
/* pixels */
"&.<.o.' G L U U 0.9.@.:.:.X.' L L K 9.e.w.%.<.%. .' L U K w.9.] ",
"&.&.%.( X.| =.=.-.<.:.&.&.( o.+.*.-.-.>.>.;.&.%.( X.+.=.=.-.>.>.",
"%.o.]  .O.&.O.o.( O.%.%.X...X.%.%.o.X.( %.%.#. .] X.&.%.o./ %.%.",
"X...] +.} | ' ' .... . ...] +.} } ..' ] .. .....} } } } _ ..' ..",
"@.@.t.*.r.r.@.+...+.o.@.y.p.t.r.@.@.X.' @.@.*.| p.t.r.@.+. ...@.",
"&.o.X...' ] @.#.( O.&.&.o. .' ' +.#.%.( %.&.%.X...' ' +.#.O.( &.",
"o.O.( X.X.+.@.+.+...X.@.( ( X. .) W } ]  .o.( ( X.X. .@.+.+... .",
"X.] } r.} @.-.@.o.o.@.....} 0.z z ; k W @.X.] ] r.+.@.-.*.X.@.#.",
"| | p.| $.$.t.-.%.&.*.@.*.p.Q s.z.l.- y %.*.@.p.p.*.%.*.=.&.%.$.",
"%.o...' ' '  .X.O.O.%.O.+...S C g.f.$ 4 / %.@.....' ' ..X.o.X.%.",
"&.,.#.+.' ' ' ' I I X.-.-.@._ r s.; O t ' o.,.$.+.' ' ..q.q.I ..",
"&.:.O. .q.9.e.e.t.r.#.:.&.O.Z , j.x.: Q t.%.,.&.X.' P 9.e.r.r.@.",
"&.&.O.( O.#.&.-.&.<.:.&.%.o.p 6.V.D.5.s :.:.&.%.O.O.$.-.-.&.:.<.",
"o. .' ..@.&.X. .X.X./ o...B h Z.v.m.Z.d ) O.X...' n.i.o. .X.O.X.",
"X.} } @.r.r.] ' ....w a ` N M 3.+ : 4.f B X.y.F n.A.H ..' ..'  .",
"#.@.| r.w.+.#.o.X.+.t l j i m Z.6 b Z.n T @.[ 1.b.H 0.#.o.X.+.o.",
"&.( X.+.....@.#.O.o.u d.4.h f V.A.S.B.p C e j 2.R ~ ..+.*.o.O.%.",
"X./ X.X.X...@.] } ' x h.C.6.: 5 m.c.2 w k # 7 j ) X...@...+.] ..",
"} ] r.t.t.=.>.$.%.#.R N.M.8., - % * = 9 g 3 O y p.t.=.-.-.%.#.$.",
"*.=.@.] @.@.} #.%.%.E 7.k.c 2 & = & @ o < 1 > T y.+.@.+.@.%.%.$.",
"( @.X. .'  .X.X.X.X./ Y v 4 .   q o X F V ~ @.X. .' ' X.X.X...o.",
"&.<.#.' P ' G P P P X.-.N q 0 8 C > @ J q.%.<.&...' G P I I P ' ",
"&.&.%./ ] w.u.u.=.a.$.-.&.^ V D A ! { =.=.&.:.%.( ..w.t.t.=.=.=.",
"&.#.X.X.%.%.%.%.%.&.:.%.@.+.O.%.&.%.#.%.&.&.%.@.X.O.%.&.#.%.%.-.",
"X. .' ' +.#..... . .X.X. .' ] @.@... . . .X.X.' ' ..#.+... . . .",
"X.| r.=.r.r.} ..' ..X.+.} | *.w.r.+...'  .X.| } *.@.w.+.] ] ] X.",
"#.@.+.' q...@.#.X.%.&.%.o.+.] ] +.@.O.o.#.$.%.+.r.' ] @.@.O.o.%.",
"%.%.( ( X.+.@.@.o.X.@.#.o.X.X. .+.@.@.X.X.%.%.o.X.X...@.@.o.X.@.",
"X.X.+.+.+.+.#...X...X.X.X.} } ] @.@. .+.+.X.X.X.} } ..#.+. ...+.",
"r.r.t.p.=.=.>.,.%.-.*.r.r.u.p.-.&.>.&.&.&.t.r.r.p.p.-.=.>.&.&.$.",
"%.@.+.' ......o.( %.%.#.#.] q. ... .O.O.%.&.O.@.] '  ...+.O.#.%.",
"%.%.@.X... .X. .' ' o.%.#.@.X.' X.X...' ..O.%.@.o... .X.X...' X."
};
