/* XPM */
static char *result[] = {
/* columns rows colors chars-per-pixel */
"32 32 151 2 ",
"   c #344035",
".  c #334239",
"X  c #3C4739",
"o  c #253947",
"O  c #2E3946",
"+  c #3E3D47",
"@  c #2F3F5C",
"#  c #333D52",
"$  c #344B59",
"%  c #2C4A60",
"&  c #314962",
"*  c #355B65",
"=  c #365E70",
"-  c #345E7A",
";  c #385F7C",
":  c #356777",
">  c #434740",
",  c #425447",
"<  c #4E5543",
"1  c #475A4F",
"2  c #505C4D",
"3  c #4D4D50",
"4  c #5B5752",
"5  c #575759",
"6  c #635C55",
"7  c #4B664B",
"8  c #526542",
"9  c #536E4B",
"0  c #5B6A4C",
"q  c #5D7245",
"w  c #5E7248",
"e  c #42645F",
"r  c #526952",
"t  c #59795F",
"y  c #65634E",
"u  c #677845",
"i  c #68635D",
"p  c #716F54",
"a  c #746B5B",
"s  c #667C53",
"d  c #6E775C",
"f  c #797A5B",
"g  c #475D62",
"h  c #5C5E62",
"j  c #566364",
"k  c #586565",
"l  c #587A61",
"z  c #4D7279",
"x  c #6B6C6E",
"c  c #62746F",
"v  c #75766D",
"b  c #867262",
"n  c #8A7D65",
"m  c #758946",
"M  c #71804D",
"N  c #7C974B",
"B  c #698253",
"V  c #758F55",
"C  c #7A8B58",
"Z  c #7E8E58",
"A  c #789254",
"S  c #7DA55C",
"D  c #7FAB5F",
"F  c #578B7F",
"G  c #708D68",
"H  c #7C9E6C",
"J  c #77A467",
"K  c #7DA664",
"L  c #7CA961",
"P  c #7CA16A",
"I  c #868E4F",
"U  c #80994F",
"Y  c #858357",
"T  c #8D9758",
"R  c #849C5E",
"E  c #899F5C",
"W  c #929A50",
"Q  c #89A84F",
"!  c #91AC4E",
"~  c #9AB54F",
"^  c #9BB84F",
"/  c #85A157",
"(  c #8FA656",
")  c #86AE5C",
"_  c #8BAE5B",
"`  c #99A45A",
"'  c #93AE5D",
"]  c #9BAF5E",
"[  c #8DB256",
"{  c #8CB159",
"}  c #94B454",
"|  c #9BB654",
" . c #9DB851",
".. c #94B25A",
"X. c #9CB35A",
"o. c #A3B656",
"O. c #A9B757",
"+. c #A4B952",
"@. c #ABB954",
"#. c #A2B35B",
"$. c #ABB55B",
"%. c #AEB859",
"&. c #B1B756",
"*. c #B2BA56",
"=. c #B3B75B",
"-. c #B3B959",
";. c #B8BA58",
":. c #888460",
">. c #9D856A",
",. c #8A9961",
"<. c #998F75",
"1. c #9E947A",
"2. c #A78C70",
"3. c #A99872",
"4. c #AD9876",
"5. c #A59A7B",
"6. c #85A566",
"7. c #89A765",
"8. c #84AB60",
"9. c #8DAA62",
"0. c #8BA468",
"q. c #95AB61",
"w. c #9CAD62",
"e. c #9AA86B",
"r. c #A0AE62",
"t. c #A9AE65",
"y. c #A4B160",
"u. c #AAB160",
"i. c #A1A27A",
"p. c #BABA76",
"a. c #C4A87D",
"s. c #3A6784",
"d. c #4E8682",
"f. c #43868A",
"g. c #478E91",
"h. c #4D8994",
"j. c #5D979A",
"k. c #76A299",
"l. c #A39C85",
"z. c #BBAE8D",
"x. c #A6B496",
"c. c #BCB491",
"v. c #C0B18F",
"b. c #CBBFA0",
"n. c #C5C196",
"m. c #DFC794",
"M. c #E3CA95",
"N. c #CEC6A8",
"B. c #D2C9B3",
"V. c #DDD5BC",
"C. c #F5E8B9",
/* pixels */
"@.;.| ) D J P H 9.6.| -.@.} ) L J H 6.7.7.+.;.+.[ D J P H 7.7._ ",
"@.@.+.^ } ] $.$.$.;.;.@.@. .| ..] $.$.-.-.&.@.@.^ } ' $.O.&.=.=.",
"+.| { [  .@. .| ~  .+.o...{ } +.@.^  . .+.+. ...{ } @.+.} ^ +.o.",
"} _ _ ..' X.) ) { { [ } { [ ' ' ' _ ) ) ) } { _ ' ' ] { { { ) { ",
"X.X.w.#.q.q.X...{ ..| X.w.w.X.9.X.X.[ _ X.| #.] #.w.q.#...[ { X.",
"O. .} { ) _ X.o.~ +.@.+.| { _ ) ..X.+. .+.@.+.} { ) ) ..o. .^ @.",
"|  .~ } } ..X...} ) .. .^ ^ ~ } ....X.{ { |  .^ } ^ ........{ { ",
"} _ ' q.' X.%.X.| X.| { ' _ R E o.$.} | X.} _ _ q.9.X.%.#.} | o.",
"] ] ] #.O.O.] %.+.@.#.X.` l d.F G ` @.+.%.X.y.] y.#.+.y.$.+.+.O.",
"+.| _ _ ) ) [ }  .| +.+.s : f.h.g.t ~ | | +.| } ) ) ) { } ^ | +.",
"+.-.#.} ) ) ) ) L L } @.0 - @ o : e J L ) | -.O.X.) ) { ) L K ) ",
"@.-. .[ 8.6.0.0.w.q.o.*.W 1 # 5 * j C w.w.+.-.p.e.) K 6.0.q.w.X.",
"*.@. .^  .o.@.@.%.;.*.@.@.m 6 n.V.B.:.$.;.*.y.B.,. .o.%.@.@.*.;.",
" .{ ) { | @.} } ^ } | } [ 0 >.M.C.c.5.U  .Q i.v.V [ @.| } } } } ",
"} ' ' X.q.q.9.) ) ) w M / < 2.a.z.x 6 s [ V 5.:.( ] 9.9.{ { { { ",
"o.X.] q.9...X.| [ | r k p > b a.1.h i d B f n C X.9...X.X.} ..| ",
"+. .} [ [ { X.o.~ ~ l h.<.a 4 >.m.N.v.k * 6 y Q [ [ { ..X.|  .+.",
"} ^  ...} } ..9.{ ) l j.b.3.3 # 5 l.v , g # O N } } { X...{ _ { ",
"' 9.q.w.w.$.=.O.+.o.Y c.x.4.5 s.; & $ < b 4 2 6.w.w.$.;.-.+.+.O.",
"#.O.X.' X.....o.+.@.I 3.k.z + $ = % 8 u < I o.o.' X.X._ X.+.+.O.",
" .| ..[ ) { } } [ } ~ I c 1 X . q   8 ) Q  . ...[ ) ) [ } [ [  .",
"@.;.| { L ) S K L K } %.M q 9 7 s 7 r A 8.+.;.@.[ ) D 8.K K K ) ",
"@.*.+.} ) 9.r.w.$.$.O.@.@.! U A Z T ` u.$.%.@.@.| [ 9.w.w.t.$.$.",
"@.+.} } +.@.o.+.+.@.*.O.X.} ^ +.+.+.+.+.%.@.@.} } ~ +.+.+.+.@.@.",
"} { { ) ..#.{ { } { [ [ { ) _ #.X.{ { } [ } [ { ) ..#...{ [ [ [ ",
"..] q.O.q.q...{ ) { } X.' X.#.7.q...{ ) } } ' w.#.X.9.X.{ { ) } ",
"+.| ..8.8...X.| ^ | @.+.X..._ ) } X. .} o.@.o.} 9.8._ ..|  .| +.",
"+.+.~ ^ } } X.X.X.} | +.^ } } } ..] X.| } | +.~ } ^ { X.X.| ..| ",
"} } ...._ ..O.{ [ { } } } .._ ' | X.{ { ..} } ..' ' ' o...{ { ..",
"q.q.w.y.u.%.$.-.+.%.#.q.q.r.y.%.%.=.%.@.@.] q.q.y.#.$.$.=.@.@.%.",
"+.o...8.{ { { X. .+.+.o.#._ 8.[ { [  .+.+.+.+.X._ _ [ { .. .+.+.",
"+.o.| } ) [  .[ ) )  .+.o.X.[ [ [ } [ ) {  .+.X.} { [ } } ) ) } "
};
