/* XPM */
static char *ccafb208979442a0baf5d780e4ba1d9dAyAryyUlRyvsdwMG[] = {
/* columns rows colors chars-per-pixel */
"32 32 164 2 ",
"   c #37373F",
".  c #54393F",
"X  c #39423C",
"o  c #32533E",
"O  c #49593D",
"+  c #4C583E",
"@  c #3F3A42",
"#  c #433845",
"$  c #4E3749",
"%  c #4D3B4A",
"&  c #53384E",
"*  c #5E3B55",
"=  c #603C4B",
"-  c #743E4D",
";  c #34444C",
":  c #36534B",
">  c #306641",
",  c #337D53",
"<  c #3B6A61",
"1  c #47444D",
"2  c #4A4549",
"3  c #554645",
"4  c #5F474E",
"5  c #584F4C",
"6  c #4A5145",
"7  c #405C49",
"8  c #505F40",
"9  c #5B5947",
"0  c #515A49",
"q  c #4A4C59",
"w  c #644246",
"e  c #6C4C4C",
"r  c #6C5A4B",
"t  c #7A4150",
"y  c #466A43",
"u  c #516144",
"i  c #596644",
"p  c #506F46",
"a  c #526C4E",
"s  c #5C7544",
"d  c #577C47",
"f  c #5C7D48",
"g  c #4C7655",
"h  c #5C7852",
"j  c #676D43",
"k  c #63684E",
"l  c #7E6F47",
"z  c #63734C",
"x  c #6D7448",
"c  c #637E4C",
"v  c #76794C",
"b  c #686058",
"n  c #686858",
"m  c #88454E",
"M  c #874F4F",
"N  c #804F52",
"B  c #984B56",
"V  c #905154",
"C  c #A14D50",
"Z  c #A75055",
"A  c #A85658",
"S  c #AC5C58",
"D  c #926358",
"F  c #348948",
"G  c #488E4B",
"H  c #568247",
"J  c #50964E",
"K  c #4B8854",
"L  c #5F8151",
"P  c #6A8846",
"I  c #63864C",
"U  c #6A8448",
"Y  c #738846",
"T  c #78834C",
"R  c #75894B",
"E  c #7A8F4E",
"W  c #618151",
"Q  c #68895A",
"!  c #739252",
"~  c #7A9751",
"^  c #789C55",
"/  c #7EA65F",
"(  c #7FAB5F",
")  c #7F9861",
"_  c #7C9E6C",
"`  c #77A467",
"'  c #7DA664",
"]  c #7CA961",
"[  c #7CA16A",
"{  c #86934C",
"}  c #8F974E",
"|  c #8F9C4E",
" . c #91904B",
".. c #899F52",
"X. c #8C925B",
"o. c #A49251",
"O. c #86A44E",
"+. c #92A44F",
"@. c #99B54E",
"#. c #9BB84F",
"$. c #87A652",
"%. c #88A756",
"&. c #86AE5C",
"*. c #8BAE5B",
"=. c #98AB53",
"-. c #93A55A",
";. c #9BA65E",
":. c #93AE5D",
">. c #9BAE5E",
",. c #8DB256",
"<. c #8CB159",
"1. c #94B454",
"2. c #9BB654",
"3. c #9DB851",
"4. c #93B15A",
"5. c #9CB35A",
"6. c #ADA356",
"7. c #A1AD5F",
"8. c #B9AD56",
"9. c #A2B656",
"0. c #ABB656",
"q. c #A1B951",
"w. c #A5B953",
"e. c #A5B854",
"r. c #A9BA53",
"t. c #ABB954",
"y. c #ADB955",
"u. c #A1B559",
"i. c #A3B45A",
"p. c #A5B559",
"a. c #A2B15E",
"s. c #A9B659",
"d. c #ADB65A",
"f. c #ABB45C",
"g. c #AFB858",
"h. c #B2BA56",
"j. c #B1B75B",
"k. c #B5B75B",
"l. c #B3B959",
"z. c #B6B959",
"x. c #B8BA58",
"c. c #9B9360",
"v. c #85A566",
"b. c #8DA060",
"n. c #89A765",
"m. c #85AB60",
"M. c #8DAA62",
"N. c #8BA468",
"B. c #92AB62",
"V. c #95AB61",
"C. c #99AD60",
"Z. c #9CAC62",
"A. c #A9A260",
"S. c #A0AE62",
"D. c #A1B160",
"F. c #A6B161",
"G. c #AAB160",
"H. c #CAAC57",
"J. c #D3AC59",
"K. c #DBB154",
"L. c #DDC665",
"P. c #EBC96E",
"I. c #F1D260",
"U. c #DAC78B",
/* pixels */
"y.z.2.*.] ` [ [ M.v.2.h.y.1.&.] ` _ v.n.M.e.z.e.,.] ' ` _ n.n.*.",
"y.y.q.#.1.>.d.f.j.k.l.t.r.#.2.4.a.d.d.l.k.y.y.w.#.1.4.f.f.d.k.z.",
"w.2.<.,.3.r.3.2.3.q.w.9.4.<.4.w.w.2.2.3.w.w.2.<.<.1.r.q.2.3.3.w.",
"1.*.*.4.:.>.*.&.<.<.,.4.*.*.4.>.>.*.*.<.<.,.,.*.<.:.>.*.&.<.<.<.",
"5.5.C.a.V.>.5.1.<.4.2.5.>.>.5.B.5.5.4.*.5.2.5.C.a.C.B.5.5.,.<.2.",
"t.3.4.*.&.*.5.9.#.q.t.r.2.<.&.&.4.5.q.3.w.y.w.1.<.&.&.4.u.3.3.r.",
"2.3.#.1.1.4.5.4.4.<.4.3.#.2.2.1.1.4.4.<.<.1.3.#.1.2.4.5.4.4.<.<.",
"4.*.*.V.V.5.g.5.1.5.2.<.*.:.V.C.p.d.1.2.5.1.-.*.V.B.>.y.p.1.2.u.",
">.a.a.D.p.p.a.g.w.r.a.>.a.a.a.s.u.u.y.0.0.>.7.7.D.a.0.a.s.r.r.s.",
"q.2.<.&.&.&.,.1.2.2.w.3.1.<.&.&.<.1.9.H.8.0.3.4.*.&.&.<.1.2.2.q.",
"t.l.u.,.&.&.*.&.] ] 1.y.g.2.<.&.R ~ m.A.J.K.6.p.1.&.&.*.&.( ] <.",
"y.h.3.,.m.' N.N.C.V.9.h.| O.^ 0 M n ) X.J.I.o.w.1.&.' N.N.V.Z.5.",
"y.t.3.#.3.p.y.y.y.z.z.y.U O 3 - A r f l P.L. .9.3.3.9.y.y.y.h.x.",
"2.<.*.&.2.t.1.4.1.1.2.2.c $ - B V K H v U.c.$.<.&.4.t.2.1.1.1.1.",
"4.:.:.5.B.B.*.&.&.*.,.$.p 7 2 t N g 9 z b k %.:.5.>.M.*.*.&.&.<.",
"9.u.5.C.M.4.u.2.1.5.=.d J F , ; m S D z 5 T u.5.5.M.:.5.2.1.4.9.",
"r.3.1.,.<.<.5.u.3.3.+.f P : < ; m Z e s 6 { w.1.,.,.<.4.u.3.3.w.",
"1.3.2.1.4.4.5.*.<.&.,.1.Y 1 q * B C . o G I 2.#.1.4.<.2.<.<.*.<.",
":.M.B.S.S.s.z.0.q.t.u.! > # % % 4 e 3 + o ! B.M.C.C.f.l.g.q.e.0.",
"u.p.5.B.5.1.4.p.w.r.s...y   @ # & = w j x >.p.u.>.4.2.4.5.w.w.0.",
"3.2.4.,.&.<.1.1.4.,.3.3.E X 8 u i + + ~ 4.3.3.4.<.<.&.1.1.1.<.2.",
"y.x.9.<.( ( ' ' ' ' 1.0.} s W L W h a Q / 2.x.t.4.&.] m.' ' ' &.",
"t.y.q.1.<.M.S.C.f.G.0.y.y.@.$.%.b.;.7.f.f.y.y.w.2.<.M.Z.C.u.f.f.",
"y.9.1.1.3.r.w.q.q.y.h.t.2.1.1.w.t.w.q.w.h.y.e.2.1.3.w.r.w.q.r.h.",
"1.<.<.*.4.u.<.<.1.,.1.1.<.*.*.5.5.<.,.1.,.1.,.<.&.<.u.4.<.,.,.,.",
"1.>.C.p.V.B.>.<.&.<.1.5.C.>.u.M.C.4.<.&.4.1.>.C.a.C.M.>.<.*.*.4.",
"e.2.4.*.m.<.5.2.2.2.t.e.2.4.*.m.4.5.3.2.9.t.9.4.*.m.*.5.2.3.2.e.",
"9.3.1.1.1.4.5.5.2.1.2.q.#.1.1.,.4.5.5.1.1.9.q.#.1.1.,.5.5.2.1.2.",
"1.1.4.:.:.4.9.4.<.<.1.1.1.:.:.:.2.5.<.<.4.1.1.1.:.:.:.9.4.<.<.4.",
"C.V.C.F.f.d.j.l.w.y.u.V.V.S.F.d.d.j.y.w.y.>.V.C.F.F.d.d.l.w.r.s.",
"w.9.4.&.<.<.<.2.3.q.0.q.2.*.&.<.*.<.3.q.e.p.q.5.*.*.<.*.1.q.q.e.",
"q.9.5.1.<.,.1.,.&.&.1.w.u.2.1.<.1.1.<.&.,.3.e.5.1.,.<.1.1.<.&.1."
};
