/* XPM */
static char *_ff54d7bcf8d4f14e435b1700fa02c1cm9vGpBktLAzadEsC[] = {
/* columns rows colors chars-per-pixel */
"32 32 164 2 ",
"   c #37373E",
".  c #54393E",
"X  c #3A433A",
"o  c #33523A",
"O  c #4C563E",
"+  c #52603F",
"@  c #3F3A42",
"#  c #433845",
"$  c #4E3749",
"%  c #4D3B4A",
"&  c #53384E",
"*  c #5E3B55",
"=  c #603C4B",
"-  c #683B4A",
";  c #733C4F",
":  c #34444C",
">  c #305440",
",  c #37544B",
"<  c #2E6542",
"1  c #347E53",
"2  c #3B6A61",
"3  c #47444E",
"4  c #484449",
"5  c #574345",
"6  c #534548",
"7  c #5F474E",
"8  c #594F4C",
"9  c #485543",
"0  c #405C49",
"q  c #5C5947",
"w  c #50584C",
"e  c #4A4C59",
"r  c #634148",
"t  c #6C4C4B",
"y  c #6B5C4B",
"u  c #764050",
"i  c #7F4F52",
"p  c #4C6D45",
"a  c #546344",
"s  c #526C4D",
"d  c #567343",
"f  c #577D46",
"g  c #537F48",
"h  c #5F7E4D",
"j  c #4C7756",
"k  c #5F7C53",
"l  c #646B4C",
"z  c #617645",
"x  c #6A754A",
"c  c #70744F",
"v  c #696057",
"b  c #777F52",
"n  c #88464E",
"m  c #894F55",
"M  c #934956",
"N  c #875553",
"B  c #9F575B",
"V  c #A44E53",
"C  c #926358",
"Z  c #AD605B",
"A  c #348948",
"S  c #488E4B",
"D  c #558349",
"F  c #51974D",
"G  c #4B8854",
"H  c #5F8251",
"J  c #698846",
"K  c #6C844A",
"L  c #60884C",
"P  c #79844C",
"I  c #738D4F",
"U  c #638051",
"Y  c #668759",
"T  c #788E5A",
"R  c #7E9750",
"E  c #7D9A50",
"W  c #7EA65F",
"Q  c #7FAB5F",
"!  c #779162",
"~  c #7C9560",
"^  c #7C9E6C",
"/  c #77A467",
"(  c #7DA664",
")  c #7CA962",
"_  c #7CA16A",
"`  c #858148",
"'  c #968B4C",
"]  c #83954D",
"[  c #92994F",
"{  c #948B5A",
"}  c #829851",
"|  c #8D995B",
" . c #AB9F59",
".. c #84A24F",
"X. c #88A74E",
"o. c #94A54F",
"O. c #99B44E",
"+. c #9BB94F",
"@. c #87A557",
"#. c #86AB57",
"$. c #85AE5C",
"%. c #8BAE5B",
"&. c #97AA54",
"*. c #97A458",
"=. c #92AE5D",
"-. c #9BAF5E",
";. c #8DB256",
":. c #8CB159",
">. c #94B454",
",. c #9BB654",
"<. c #97B851",
"1. c #9DB851",
"2. c #93B15A",
"3. c #9CB35A",
"4. c #A4A651",
"5. c #A2A15B",
"6. c #A2AE5D",
"7. c #B6AF58",
"8. c #B8A958",
"9. c #A2B656",
"0. c #AAB756",
"q. c #A1B951",
"w. c #A5B953",
"e. c #A5B854",
"r. c #A9BA53",
"t. c #ABB954",
"y. c #ADB955",
"u. c #A1B559",
"i. c #A3B45A",
"p. c #A5B559",
"a. c #A2B15E",
"s. c #A9B659",
"d. c #ADB65A",
"f. c #ABB45C",
"g. c #AFB858",
"h. c #B2BA56",
"j. c #B1B65B",
"k. c #B5B75B",
"l. c #B3B959",
"z. c #B6B959",
"x. c #B8BA58",
"c. c #85A566",
"v. c #8DA060",
"b. c #89A765",
"n. c #84AB60",
"m. c #8DAA62",
"M. c #8CA568",
"N. c #92AB62",
"B. c #95AB61",
"V. c #99AD60",
"C. c #9CAC62",
"Z. c #A0AD62",
"A. c #A1B160",
"S. c #A6B161",
"D. c #AAB160",
"F. c #C09C56",
"G. c #CBAB56",
"H. c #C8AB58",
"J. c #DEB254",
"K. c #DFB759",
"L. c #E1C664",
"P. c #F7D662",
"I. c #F6E37C",
"U. c #DBC98C",
/* pixels */
"y.z.,.%.) / _ _ m.c.,.h.y.>.$.) / ^ c.b.m.e.z.e.;.) ( / ^ b.b.%.",
"y.y.q.+.>.-.d.f.j.k.l.t.r.+.,.2.a.d.d.l.k.y.y.w.+.<.2.f.f.d.k.z.",
"w.,.:.;.1.r.1.,.1.q.w.9.2.:.2.w.w.,.,.1.w.w.,.:.:.>.r.q.,.1.1.w.",
">.%.%.2.=.-.%.$.:.:.;.2.%.%.2.-.-.%.%.:.:.;.;.%.:.=.-.%.$.:.:.:.",
"3.3.V.a.B.-.3.>.:.2.,.3.-.-.3.N.3.3.2.%.3.,.3.V.a.V.N.3.3.;.:.,.",
"t.1.2.%.$.%.3.9.+.q.t.r.,.:.$.$.2.3.q.1.w.y.w.>.:.$.$.2.u.1.1.r.",
",.1.+.<.<.2.3.2.2.:.2.1.+.,.,.>.>.2.2.:.:.>.1.+.<.,.2.3.2.2.:.:.",
"2.%.%.B.B.3.g.3.>.3.,.:.%.=.B.V.p.d.>.,.3.>.%.%.B.N.-.y.p.>.,.u.",
"-.a.a.A.p.p.a.g.w.y.6.Z.6.a.a.s.u.u.y.w.t.-.a.a.A.a.0.a.s.r.r.s.",
"q.,.:.$.$.$.;.<.1.H.8. .5.%.$.:.:.>.,.,.1.q.1.2.%.$.$.:.>.,.,.q.",
"t.l.u.;.$.$.%.$.@.J.G.7.j.3.E K #.%.$.) $.1.h.s.>.$.$.%.$.Q ) :.",
"y.h.1.;.n.( M.M.| F.P.K.4.X.c N w ! ~ T V.t.h.w.>.$.( M.M.B.C.3.",
"y.t.1.+.1.p.y.y.e.' L.I.` f y B - 5 9 K x.h.t.9.1.1.9.y.y.y.h.x.",
",.:.%.$.,.t.>.2.<...{ U.b D G m M ; $ K ,.,.>.:.$.2.t.,.>.>.<.<.",
"2.=.=.3.N.N.%.$.$.#.l v l q j i u 4 0 p @.>.2.=.3.-.m.%.%.$.$.:.",
"9.u.3.V.m.2.u.,.>.3.P 8 x C Z n : 1 A F g &.u.3.3.m.=.3.,.<.2.9.",
"r.1.>.;.:.:.3.u.1.1.] 9 d t V n : 2 , J f o.w.<.;.;.:.2.u.1.1.w.",
"<.1.,.>.2.2.3.%.:.%.L S o . V M * e 3 U $.>.,.+.>.2.:.,.:.:.%.:.",
"=.m.N.Z.Z.s.z.0.q.t.} > 9 6 t 7 % % # < ] 3.%.m.V.V.f.l.g.q.e.0.",
"u.p.3.N.3.>.2.p.w.r.6.x l r = & # @   p o.p.p.u.-.2.,.2.3.w.w.0.",
"1.,.2.;.$.:.>.>.2.;.1.1.R O O a a + X I >.+.1.2.:.:.$.>.>.>.:.,.",
"y.x.9.:.Q Q ( ( ( ( >.g.[ z h H U k s Y W ,.x.t.2.$.) n.( ( ( $.",
"t.y.q.<.:.m.Z.V.f.D.d.y.t.O.X.@.v.*.6.f.f.y.y.w.,.:.m.C.V.u.f.f.",
"y.9.>.<.1.r.w.q.q.y.h.t.,.>.<.w.t.w.q.w.h.y.e.,.>.1.w.r.w.q.r.h.",
"<.:.:.%.2.u.:.:.>.;.>.>.:.%.%.3.3.:.;.>.;.>.;.:.$.:.u.2.:.;.;.;.",
">.-.V.p.B.N.-.:.$.:.>.3.V.-.u.m.V.2.:.$.2.>.-.V.a.V.m.-.:.%.%.2.",
"e.,.2.%.n.:.3.,.,.,.t.e.,.2.%.n.2.3.1.,.9.t.9.2.%.n.%.3.,.1.,.e.",
"9.1.<.<.>.2.3.3.,.>.,.q.+.<.<.;.2.3.3.>.>.9.q.+.<.<.;.3.3.,.>.,.",
">.<.2.=.=.2.9.2.:.:.>.>.<.=.=.=.,.3.:.:.2.>.>.>.=.=.=.9.2.:.:.2.",
"V.B.V.S.f.d.j.l.w.y.u.B.B.Z.S.d.d.j.y.w.y.-.B.V.S.S.d.d.l.w.r.s.",
"w.9.2.$.:.:.:.,.1.q.0.q.,.%.$.:.%.:.1.q.e.p.q.3.%.%.:.%.>.q.q.e.",
"q.9.3.>.:.;.<.;.$.$.<.w.u.,.>.:.>.<.:.$.;.1.e.3.>.;.:.<.>.:.$.>."
};
