/* XPM */
static char *result[] = {
/* columns rows colors chars-per-pixel */
"32 32 133 2 ",
"   c #354C57",
".  c #3F5963",
"X  c #455D5A",
"o  c #566D4D",
"O  c #5C724F",
"+  c #47625E",
"@  c #576953",
"#  c #52675C",
"$  c #59765C",
"%  c #5B7B5B",
"&  c #697D4B",
"*  c #647550",
"=  c #6B7555",
"-  c #647957",
";  c #4C6461",
":  c #526664",
">  c #526A64",
",  c #506D6F",
"<  c #5D7563",
"1  c #55756D",
"2  c #5A766B",
"3  c #4D6D72",
"4  c #547877",
"5  c #5D7D7C",
"6  c #607B60",
"7  c #637E68",
"8  c #7B8E4C",
"9  c #698250",
"0  c #6E8C56",
"q  c #67865F",
"w  c #6B895B",
"e  c #728C56",
"r  c #718C58",
"t  c #7D8D58",
"y  c #789652",
"u  c #7B9E54",
"i  c #7A955A",
"p  c #779A5E",
"a  c #7BA45F",
"s  c #7FAB5F",
"d  c #5F8176",
"f  c #618164",
"g  c #67846E",
"h  c #718563",
"j  c #6D9561",
"k  c #6F986E",
"l  c #749164",
"z  c #7A9063",
"x  c #799A64",
"c  c #7C9E6C",
"v  c #658670",
"b  c #678B75",
"n  c #77A467",
"m  c #7DA664",
"M  c #7CA961",
"N  c #839B51",
"B  c #8C9C53",
"V  c #86985E",
"C  c #8C9D5B",
"Z  c #84A44F",
"A  c #8AA34D",
"S  c #8FAB4F",
"D  c #93A24C",
"F  c #97B54F",
"G  c #99B24F",
"H  c #9CB94F",
"J  c #83A454",
"K  c #8CA752",
"L  c #8CAC54",
"P  c #89A55A",
"I  c #85AE5C",
"U  c #8BAE5B",
"Y  c #93A353",
"T  c #9CA753",
"R  c #93AE5D",
"E  c #9BAF5D",
"W  c #8DB256",
"Q  c #8CB159",
"!  c #94B454",
"~  c #9BB654",
"^  c #9DB851",
"/  c #93B15A",
"(  c #9CB35B",
")  c #A1B64F",
"_  c #A2A756",
"`  c #A2B656",
"'  c #A9B756",
"]  c #A4B953",
"[  c #ABB954",
"{  c #A2B35B",
"}  c #ABB55B",
"|  c #AFB859",
" . c #B2BA56",
".. c #B3B75B",
"X. c #B4B959",
"o. c #B8BA58",
"O. c #84A365",
"+. c #89A565",
"@. c #82AA60",
"#. c #8DAA62",
"$. c #8CA568",
"%. c #94AB61",
"&. c #9BAC62",
"*. c #A1AE62",
"=. c #A4B160",
"-. c #AAB160",
";. c #578487",
":. c #628B84",
">. c #648B8D",
",. c #688989",
"<. c #689087",
"1. c #6A938E",
"2. c #70938D",
"3. c #678E91",
"4. c #659491",
"5. c #6F9492",
"6. c #6D9C9B",
"7. c #769A95",
"8. c #7C9F95",
"9. c #719799",
"0. c #709D99",
"q. c #77A3A6",
"w. c #7FB6B9",
"e. c #96B19E",
"r. c #82ACA5",
"t. c #93B8A7",
"y. c #83B5B3",
"u. c #8BBDB9",
"i. c #92BAB1",
"p. c #8EC1BD",
"a. c #A9C8B3",
"s. c #A5CDBE",
"d. c #8DC4C5",
/* pixels */
"[ o.~ I M n c O.#.O.~ o.[ ! I m n c O.+.#.' o.] W M n n c +.O.R ",
"[ [ ] H ! ( } } X... .[ [ ^ H / { } } X... .[ ] ^ ^ ( { } ......",
"] ~ Q W ^ [ ~ ~ H ^ ] ] / U / ] ] H ~ ^ ] ] ~ / Q ! [ ] ^ F ] ] ",
"! U U / %.R U I Q Q W W U W / R R U I Q I ! L L Q R / R I Q Q I ",
"( ( &.{ %.%.( / Q / ~ ( &.( ( %.( ( ! Q R p g V =.&.%.{ / W Q ~ ",
"' ^ ! U I Q ( ] H ) [ ' ~ / @.I / ( ] ^ 8 5 q.- Q I @./ ` ^ ^ ' ",
"~ H G ~ ! / U z i U ! ^ ^ F ^ W / / / Q y $ b e F ! W ~ / / Q W ",
"/ U U %.R E * q.5 K ( Q Q %.%.%.` | ~ ( ( L J U %.R E | ` ~ ( ( ",
"E { { &.` ` - v v Y { E =.=.( [ ` { [ ] } ( { =.=.{ [ ( } ] [ [ ",
") ~ Q U I Q L u K ( ] ] ! Q I I Q W ^ ~ ^ ] ^ / I I I Q ! ~ ~ ^ ",
"'  .` Q I I U I M m ! [ [ ( Q I Q I M m @.^  .` ! I I Q I M M I ",
"[  .] W M O.$.$.&.&.` [ [ ^ I a x $.%.&.%.[ X.' ! I j O.$.&.%.( ",
"[ [ ^ ^ ^ ` [ [ [ o.o.[ [ F & < > = ` [ o. .[ ] ~ r 5.h ' '  .o.",
"^ W I Q ( [ ! ! F S Z N u $ . 9.3.. & ! ! ^ ! Q u # 0.1 J ! F ^ ",
"! R R ( %.%.Q I 0 d 5.6.+ ; ,.5 2.1.+ u Q Q / %.R t 7 l I I I Q ",
"` ( E %.#./ { J 1 w.d.p.>.. 8.e.7.>.X e ] ` ( ( E R U ~ ( ~ / ^ ",
"' ~ ! W W Q ( * , i.s.a.7.  4 4.;.:.- A ] ' ) F W W Q / { ^ ~ [ ",
"F H H / / / / o 4 r.t.6.3 3 y.y.: y P Q U ! H F ! ! Q ~ R Q I Q ",
"U U %.&.E | o.T r > 4 4.> > 5.0.2 _ ' ^ ' E U #.&.( -.X.| ^ ] ` ",
"{ } ( R ( / Q ' ) D B Y Y 0 f k p Q [ ] [ { { { %./ ( / ( [ ] } ",
") ~ / W I Q ! ! W / H ^ ~ / Q I W F ! W ~ ^ ] / W I I W ! ! W ^ ",
"[ o.~ Q s M M m M m !  .X.! I M @.m m m M ^ o.[ / I s @.m M n I ",
"[  .] ! Q #.*.&.} } | [ | ^ ! #.%.&.*.} -.[  .] ! W #.&.&.{ -.} ",
"[ ` ! ! ^ ' ' ] ] [  .[ ~ ! F ] [ ] ' ]  .[ ' L ! ^ ] [ ] ] [  .",
"! W Q I / ` Q Q / Q W ! Q I Q ( ( Q L N J W w 5.f L ` / Q Q W W ",
"/ E &.{ %.%./ Q I Q ~ / %.( { #.%.P % :.<.& # 0.1 C %.R Q U Q / ",
"' ^ / U @./ ( ^ F ^ ' ' ~ / I #./ 9 :.u.r.@ 8 q j I #.~ ( ^ ~ ' ",
"] H ^ ! ! / ( ( ~ / ^ ] H ! F W / O ; 5.4.6 G H ! F Q / ( ~ ! ! ",
"! ! / R R / ` Q W Q ! ! ! / R / ~ T y 0 O.P ! ! / R Q ] / W Q / ",
"%.%.&.=.-.| }  .] [ { %.&.&.=.} | ..[ ] [ / %.%.=.-.} | o.' [ [ ",
"' ^ / @.Q Q Q ( ] ] [ ^ ( U @.W Q W ] ^ [ ] ] / @.#.Q I / ] ^ ` ",
"] ` ~ ! Q W F ! I I ! ' ` ~ ! I ! F Q I Q ^ ' ~ ~ W Q ! F Q I ! "
};
