/* XPM */
static char *result[] = {
/* columns rows colors chars-per-pixel */
"32 32 130 2 ",
"   c #4B483E",
".  c #51443F",
"X  c #55533F",
"o  c #4B4940",
"O  c #554442",
"+  c #5E4C44",
"@  c #634C46",
"#  c #684F47",
"$  c #635245",
"%  c #6B5645",
"&  c #615E42",
"*  c #6E5A47",
"=  c #655748",
"-  c #6B534A",
";  c #6B5D49",
":  c #715C47",
">  c #73564C",
",  c #755B4A",
"<  c #795B4D",
"1  c #7D5D51",
"2  c #5A6E45",
"3  c #5D7147",
"4  c #6E6046",
"5  c #626548",
"6  c #606E4B",
"7  c #6C6E4B",
"8  c #736247",
"9  c #756F46",
"0  c #7D644C",
"q  c #726C4C",
"w  c #7C6E4A",
"e  c #607443",
"r  c #6E7244",
"t  c #667847",
"y  c #67724D",
"u  c #6A7B4D",
"i  c #707D46",
"p  c #707C4C",
"a  c #787E4A",
"s  c #815F4F",
"d  c #805F51",
"f  c #81634C",
"g  c #88654E",
"h  c #846B4F",
"j  c #8D6A4D",
"k  c #916B4F",
"l  c #80754E",
"z  c #95704F",
"x  c #846252",
"c  c #8A6751",
"v  c #8F6B50",
"b  c #906D51",
"n  c #8F7654",
"m  c #917353",
"M  c #9C7552",
"N  c #937956",
"B  c #A17752",
"V  c #A57B54",
"C  c #AA7D54",
"Z  c #6A8144",
"A  c #6D8048",
"S  c #768446",
"D  c #798B46",
"F  c #7C824F",
"G  c #748F4E",
"H  c #75904B",
"J  c #748552",
"K  c #7D8451",
"L  c #708F58",
"P  c #7FAB5F",
"I  c #7C9E6C",
"U  c #77A467",
"Y  c #7DA664",
"T  c #7CA961",
"R  c #7CA16A",
"E  c #82854D",
"W  c #838B4A",
"Q  c #8A924C",
"!  c #8D9C4E",
"~  c #879B52",
"^  c #809D58",
"/  c #8A9A5C",
"(  c #AA8156",
")  c #AC8559",
"_  c #85A14E",
"`  c #8BA04D",
"'  c #96AA4F",
"]  c #98AD4E",
"[  c #97B24E",
"{  c #9BB94F",
"}  c #83A655",
"|  c #8BA453",
" . c #8AAC56",
".. c #80A558",
"X. c #8AA65D",
"o. c #85AE5C",
"O. c #8BAE5B",
"+. c #93AB55",
"@. c #99AE51",
"#. c #93AD5D",
"$. c #9BAE5D",
"%. c #8DB256",
"&. c #8CB059",
"*. c #94B454",
"=. c #9BB654",
"-. c #9DB851",
";. c #94B15A",
":. c #9CB35B",
">. c #A2B656",
",. c #A9B757",
"<. c #A4B952",
"1. c #ABB954",
"2. c #A2B35B",
"3. c #ABB55B",
"4. c #AFB858",
"5. c #B3BA56",
"6. c #B3B75B",
"7. c #B3B959",
"8. c #B8BA58",
"9. c #85A566",
"0. c #89A765",
"q. c #84AB60",
"w. c #8DAA62",
"e. c #83A468",
"r. c #8BA468",
"t. c #94AB61",
"y. c #9BAC62",
"u. c #9EB060",
"i. c #A0AE62",
"p. c #A4B160",
/* pixels */
"1.8.=.o.T U R e.w.9.=.7.1.*.o.T U I e.0.0.<.8.<.&.q.U R I 0.9.O.",
"1.1.<.{ *.$.3.3.4.6.7.1.1.<.{ ;.p.3.3.6.8.5.1.<.{ *.;.3.3.4.6.6.",
"<.=.O.%.=.1.=.=.{ <.<.<.;.O.%.<.<.=.=.{ <.<.=.;.&.*.1.<.=.{ <.<.",
"*.&.O.;.#.$.O.o.%.o.%.;.%.O.;.#.;.o.&. . .%.%.O.;.#.;.#.o.o.O.&.",
":.:.u.2.t.t.:.*.&.;.=.:.y.u.:.w.:.:.;.O.*.:.2.y.p.y.t.u.=.%.&.=.",
"1.=.*.o.o.O.:.>.{ -.1.<.=.&.&.o.&.2.-.-.<.1.<.*.o.&.q.*.:.-.-.1.",
"=.-.=.[ *.;.;.;.;.&.;.=.{ *.*.*.;.;.$.&.&.=.-.{ *.{ &.=.t.;.&.&.",
";.O.O.t.$.:.7.:.=.=.=.%.O.$.t.u.,.4.*.=.>.*.O.O.t.#.u.,.,.*.=.>.",
"$.p.p.$.,.,.u.4.<.1.2.:.p.p.u.,.>.3.1.<.4.:.2.p.p.2.<.2.3.<.1.,.",
"-.-.&.o.o.o.%.*.-.=.<.<.*.&.q.o.o.%.=.=.=.<.=.&.o.o.o.&.*.=.*.<.",
"<.7.>.;.o.o.O.o.T Y *.1.5.=.&.o.&.o.T T o.=.5.,.*.o.o.&.q.q.T &.",
"1.5.-.%.q.Y r.r.y.t.,.1.1.*.&.T e.r.t.y.y.<.8.<.*.o.Y r.r.t.t.:.",
"5.1.-.=.-.>.1.1.1.8.5.1.<.=.-.=.,.1.1.1.8.5.1.>.-.=.=.4.1.1.5.8.",
"=.%.&.O.=.1.*.*.*.*.-.*.&.&.&.<.>.*.*.=.*.-.*.&.o.*.1.=.*.*.*.*.",
"*.#.#.:.t.t.w.o.o.&.&.;.#.#.:.w.t.&.o.o.&.*.;.t.:.:.t.w.&.o.o.&.",
">.:.:.t.w.;.:.=.*.=.>.>.:.u.t.w.=.:.*.*.:.>.:.;.u.w.;.:.:.*.*.>.",
"<.-.*.&.&.&.u.>.{ { 1.1.{ %. ...O.$.=.[ @.1.<.*.%.%.&.;.2.=.-.<.",
"*.{ -.*.*.;.*.&.&.O.%._ S r 9 w w q 7 5 l ~ -.*.*.*.O.=.&.;.O.&.",
"#.w.t.y.y.3.7.,.<.>.F 8 < , d x x s # % M 7 X.w.$.i.p.8.7.-.>.,.",
">.,.u.t.:.*.t.<.<.W : < d < x 1 x d - z 0 @ E >.;.;.:.;.:.1.<.,.",
"-.=.;.&.o.%.*.*._ 4 @ < d d 1 1 d > , M @ + ; | %.o.o.%.*.*.&.*.",
"1.8.>.&.T q.T Y L % O 1 > > > - - @ M m - . % ! ;.o.P q.T Y Y o.",
"1.1.<.*.&.w.i.i.a % O O # c b M b + k 0 O O % D -.%.w.y.y.2.3.3.",
"1.>.*.*.-.1.<.>.i o 0 @ g C B C C j 0 f - 0 . t %.-.<.,.<.<.1.5.",
"*.%.&.o.;.,.&...3 + 0 N * k z B V M k % n 0 + 3 ..O.>.;.&.&.*.&.",
";.:.t.2.t.t.;.} 3 , j m h V ( C V V V h h v > 6 +.2.w.t.&.O.o.*.",
"1.=.:.O.w.O.:.| e - B ) N B M C V B B N ) B % e ^ o.O.:.:.-.=.<.",
">.{ *.{ *.;.2.+.A   f ( n M ( C C C M N ) x   Z | =.&.=.:.:.*.=.",
"*.;.%.$.O.;.>.O.G 3 & f ; = 8 * : , $ 4 ; X 2 H #.O.#.>.;.;.&.;.",
"$.t.y.p.3.4.3.7.' W p 5 y K E W a F Q S i u J / i.p.4.4.8.<.1.,.",
"<.=.&.q.&.&.O.=.-.+.` ` #.X.o. .o.%.<.{ ] ! @.:.O.O.&.o.*.<.<.<.",
"<.>.=.*.&.%.{ ;.o.&.-.<.:.=.%.O.*.*.%.o.&.-.>.>.*.&.%.*.*.o.o.*."
};
