/* XPM */
static char *result[] = {
/* columns rows colors chars-per-pixel */
"32 32 151 2 ",
"   c #2A2D3A",
".  c #37343D",
"X  c #453B3E",
"o  c #4A4E3E",
"O  c #4C5E3E",
"+  c #5C683F",
"@  c #373945",
"#  c #3B3C47",
"$  c #3A3E49",
"%  c #453C42",
"&  c #3E434D",
"*  c #3F4C4C",
"=  c #3D4551",
"-  c #3D4954",
";  c #464F40",
":  c #4C4941",
">  c #44464E",
",  c #444E4C",
"<  c #4B484D",
"1  c #544343",
"2  c #5D4745",
"3  c #54494A",
"4  c #435144",
"5  c #4D5A41",
"6  c #4B564B",
"7  c #4D584D",
"8  c #535947",
"9  c #535248",
"0  c #424651",
"q  c #444B54",
"w  c #474E59",
"e  c #495355",
"r  c #4A535C",
"t  c #515955",
"y  c #50555D",
"u  c #565C5C",
"i  c #625845",
"p  c #6D584D",
"a  c #705746",
"s  c #745A4A",
"d  c #7A5A4D",
"f  c #536441",
"g  c #596644",
"h  c #5E6449",
"j  c #596D4C",
"k  c #5C7548",
"l  c #556655",
"z  c #556B56",
"x  c #576558",
"c  c #5C7655",
"v  c #616441",
"b  c #7D604A",
"n  c #657743",
"m  c #6E7C46",
"M  c #677C4A",
"N  c #6C784E",
"B  c #617456",
"V  c #647E54",
"C  c #707D51",
"Z  c #4D5961",
"A  c #535D64",
"S  c #546166",
"D  c #586165",
"F  c #56646B",
"G  c #59636A",
"H  c #5A696E",
"J  c #5C7364",
"K  c #5D6C71",
"L  c #637276",
"P  c #687A73",
"I  c #66787C",
"U  c #6C7C7E",
"Y  c #81614E",
"T  c #966F4F",
"R  c #816755",
"E  c #956D53",
"W  c #6B8A4C",
"Q  c #7A8F47",
"!  c #77874C",
"~  c #788649",
"^  c #7C984C",
"/  c #688052",
"(  c #7A8355",
")  c #778B5A",
"_  c #71975B",
"`  c #789558",
"'  c #7CA25B",
"]  c #7FAB5F",
"[  c #7C9E6C",
"{  c #77A467",
"}  c #7DA664",
"|  c #7DA961",
" . c #7CA16A",
".. c #849E4C",
"X. c #899A4B",
"o. c #828C56",
"O. c #819451",
"+. c #8B9351",
"@. c #879359",
"#. c #919250",
"$. c #88A04A",
"%. c #91A14D",
"&. c #9BB84F",
"*. c #87A257",
"=. c #85A857",
"-. c #89AB54",
";. c #85AE5B",
":. c #8BAF5B",
">. c #91A154",
",. c #98A751",
"<. c #92AE52",
"1. c #99AA55",
"2. c #93AD5D",
"3. c #9CAE5E",
"4. c #8EB256",
"5. c #8BB059",
"6. c #94B454",
"7. c #9BB654",
"8. c #9DB851",
"9. c #94B15A",
"0. c #9CB35B",
"q. c #A1A555",
"w. c #A2B655",
"e. c #A9B757",
"r. c #A4B952",
"t. c #ABB954",
"y. c #A2B35C",
"u. c #ABB55B",
"i. c #AFB858",
"p. c #B3BA56",
"a. c #B3B75B",
"s. c #B3B959",
"d. c #B8BA58",
"f. c #A58465",
"g. c #A0856C",
"h. c #85A566",
"j. c #89A765",
"k. c #83AB60",
"l. c #8DAA62",
"z. c #83A468",
"x. c #8BA468",
"c. c #94AB61",
"v. c #9BAC62",
"b. c #A0AE62",
"n. c #A2B160",
"m. c #6B7E81",
"M. c #6E8183",
"N. c #718586",
"B. c #7C908E",
"V. c #849995",
"C. c #889C97",
/* pixels */
"t.d.7.;.| {  .z.l.h.7.p.p.6.;.| { [ z.x.l.e.p.r.4.] {  . .j.x.2.",
"t.t.r.&.6.3.u.u.s.s.s.t.t.&.&.9.y.u.u.s.a.p.t.t.&.6.2.u.u.u.s.s.",
"r.7.:.4.8.t.7.7.&.7.r.w.9.:.6.r.r.&.7.&.r.r.7.4.5.6.t.r.6.8.7.r.",
"6.5.:.9.2.3.:.;.5.5.4.6.:.4.2.2.2.;.:.:.;.4.6.:.<.2.3.5.;.5.5.5.",
"0.0.v.y.c.c.0.9.5.9.7.0.v.n.0.c.0.0.6.;.0.7.y.3.n.3.c.y.7.4.9.7.",
"t.7.6.;.;.:.0.w.&.r.t.r.7.5.;.;.9.0.w.8.r.t.r.9.5.;.;.9.0.7.7.r.",
"7.7.&.&.6.9.9.9.9.;.6.8.&.&.8.4.9.9.9.:.5.6.7.&.&.6.9.9.9.9.4.9.",
"6.:.2.c.2.0.p.0.7.7.0.2.:.:.c.c.e.e.7.7.0.7.6.:.c.c.0.t.y.7.0.7.",
"3.y.3.y.e.e.0.s.r.t.y.0.n.n.n.t.y.y.t.r.e.0.n.n.0.y.t.0.u.r.t.i.",
"r.7.:.;.;.;.5.6.8.7.r.r.6.5.;.;.5.6.8.7.7.r.8.4.;.;.;.5.6.8.7.7.",
"r.s.y.6.;.;.;.;.| } 6.t.i.9.5.;.;.5.| } ;.7.s.e.9.;.;.5.;.| | ;.",
"t.s.8.4.k.z.x.x.v.c.e.t.i.&.;.k.z.x.c.v.c.t.s.r.7.;.} h.x.c.v.0.",
"p.t.7.&.7.t.t.i.t.d.s.t.r.7.8.7.r.t.t.t.d.p.t.r.8.8.w.t.t.t.s.d.",
"7.4.;.5.7.t.6.6.&.6.8.6.5.5.5.r.e.6.6.6.6.8.6.5.;.9.t.7.6.6.6.&.",
"6.2.2.0.c.c.:.;.;.5.5.6.2.9.0.l.c.5.;.;.5.9.9.l.0.9.l.l.5.5.;.5.",
"w.0.0.c.l.9.0.7.4.7.w.y.0.3.c.l.0.0.&.9.7.r.y.0.3.l.9.0.0.6.9.7.",
"t.7.6.5.5.5.0.y.&.7.t.t.&.6.4.;.5.0.w.8.7.t.r.6.4.4.;.0.0.r.8.r.",
"6.&.7.6.6.9.0.:.5.;.4.6.&.6.6.9.7.9.:.5.5.6.8.&.6.6.5.7.9.5.;.:.",
":.2.c.b.v.e.s.e.r.e.0.2.l.c.v.@.@.q.r.r.e.1.l.l.v.v.n.s.s.r.r.e.",
"y.e.0.:.0.0.9.r.r.t.u.,.+.2.) t U t x ! w.o.( 1.9.9.y.9.0.r.r.e.",
"&.8.9.4.=.5.6.6.4.-.$.v s 8 r w y 0 w , 5 S F j 4.5.;.6.6.4.4.7.",
"e.d.w.;.] k.} } _ J P D 3 1 & $ $ % > @ # q S e M ' ] } } | { ;.",
"t.t.r.&.:.l.v.2.x I L H r q L &   a T 1   & > 3 b N j.v.b.y.u.u.",
"t.w.9.6.&.t.w.X.e S y K S = r @ . Y E 1   = A 3 d i %.t.r.r.t.p.",
"&.5.5.;.9.1.B z * H - A r > U H L u 2 .   F C.D X : >.9.5.4.4.4.",
"9.2.c.e.c./ r H - H = < % 0 I B.V.A @ @ = w L S o C c.c.5.5.;.6.",
"t.w.9.5.l.` e , y r 3 s < Z H I y S K M.Z r U A 6 ' :.6.0.8.7.r.",
"w.&.&.6.6.:.O.n 9 R f.s 0 w H m.H H H M.K F K r > ^ 6.0.0.7.6.0.",
"6.6.6.2.:.9.w.g p g.R % q A K I N.I I [ L G A w F l *.w.9.4.5.9.",
"c.c.v.n.u.u.a.#.i 2 % = G A H L L F F F D > # S K r +.i.s.t.t.i.",
"w.w.9.;.5.:.:.0.Q m g 7 A < > r A 0 0 q 4 + n / c V =.5.6.&.7.t.",
"r.w.7.6.5.:.&.4.=.=...~ h ; O 4 , f k z W ..,.1.<.;.5.&.6.;.;.6."
};
