/* XPM */
static char *result[] = {
/* columns rows colors chars-per-pixel */
"32 32 188 2 ",
"   c #4C433E",
".  c #55533F",
"X  c #37374F",
"o  c #413C58",
"O  c #2D475A",
"+  c #37445A",
"@  c #3B4563",
"#  c #3E4B6B",
"$  c #3B5B65",
"%  c #37596A",
"&  c #3C5372",
"*  c #3C616F",
"=  c #3A6273",
"-  c #3C6C73",
";  c #3A637B",
":  c #3A6C7E",
">  c #3D727C",
",  c #4B4742",
"<  c #544742",
"1  c #544946",
"2  c #5E4D44",
"3  c #505E44",
"4  c #58514A",
"5  c #464C5F",
"6  c #514D56",
"7  c #5A5554",
"8  c #595358",
"9  c #515959",
"0  c #6F5846",
"q  c #63524A",
"w  c #755E48",
"e  c #635F58",
"r  c #5B6E44",
"t  c #56664A",
"y  c #5E7144",
"u  c #4F6C53",
"i  c #546D57",
"p  c #5B7857",
"a  c #646A47",
"s  c #7C644B",
"d  c #697847",
"f  c #6A7D45",
"g  c #707C4C",
"h  c #676757",
"j  c #646158",
"k  c #7D6951",
"l  c #647C51",
"z  c #7F7257",
"x  c #414F71",
"c  c #425274",
"v  c #455678",
"b  c #445A7B",
"n  c #476A61",
"m  c #4A6B61",
"M  c #466C69",
"N  c #4C786A",
"B  c #4E6A70",
"V  c #42677A",
"C  c #41757C",
"Z  c #4C7A7A",
"A  c #587C78",
"S  c #83644B",
"D  c #87684E",
"F  c #8B6B4D",
"G  c #916B4F",
"H  c #8A7959",
"J  c #947351",
"K  c #957A55",
"L  c #997953",
"P  c #A47C55",
"I  c #6A834B",
"U  c #6E8A4E",
"Y  c #75834A",
"T  c #788B4A",
"R  c #76924D",
"E  c #6B8755",
"W  c #6A8C55",
"Q  c #758755",
"!  c #6B905A",
"~  c #759453",
"^  c #7B9B53",
"/  c #77995A",
"(  c #7DA358",
")  c #7FAB5F",
"_  c #638A6A",
"`  c #799B6B",
"'  c #648D71",
"]  c #6F917A",
"[  c #77A467",
"{  c #7DA664",
"}  c #7DA962",
"|  c #7CA16A",
" . c #82994B",
".. c #969F4F",
"X. c #889A58",
"o. c #A98559",
"O. c #AC8559",
"+. c #B28E5D",
"@. c #89A34D",
"#. c #92A54E",
"$. c #94AE4D",
"%. c #9DB14F",
"&. c #9AB94F",
"*. c #84A453",
"=. c #8AA656",
"-. c #86AE5C",
";. c #8BAE5C",
":. c #93A456",
">. c #95AB53",
",. c #92AE5D",
"<. c #9AAF5E",
"1. c #8DB256",
"2. c #87B05C",
"3. c #8CB159",
"4. c #94B454",
"5. c #9BB554",
"6. c #9DB851",
"7. c #94B25A",
"8. c #9BB35B",
"9. c #A8AF56",
"0. c #A2B656",
"q. c #A9B757",
"w. c #A4B952",
"e. c #ABB954",
"r. c #A2B45B",
"t. c #ABB55B",
"y. c #ACB859",
"u. c #B2BA56",
"i. c #B2B75B",
"p. c #B3B959",
"a. c #B8BA58",
"s. c #B29562",
"d. c #BE9B63",
"f. c #89A765",
"g. c #82AA60",
"h. c #8DAA62",
"j. c #89A468",
"k. c #94AB61",
"l. c #9CAC62",
"z. c #A0AD62",
"x. c #A4B161",
"c. c #C09D65",
"v. c #C3A167",
"b. c #C6A469",
"n. c #CEA96A",
"m. c #D1AC6C",
"M. c #3B6C81",
"N. c #3D7488",
"B. c #3F7E91",
"V. c #446583",
"C. c #446D87",
"Z. c #436D89",
"A. c #477580",
"S. c #42738B",
"D. c #437D8C",
"F. c #437E93",
"G. c #438089",
"H. c #5D8A87",
"J. c #5B938C",
"K. c #428395",
"L. c #458B94",
"P. c #448499",
"I. c #478B99",
"U. c #45909F",
"Y. c #4A949E",
"T. c #4E999E",
"R. c #539898",
"E. c #699E82",
"W. c #629B88",
"Q. c #65A696",
"!. c #66A69E",
"~. c #6EAF9B",
"^. c #7CAD91",
"/. c #7BBA9D",
"(. c #4B96A4",
"). c #4B9AA7",
"_. c #4F9FAA",
"`. c #4FA2A9",
"'. c #59A6A4",
"]. c #51A6AD",
"[. c #54ADB3",
"{. c #56B0B5",
"}. c #57B4B8",
"|. c #58B6B9",
" X c #6DB6A8",
".X c #72BCA5",
"XX c #72BCA9",
"oX c #76C3AB",
/* pixels */
"e.a.6.-.} [ | j.h.f.5.9...~ ( { [ ` E _ X.w.a.w.1.) [ | ` f.f.,.",
"e.e.w.&.4.<.t.t.u.t.Q _ E.W.^ 5.r.X.W.E.' Q 0.e.&.4.,.t.t.y.i.p.",
"e.4.3.1.6.e.6.4.6.$.A XX!.J.u _ _ u H. XXXN #.3.3.4.e.w.4.&.w.w.",
"4.;.;.7.,.k.;.^ *.R - = b c ; D.D.V.& b V - ~ =.*.,.,.7.-.3.2.3.",
"8.8.<.r.k.<.:.' E.N : & v c & & x c c v & > N E.' =.k.r.5.4.3.8.",
"e.5.4.;.g.3./ XX XC C.x # 5 8 6 8 8 5 x # C.C .XXX! 2.7.8.&.6.e.",
"5.5.&.4.4.7.E ~.Z X & 5 2 G o.o.O.P J q 5 & X Z ~.E 4.7.7.7.3.3.",
"4.,.,.k.k.8.g N.C.o X 0 d.b.b.m.n.v.n.d.D o o : N.l z.y.r.4.5.0.",
"<.r.r.z.r.e.Q : ; + 4 L d.n.d.n.b.c.m.c.J 1 + : M.Q e.r.t.e.w.y.",
"6.5.;.-.-.2.~ > > ~./.h s.b.s.d.s.s.n.+.j ~.Q.C : U 2.3.4.4.6.w.",
"e.u.0.4.-.;.~ % G.'.J.B +.s.] ^.^.E.s.O.B J.'.G.$ W 2.3.-.g.} 2.",
"e.u.5.3.} j./ $ L.[.I.V z z Q.oXoX!.z X.V I.[.P.$ ~ } f.j.k.k.8.",
"e.e.5.&.&.q.q.m (.|.U.L.`.> T.R.R.T.A.].L.L.|.(.n $.q.y.y.e.u.a.",
"6.7.3.-.5.e.4.p K.].`.].{.).].{.|.{.Y.{.].`.}.F.p 3.e.5.4.4.4.4.",
"4.,.,.r.k.h.;.^ M (.[.{.{.{.[.}.{.[.{.[.[.}.U.M =.l.k.;.2.3.3.3.",
"8.r.<.,.h.7.r.5.@.u (.[.[.].{.{.[.{.[.[.}.Y.n X.8.h.k.8.5.4.7.5.",
"e.5.4.3.1.2.8.r.w.f O D.].}.[.{.[.[.[.`.D.O f &.1.1.2.8.r.6.6.w.",
"4.&.6.4.4.4.8.3.1.p @ # % % = : C = & % x @ Y &.4.4.3.5.3.,.;.3.",
";.;.k.z.l.t.a.r.w.T # c v x x # # # v b v @ l k.l.l.t.p.y.6.0.q.",
"r.t.8.,.8.7.,.0.w.Y @ V.F.S.V.V.V.C.C.K.V.@ Y r.,.7.8.3.r.w.e.q.",
"%.5.7.1.-.2.$.4.1.3 @ S.K.N.Z A H.C N.P.Z.@ 3 ;.1.-.-.,.4.4.3.4.",
"e.a.0.3.} -.g.{ ~ , @ Z.N.7 k K K D 9 C.Z.@ < ..4.-.) g.{ } } -.",
"e.e.6.4.1.h.<.9. .2 6 Z.* 0 F S S G 0 M Z.6 2 T &.3.;.l.l.r.t.t.",
"e.w.5.4.6.e.0...a o s B $ w o + + X w $ B k   r *.6.0.e.0.w.e.u.",
"4.3.3.2.7.r.;.R r < s H 4 q ; K.P.& 7 4 H s < r ~ ;.r.7.3.1.1.1.",
"7.8.l.r.k.,.=.U r 0 G J F j P._.`.K.j G D G 0 r Y :.h.8.3.;.-.4.",
"e.0.7.;.-.;.>.^ a q P O.K h K.`.[.(.j L O.P q y ~ g.2.7.0.&.5.w.",
"0.&.&.4.4.4.8.X.f   S P K j B.(.).K.e L P D   f  .4.7.8.8.8.4.5.",
"1.4.4.,.,.>.r.;.R a a w s 7 : B.B.M.9 s s . r U X.,.,.0.7.7.3.7.",
",.k.l.x.t.t.i.p.%. .g a t t 3 u i t a a d g Y X.x.x.y.y.i.w.e.y.",
"q.w.7.2.3.3.2.5.6.%.>.@.R U I U U I T ^ #.#.5.8.2.;.3.;.4.6.w.w.",
"w.0.8.4.3.1.4.4.2.3.%.0.8.>.@.-.$.@.( *.3.6.e.8.4.1.1.4.4.2.-.4."
};
