/* XPM */
static char *result[] = {
/* columns rows colors chars-per-pixel */
"32 32 178 2 ",
"   c #4E423F",
".  c #4D513F",
"X  c #233A43",
"o  c #2A3F46",
"O  c #243D4D",
"+  c #233E51",
"@  c #264E4D",
"#  c #304A4D",
"$  c #2F534C",
"%  c #3B5246",
"&  c #375B4D",
"*  c #3A584A",
"=  c #234454",
"-  c #234D52",
";  c #2A4B52",
":  c #244D5A",
">  c #284B5D",
",  c #245556",
"<  c #285454",
"1  c #26535C",
"2  c #28505B",
"3  c #255C5E",
"4  c #295B5D",
"5  c #315A50",
"6  c #375C58",
"7  c #2F674E",
"8  c #2E684F",
"9  c #356146",
"0  c #3F614B",
"q  c #296C57",
"w  c #2A6559",
"e  c #276B5D",
"r  c #30655A",
"t  c #317156",
"y  c #31705E",
"u  c #347A58",
"i  c #275661",
"p  c #295261",
"a  c #255C62",
"s  c #285C67",
"d  c #266267",
"f  c #2C6462",
"g  c #266C65",
"h  c #28646A",
"j  c #276C6D",
"k  c #286968",
"l  c #286D6D",
"z  c #2A7364",
"x  c #2C7C63",
"c  c #29756C",
"v  c #297C6D",
"b  c #317C60",
"n  c #474244",
"m  c #5B4744",
"M  c #425A4A",
"N  c #595347",
"B  c #625D4D",
"V  c #71554A",
"C  c #4A6346",
"Z  c #43644B",
"A  c #49644D",
"S  c #4C6E4E",
"D  c #596D43",
"F  c #51644B",
"G  c #5D6E48",
"H  c #54744D",
"J  c #5A754C",
"K  c #5F7B49",
"L  c #586F53",
"P  c #487656",
"I  c #6A6448",
"U  c #6C7E4D",
"Y  c #717E4E",
"T  c #2D8164",
"R  c #2E8A67",
"E  c #2C846A",
"W  c #2D8B6B",
"Q  c #338D64",
"!  c #398E65",
"~  c #318C6A",
"^  c #2E9167",
"/  c #2E916A",
"(  c #379163",
")  c #379B67",
"_  c #3B9C66",
"`  c #31956A",
"'  c #349968",
"]  c #3EA164",
"[  c #58924D",
"{  c #488F55",
"}  c #5A8654",
"|  c #469957",
" . c #6B8E4D",
".. c #728D4B",
"X. c #74924F",
"o. c #7D924C",
"O. c #618453",
"+. c #688E53",
"@. c #708752",
"#. c #7B9654",
"$. c #759851",
"%. c #7C9C52",
"&. c #7E9759",
"*. c #4DA55A",
"=. c #4EAC5D",
"-. c #50AD5D",
";. c #53B15C",
":. c #5FB75B",
">. c #6EAF59",
",. c #7FAB5F",
"<. c #6FBD5C",
"1. c #439760",
"2. c #429E63",
"3. c #739A64",
"4. c #7B9E6C",
"5. c #42A363",
"6. c #46A861",
"7. c #77A467",
"8. c #7CA665",
"9. c #7CA961",
"0. c #7DA06A",
"q. c #83954D",
"w. c #849C4E",
"e. c #859550",
"r. c #819C51",
"t. c #8F9957",
"y. c #959E53",
"u. c #8AA54D",
"i. c #8DA94C",
"p. c #92A74F",
"a. c #92A94F",
"s. c #9CB74F",
"d. c #9BB94F",
"f. c #83A355",
"g. c #87A857",
"h. c #8BA852",
"j. c #86AE5B",
"k. c #8BAF5B",
"l. c #97A254",
"z. c #96AE50",
"x. c #9CAD53",
"c. c #94A45C",
"v. c #93AE5C",
"b. c #9AAE5E",
"n. c #8DB256",
"m. c #8CB159",
"M. c #85BA5B",
"N. c #94B554",
"B. c #9BB654",
"V. c #9DB851",
"C. c #93B15A",
"Z. c #9CB35A",
"A. c #A4A753",
"S. c #A7AF59",
"D. c #A2B656",
"F. c #A9B656",
"G. c #A4B953",
"H. c #ABB954",
"J. c #A2B35B",
"K. c #ABB55B",
"L. c #AFB858",
"P. c #B3BA56",
"I. c #B3B75B",
"U. c #B3B959",
"Y. c #B8BA58",
"T. c #83A665",
"R. c #89A765",
"E. c #83AB60",
"W. c #8DAA62",
"Q. c #8BA468",
"!. c #94AB61",
"~. c #9BAC62",
"^. c #95B060",
"/. c #A0AE62",
"(. c #A3B160",
"). c #89C75E",
"_. c #A7C15D",
"`. c #B4D562",
/* pixels */
"H.Y.B.j.9.7.0.T.W.T.B.P.P.N.g.7.3.4.T.R.R.G.Y.F.n.,.7.7.4.R.R.v.",
"H.H.G.d.N.b.K.K.I.I.I.H.H.V.d.v.U J.I.I.I.H.H.H.s.N.b.K.K.K.I.I.",
"G.B.m.n.B.H.B.B.d.V.G.D.C.k.N.p.o.u.B.s.G.G.B.N.n.N.H.G.B.d.V.G.",
"N.k.k.C.v.b.k.j.n.j.n.N.n.k.C.#.K. .j.n.k.N.m.m.m.v.Z.k.j.j.m.m.",
"Z.b.~.J.!.!.Z.C.m.C.B.Z.b./.c.f.`.$.%.n.N.B.Z.~.J.~.!.Z.N.n.m.Z.",
"H.V.N.m.j.k.Z.D.d.G.H.G.B.n.+.M.).>. .s.G.H.G.N.m.j.j.C.J.V.d.H.",
"B.s.d.N.N.C.C.C.C.m.N.B.d.i.[ :.<.=.{ %.m.N.V.d.N.V.n.Z.C.C.m.n.",
"N.k.k.!.b.Z.P.Z.N.Z.B.v.f.[ | =.:.=.u u r.Z.m.v.!.!.~.L.D.B.B.Z.",
"b.S.~.~.J.F.(.L._.H.J.b.J 8 7 1.6.] u Z l.J./.J.~.J.H.J.K.H.H.G.",
"G.B.n.j.j.j.n.N.d.B.G.s.h.& T ~ ] ` ^ P z.G.V.C.m.j.j.m.N.N.B.G.",
"H.P.D.C.j.j.m.j.9.9.N.F.@.x ] ` ' / ` b S f.P.G.C.j.j.j.j.9.9.j.",
"H.P.V.n.E.8.Q.Q.~.!.e.C y *.( 5.-.-._ *.q A A.F.N.j.9.R.Q.!.~.Z.",
"H.H.V.V.V.D.H.L.H.Y.A.G 9 t ! =.-.6.=.] Q J H.G.d.V.D.H.L.H.P.Y.",
"B.n.j.m.Z.F.N.C.N.N.V.o.8 R 5.5.] ] _ ) T z } ,.j.C.F.B.N.N.N.N.",
"C.C.v.Z.!.!.m.j.m.g.} r v W 2.;.] ) ` R e @ 0 &.Z.C.!.W.k.M.j.m.",
"D.Z.Z.!.W.C.Z.V.N.r.* - g ! =.6.] / W v e - @.Z.~.!.v.Z.B.N.C.D.",
"G.V.N.n.m.m.Z.J.s.i.U r ` ] ] ` / ` / W R 1 J N.n.n.m.C.Z.V.V.G.",
"N.s.d.C.N.n.Z.k.g.A , z W / / ` W _ ] ] ^ e 3 H h.N.C.C.C.m.k.m.",
"v.W.!./.~.K.I.F.z.Y # x ) ' ] _ W _ -.-.Q w - L c./.K.I.L.V.D.F.",
"J.D.Z.k.Z.Z.v.D.J 4 g z E ] ] ! W ` ' _ _ 1 F x.^.C.Z.C.Z.G.H.F.",
"G.V.C.n.j.m.N.h.D X O : ! ! T c ~ Q E v W l # %.n.j.j.N.N.N.m.V.",
"H.Y.B.k.j.9.9.O.o = p f f k E c E R l c j d p 6 S O.,.9.8.9.7.j.",
"H.P.G.N.m.W.~.L , s : > s l c l c v c j l d - < Z X.W.~.~.J.K.K.",
"H.D.N.N.V.H.G.a.K % = p p i h h j j j j g E e $ ..s.H.H.D.G.H.P.",
"N.n.m.j.C.J.n.n...5 a i = = s 2 i > 1 j 3 3 3 H f.m.J.C.m.n.n.n.",
"C.b.!.J.!.!.C.m.j.$.K M ; p + = O : : = : , F c.D.~.W.Z.m.k.j.N.",
"G.V.C.k.E.m.Z.D.V.V.H.w.0 $ X ; n n @ & U q.z.B.^.j.k.C.B.V.B.G.",
"G.G.N.s.N.C.Z.Z.Z.N.V.D.u.D   m V m . ..N.G.G.N.N.N.m.Z.Z.B.C.B.",
"N.N.C.C.C.C.D.C.n.m.N.N.w.U B N I I U r.C.N.N.N.C.v.C.D.Z.m.C.C.",
"!.!.~.(.(.U.K.L.H.H.J.!.!.c.t.y.y.l.x.F.H.~.!.~.(.(.K.F.I.G.H.F.",
"G.B.C.j.m.m.m.B.s.G.F.G.Z.k.j.m.k.m.V.V.G.G.G.Z.E.k.m.m.N.G.D.G.",
"G.D.Z.N.n.n.N.C.j.m.N.G.J.B.n.n.n.s.n.k.n.d.D.Z.B.m.m.N.N.j.j.N."
};
