/* XPM */
static char *result[] = {
/* columns rows colors chars-per-pixel */
"32 32 143 2 ",
"   c #5A4742",
".  c #524841",
"X  c #575341",
"o  c #5E5245",
"O  c #5E5846",
"+  c #604D43",
"@  c #655346",
"#  c #6A5447",
"$  c #635D45",
"%  c #6C5A47",
"&  c #6D5648",
"*  c #745D49",
"=  c #795E4A",
"-  c #5E6047",
";  c #576848",
":  c #5F724B",
">  c #666245",
",  c #6C6346",
"<  c #656A46",
"1  c #656449",
"2  c #6C634F",
"3  c #636E4C",
"4  c #6C6B49",
"5  c #726746",
"6  c #73634B",
"7  c #7C644B",
"8  c #746A49",
"9  c #7A6B4B",
"0  c #667146",
"q  c #6C7246",
"w  c #65754A",
"e  c #6B744E",
"r  c #647C4D",
"t  c #71714D",
"y  c #7A714B",
"u  c #737D4C",
"i  c #7C7A4F",
"p  c #757751",
"a  c #83644D",
"s  c #8A674E",
"d  c #84694E",
"f  c #8C6A4F",
"g  c #926B4F",
"h  c #856950",
"j  c #8C6E51",
"k  c #936E50",
"l  c #837752",
"z  c #8C7352",
"x  c #8C7A52",
"c  c #957453",
"v  c #9C7452",
"b  c #A27753",
"n  c #A47C56",
"m  c #A97D56",
"M  c #73844B",
"N  c #7B844A",
"B  c #748D4D",
"V  c #7B9347",
"C  c #76934E",
"Z  c #6E8452",
"A  c #798554",
"S  c #7D8A54",
"D  c #739454",
"F  c #7D9654",
"G  c #7F9950",
"H  c #7EA356",
"J  c #7AA35A",
"K  c #7FAB5F",
"L  c #7C9E6C",
"P  c #77A265",
"I  c #7DA664",
"U  c #7DA961",
"Y  c #7CA16A",
"T  c #80874A",
"R  c #868C4C",
"E  c #80924D",
"W  c #829A4D",
"Q  c #808D55",
"!  c #818E5B",
"~  c #9F8058",
"^  c #859251",
"/  c #889254",
"(  c #849E53",
")  c #8D9B57",
"_  c #85935A",
"`  c #849E5C",
"'  c #949B55",
"]  c #939D58",
"[  c #AA8057",
"{  c #A08258",
"}  c #AA865B",
"|  c #B08A5D",
" . c #86A64F",
".. c #8AA24B",
"X. c #8CAB4E",
"o. c #9BAD4F",
"O. c #94B24E",
"+. c #9CB74F",
"@. c #9BB84F",
"#. c #85A654",
"$. c #8BA556",
"%. c #8EAF52",
"&. c #8EA65A",
"*. c #86AE5C",
"=. c #8BAE5B",
"-. c #99A452",
";. c #90AC52",
":. c #9AAD55",
">. c #91A55B",
",. c #92AD5D",
"<. c #9BAE5E",
"1. c #8EB256",
"2. c #8CB159",
"3. c #93B454",
"4. c #9BB654",
"5. c #96B851",
"6. c #9DB851",
"7. c #93B15A",
"8. c #9CB35B",
"9. c #A3B655",
"0. c #A9B656",
"q. c #A3B953",
"w. c #ABB954",
"e. c #A2B35B",
"r. c #ABB55B",
"t. c #AFB859",
"y. c #B3B557",
"u. c #B3BA56",
"i. c #B3B75B",
"p. c #B3B959",
"a. c #B8BA58",
"s. c #83A665",
"d. c #89A765",
"f. c #82AB60",
"g. c #8DAA62",
"h. c #83A468",
"j. c #8BA468",
"k. c #99A761",
"l. c #94AB62",
"z. c #9BAC62",
"x. c #9EB060",
"c. c #A0AE62",
"v. c #A5B161",
/* pixels */
"w.a.6.*.U P Y h.d.s.4.u.w.3.*.U P L h.j.g.q.a.q.1.U P Y Y d.d.g.",
"w.w.q.@.3.<.r.r.t.a.a.w.w.q.3.7.e.r.t.p.y.u.w.q.@.6.7.r.r.r.p.p.",
"q.4.2.1.4.w.4.4.@.6.q.q.7.1.1.q.q.+.6.6.q.q.4.7.2.3.w.q.5.@.q.q.",
"3.=.=.7.7.<.=.*.2.2.1.1.2.=.7.<.<.=.*.*.2.1.7.=.7.,.&.F *.2.*.2.",
"8.<.z.:._ >.8.8.2.7.4.8.z.e.x.g.<.8.7.2.8.4.8.l.' i 2 * 0 1.2.4.",
"w.6.7.3 * 8 u ( O.q.w.w.6.2.*.*.1.8.q.6.6.-.N 4 d s b g , O.6.w.",
"6.+.O., f b f d 4 M ( 6.@.3.@.3.3.7.7.2.B x j [ m s %   X &.2.7.",
"7.=.,.A O % s m m j l G ,.,.l.l.e.t.7.N 6 ~ z # # @ a g 7 W 8.4.",
"<.e.e.c.:.E 3 $ & z { / 8.v.x.0.9.e.9.x } 6 * s n k a o < O.w.0.",
"+.6.=.*.*.2.1. .B 0 u O.8.2.*.*.2.3.O.B 1 l } * 6 > : C 1.4.6.q.",
"q.p.9.7.*.*.=.*.U K 3.u.p.4.2.*.2.*.*.U J M y q B H *.2.*.U U *.",
"w.u.6.1.f.I j.j.z.z.9.w.w.3.2.U h.j.g.z.z.0.0.q.3.*.U j.j.l.k.8.",
"u.w.6.@.6.9.w.w.w.u.a.w.q.4.@.4.0.w.w.t.a.u.w.q.@.4.9.t.w.w.u.a.",
"6.2.*.*.4.w.3.7.6.3.6.3.2.*.=.9.9.7.3.5.3.4.3.2.*.7.w.4.3.3.3.3.",
"7.,.,.8.l.l.=.*.*.=.1.7.,.7.e.l.l.=.*.*.=.7.7.=.8.8.g.=.2.*.2.2.",
"9.8.8.<.g.7.e.4.3.3.9.9.8.) S ` 7.9.5.3.4.9.e.x.8.g.l.4.4.1.8.9.",
"w.6.3.2.2.2.8.9.6.4.q.w.X.< a 6 e ^ :.@.q.w.q.5.1.1.2.7.e.4.6.q.",
"3.@.4.3.3.1.8.g.2.2.1.3.X.% f v k j 9 w D 7.4.@.3.3.2.4.2.7.=.=.",
"=.&.l.x.x.r.p.0.q.q.4.l.&.A > % a m n c x ( l.g.z.z.r.p.t.q.q.0.",
"e.0.8.l.7.8.7.q.q.w.r.e.9.x.=.G w - O z x ] 9.e.7.7.8.,.4.w.q.0.",
"6.4.7.1.*.1.3.3.3.1.4.q.4.7.2.*.2.%.C r B +.q.3.1.*.*.3.3.3.2.4.",
"t.a.4.2.K K U I I P 3.u.p.4.*.U K I I I f.q.y.9.2.*.K U I I P *.",
"w.w.q.5.1.g.<.! p 1 N w.t.@.7.=.l.c.c.r.] T 8 q O.2.g.z.z.r.v.r.",
"w.q.3.3...l 8 7 v g 5 0.4.3.3.q.9.o.R y 9 k v = W 6.q.w.q.q.w.u.",
"3.2.H e 6 v m c a o w 1.2.=.2.<.R 8 j m v g # . D 2.9.7.2.1.1.1.",
"7.8.Q } n d 7 $ 0 D ;.8.l.8.-.3 z | h a # + a = N x.g.z.2.2.*.7.",
"w.q.$.t 1 ; B ;.3.q.t.q.4.7.A } 7 6 + a k g a @ Z 2.g.3.4.4.4.q.",
"9.6.3.X.#.;.8.e.4.3.4.q.6.3.W y 7 } j c 7 $ 0 V 3.O.2.8.8.4.3.4.",
"3.3.7.7.7.7.9.=.3.1.3.3.3.7.=.F u l $ < B #.3.3.7.,.7.4.8.7.2.7.",
">.l.z.v.r.t.i.p.q.t.8.l.k.v.v.r.r.] -.9.t.x.>.z.v.v.r.t.i.q.w.t.",
"q.q.7.f.2.2.2.8.6.q.t.4.4.g.*.1.2.7.+.+.q.q.q.8.=.=.2.*.8.6.6.q.",
"q.0.4.3.2.1.5.1.*.*.5.0.9.4.1.*.3.O.1.=.1.4.0.4.3.2.1.3.3.2.*.3."
};
