/* XPM */
static char *result[] = {
/* columns rows colors chars-per-pixel */
"128 128 64 1 ",
"  c #7FAB5F",
". c #6E976F",
"X c #6E9A6E",
"o c #789F67",
"O c #749C6B",
"+ c #7C9C6C",
"@ c #648F76",
"# c #669175",
"$ c #6B9473",
"% c #6C9870",
"& c #719672",
"* c #749870",
"= c #799970",
"- c #77A664",
"; c #79A564",
": c #77A863",
"> c #7AA962",
", c #74A169",
"< c #79A269",
"1 c #98B74F",
"2 c #97B84F",
"3 c #9BB94E",
"4 c #83A75F",
"5 c #84AD5C",
"6 c #8AAD5B",
"7 c #92AF5E",
"8 c #8EB256",
"9 c #87B059",
"0 c #8AB059",
"q c #94B553",
"w c #99B751",
"e c #97B850",
"r c #9AB850",
"t c #94B15C",
"y c #9CB25D",
"u c #A0BA4F",
"i c #A3B755",
"p c #A4B952",
"a c #ABB954",
"s c #A5B45D",
"d c #ABB55D",
"f c #AEB858",
"g c #B3BA57",
"h c #B5B55E",
"j c #B8B75D",
"k c #B6B959",
"l c #BDBA5B",
"z c #839E6D",
"x c #82A561",
"c c #8CA566",
"v c #81AA62",
"b c #8CAD61",
"n c #86A16A",
"m c #8CA26A",
"M c #96A767",
"N c #92AE61",
"B c #9CAA65",
"V c #92A568",
"C c #99B060",
"Z c #A4AE63",
"A c #A6B060",
"S c #ACB161",
"D c #B1B360",
"F c #C0BA5B",
/* pixels */
"333allFlfs>55:>>::>>>:>>->-,,->;>:>>>>>:>58333glFFlfN45>>>:>:>>;>>:>><O,::>>:>>::::55q33pglFlksv59>>>>>:>:>::>:-,,,>::::>:>>:>59",
"3agglFlgw8q3q805>>>:>->---%##%6066qO$X->q33rggklFlpq8e3q80>>:>:>:>---###<06686XXO-4333pgglFFl38qee085>>>>:::;;:,###>060q4.XO:633",
"lFFFlFlp333364>>>:>->>-%#%#####%%xx+n&#O23glFFFFlg3333q9> >;>:>>>-##X####$%.5ozz$#433glFFllla3333q5>>>->>>>:O#%$@@#%$$o5*z+@$83p",
"appkFlg333333e9>>>>>>-%#$VZB*#=ZZ=+hFA&&NggapalFFa33333385>>;>:>,$#=BZV##VZB&VllV$OsggapaFFlp33333e8>>>>:>>O##zZZz#&BZV&AFjz%nag",
"333ugllgla33333ee5:>-O#zhlFFBzDFFllFFljhja3333pgllglp33233ee>:>,%#VjFFlzVlFFjllFlhhju3333allgggp3333eeq:::O$&AlFFD=ZFFljFlFjhjgr",
"gp333pglaap33333rqssAMnhFlFFDjFFFFllFFFFlaag3333algpap333333qssAmVlFFFlhlFFlFFFFFlFlaga333uglgaa333333esssZzZFlFFlSFFFlFlFFFFFka",
"Fl33p333333333333gapglllFlggllFlkFFkkFFlFlFFg3rp333333333333laplFllllgkFFlglFFjjFFFllFFp3ppr3333333333pkuaFlFFFkglFFlkFllkFFFlll",
"llpaFlaurpur33333p33uaaglg33gla3uag3ukFllFFFgpgFga3puur33333u33paallp33klp3uga3ullFFFllapllauurur33333pr33auglku3plau3agp3alFFFF",
"llllFlgaggagp33333333333gp23pa3333333glFlgkFlllFlgagaggu3333333333pa333g33333333lFFkgllllFFggaagga33333333333aa33ua3332333aFllgg",
"paaapp3e555923ew3333u3333333rp3333333papp33papapu3q5550322333333r333333r33333333ppa33uapapau38555q3ewe3333r3333333p3333333rpap33",
"33333q5 >>>:45  q33allp333333q82333333333333333285>:>>>5>>5e3palku333333qqe333333233333333e0>>;:>>6>>833pkla33333338q33333333333",
"3332q>: >>>>::::6fgFlllgg85q8 >42333222333333330>>>>>>>:>>>tflFlFkka59e0>>03333323333333325>>>>>:>>>>>iaFFFFggy50e5>>83333ee3333",
"32q5 - 8eeq>:45 ;>bSlldsC4 > q8>4e330>5e3qq3204>>52226>>55:>xNhllAdb5>>5e0>933e5>033823q5>>>8wee5:>55>xcsklhss54>>0e5>q33q  q338",
"028880q33336523qq88qauq88ee8e3eq8e30>:-55  8q8888e3333 633q8qqwarq88ee833e8q325-:>55>42q888qw333q>q3e80qtraw88q2q833e0q3e>:>>54:",
"5683333333332337666e376qq55e88> 5ee5>55>>:>9023333333323336666rw66e8>0e85>>03q>>55>>> 50333333333e33e666q3q6026 qe85>4q35>>5 >:>",
"333334,ovqo<e3gsz$@O6%#O-:> >:>>;5>>>e3q88q3333q<oo06o42pgZ+##xx#%<>:>4>>>:>5>>533888233330oooqx<63adB&@$6O#*<::>>:>::>5>>q32888",
"333tx=zz#$z&zgFFFDz##zhV%cb:>5>55>>>83333333336OzzO#&z$7lFllZ&@$Vh+Obv;44>55::ve33333333q4+zz&$++.dFFFjV##&ZZ=<0>>5>>55-:5ee3333",
"34<<BDFFZZlSdlFllFDz=hllZhj60eqe3q>>555502ee><zZFFDZSlZhFlklFZ&mllhZldvqeq330:>55558330<+mSFFSZDhZlFljllV%ZllSSFCv3eq3e5-59555e3",
"dzdjFFkAhFFFFFhb>BFhZgpallFlgpwe3e>:;vNNttsMMhjFFhsjFFFFFd>vdFZSg3glFFjap333q::>b6NN7dVZjFFldflFlFFly>bjFBjpplFFllar3335-:vNNNtt",
"aaafkA6>v7hyN75:>>NNie33paaglg33e86sskllllgaapgkyv>byhN7Nv- c7yp33paafklp33e5tsslllllguaukh7x>bddNNN>>:bNip33ppaaFgu33q5ysdllllj",
"33333eee596> --:>>::>>88338qqqrr3233uu33r333333peeq55v::>:>>::: 58q328qqee33e3u3u3333333333q1056>;::>>>;:>>88e3q8tte3332uuuur33r",
"gg33333333e004 :>>>>>>::5v>>>>w3333333333pgga33333333q80>>>>::>:>>>5 :>>533333333333pggp33333333885>>>>>::>;;55>>>>q33233333333a",
"Flgap33q880> ; q30>>>>>59 6djse3333333papgFFlaa3338885 >:5ee5:::>v955tkDqe3333333paalFFlap333888>>>>0ee>::>:5555sldq33333333pagF",
"palFlp3q88q888q333 >58epfpaFFFa3333333rallgaaFFkreq88q888e338  08epgrlFFlp3333333pallaagFFa3qq88q88qe336>>8q3aaplFlg33333333pgll",
"33uggg333333333333ew33alFllhskkaa33333w33au13agga333333333333121uklFlldslgpa33333333a333gggu333333333333323pllllkshFaapr33er3rap",
"3333333333333333333338NNttN>:bkkjgafy58311333u3333333333333333320NNtNb>>Cljkffft5qww3333133313333333333333q6NN77b:vdljkafp65eee3",
"888882333333333333e86>:5q0::>>v>vvvv>:>>  98q8883333333333313q85:v0e4:>:>v>v>v>>:>>>588q88e333333333333388 :5q8>->>>>>>vv>>>>>>0",
" >5883333333333333eq88q3r3q8>>>>>::::>>;;;   988w3333333333332q88e3eeq6>>>>>>>>:>>>> >>>88q33333333333338q8qe33q85>>>>>>:>>>>>>>",
"113333333333666q33666q333pau8>0r30 5  555q11113u333333e56631q6663333ap35>qee555 >569eeww3333333330668338667133rapq>5eeq>55>5558e",
"333333333u6o&$@Oqx#$&Oe3pkFkq>rr13q31q133u333333333334*&$@z1+#&%>33aFFa65333ee3qq333r3333333333qo&&#X60$$&&03ukFlp>8333q338e3u3p",
"3338668364$zDDm&$$VjjMcqlFFlls8e3313pppkllg333666qq6o$VjZz$$$Zjhm6iFlFFhtqe3e3raaallla33q666306O&ZjV=$$+hhZn8gFFFlf0e3333papalll",
"q36$$#.O$$@BFFFSmVlFlFhfllllllpr33gkFFFFllpq3x#$@OO$$$hFFFZzZFlFFSjlFllFgr33pglllFllgrweO$##o&$$zFFFhBzhFFFlslFlFlla333aglFFFFla",
"$o$zhV##VhmzhFlFllllFlFFFFFlFllp33gggggga3x%<#Vh+@&ZZzVFlFFlFFllFlFlFFFFllr3pggggggpqOOO&AA*#=hM+ZFFFljFFFllFllFFFFlg33agggggapq",
"zB&ZFlZZlFFSlljjllFlaaalFjNdlFFkgp333333r8$VV*lFhZSFFlSlljjlFlgapkFFdthllFgar3333332x&B+mFlSZkFFhhFjjlFFFaaalFFCCFFFlga3333333eO",
"lFjkglFFlgglFdc>6glaw33aS0;cjFFlggr333agdmMlFjggFFFkgkFly>vCggp33ufsv-NFlFlga3333alBmAFlhgkFllkgjFjb cfgg333pfy>>dFllkgu333pghmm",
"Flku3plFpe56tv:>>8u33e55>::>ipap3333agkkFFlFla33all3q5Nb>>>>2p3rq5 :>:6apap3333agllFFFllpepklge867b:::53r3305>->:taaa33333gglFll",
"gp3333ggr9>>::>:>q8ee5:;>9>: e3333pakl3pgllap333pgg3>:::>>;58q3q>::v ::033333palauplFka3333akaq>:::::>08e36>>>5>:>833333pglp3aFF",
"333111wr0>>>>>>:>-> v:>>qr89>58333rpa333uap33332eeq4>>>>>>>>>>5>>>5w28 >0q333ppa333pa3333eeer8>>> ::::>>>5>>>03e0> 63333aau333pa",
"313366 >>>0eq>>95>>-:55>e333eee33332q833333333q55 >:vqw0>55>:>>>5>5333weee3333eqq3333333eq6 >>>vwe5>55 :>>>5>q33323e33333q823333",
"333333q6v>e3e0qr28>>5ee50333333e3338::83333333332q5 533w5ere9>>0385q333333e23e5;>q3333333r3q85>q33893385>>q365e333332233q>:52333",
"333ula33rppp3233r3eeer3ee333330>580;>>53333333alu33ppa33r33rreee33e33333w5>6q5:>>83333333gg333ppp332333we3333e33333q x88>>:>w333",
"3rglFlgglFlhi33eee058r33e33330>>>>>>:>4502eepglllggkllfp3reeq50833e3333e5::::>::>55qeeeallFlgglFja3333e855e33ee333q>:;>:>>>>56e2",
"6iglFlFllly>>00>>>:>>>qv> 889>>>>:>>:::::>48gglFFFFlkb>>85>>>>>>58>>5884::>::>>>::>>>5tgllFFlFFdc>48>>>>->>00>>0q8>>::::>>::>>>>",
"3e3alFlliN5q8 >>->>:>;>:>>,XX,4>>>>:;;::58q33rgFlFgyb9q5>>:>>>->>:>>:OXX;4>>>>:;->>0q233pklllat680  >>>:>:>>>>><XXO> v :>-;>>>0q",
"aglllFla2e238005>>>>:>><O-###$x55qq&##,:23uallllFlu2e3e880>>>>:>>>,<,##@O546w6$$.,533ualllFFg3e33q909:>>>:>>-O-%@@#<6463;##O,833",
"llllFFl33333q5>:>>>>>>,$#%&%###&&OOmZz#Xqpgllllllg333ew84>::;>>:;X##O$$##$&&OOBB&@<rpllllFFlp3333q9 ::>>>>>>%@%*%###$&*ozZm@#5ua",
"u33aFFk3p33333q55>:>>-%#zZjDz#VjjVVFFjmzMkauu3gFFara3333e895>>;;,#&mDjZ&&ZjhzZFFZzzdgp3upkFkppp33332955>->>%#=BDjM$zhjZzhFlBzcgg",
"3333pgFllgp333eer6>v<O#VlFFFZVlFFFFFlFlFFar333ualFkla333e3ee5>v<%$ZFlFlVZFFFFFFFFFFlu3333uglllkp3333338>v>O$=DFFFjzhFFFFFFFFFFg3",
"la3333ggppp333333pgfhDBlFFFlllllFlFFlFFlFgllp333pgarpp333333aggjAZFFlFllFlFFlFlFlFFlglg3333agp3p333333rgfkjBkFllFljFlFFlFllFlFgg",
"Flu3gp33ee3323333ap3alllFkaalllaallaaFlFFlllg3pa33333333333ujr3gllFFgaflllagllaglllFllFa3aau3333333333aa3plllFlfakFlgallgallFFFF",
"FlagFFgaaapap333333333rgFa33akp33pa33gFFFFlFgalllgpaaapr3333333333klu33ga333pp3ullFlllFaalFlaapaap333333333rplg31ulp333pp2alFlFl",
"lllllkappppap33333333333pr33pp3333333gllgaalllllgapppppp3333333333pp333fu3333333lllgaglllllapdpppp33333333333pp33ua1333333pllkaa",
"ur3r3330>>>>qe883333pp33333333333333333333333u333e9>>>veqqqr333ap333333r33333333333333u3u333q5>>>0e882333ppp33233333333333333333",
"333338 >>>>>>>>;8ppgFlap3ee3305q33333333333333335>>:>>>>>:>quakFkp3uee3e59e33333333333333385>:>>>>5;:53palFgpr321385033333333333",
"333q9;:5555>>:;>vsdFllllhb>9054>q333w8q3333333q4>>559>>>::>7skFFFlldv>855>5e333e8e33333338>>>555>>:>>>sdlllFlly>5055 93333883333",
"e305>>5e33e>:0q5>>vyklyt600>5ew5 q3e5;>q2063e6>:>0333q>>88 >>bsFhttv89>03e>6eeq>:5225q385>>4qr335-586>>>NflstN584 q39 8330>:63q5",
"588www3333300333333eu3weeeqe33q88335:>:>>>>00q33ew33336q333eqerprweeqqe3e80e3e>>::>>>>88eeww3333e5w3322233urwwq8ee3q8833q>-:>>>>",
"q8q33weqe3ww3336<<o63xo66>>855::>qe>>685>>5q8133weww3qw33wxooxqqo<85-5q54>>5e0>>884> 088w33we232we33qzoox36o405>085>::0e5>5q0>>>",
"3333qO%$+4$.8pkjZz#.<$zO,>:>:->>:>>;533332233336$$$;<%OealjM=#oO&z%-:>>::>>>>>>833e2233333x#$.cO$xrklDz&#<%=+O-->>:>:>>>:>e33wee",
"3eex+mZB&&BznlFlFFV##VlZOMy>58>085>>83ww2333qqx+BZV&zB&BFFFFD=#&ZFVOAb-99>88>>>ee3w3333q6o+ZZ+$VV&gFFFFZ$@zhj+nsv>854q6::9eww333",
"w+zmhlFFjjFjlFFhsjFVzlglhllyt3e33e>>>v>>58q7+zVjlFljlFklFlddlj=BFgljFlNe3333q;>>:> 6qtx+zZlFFlhlFjlFjshlA=DllljFdNr3w335>>>>>>8q",
"hBllFjd6yllljjd>:bkkSa3plllFlg333e>>vCsdssgZAllljybfllljlB>:CjhSp3allllla3338>vvsddssgZhFFlhNCklljjkb>vdlSkr3gllllgp3335vvbddsss",
"3u3pgt65>5sb>v>>:>>vtq33rrpagu3338taagggggauuupg754>bsvvv>>:>v6qq33p3uggr33e9ifagggggpuupai65>>yCv>v>>>>>0qe33rupga333e6ifgggggg",
"3u333333886>v>>>;>>;>>55ee5559333333r33333p333333328qv>>>>::>;;:>5038555833re33r33333u333333eqq8v>>:>:>>>::45qw0555e33e333333333",
"llp3333333308 :45>>>>>::>>:bNv23333333331ullk33331313q00>>55>>>>>:>>>>bb5r3333333333ajla33333333885:>54>>:>>>>>>vNb83333333333ug",
"kllga338565:>>5e3q>>:>5tq8tklf33333333pagllllkgp33065   >0339-:>>08q8illf33332333agglllFggu3e565   >q325::>>0q8qdFDr3333333uaglF",
"3ugFla3332ee3e3333550wralagFFFg33333333uglauplFlu3eq232qw333q55q2pglalFFlp33333333pgluualFgu22222eee333059e3pkgalFFl33333333uagl",
"33upaa3333333333333333gjjjlCNdlkkpuu31333u333ppau333333333333r3erkhkjkNNjlgguu333333u333ppau323333333333333ajjjldbAFggapu3ee33u3",
"3333133333333333333335>>0v>>:>sAdsssy 58q8113313333333333333r33qvvv6v>>>bsdssss5 988q1113333333333333333330>v55v>>>yssssssv 888e",
"55505q333333333333q95>5q3qv>>>>>-::::::: :555600333333333333eq65>6e38>>>>:;:>>>>:::: 565668333333333333205>48ww5>>>:>>:>::::>>: ",
"94822233333333333332ee3333ee5:>55>:::::: 5555811333333333333rrqre333eeq>>v55>>>> :- 5566e2e3233332333333ewee333ee8:>555>::::>:>5",
"33333333332qooo632<Oo0333aga8>q33q5q9 08823333333333336oo<e36oooe33rggr55e33008v 88q22333333333324Oo4334oOx333pgf3>0erw56q 088e3",
"3333333333x$zz@$5O&zz*63flFlivq33333333paau333333333wo&z=$Oc%Onz+qpgFFktve3333331upppu3333rr3336.=z&#>x$zm=n3plFFab6333333333apa",
"333xooxq<O$VllZz$&ZFFDMylFFFFde3333uakglFFg33qoOo66O&$AFDB=#zDFlZbiFFlFlye333upggkFFFa336+oxexo$+hFSV$#VDFhB7glllljq33333aggkFFl",
"5qx$z&#$&z#VlFFlZZFllFllFlFFFla33ujlFFlFlaw6qO&z#$$++$ZFFFDBhFlFljlllFFFku33plllFFFka086.==#$#z&+hFFlDBlFFFFjlFlFlFgp33gFllFFlgp",
"$O#mFZ&*ZlZzhFFFFFFFlllllFjFlFFa33paapapp3O&O$ZFV$zhhBVFFFFllFlllFFFljFlFluu3apaappuq.O&=hDz%VlSmZFFFFFlllllFlFllFlFg3uuaaapaa35",
"BhzSFljjFFFllldddFlku3uFFdvClllllg33131ut5*ZZmlFlhjFlllFkAAkFlap3allCvdFllllp33333pto+hVBFFjklFFllFhAslFlu3pgljbbkFlllgu31333p6O",
"FFFaakFFgppkjy;:xiaa132ptv>>llllpp333uglhZSFllaplFlgiahhb:>bpg3333yN>:Nlllgpp333pgFSZhFFkpalllapfjdv>>tag332eyv>;slllguu33uaklZZ",
"Fja33ullpq>>v;>:>e333q  >:>>q3333333gkgglFFlgp33aFg30>v>>:>5eur36 >:>>ve3u33333glgkFFFlgu33glae5>>>>>:0333e5>>>:>0rp33333ukkgllF",
"au3333pgr5>;>>:: 558q>::58>;>q3333ugkg33glgp3333uaae>>;>>->559e0>::00>>4e3333aglu3ugjgp333uugp0:;>>>>>558e5:>>q4>>623333gkk33pjl",
"3333q08q>>>55:::>>:>>>>>e3e85583333uu333333333e88q0>>59>:>>:>>>>>>533q555e33333p333333333q8885>>55>;>>;>>>::>833q550e333u333333u",
"3332q0 ::>q32 4q0>>->00>ee3r333333335633333333e80>>:>e3q>085>>;>84533333333333q5033333333q85>>:9339>88>>::58>03333333333e85e3333",
"3333pu23663338e33e650338833333e8q325::533333333a338983328333q55q329e33333qqw3q>;:83333333ppee05q33eq33e05623q9333333q8336>;>e333",
"333algp3pggp33333reeer3333333e5- 54:::5233333pglf33fggp33333reee33333333q>-55>>>>833333epllp3pgga333333e3w3333333339::55>>>>ew33",
"qrlllllllFksy2e888>>vqeqq823e5:>:::>>:> 588qallllllFlhAq3q8q9>>9q388q33q :>::>>>>> 0q8wgFFllllFFdse388q5>>82e88e330::::>>::>>v88",
"0iagFFFFlhb>>5 >>:>>>>5>;>55>->>>:::>>>>>>4qpallllFjdv>>5>::>>>: 5>: 55>::::>:::>::>>5qaalFFFljC>>>5:>:>>>>45:> 54::>:>;>>>::: >",
"3ppallFgw60eq55 >>:>>>:>>:X$#O55555;OO:>0e33paglllaq9qw095>>>>>>:: :,X#$<55555O<-: 823uaakFllp85ee55 >>>>::>:>>,##X 6555>,O-:5ee",
"klFFlFlp3333005>:>>:>>:O%,###%Ooo00*&$X,23pglFllllp3ree955>:>:->>-XXX###%oooqx$$#X433allFFlFa333wq05v>::>>>:,XO.###Oooxe+%$$O833",
"ggglFFg3333320 :>>>:>>O##=mz##&nz&*AjM#$7akgggFFFa33333q5>>;>:::-X##nn=##=zz%zhh+#OtgggggFFlp3333wq5:->::::,$@&zz*@#zz+$VhZ&@<pg",
"333pkFkagp2333288 :::,#&BDFlV$AFFSSFljZZSau333alFgpgr3333e88>::;X#+ZlFh=zDFFZhlFhZZha333uglFaaa3333e8q9-::,.#VSFFZ$VlFhZlFFSZZka",
"pr33uallggp3333338btbz*AFFFFSZFllFFFFlFFFapp333ugFlga33333336N7c+zhFllFBhFFFFFlFFFlluap333pllkgp333333qb77m*VlFFFlBllFFFFlFFFFgu",
"Fg33uupp33p333333akallSFFFllFFFllFlllFlFlkFla33u3pp3pp333333ggaFDhFFllllFlllFFllFFllkllu333par3p333332plakFdllFllFFFlllllllFFFkl",
"Fl3akgp333re33333a33pgglFgp3gFkppkkppllllFlFg3ala33333333333a33aggFlappllapaggpalFllFFFa3ggp3333333333up33gggFlpraFjargla3gFFFlF",
"FFglFFggaggfp3333333333pka33pa3333p32gFFlllllgFFFgagaggp3333333333al333gar33rp33lFllllFklFllaggaga3333333333ugg33ugu333p33aFFlll",
"ggggggrpqqqqr333333333333333pp3333333aggappgggggauwqqtw3333333333333333a33333333gggp3agggggpuwtqqq3333333333333333a3333333ugggu3",
"33333eqv>;>>0859233ufg33333333233333333333333333e0v:>:>8950333pga3333333ee33333333333333333e6>>>>5895q333ajp33333332333333333333",
"3333e5>:::::>>:>6aalFFjpae8225>6333333333333333q :::::>>:;:taklFFfapq82q> 83333333333333330 :::>>>>>>vpallllaartq30>5e3333333333",
"3330 ->0qq0:;>>:xNsjFFjjdv>5 00>6333q5033323325>:>8qq4>:>::bNfFFljjC>>5585>q33305q332332q5::58q8>>>>>>bMhlFjkhb>>558>5ee3e95e33e",
"q30559033335 q105558aa766q8503305e3q>:>08552e5546q333e>5ee6555tgi006e0583350e30>::08 61q5565w3338>0e89996agt060e05e3q583e5->580>",
" 9833333331qq33qewqw3323360332956335:>>>;::55e333333338e33qwee33qree9q33q55q3e>>> ::: 6633333333eqeeeqqqw33ew3q9w3e059e38->>>;->",
"3e2336657366r3aN+$$xq+$;>>>6 >>:>09:>qw055022333666qe663picO$&67%%x>;>0>>:>>85: 23555q1133q466386q3pym%$Oqx#O4>:55>>>;58>>0rq955",
"333w6O&$%o&$xalFDB&#&$BzO>>>>>:>>>>:5333333333ex$&#OO$.tgFFSc#.%zB*<v>>>>:>>>>>q333333333q+$$#O&#OplFlZ+@O#VV.:>:>>>>>>>>vee3333",
"306+zZjDmzDVBlFFFFZ&&AFjmAdv5e6q30>>88q8q33364+mDjZzBhzAFlFFlV#=hFZmhC:8q9ee5:588qq113q6;+VjjBzZZzjFFFFjz#VllVVlb>q08eq>>9q88q33",
"y+BZlFFjFFFFFFFCNdFSVkagFlFSi33333>:>>v>56ybzBSFFljFFFFFFjy7jFVZlallFldi33338:->>>x56izVZjFFjlFFFFFFdNCFhmjgaFFFksp33335-:>v>>00",
"gdaklh7x6dlhssy>>>AAfp33gggllk3338vNNdljjjjfaglldN>NdldsSb::bAda33pgggFla3335bNNhljlhgfgklks4vsjldds>>>Csda33agglFkp3re5bNskjjjj",
"3333aw80>vN>:>:>>::>59eere3ipr333qeppapaapu3333p886x57>;:>>:>:>9023332ipe333qrappapaa3333up885:6b::->:>;>55q2333eipe3eeqpapaapap",
"ap333333eeq55>>:>>:>:>>5q8>>>ve33333333333pap33333332055>>>:>>::>>589>>>03333333w333rpp3313333ee954:>>>::::>>085>>>q3333e333333u",
"FFau3333eeq59>>985>>>:>>>>>yd6e33333333r3alFlp3333e22055>>88>>>:>>> >vss6333333333p3kFFkuu3132eq555:589:>>>:> >>bdCq3333r33333ak",
"ggllk330509555033e>>>90rprilFkpr333333pglFlgklla336605555q338>>59qrp3aFFj33333333aglFlglllp329005559e335->552ppwllla3333333rfllF",
"33allk33333333333eq8q3pkFkkljlgpu3333333pgp3ukllp33333333e332882rfklgljjFa333333333agu3pllgp33333333333q8q3uglFglkllu33333333uag",
"333333333333333333e33qsdSsAbvClllapar8q3333333u33333333333333333wAsAssvcdlllapaq83333333u333333333333333e3eyssdsC>bjllgappq8e333",
"311133333333333333req>>>09:>>>btN77Nb: 55522w1123333333333333e20>>98>:::vN6N777v: 550222qe23333333333333wev>>99>>::bNNNNNN>>599q",
" : 65q3333333r3r33e055033365::::::::::>>>>>>:56013333333333338659qerq9v::: :::::::;>>>>>05q33331333133330656e3305>>> --::::::>;>",
"88q333333333wqwe33eeq33333u30:5q85> >:>>>08qqq333333333ww1333ewwrr333ue5>088 :>::>>4888q33333333321qw33weww3333p3q>>0q9:  :>>v58",
"3333333333e5&$#v37%#$x333klaq>q33202q6ewe3333333333338o$$.03;$#%8e3pklp55233qq2063133333333313336O$$OqqO$$Oq33alke>q3330q25q2233",
"33321q33qqO&BB=$o%=ZBz43kFllg6033333333agga3331qq3316$zZm$$O$VZB+8plFFkdcq3333333pakgp333eqe11q4$VZz$&O&BZmoealFFlC52333233upggg",
"33qO$$o5.$@BFFDB*+hFFlZslFFFFjw333pakllFlFa330.$$o4$$$hFFDz&VlFFDBflFlFFa233raalllFFlp33;$$.4o$@zFFlZz*ZlFlDNlFFlFlp333ppklllllk",
"o6O&Bz@@zB&zlFFFhhFlFFFFFlFFFlkp33llllllgp6o6&zB&@$VV$MlFFFDlllFFFFFFFlFlg33pllllllap4>x#VV@@&Bz&AFFllSFlFFFFllFFFlla33gllllllar",
"&z#BFjzmhFjBDFFFFlllgggFlldhFFFgau3u33ru32.++$hFZzMllhBFFFFFlllgglFFjdlFllapu33333u36$n&zFFBzZFlZZFFFFFFllggFFFddllFkap33u33pr3;",
"SlZhlFFFlllFFkCbZllg33ugly:bllFllg33333aszzhhZjlFFlllFFFdN7dllp33pkkb>CFFFlla3333ug7OVlSZllFFFllFFFy77jlkr33aldvvhFFllgp3333pgx+",
"FFlp3aFFf3qssb::;qpp33q8x;:>fgkgrp333alllhjFFgp3lllp3qss>>>>ra33e88v>:6gggau333palFjjllFgrpllgpqtfy>;;6pa33qq5>>>ygggar333pklljh",
"lgu33ullr8>>>>>>>qe330-:>>>>8e33333uklaplFFla333plg34::-:>>9ee3ev:>>>>>833333ralkaaFFlkp333alaq>:::>:>82w3q:-->>:5233333uaFaagFF",
"3333313aq>>>>>:>>>>09>>>0e0>:9q333pagp33pga333333ui8>;>>>>>>>v85>>>qq5: 8ee33pgg333akp3333eppr5>>:::>>>>5q>::4e8 >58333raka333gg",
"33330555>>vq9>>>>>>>:>>>e33q88q333333e33333333e5654:>085>>>>>>>>>:533eq88e3333322333333338050>>>q6v:>>>>>>>::q332888333333233333",
"33333q55>>q3350eq5>: 8q 83333333333q>>q333333322q5>-533e qe0 -:5e8ve3333333w330>5e33333333e09>:83304ee5>::0e59333333333ee5463333",
"331ugu13qqrr3q3333q8q33qq33333q50eq>>:93333332pg33eqq33eq333eq8e3eqe3333385e20:>:q3333333aa33qqe3323333eq833e833333259ee5>>>w333",
"33pgFkapgllap33333q8q33333333q>>>>>:>>48e333palFgaagllau3333eq8e333e33336>;>>>::>58e333pgllgaaklga33333e8q3333333325>;>>:>:>8q33",
"6iFFFFFFFFdC0qq595>: 0385533q>>>>>>>>>:: 556gFllFlFFFsN030594--583650330>>:>>>>:>:> 95qllFlllFFjCt83055>:>5qe55q3e5>>>>:>::::>55"
};
