/* XPM */
static char *result[] = {
/* columns rows colors chars-per-pixel */
"128 128 75 1 ",
"  c #9BB94E",
". c #84AE5C",
"X c #9FB94F",
"o c #BCBA5A",
"O c #7CAA61",
"+ c #8FB355",
"@ c #78A863",
"# c #BFBA5B",
"$ c #79A863",
"% c #9CB94E",
"& c #99B84F",
"* c #8AB059",
"= c #97B750",
"- c #876452",
"; c #B48355",
": c #A6B952",
"> c #B5BA57",
", c #A9B953",
"< c #94B553",
"1 c #AEBA55",
"2 c #B2BA56",
"3 c #81AC5E",
"4 c #6D9671",
"5 c #B9B95A",
"6 c #679174",
"7 c #B6B65D",
"8 c #A5B25F",
"9 c #81A962",
"0 c #A2B951",
"q c #749E68",
"w c #728845",
"e c #ACB45E",
"r c #A47853",
"t c #839E6D",
"y c #78594E",
"u c #90AE60",
"i c #463C3C",
"p c #9A7153",
"a c #88894C",
"s c #393239",
"d c #89AB5D",
"f c #9FAB64",
"g c #544540",
"h c #AD8055",
"j c #C1BB5B",
"k c #5F4C44",
"l c #6A5449",
"z c #99B15E",
"x c #242732",
"c c #191E2F",
"v c #92A568",
"b c #B78858",
"n c #68804B",
"m c #76996F",
"M c #80604F",
"N c #C1BB5A",
"B c #2E2E36",
"V c #CCA769",
"C c #5C7A53",
"Z c #C19761",
"A c #8F6B51",
"S c #7C5F47",
"D c #715948",
"F c #323F37",
"G c #7CA165",
"H c #92A64D",
"J c #DAB46F",
"K c #414E3C",
"L c #506D58",
"P c #7B934A",
"I c #C2BB5A",
"U c #57623F",
"Y c #937D57",
"T c #889C4A",
"R c #A9A954",
/* pixels */
"   ,####183.3$$$$$$$$$$$$$@qq@$$$$$$$$$$O.+  %>###oeu3.O$$$$$$$$$$$$$qqq@$$$$$$$$$$3.<  05###>8d..$$$$$$$$$$$$$@qqq$$$$$$$$$$$..",
"X,22###1=+< <**3$$$$$$$@@@4664d**++q44@$+ %X22>###:<+= +**O$$$$$$$@@q666q***+*44q@3= %:22o##5X++ =**.$$$$$$$$@@q6669***+944q@*  ",
"o#####o0 %%&*3O$$$$$$$@464666644499mt46q=%1o#####>% %%<*OO$$$$$$$q6646666444dqtt669 X>######, %% +.OO$$$$$$$q644666644qdmtm64+%0",
",,:>##>%X%   <*OO$$$$@464vff46tfftt7N8m4u2>,:,o##, X    +.OO$$$$@66mffv66vffmv##v4m8>1::1##oX%%   =+OOO$$$$q66tfft64ffv48N7t4G1>",
"   X2o#251%  % =&.@$@q6t7#NIft7NN55###775,%   :>#o25:   %&=<O@$q46v7jN#tv#Nj7o##o7750    ,>#>>>X    &&+@$@q448oNI7m8NNo7###5772X",
"2:   :55,,:      <888ft7j##j77###########,22X   1o>:,0      z888vv#####eo##########o,21%  X>o1:,%     =888ft8j###oe##########j2,",
"#5X%:X%X  %      210>#o###>>###>>##>>####o##2 X:%X% %%     X>::o####o2>j##>o##>o####o##: 00%X  %      :>01No###>2oj#o>##o>######",
"#o01#51XXXXXX    0% X,,>#1  1o,XX,2XX>######>X>#>:XXXXX%   %0  0,,o#: X>>:%011 :o######,0oo20XXXXX    XX %::1#5X :o10%:2: 1#####",
"##o###211111,          X20  :,    %  2##o2>##o##o2111110          :2%  10   %% Xo##>2o#oo##>111111%          1,  X2    %  :###>2",
":,,,,: =....=&=&    XX      XX%      0,,0 X,,,,,0&+...* &=&   %X%      0%%     %:,,X 0,,,:,X&*...< ==    %X%     %0%%     X,,:% ",
"     <*O@@@@..OO< X,55:      <+=               &+.$@@@$*OO.= 01o>X      ++                =+O$@@@O*OO* %:>o1      =+<           ",
"  %&+O@OOOO$$@@@d1>j##o>2+.<+3$3=    =&  %%   &*$$OOO$$$@@@z15j##5>1..=*O$*    &=   %  % =3@$OOO$$@@@O,1####>>z.*=.OO<%   &&   %",
"  +3$@O+&&+O@3.O$9ueooe8z33$3+<O3=  *O.=%<<%=+O$@3==&*$$..$O9ze#788u.OO.=*$*  =.O*  +=%<*O@$*&==3@O.3$9987#e88..$O*=3O+  <OO<%=+",
"*=++++<   %.3=%<++++::<++<=+<%&++=%*$@@3.OO+<++++=   &3*  ++++<,0+++=<+= =++ &.@@$..$3=+++++   %+O<%=++++0,=++<=++ &<*<%<O@@O.3$",
".*+%%%%    &&  +ddd< +d<<..=++OO.==3@3.O@@O.*<%%%%    &  &ddd*&&d*=+O*=+*OO* +$$..$@@3** %%%%    &  <ddd+%<d+<*O<<+.OO< *@O.3@@$",
"   % 9qq9<GG<X28v46qd44m@@@3$@$@@33@3=%<++<   %<Gqq**q9&:2ft669964q@@$3@@$@$.O@*  +++=   %*qqG<9q*%1efm64dq6mG@@OO@$$@O.$$+%=+++",
"   +Gmtt64t4G>#j#7t66t7v49d@O.$3.O@$*% %%%%  &dqttm6mt6uo#No8466v7tqu9@33$..$@O<% %%%  %<dmtt46mm4,#jj7v66488mGu$$.OO.3@$.& %%%%",
"&9Gmf7N#ffoee##o5#7tm7oof75u* +=%+O$....*=&<GGtfoI7feof7##55j84voo7foe9+=+  *@O....+= *GGvejIef77fo##5o#v48##ee#z3&<<%=3@3....<=",
"8ve7jj787I#jj#7uOz#7f>X1N##o>:%  &O@@duuuu8fv7oN#e85N#Nj#e99eI8e1X>j##510% %+@@$uuuuzevf7#joee###I##zOu5#f7::oj##5,X  %.@@9uuuuz",
",,,,58dO9u78uud@$$uu0% %:,,>o1%  +d887oooo>,,:15z3$d87zuu9@@9uz0& X,,,oo:  &.z885oooo1,,,>euOOueeuuu$$@du00 %0,,1o>X  <.88eooooo",
"    X&==..d$@@@$$$@@OO++&&++++&  &&XXXXXXX%   %X==+..3@@@@$$@@$O.+< =+++<   =%XXXXXXX    %%==*.dO@@@$$$@@$O*+= <+++=  &=XXXXXXXX",
"22X    %%%=**3@OO$$$$$@$..$O9O=          X221     %%%+**O$OO$$$$$@O.3@OO.           :22:     %% +*.$$OO$$$$$@3.O$9O+%          ,",
"##>,0  <++*OO$O+&*$$$@O...de58&       X,:>###1:X &+++.OO$3==3$$$$3...u77z        0,,o##o,:% =+++OOO$*&+O$$$$....z5e<       %::1#",
":,ojo: <++++++<  &3O.+<02:,jj#,       X,5#>:1##>X&+++++++= %+OO*+&:2X>Ijo0       01o#1:>##1%=+++++++  %*OO++%110ojj>%      %:>#o",
"  :221% %%%%%%%   &=&%1o###e855,,X      X,X  122, %%%%%%%   &== X>##ooee#2::%     %0,% X2220 %%%%%%%   &=& :o##o78e#,,0      %::",
"%%%                % *uuuuu9@u755211z.*==& %%%               %%=*uuuuu$$z555111+.+&=&%%%                %%+uuuuud@9e55>11,*.=== ",
"+++++=            =+*$O.<*@@$$999999O@$OOO++++++&            <+3@3*<3@$$$999999$@OOO.+++++<            &++O@3++O@$@O999999@$OOO*",
"OO3++=      %%%   &+++<   ++O$$OO$@@@$@@@OOOO*++&      %%%  %<+++=% =+*$@$OO$@@$$@@@OOOO++<      %%%%   ++++   <+3$$OO$@@@$@@@$O",
"==&%%      &ddd<%&*dd<%  0,X+$*&&*O.3$...+&== %%     %<ddd&%<dd*&  %::%.O+&=33.OO...===& %%     %+dd+%%+dd+%  X,0=O3=&+O..$3..*&",
"   %%%% %%*q446q<9644q< :o#><O<  &<%=+&%XX%   %%%  % 9m4669<q6449&%1##1*3   == << XXX%   %%% %%<G4464**4444*%X>#o09*%  <& +=%XXX",
"   +dd+&dd4t77t446v77v9<5###oz+    %:,:>oo2  &ddd<<dG6v78t644877vd:####7u<    X,,,5oo: %<ddd&+dq487vm66t778t+2####e*&    0,:1ooo",
"<&*4464q646fj##evv###j7e#####o0% %2>#####5:=&9646mm6647##oft8j###e>#####>X  025#####>%=<q666q446to#j7ft7j##oeo#####,%  ,>o####o1",
"4G4t7v66v7tt7##N#o############o: %2222221%94G6v7t6488tv###Io#############5X 0>22222:<qqq48846t7vmfN###o#####j#######2  ,>222220+",
"tfmfIoffo#jeo#55o##o,:1#j5ue###>2:     % +4vvm7j7fe#joe##55###>::>#jeu7###>2X     X&94fttj#ef7jj77#o55###1:,oj#zzo##o21%     %<q",
"oj7>2ojjo22oje9Ou15,  %,eu@95###>1%  %:>etv##72>#Nj>2>N#z99z25X  X189@z###o2,   X,5ft8No72>jN#>25j7uO98>2   :ez$$ej##520   015vt",
"##>X :##:=.uu9@$$+0X =..$@$O0,,:%   :>oo#Nj#o1  1j>X+.uu$$@O&0%%<.3@@@d:,,0    ,>oo####5: X5#1 *dud@$@*%0  *.O@$@z,,,X   X25o###",
"2:%  %25X.@@@@$$3++==3@@O.$@3=    X,o>XX>#o2X%  0>2&O@@@$$$.++ <O@@33$$*     01#1X:o#>,X   ,5,+$@@@$$O*+< *$@$.O@O+    %:>o:X1##",
"    ===X*O$OO$$@@$$33@@O+ +.O.+   X,,X  X,0   &==&<.$OO$$@@$$$.O@@3==+OO.<   0,:%  0,X   &==%+3$OO$$@@$@O.$@$* <*O3*&  %:,0  %:,",
"   &**OO@$*&+OO.3$$@@33O& %&==&    &++        <*.O$@O+&*$3.O@$@$.O.%  &==&    =+<        +*3O$@3==3$..$$$@O.$+%% ===     <+=    ",
"    X ++OO&  *+%=+OO.==.+      =&% *$$*       %X=+*O.  =.=%<*OO* +3<     &= %=3@O<%      %%<+.O+ %+*  +.OO< *.&     && %<O@.&   ",
"   :51% %::X &   %&&&  &&     *O.+*$$@.%      15:  0::% &  % &&   &&    =.O*+3@$@+%     X>>X &0:0 &   %&&&   =     <OO++O$$O&   ",
"=X2o##>2>##2:  ===..*& &=& % *$$$$$$$$O.*&==:>##o22o#51X &=&+..+& &=&%%=3$$$$$$$$3.+&=&15##>2>##>,  &==*..=  == %%<O$$$$$$$$..==",
"*0>o######z99**OOO$@$O+.OO++*$$$$$$$$$$@$O3*1>######7u99+.OOO@@$.+OO.++.@$$$$$$$$@@OO.<2>######e99.+OOO$@$O**OO*++O$$$$$$$$$@@OO",
" %X,o##5:u.+*OO$$$$$$$$$$$q44qOOOOO$@@$$3+< XX2###>zd*+.OO$$$$$$$$$@@q44@OOOOO@@@$$*+=%X05###1z.++3OO$$$$$$$$$$@44qOOOOOO@@$$O++",
":>oo###,&=& +**3$$$$$$$qqq46649dd<<m66q$= X,5oo##oX== =+**O$$$$$$$qqq666mddd=d464q. %01oo###> ==%<**.$$$$$$$@qq4666Gdd*=G664q+%%",
"ooo###>X   &+.$@@$$$$$q6644466644qmvft64<0>ooo###1    =+O$@@$$$$@q66m4466644qmff46G :5ooo##o:    <*O@@@$$$$@464m466644mqtfv66dX1",
"XXX1##>X:X  %&+..O@$$@66t877t6v77vv#I7ttf>,XXX>##1X:%   &*..$$$$q64t77844877t8NN8tte2:XX:o#o:00  % =..3$$$$46mv77v6t778t7I#vtv>2",
"X% %:>#5o2X     %*99Gm6v###Nfv###j####I##:%X  X,o#5o,%     &399G448j###v8j##j###jj#oXX%  01#o550     %+O99q4t7j##7t7j#j####j##2%",
"o1%  X22X0:      0>17ef#####oo###########255:   :21X:0      122788j####o###########o2o>X   ,2:X,%     X21>7f7#####o###########>>",
"#oXX2:%          1:%1oo##o,,o#o11o#11#######2 :2X          X2XX>oo##>:1##5,>#o,>#######: 11X          :1%:5oo##1:>##>,5#>,o#####",
"#o,>##>,,,,,0    %  %XX1#,  ,>X  0,  >######>,o#o1:,,,,X    %  %XX>oX  21X %:: Xo######11##5,,,,,:%   %%  XX:o>  X5:% X,X ,#####",
"ooooo5,,::::0 %%       %:X  ::       2oo>:1ooooo>,:::::X %%       X:%  1X      X5oo1:>ooooo1,:::::%%%        00  X1       :oo5,:",
"XXXXXX=+OOOO+<++   %::%     %%       %XX% %XXXXX%<*OOO3=++<   X,0      %%       XXX% %XXXXX +3OOO*=++=   0,X      %       %XXX  ",
"     *3@@@@$OO@$*X:>##1XX =  *.<%    %        %=.O@@@$$3$@O=X1>#o:XX&&%=..=     %        %+.$@@@$$3$@.X02o#>XX%=&%+.*     %%    ",
"   <*$@3..3$$@$@d8e####o7dO**33O<   =+<       +3@$...O$@$$@u87j###oe9O+..O3=   <+=      =+O@O...$$@$$Oz8####oozO.+3.$*    ++    ",
"& *3OO.=%%=3$*+.OO3z55zzu**O3=&.3<%=3@O+&** <*OOO*  %+$O++OOOd8oeuz.+.O* <O.& <O@3==.+%+.OOO<%  *@3+*OOOueo8uu.+OO< *O+  *$$*&+.",
".++===&%  %+* %&&&&=XX===<<&& +++&%.@$@OO$$*+<&=&    &*+% &&&=&X%===+<& =+*< &O@$$OO@O++===&   %<.=% &&&=%X&==<+=&%<++=%+$$$$OO@",
"++< %=<<=%==  XdGqG* 9q**OO+*.$@O<<O$*+.OO.++=  =<<&&<&%%%9GqG<<GG+.$.+.3$$.=*$O++OOO*++  &<<=%=<& X<Gqq9 *q9*3$**.O@$*=3$3+*OOO",
"%%%%<q44qd44*:55ft64G6tmq@@$$@$$@OO@. %&==&%%%%*444GG4q<1o7vm6qq4t4@@$$@@$$$O$@+%%&== %%%&9444dq49X>5et46G4mmq@@$$@$$$$O$O=% ===",
" =<9qvffmmftto##j#v66v#8muz$3+O*+3$$+&==&%  =+Gmffv4tfmfN#jI7t648#vm8u@**O++O@3<&== % &<*Gtfft4vvm7##jN846t77tt89$+33+*$$.===&%%",
"=qtve#Ij77j55##e87#vto>o7o#zz & %=O$OOOO3+<umtv7jI#7oj7o#oee#7tfo>o7#5z= & %+@$OOOO*+X9ttfoIIo7##7##78eN8m75>55jeu &&% .@OOOOO++",
"ef5o#oeu85#o55e9@u77e1 :5oo#o1%  <O99z8888e88o##5zueo#555z$$z5ee: 1ooo#5,   +O99888887f7o##7uz7##557u@9e5e2XX>oo##20  &.99u88888",
"XXXX2z*3O98uO9O@$$99++  XXX1>:   ++112>>>>1XXX:1*.3$u8999$$$$9d<< %XX022X  &*z112>>>>:XXX1:*.OOzz999$$@O9*+= %XX:>1%  <*,11>>>>>",
"XX      ++*OO$$@@$$$@$..==....&     &     XX%   % =++.OO$$@@$$$@O.*&+...*    %       XX% &   <++OOO$$@@$$$@3.+&*...<%   &      %",
"o5:     %%=**3@3.O$$$$@@OO@du9=          :5o>X     %%+**O$..$$$$$@$O$$uu.           1oo1     %% +*.@O.3$$$$@@$O$9ud+%         X>",
"ooo21% +**.OOO.=%+$@$O3+++<7#e%       012o#oo>2: &***3OOO*  *@@OO*+++8##:%       ,2>#ooo>2X <***OOOO<%=3@$OO++++ej70       %125#",
"XX>##1%&======&  &*.*=X,o12##j2       %02o1X:ojo: =======  %<..+&01o,5###:     %%X:>5:X1##>X&======&   +..=&:>>,###5X      %X155",
"  X,,:%             %&155558ueo>>:XX%=&% 0%  0,,0         %XXXX%05ooo7zz55>20X0nUH%X0  %:,,X              &:5555eu8o>>1XXX&&  XX",
"                    =.99*39$@9888888zO.+++        %%%%%%%%HnwnwnCCCCCq$@uee888HigKnT<%                    *O9..9O@$z8888889O+++=",
"...**<            <*.O3+ +OO$$@@@@$$$$$$$$....**%%HHHUKKKKFccxxxxxxccFKKKFLqqqLcMbDFU...**+            &*.OO+==3O$$@@@@$@@$$$$@3",
"..*==&             =&&&%  &=3@O..O@$$$$$$3...+&<wnBxxccssikA-prrrrp-Akissccxxxcsg-bZgU3.<=&             &=&&   &=*$$..3$$$$$$@O.",
"          &<GqG*%<Gqq*% %12:+$<%%+.+*O+++= %X=wKccxgSSArp;;;rr;;;;rr;;;prASSkccMbADZVgU%        =9qq9  9qq9   :21=O* %=.++O*++< ",
"        % 94tt64dq4ttm*%1##o09+   &% & 0,,0=wKcsi-rAh;MSkArrrMprrpMrrrAkSM;hMxihbV;hhZU       %*4mt46GG6ttm9&:o##1d*   &  & X,,,",
"%%&9qq9<Gq6v#oft648jjevzo####e<   XX222o#jRUcBlpbhrpggskik---iy--yi---kiksggkc-;ZZrkk-K%*qqG<9q4m7Nev46v#N7fu>####7<&  %X122>###",
"d<96t4644t6v##No88j##jo5######,X X5o####oaBckhhArlkMiyM-yy---gy--yg---yy-MysciprbppglsK+4mm646t4m7#j#efo####5######20  2o#####>:",
"6q6v#8mm8oft7##jj###ooo###5####,X%:,,:,,Pxxghb;Ak--yi---yy---lM--MD---yy---scSphrr;lMcxLm77t4v#evfN#jj###ooo###oo###>X%0,,:,::%d",
"f7tej#77##No#oe8e##>XX:o#e9z###oo1    %wxspp-S-yi--Ml---yy---lM-------yy--yBiprrAhbZBlicnI#57o#j#o#e8eo#o:XX>#7uu7###o>X    X:dm",
"###1:>##>::25z$@901:  &Xu9@95oo5,:% %0axsrbrsi-Mk--Ml--------lM-------yy--gc-h;rhpA-cMrsxa1##o,:15e9@$z,1  &%zd@@8ooo1:X  X15off",
"#>,  XooX+OO9$$$O<%% <OO@@$O<XXX   %1RBs-;rixk-Ml--Ml--------lM-------yy-Mxih;;;;gliBp;-sBH>#,=3O9O@$$* % =.O$@$$*XXX%   :5>2ojN",
",X  %%:2%.@@@$$$O..<<O$$.+O$O+&   025Dsrp-igkk-MD--Ml--------lM---M---yy-gcMb;;bAiMcii-prsUX1:+@@@$$$$..*=3$$O+.$$*=   %15>X :5o",
"   &++++O$O.3$$$@@@OO@$O=%&*..+   %0wclbpsg-yy-----Ml---MM---lM-------yyyBih;;h;kMssMkspblcn<.O$..$$$$@@$O$$$+%&+..*&   XX%   XX",
"   &++OO@$+%=33+*O$@$**O=      %% %<Kxr;Dxi-yy-----Ml---yy---lM-------yygc-;;pppghxk-ixD;rxF@$@*  *O++O$@@3+O+      %%   *.<    ",
"   %:X&=.*&  +=% =..*  *+     =+<%=Gxkppsii-yy-----Ml---yy---lM--MM---ylxih;hAhgklxy-iisppkxH*.<  <+% &*..=%+*&     ++  *$@O&   ",
"% X1#>XX:22:X  %%%&&&% %%%   =3@O.3qirhkBgi-yy--M--Ml---kl---gM--Ml---lBcMb;rphgSsgy-igBkhriT0221X% %%%&&&%  %%    *$$..$$$O<& %",
"+0o###oooj58z==+++OO.+ <++ %=3@$$@$KspScBgi-yy-MD--yi---kk---ilyylg---kcir;;rhMglsDy-igBcSpsU###88< +++.OO+==++=% *$$$@@$$$$OO++",
"+X:>####o7uO$33@$$$$$$.O@$.39@@@@@@KsppsBgi-yy-Ml--yi--MgBlDlBssssslDlBcSA;hphiYBkyy-igBsppsK#5zOOO.$$$$$$$33$$3.3$$@@@@$$$$$$OO",
" 0:,o##>=**&+..O$$$$$$@$$$q66q.....Kibbixii-yy-Mk--yiyykggpAMyyyyyyM--xirbZ;;hAYi-yy-iixibbiK:**==..3$$$$$$@$$$q6649....9qq@$.==",
"2o#####:   &*..O$$$$$$@q4q6666qqq**Fib;gcsi-yy-yi--gxsD-kgggk----MgigicShVb;;bJkk-yy-iscg;biK    +..3$$$$$$$q4q4666mqq9<q464q+ %",
"222o##>%    =*3@$$$$$$q66mtt664ttm6FsppysBBykk-yskggyy--yyyyM-----yylxirDVbhpVYxM-kkDsBsyppsFT&  &+.$$$$$$$q664tt466ttm4v7846G:>",
"   :5#o:2:   %=++3@@@q64f7j#v48jjfaicsprkcBykklsxil-----ArrrrrrrrrrrlcMDYb;plVgcslkgkBckrpscFa:%    ++*@@@@46ve#j84v#N7fo##eff>:",
",X  X1#o>20    %%+uuutm8N##je8j#jRaicir;MxBkgsBiy----Arh;;;;;;;;;;;hBxDiprbg-VBkiBsikBxM;ricFTR,%   %%<uuutmv#j##5fo###N###jNI20",
"#>% X%::%%0      1>,ooe###oo###ooHaicxp;;-xigcsp-yyyArbZZDgMpApZZZZbkcBli-piV-BD-iciix-;;pxcFH&0%     05,>jeo##oo####o###o####o5",
"#oX:510          ,X :2>o#>XX>#>:HaaFssgbhpscBBiiiiiilppplgMAppppkkkkkDixBSgYVilM-MMkcsphbgssFwwH%     0: X22>#o:X1#>,X251X>#####",
"##>o##511111,          :5:  ,1 %HwwFsgx-pklgck----rrh;;;;;;;;;;;;;;;;;;AgccYki----lcglkp-xgsFaaT11%         X>2  X>X   0% ,###oo",
"2222220X<<<<%           X%  00  &PwFslBxDZVVgxl--A;;;;;;;;;;;;;;;;;;;;rrpyyA-AA--lxgVVZDxBlsFwnwH&%          %%  X,       0222XX",
"     &+.$@@$**..= %X22X   %  &&H=PwFsDkcBrVJZsxiyr;;;;;;;;;;;;;;;;;;;;rrrrrh;bryixsZJVrBckDsFCCCn.+..+  X12:   %%  =&           ",
"   %=.$@$$$$$$@@*,1o##>,,<+==3OPwwwFsDkcxkVJhlABBS;;;;;;;;;;;;;;;;;;;;;;;;;;;;SBBAlhJVkxckDsFCCC@$$@@9:,5##o,,X+< *O.=          ",
"% =*3@$*++*$$OO$9uz5##55e9$33**nnwwFsyliMiglZJJhBckrkgggggggkkk-pAkkAlgggggkrkcBhJJZlgiMilysFnnnq$$OO$uz7o#o57uOO..+O3=  =..=% =",
"<&*...* %% .O+&*...+11+**+<.*  PnwwFsyDkppckVJJJbBcl-MyyyM--rrrrhhp-AA---MyykcBbJJJVkcppkDysFwwww$*&+...*:>z***=..=%<.+ =3@@3+*O",
"3*+  %%%% %<<  =<=<& =<&&** &=3nnwwFs--lpriiDbV-ixck;hrrrh;;;;;;;;;;;;;;;hrrkcxi-VbDiirpl--sFwwww*  =<<<= &<= +.=&&*.*=%+@$OO@@@",
"==& %+dd+&d*&%:ut449<q4GO$$*OOqCCnnFsAAyprkr-ixsSbxSb;;;;;;;;;;;;;;;;;;;;;;bSxbSsxsDrkrpyAAsFnwnnH%0zt44q<94q3$@..O$@@3+O$*&+...",
" %%&*4444q4691##7f4644ft4OO@$OqCCCCFsAAyprghpMihZVx-VVbbVVVbb;hh;;bbbbbbVVbbAxVZhiiphgrpyAAsBLCL6q0o#oft646vv4@9@$O$$OO@$3&%%%  ",
" +dqt877tt7vv###jI8448I7t8e9.=.PwnCFs---prDhprDJZVxlYZbZYYYYArAArrSS-YYYYZ;bDxVZJkiphDrp---sFnCavt7###I7t6v##vv7uO<**&+O$.++++  ",
"8mffoj#5oj#jjj#8ueI8vo,>j#je8X%HwwCFs-yyphphprlJZVxilr;hSSSS-rrrrrSSSSSSSrhAixVZJlSphphpyy-sFaaaH#jjeu8#7t711#jj58X%  %.@@$999**",
"1e>>#ezOueoe88z$@9881: X222o#2HPwnCFs-yyp;rhprlJZVxSb;;;bbb;b;;;;;bbbbbbb;;;SxVZJlrphr;pyy-sFCwaaHe89@$z8e,%%1225j50  =3uu855555",
"   %:<++OOu9@@@$$$@$..=&  &0:=wwwnwFs-yypZ;hprDJZVxSb;;;;;b;;;;;;;;;;;;;;;;;SxVZJDrph;Zpyy-sFnCnCq@@$$$@@3.+& %&%:0&  =+:,:,,,,:",
",:%   %%&&+..O$$$$$$@$OO++OOO$wwwwwFs-llpZrhphrJVVxSb;bZZpSprrhbZZZZb;;;;;bZ-xVVJrhphrZpll-sFwwwnnO$$$$$$@@OO*+.OOO+%  %       0",
"##1X%  &==+..O$*+3$$$@$OOOOz8dwwwwwFs-kkpbp;hhrVJVxiDprrDigM--ArDllDlkkgDprhgxVJVrhh;pbpkk-sFwwnnnO@3+*$$$@@OOOOu8z+%       XX:o",
"2>oo>X +**....* %=O@O.*&0&0#j5TwwwwKclkkphp;;hpVJVxDhhhhrr;;h;hhrrrrprrrrhhhDxVJVph;;phpkklcKnnnCw..=% .@$..=00&5j#1%      %15##",
"  1oo2%          &++<%:>#55o5jRTTwwnxsgkprD;;;yhJVxS;hh;;;;;;;;;;;;;;;;;;;;;SxVJhy;;;DrpggsxnwwwwH%    <++ 02oo>o5oo0X%   %% 011",
"  %XXX            %%%<88888uOzooRawwUcci--g;;;lYJVxlppph;;;;;;;;;;;;;;;;;;hplxVJYl;;;g-MxccUwwwwP&     %%%=z8888zOu7oo>,,:++  %%",
"=====&            &=+O$O+3@@@$uuPnnnCBcxglg;;hiYJVxDbbbbb;;;;;;;;;;;;;;;;;bbDxVJYS;;;gyMxcFnwwPHH       ==3@O**$@@@duuuuuu$$...+",
"OO3**<            <**.*&%=..$$@@CCCCCLKLxcsrrpxYVVxxDAbJVb;;;bZZZZZ;;;bZZpSDxxVVYShrbglgcFnwwwPH&      &**..=  *.O$@@@@@@@$$@@@$",
"++<        %=<<&  =<<&%  %X *$.+PCCCCCCCcKxSrpBYVJkBscslkgiiiikkkkgiiigklscsBkVVYS-ilixcUnwwwwwT =<<=  =<<&%  %X%+OO++*$OO$OOO.+",
"%%%      %<d4449 *4449& X>o1+O=%HwnwnnwnUwUSrrDAbAkBigyyksssssBccsssssskyygiBkZhlDBBBxFBnwwwwwwH*q44q<<q44q<%%1o>%O+%% +==.+&=& ",
"   =<<=%=<q4ffm6q4tfft9&>###2u+%HwwwwwwwaaUiAhSlicBUKsigMMyMCgiUKlyyyyMMgisKKxiBcBswwKnnwwwwwwwq4vft6mm4ffvG<,###5z.&    %XX:222",
" %<q44qd446fIj7vmt7NNo8z#####5& &=0TaaaaaawKsDgcBLKLLLnaaUKLnwUaaUKgKiUawnnwwnFFUxUaawwwCLLLnCC6t#No8tm8NN#ez>#####0   0,>ooo##5",
"qdq4ft66tfmt5##j77#####N######>0 XRaaaaaawnCKBxKLLLCnLnaaaaaaaaaaaaaaaaaaawwwaUUanaawCCCLnnLL6ftmej##oe####j#######5,  2ooooo5,%",
"4t6fI7tt7j7f7#######>2>##oe7###2:0HwwwwwwwLCCLwaaCnaaanaaaaaR7TaaaaaaaaaaR:HTPwPPwwwnLCLCaanCfIo8ej###j##>2>###ee###>,0%XXXXXX G",
"eof7o#Ij#ooNj5zu8oo1  X>5z$uo###o2=PwwwawCCaawaaaaaaH7RRHGPa5o0PwPaanndR7j#o,&H==PanCnawaaRRH7oo#j#8uz7o>X %1oe99ej###50   %:19m",
"j#o:X1##1%<88u@@$<:0  ++9$@O1222XX%&&0aaaaaaaawwTHHH=<889@@O&,X&<*d$@@u>221XX %017HaaaaaaH:o#>X<z8z$@@*0,  <+.O@@z>22:X% %:>##77",
"o10  X5oX*$@@$$$3<&  *$@$O$$*     %0>RPTRHaaPwwT:#2 .@@@$$$.=&%&3$$OO@O+%    %:o>,,aaaaTH= 2#,<O@@@$$$+=&%<O@@O$@3=%    X1#1:>##",
"X%    X,<3@$$$$$$OO**$$$*=.O$*<   0120=&:,aH==TH%0:+O$$$$$$OOO+3@$O<<.$O+=   ,22X %HTPw<%  %:&.@$$$$$$OO.+O@$3=*3@3+&  %121  X22",
"   &**..$$3+*$$OO@$$@OOO&  <++<     &&  %&<   <*..3$$*+.$OO$@$$$O$.%  +++=     =&  %%<H  +*..O@O++O$OO@$$$$O$+%%=+++&    &=     ",
"    =<..$O=% .*&+.$@O<<3+  %%%%    <OO<   %   &=+.3@. %=3+&*3$@3=*3=  %%%%    *O.=   %%  &=*.O@+%%+3==.O@$*=3*   %%%    =.O*    ",
"   X2: &+<%% <&   ++<  <<    %<.*&+O$@.%%     :2X =+<X &<  %=++=% +=     *.+&*$$@+%      11% <+&% ==   <++ %=+&    =..==3$$O&%  ",
" %:>#o,:1oo10     ++<  %%    <O@$OO$$@3+<   X,o#>:,>o5,X    =++=  %     *$@OO$$$$*+=   01##1:,oo>:%    <++   %    =3@$OO$$$O++  ",
".:########7uu<<...$@O*&+.*&%<O$$$$$$$$$@O..*2########8u*&+..3$$3+&*.+  *$$$$$$$$$$$3..zo#######ozu+&*..O@$.<<..<%&.$$$$$$$$$$$.."
};
